<svg id="Capa_1" data-name="Capa 1" xmlns="http://www.w3.org/2000/svg" width="260" height="260" viewBox="0 0 260 260"><defs><style>.cls-1{fill:#d13927;}</style></defs><title>bk-call</title><path class="cls-1" d="M315.86,254a15.24,15.24,0,0,0-15.23,15.23v55a15.25,15.25,0,0,0,12.42,15l29.56,5.55a5.08,5.08,0,0,1,4.14,5v7.06a5.08,5.08,0,0,0,10.16,0v-7.06a15.25,15.25,0,0,0-12.43-15l-29.56-5.55a5.09,5.09,0,0,1-4.14-5v-55a5.08,5.08,0,0,1,5.08-5.07,64.05,64.05,0,0,1,16.25,2.09v46.63a5.08,5.08,0,0,0,10.16,0v-43a64.08,64.08,0,0,1,37.57,58.28V439.86a64.08,64.08,0,0,1-37.57,58.28V461.09a5.08,5.08,0,0,0-10.16,0v40.66a64.05,64.05,0,0,1-16.25,2.09,5.08,5.08,0,0,1-5.08-5.07v-55a5.08,5.08,0,0,1,4.14-5l29.57-5.56a15.25,15.25,0,0,0,12.42-15v-9.52a5.08,5.08,0,0,0-10.16,0v9.52a5.08,5.08,0,0,1-4.14,5l-29.56,5.55a15.25,15.25,0,0,0-12.42,15v55A15.24,15.24,0,0,0,315.86,514,74.23,74.23,0,0,0,390,439.86V328.14A74.23,74.23,0,0,0,315.86,254Z" transform="translate(-130 -254)"/><path class="cls-1" d="M351.83,377.67a5.07,5.07,0,0,0-5.08,5.08v.49a5.08,5.08,0,1,0,10.16,0v-.49A5.08,5.08,0,0,0,351.83,377.67Z" transform="translate(-130 -254)"/><path class="cls-1" d="M172.1,457.32a5.07,5.07,0,1,0,1.49,3.59A5.11,5.11,0,0,0,172.1,457.32Z" transform="translate(-130 -254)"/><path class="cls-1" d="M283.64,271.63A115.2,115.2,0,0,0,207.31,282a5.08,5.08,0,1,0,4.67,9,105,105,0,0,1,69.58-9.44,5.08,5.08,0,1,0,2.08-9.94Z" transform="translate(-130 -254)"/><path class="cls-1" d="M289.81,489.67a5.07,5.07,0,0,0-6.09-3.8A104.86,104.86,0,0,1,212.15,477a5.08,5.08,0,0,0-4.65,9A115.15,115.15,0,0,0,286,495.76,5.08,5.08,0,0,0,289.81,489.67Z" transform="translate(-130 -254)"/><path class="cls-1" d="M328.59,380.41l-12.83-12.83a5.08,5.08,0,1,0-7.19,7.18l4.17,4.16H275.82a5.08,5.08,0,0,0,0,10.16h36.92l-4.17,4.16a5.08,5.08,0,0,0,7.19,7.19l12.83-12.84A5.08,5.08,0,0,0,328.59,380.41Z" transform="translate(-130 -254)"/><path class="cls-1" d="M256.41,419V353.83a51.84,51.84,0,0,0-103.68,0V419C133,423.38,130,435.2,130,441.91v19a5.07,5.07,0,0,0,5.08,5.08h15.86a5.08,5.08,0,1,0,0-10.15H140.16V441.91c0-2.45,0-9.9,15.26-13.11l.08,0,16.15-3.68a74.12,74.12,0,0,0,64.69-.18l.1-.06,17.21,3.92.08,0C269,432,269,439.46,269,441.91v13.95H188.14a5.08,5.08,0,0,0,0,10.15h85.93a5.08,5.08,0,0,0,5.08-5.08v-19C279.15,435.2,276.16,423.37,256.41,419Zm-69.33,1.09a12.94,12.94,0,0,0,6.3-11.36v-3a34.45,34.45,0,0,0,22.39,0v3a12.82,12.82,0,0,0,5.85,11A63.44,63.44,0,0,1,187.08,420.08Zm17.49-22.62a24.4,24.4,0,0,1-24.37-24.38v-19.7a73.55,73.55,0,0,0,37.31,10.22H229v9.48A24.41,24.41,0,0,1,204.57,397.46Zm41.69,19.22-14.51-3.3c-5.82-2-5.82-3.41-5.82-4.66v-8.53a34.48,34.48,0,0,0,13.17-27.11V358.52a5.07,5.07,0,0,0-5.07-5.08H217.51a63.4,63.4,0,0,1-39.24-13.67,5.08,5.08,0,0,0-8.23,4v29.33a34.47,34.47,0,0,0,13.18,27.11v8.53c0,1.25,0,2.67-5.82,4.66l-14.51,3.3V353.83a41.69,41.69,0,0,1,83.37,0Z" transform="translate(-130 -254)"/></svg>