<svg id="Layer_1" data-name="Layer 1" xmlns="http://www.w3.org/2000/svg" width="40" height="40" viewBox="0 0 40 40"><defs><style>.cls-1{fill:#fac090;}</style></defs><title>bk-fldname</title><path class="cls-1" d="M23.16,21.13a4.64,4.64,0,0,1,2.36.63,4.58,4.58,0,0,1,1.72,1.72,4.65,4.65,0,0,1,.64,2.36v1.47a1.64,1.64,0,0,1-.5,1.2,1.61,1.61,0,0,1-1.19.49H13.81a1.61,1.61,0,0,1-1.19-.49,1.63,1.63,0,0,1-.49-1.2V25.84a4.64,4.64,0,0,1,.63-2.36,4.58,4.58,0,0,1,1.72-1.72,4.64,4.64,0,0,1,2.36-.63,4.07,4.07,0,0,1,1.19.24c.33.09.6.17.81.21a6.17,6.17,0,0,0,2.32,0c.21,0,.48-.12.81-.21A4.07,4.07,0,0,1,23.16,21.13Zm3.59,6.18V25.84a3.58,3.58,0,0,0-3.59-3.59,3.39,3.39,0,0,0-.87.18,7.09,7.09,0,0,1-4.58,0,3.39,3.39,0,0,0-.87-.18,3.58,3.58,0,0,0-3.59,3.59v1.47a.54.54,0,0,0,.16.41.56.56,0,0,0,.4.16H26.19a.56.56,0,0,0,.4-.16A.54.54,0,0,0,26.75,27.31ZM20,20a4.45,4.45,0,0,1-2.27-.6,4.4,4.4,0,0,1-1.63-1.63,4.59,4.59,0,0,1,0-4.54,4.4,4.4,0,0,1,1.63-1.63,4.59,4.59,0,0,1,4.54,0,4.4,4.4,0,0,1,1.63,1.63,4.59,4.59,0,0,1,0,4.54,4.4,4.4,0,0,1-1.63,1.63A4.45,4.45,0,0,1,20,20Zm0-7.87a3.35,3.35,0,0,0-3.37,3.37,3.37,3.37,0,0,0,5.76,2.39,3.38,3.38,0,0,0,0-4.78A3.24,3.24,0,0,0,20,12.13Z"/></svg>