<svg id="Layer_1" data-name="Layer 1" xmlns="http://www.w3.org/2000/svg" width="40" height="40" viewBox="0 0 40 40"><defs><style>.cls-1{fill:#fac090;}</style></defs><title>bk-fldmsg</title><path class="cls-1" d="M26,12a2,2,0,0,1,2,2v9a2,2,0,0,1-2,2H21.5l-3.91,2.94a.41.41,0,0,1-.23.06.36.36,0,0,1-.25-.11.36.36,0,0,1-.11-.26V25H14a2,2,0,0,1-2-2V14a2,2,0,0,1,2-2Zm1,11V14a.94.94,0,0,0-.3-.7A1,1,0,0,0,26,13H14a1,1,0,0,0-.7.3.94.94,0,0,0-.3.7v9a.94.94,0,0,0,.3.7,1,1,0,0,0,.7.3h4v2.38L21.16,24H26a1,1,0,0,0,.7-.3A.94.94,0,0,0,27,23Z"/></svg>