<svg id="Layer_1" data-name="Layer 1" xmlns="http://www.w3.org/2000/svg" width="40" height="40" viewBox="0 0 40 40"><defs><style>.cls-1{fill:#fac090;}</style></defs><title>bk-fldemail</title><path class="cls-1" d="M22.91,13.63q2.22,1.74,4.53,3.65A1.46,1.46,0,0,1,28,18.44V26.5A1.5,1.5,0,0,1,26.5,28h-13A1.5,1.5,0,0,1,12,26.5V18.44a1.46,1.46,0,0,1,.56-1.16q2.31-1.87,4.53-3.65l.32-.29a10.2,10.2,0,0,1,1.18-.87A2.71,2.71,0,0,1,20,12a2.71,2.71,0,0,1,1.41.47c.29.19.68.48,1.18.87A2.91,2.91,0,0,0,22.91,13.63ZM26.5,27a.48.48,0,0,0,.5-.5V18.44a.47.47,0,0,0-.19-.38c-1.43-1.18-2.95-2.4-4.53-3.65L22,14.16a8.41,8.41,0,0,0-1-.75A1.93,1.93,0,0,0,20,13a1.93,1.93,0,0,0-1,.41,8.41,8.41,0,0,0-1,.75l-.31.25-4.53,3.65a.47.47,0,0,0-.19.38V26.5a.48.48,0,0,0,.5.5Zm-.28-6.75L26.06,20a.39.39,0,0,0-.25-.11.4.4,0,0,0-.28.08L22,22.84a6.87,6.87,0,0,1-1,.75A1.93,1.93,0,0,1,20,24a1.93,1.93,0,0,1-1-.41,6.87,6.87,0,0,1-1-.75L14.47,20a.4.4,0,0,0-.28-.08.39.39,0,0,0-.25.11l-.16.22a.38.38,0,0,0-.08.27.45.45,0,0,0,.14.26l3.57,2.85a10,10,0,0,0,1.18.9A2.83,2.83,0,0,0,20,25a2.83,2.83,0,0,0,1.41-.47c.29-.19.68-.49,1.18-.9l3.57-2.85a.45.45,0,0,0,.14-.26A.38.38,0,0,0,26.22,20.25Z"/></svg>