<svg id="Layer_1" data-name="Layer 1" xmlns="http://www.w3.org/2000/svg" width="40" height="40" viewBox="0 0 40 40"><defs><style>.cls-1{fill:#fac090;}</style></defs><title>bk-fldtel</title><path class="cls-1" d="M21.58,21.58a12.52,12.52,0,0,0,2.36-3.27L22,16.77a1.19,1.19,0,0,1-.37-.6,1.13,1.13,0,0,1,0-.7l1.62-3.8a1.08,1.08,0,0,1,.53-.56,1,1,0,0,1,.74-.07l3.55.81a1,1,0,0,1,.6.38,1.1,1.1,0,0,1,.24.67,16.1,16.1,0,0,1-8,13.92A15.72,15.72,0,0,1,12.9,29a1.1,1.1,0,0,1-.67-.24,1,1,0,0,1-.38-.6L11,24.61a1,1,0,0,1,.07-.74,1.12,1.12,0,0,1,.56-.53l3.8-1.62a1.13,1.13,0,0,1,.7,0,1.19,1.19,0,0,1,.6.37l1.54,1.9m-5.37,3.94a14.62,14.62,0,0,0,7.52-2,14.84,14.84,0,0,0,5.38-5.38,14.52,14.52,0,0,0,2-7.52l-3.52-.81-1.62,3.79L25.31,18a15,15,0,0,1-2.92,4.39A15,15,0,0,1,18,25.31l-2.08-2.57-3.79,1.62Z"/></svg>