<svg id="Layer_1" data-name="Layer 1" xmlns="http://www.w3.org/2000/svg" width="960" height="370" viewBox="0 0 960 370"><defs><style>.cls-1{fill:#fff;opacity:0.1;}</style></defs><title>bk-s2</title><path class="cls-1" d="M960,370V264h-8.37c-8.43,0-25.5,0-42.1,3.52a160.88,160.88,0,0,0-50.47,21.25c-16.47,10.43-33.2,25-49.81,14.22-17-10.43-33.86-46.3-50.47-56.72-16.86-10.83-33.87,3.78-50.47,24.84-16.73,21.45-33.2,49.34-50.47,49.54-16.6-.2-33.2-28.09-50.47-28.29-16.47.2-33.2,28.09-49.8,31.88-17,3.52-33.87-17.73-50.47-14.21-16.87,3.78-33.87,31.68-50.47,42.5-16.74,10.43-33.21,3.79-50.47,7.11-8.39,1.68-16.81,6.27-25.24,10.36Z" transform="translate(0 0)"/><path class="cls-1" d="M331.06,370c-9.27-5.52-18.47-13.39-27.61-21.07-17-14-34-28.66-50.66-21.33-16.86,7.33-34,35.33-50.66,17.8-16.73-17.8-33.33-81.8-50.66-88.93-16.59-6.87-33.33,42.46-50,64-17.13,21.13-34,14.46-50.66,17.8-17,3.33-34,18-42,24.86L.48,370Z" transform="translate(0 0)"/><path class="cls-1" d="M960,370V240.67L953.33,262c-6,21.33-18.93,64-32,60.47-12.67-3.8-25.33-53.14-38-53.34-12.66.2-25.73,49.54-38.66,56.87-12.66,7.33-25.46-28.67-38-42.67-13.34-14-25.87-7.33-38.67,7.14-12.66,14.2-25.59,35.53-38.66,46.2-12.66,10.66-25.33,10.66-38-10.67s-25.73-64-38.67-56.87c-12.66,6.87-25.46,64.2-38,67.54-13.33,3.33-25.86-46-38.66-81.8-12.67-35.54-25.6-56.87-38.66-60.4-12.67-3.8-25.33,10.86-38,35.53s-25.73,60.67-38.66,74.67c-12.67,14-25.47,7.33-38,3.53-13.33-3.53-25.86-3.53-38.66,3.6-12.66,6.87-25.6,21.53-38.66,14.2-12.67-7.33-25.33-35.33-38-39.13-12.66-3.54-25.73,17.8-38.66,14.26-12.66-3.8-25.46-31.8-38-28.46-13.33,3.33-25.87,39.33-38.66,32S166.5,248,153.43,237.13c-12.66-10.46-25.33,17.54-38,46.2S89.71,340,76.78,329.53c-12.67-10.86-25.47-60.2-38-60.4-13.33.2-25.86,49.54-32.26,74.67L.12,368.67V370Z" transform="translate(0 0)"/><path class="cls-1" d="M960,111.2c-18.06-32.69-35.68-74.71-53.3-95.28C878.69-15,851.57-.29,824.16,55.28c-26.53,55-54.24,149.33-81.07,149.33-28,0-54.83-94.35-82.54-125.74-26.53-32-53.8.44-81.06,47.17C553,173.65,525.1,235.56,498.42,267.55c-28,31.4-55,31.4-82.54,47.17-26.53,15.19-54.09,47.62-81.07,39.21-28-7.81-54.68-55-82.54-55-26.53,0-53.79,47.17-81.06,39.36C144.68,329.91,117,268,90.14,267.55c-28,.44-54.83,62.36-82.54,94.34A100.14,100.14,0,0,1,0,370H960Z" transform="translate(0 0)"/></svg>