<svg id="_2" data-name="2" xmlns="http://www.w3.org/2000/svg" width="960" height="466.21" viewBox="0 0 960 466.21"><defs><style>.cls-1{fill:#feecde;}</style></defs><title>bk-s1</title><path class="cls-1" d="M971,930.92a4,4,0,0,0-5.3-3.56,3.89,3.89,0,0,0-2.7,3.77v70h8Z" transform="translate(-950 -534.89)"/><path class="cls-1" d="M983,957.24a4,4,0,0,0-5.3-3.56,3.89,3.89,0,0,0-2.7,3.77v43.66h8Z" transform="translate(-950 -534.89)"/><path class="cls-1" d="M983,945.69V909.61a3.88,3.88,0,0,0-2.25-3.59,4,4,0,0,0-5.75,3.63v36a4,4,0,0,0,5.75,3.63A3.88,3.88,0,0,0,983,945.69Z" transform="translate(-950 -534.89)"/><path class="cls-1" d="M996,910.87a4,4,0,0,0-5.3-3.56,3.89,3.89,0,0,0-2.7,3.77v90h8Z" transform="translate(-950 -534.89)"/><path class="cls-1" d="M1008,966.92V889.64a3.9,3.9,0,0,0-2.7-3.78,4,4,0,0,0-5.3,3.57v77.7a4,4,0,0,0,5.3,3.56A3.89,3.89,0,0,0,1008,966.92Z" transform="translate(-950 -534.89)"/><path class="cls-1" d="M1008,979.8a4,4,0,0,0-5.3-3.56A3.89,3.89,0,0,0,1000,980v21.1h8Z" transform="translate(-950 -534.89)"/><path class="cls-1" d="M958,971a4,4,0,0,0-5.3-3.57,3.9,3.9,0,0,0-2.7,3.78v29.87h8Z" transform="translate(-950 -534.89)"/><path class="cls-1" d="M1021,915.89a4,4,0,0,0-5.3-3.57,3.9,3.9,0,0,0-2.7,3.77v85h8Z" transform="translate(-950 -534.89)"/><path class="cls-1" d="M1021,904.33V868.26a3.9,3.9,0,0,0-2.25-3.6,4,4,0,0,0-5.75,3.63v36a4,4,0,0,0,5.75,3.63A3.88,3.88,0,0,0,1021,904.33Z" transform="translate(-950 -534.89)"/><path class="cls-1" d="M1033,888.31a4,4,0,0,0-5.3-3.56,3.89,3.89,0,0,0-2.7,3.77v112.59h8Z" transform="translate(-950 -534.89)"/><path class="cls-1" d="M1046,966.92V889.64a3.9,3.9,0,0,0-2.7-3.78,4,4,0,0,0-5.3,3.57v77.7a4,4,0,0,0,5.3,3.56A3.89,3.89,0,0,0,1046,966.92Z" transform="translate(-950 -534.89)"/><path class="cls-1" d="M1046,979.8a4,4,0,0,0-5.3-3.56A3.89,3.89,0,0,0,1038,980v21.1h8Z" transform="translate(-950 -534.89)"/><path class="cls-1" d="M1058,850.72a4,4,0,0,0-5.3-3.57,3.9,3.9,0,0,0-2.7,3.77v150.19h8Z" transform="translate(-950 -534.89)"/><path class="cls-1" d="M1071,903.08V867a3.88,3.88,0,0,0-2.25-3.59A4,4,0,0,0,1063,867v36a4,4,0,0,0,5.75,3.63A3.89,3.89,0,0,0,1071,903.08Z" transform="translate(-950 -534.89)"/><path class="cls-1" d="M1071,950.7V914.63a3.9,3.9,0,0,0-2.25-3.6,4,4,0,0,0-5.75,3.63v36a4,4,0,0,0,5.75,3.63A3.88,3.88,0,0,0,1071,950.7Z" transform="translate(-950 -534.89)"/><path class="cls-1" d="M1071,963.51a4,4,0,0,0-5.3-3.57,3.9,3.9,0,0,0-2.7,3.78v37.39h8Z" transform="translate(-950 -534.89)"/><path class="cls-1" d="M1083,883.3a4,4,0,0,0-5.3-3.57,3.9,3.9,0,0,0-2.7,3.78v117.6h8Z" transform="translate(-950 -534.89)"/><path class="cls-1" d="M1096,899.59a4,4,0,0,0-5.3-3.56,3.89,3.89,0,0,0-2.7,3.77v101.31h8Z" transform="translate(-950 -534.89)"/><path class="cls-1" d="M1108,949.37V872.09a3.9,3.9,0,0,0-2.7-3.78,4,4,0,0,0-5.3,3.57v77.7a4,4,0,0,0,5.3,3.57A3.9,3.9,0,0,0,1108,949.37Z" transform="translate(-950 -534.89)"/><path class="cls-1" d="M1108,962.26a4,4,0,0,0-5.3-3.57,3.9,3.9,0,0,0-2.7,3.78v38.64h8Z" transform="translate(-950 -534.89)"/><path class="cls-1" d="M1121,966.92V889.64a3.9,3.9,0,0,0-2.7-3.78,4,4,0,0,0-5.3,3.57v77.7a4,4,0,0,0,5.3,3.56A3.89,3.89,0,0,0,1121,966.92Z" transform="translate(-950 -534.89)"/><path class="cls-1" d="M1121,979.8a4,4,0,0,0-5.3-3.56A3.89,3.89,0,0,0,1113,980v21.1h8Z" transform="translate(-950 -534.89)"/><path class="cls-1" d="M1133,818.13a4,4,0,0,0-5.3-3.57,3.91,3.91,0,0,0-2.7,3.78v182.77h8Z" transform="translate(-950 -534.89)"/><path class="cls-1" d="M1146,955.64V803.16a3.9,3.9,0,0,0-2.7-3.78A4,4,0,0,0,1138,803v152.9a4,4,0,0,0,5.3,3.56A3.89,3.89,0,0,0,1146,955.64Z" transform="translate(-950 -534.89)"/><path class="cls-1" d="M1146,968.52a4,4,0,0,0-5.3-3.56,3.89,3.89,0,0,0-2.7,3.77v32.38h8Z" transform="translate(-950 -534.89)"/><path class="cls-1" d="M1171,928.42a4,4,0,0,0-5.3-3.57,3.9,3.9,0,0,0-2.7,3.78v72.48h8Z" transform="translate(-950 -534.89)"/><path class="cls-1" d="M1159,952.23a4,4,0,0,0-5.3-3.57,3.9,3.9,0,0,0-2.7,3.78v48.67h8Z" transform="translate(-950 -534.89)"/><path class="cls-1" d="M1184,941.85V864.57a3.9,3.9,0,0,0-2.7-3.78,4,4,0,0,0-5.3,3.57v77.7a4,4,0,0,0,5.3,3.57A3.9,3.9,0,0,0,1184,941.85Z" transform="translate(-950 -534.89)"/><path class="cls-1" d="M1184,954.74a4,4,0,0,0-5.3-3.57A3.9,3.9,0,0,0,1176,955v46.16h8Z" transform="translate(-950 -534.89)"/><path class="cls-1" d="M1196,821.89a4,4,0,0,0-5.3-3.57,3.9,3.9,0,0,0-2.7,3.78v179h8Z" transform="translate(-950 -534.89)"/><path class="cls-1" d="M1209,934.33V691.62a3.9,3.9,0,0,0-2.7-3.78,4,4,0,0,0-5.3,3.57V934.54a4,4,0,0,0,5.3,3.57A3.9,3.9,0,0,0,1209,934.33Z" transform="translate(-950 -534.89)"/><path class="cls-1" d="M1209,946a4,4,0,0,0-5.3-3.56,3.89,3.89,0,0,0-2.7,3.77v54.94h8Z" transform="translate(-950 -534.89)"/><path class="cls-1" d="M1221,747.67V711.6a3.88,3.88,0,0,0-2.25-3.59,4,4,0,0,0-5.75,3.62v36a4,4,0,0,0,5.75,3.63A3.88,3.88,0,0,0,1221,747.67Z" transform="translate(-950 -534.89)"/><path class="cls-1" d="M1221,795.29V759.22a3.88,3.88,0,0,0-2.25-3.59,4,4,0,0,0-5.75,3.63v36a4,4,0,0,0,5.75,3.63A3.9,3.9,0,0,0,1221,795.29Z" transform="translate(-950 -534.89)"/><path class="cls-1" d="M1221,855.38V808.17a3.89,3.89,0,0,0-2.7-3.77A4,4,0,0,0,1213,808v47.63a4,4,0,0,0,5.3,3.56A3.89,3.89,0,0,0,1221,855.38Z" transform="translate(-950 -534.89)"/><path class="cls-1" d="M1221,869.51a4,4,0,0,0-5.3-3.56,3.89,3.89,0,0,0-2.7,3.77v131.39h8Z" transform="translate(-950 -534.89)"/><path class="cls-1" d="M1234,760.48a4,4,0,0,0-5.3-3.57,3.9,3.9,0,0,0-2.7,3.78v240.42h8Z" transform="translate(-950 -534.89)"/><path class="cls-1" d="M1246,774.27a4,4,0,0,0-5.3-3.57,3.9,3.9,0,0,0-2.7,3.78v226.63h8Z" transform="translate(-950 -534.89)"/><path class="cls-1" d="M1259,884.2V806.92a3.9,3.9,0,0,0-2.7-3.78,4,4,0,0,0-5.3,3.57v77.7a4,4,0,0,0,5.3,3.57A3.9,3.9,0,0,0,1259,884.2Z" transform="translate(-950 -534.89)"/><path class="cls-1" d="M1259,974.44V897.15a3.9,3.9,0,0,0-2.7-3.77A4,4,0,0,0,1251,897v77.7a4,4,0,0,0,5.3,3.56A3.89,3.89,0,0,0,1259,974.44Z" transform="translate(-950 -534.89)"/><path class="cls-1" d="M1259,987.32a4,4,0,0,0-5.3-3.57,3.91,3.91,0,0,0-2.7,3.78v13.58h8Z" transform="translate(-950 -534.89)"/><path class="cls-1" d="M1271,941.85V789.37a3.89,3.89,0,0,0-2.7-3.77,4,4,0,0,0-5.3,3.56v152.9a4,4,0,0,0,5.3,3.57A3.9,3.9,0,0,0,1271,941.85Z" transform="translate(-950 -534.89)"/><path class="cls-1" d="M1271,953.48a4,4,0,0,0-5.3-3.56,3.89,3.89,0,0,0-2.7,3.77v47.42h8Z" transform="translate(-950 -534.89)"/><path class="cls-1" d="M1284,806.85a4,4,0,0,0-5.3-3.57,3.91,3.91,0,0,0-2.7,3.78v194.05h8Z" transform="translate(-950 -534.89)"/><path class="cls-1" d="M1296,891.72V819.45a3.89,3.89,0,0,0-2.7-3.77,4,4,0,0,0-5.3,3.56v72.69a4,4,0,0,0,5.3,3.57A3.9,3.9,0,0,0,1296,891.72Z" transform="translate(-950 -534.89)"/><path class="cls-1" d="M1296,904.61a4,4,0,0,0-5.3-3.57,3.9,3.9,0,0,0-2.7,3.78v96.29h8Z" transform="translate(-950 -534.89)"/><path class="cls-1" d="M1309,774.27a4,4,0,0,0-5.3-3.57,3.9,3.9,0,0,0-2.7,3.78v226.63h8Z" transform="translate(-950 -534.89)"/><path class="cls-1" d="M1321,774.27a4,4,0,0,0-5.3-3.57,3.9,3.9,0,0,0-2.7,3.78v226.63h8Z" transform="translate(-950 -534.89)"/><path class="cls-1" d="M1334,820.64a4,4,0,0,0-5.3-3.57,3.9,3.9,0,0,0-2.7,3.78v180.26h8Z" transform="translate(-950 -534.89)"/><path class="cls-1" d="M1334,809.08V773a3.88,3.88,0,0,0-2.25-3.59A4,4,0,0,0,1326,773v36a4,4,0,0,0,5.75,3.63A3.88,3.88,0,0,0,1334,809.08Z" transform="translate(-950 -534.89)"/><path class="cls-1" d="M1347,941.85V789.37a3.89,3.89,0,0,0-2.7-3.77,4,4,0,0,0-5.3,3.56v152.9a4,4,0,0,0,5.3,3.57A3.9,3.9,0,0,0,1347,941.85Z" transform="translate(-950 -534.89)"/><path class="cls-1" d="M1347,954.74a4,4,0,0,0-5.3-3.57A3.9,3.9,0,0,0,1339,955v46.16h8Z" transform="translate(-950 -534.89)"/><path class="cls-1" d="M1359,858V821.89a3.9,3.9,0,0,0-2.25-3.6,4,4,0,0,0-5.75,3.63v36a4,4,0,0,0,5.75,3.63A3.88,3.88,0,0,0,1359,858Z" transform="translate(-950 -534.89)"/><path class="cls-1" d="M1359,918v-47.2a3.9,3.9,0,0,0-2.7-3.78,4,4,0,0,0-5.3,3.57v47.62a4,4,0,0,0,5.3,3.57A3.9,3.9,0,0,0,1359,918Z" transform="translate(-950 -534.89)"/><path class="cls-1" d="M1359,932.18a4,4,0,0,0-5.3-3.57,3.9,3.9,0,0,0-2.7,3.78v68.72h8Z" transform="translate(-950 -534.89)"/><path class="cls-1" d="M1372,850.72a4,4,0,0,0-5.3-3.57,3.9,3.9,0,0,0-2.7,3.77v150.19h8Z" transform="translate(-950 -534.89)"/><path class="cls-1" d="M1384,903.08V867a3.88,3.88,0,0,0-2.25-3.59A4,4,0,0,0,1376,867v36a4,4,0,0,0,5.75,3.63A3.89,3.89,0,0,0,1384,903.08Z" transform="translate(-950 -534.89)"/><path class="cls-1" d="M1384,950.7V914.63a3.9,3.9,0,0,0-2.25-3.6,4,4,0,0,0-5.75,3.63v36a4,4,0,0,0,5.75,3.63A3.88,3.88,0,0,0,1384,950.7Z" transform="translate(-950 -534.89)"/><path class="cls-1" d="M1384,963.51a4,4,0,0,0-5.3-3.57,3.9,3.9,0,0,0-2.7,3.78v37.39h8Z" transform="translate(-950 -534.89)"/><path class="cls-1" d="M1397,883.3a4,4,0,0,0-5.3-3.57,3.9,3.9,0,0,0-2.7,3.78v117.6h8Z" transform="translate(-950 -534.89)"/><path class="cls-1" d="M1409,899.59a4,4,0,0,0-5.3-3.56,3.89,3.89,0,0,0-2.7,3.77v101.31h8Z" transform="translate(-950 -534.89)"/><path class="cls-1" d="M1422,949.37V872.09a3.9,3.9,0,0,0-2.7-3.78,4,4,0,0,0-5.3,3.57v77.7a4,4,0,0,0,5.3,3.57A3.9,3.9,0,0,0,1422,949.37Z" transform="translate(-950 -534.89)"/><path class="cls-1" d="M1422,962.26a4,4,0,0,0-5.3-3.57,3.9,3.9,0,0,0-2.7,3.78v38.64h8Z" transform="translate(-950 -534.89)"/><path class="cls-1" d="M1434,863.25a4,4,0,0,0-5.3-3.57,3.9,3.9,0,0,0-2.7,3.78v137.65h8Z" transform="translate(-950 -534.89)"/><path class="cls-1" d="M1447,909.62a4,4,0,0,0-5.3-3.57,3.9,3.9,0,0,0-2.7,3.78v91.28h8Z" transform="translate(-950 -534.89)"/><path class="cls-1" d="M1447,898.06V862a3.88,3.88,0,0,0-2.25-3.59A4,4,0,0,0,1439,862v36a4,4,0,0,0,5.75,3.63A3.9,3.9,0,0,0,1447,898.06Z" transform="translate(-950 -534.89)"/><path class="cls-1" d="M1459,863.25a4,4,0,0,0-5.3-3.57,3.9,3.9,0,0,0-2.7,3.78v137.65h8Z" transform="translate(-950 -534.89)"/><path class="cls-1" d="M1459,851.69V815.62a3.88,3.88,0,0,0-2.25-3.59,4,4,0,0,0-5.75,3.63v36a4,4,0,0,0,5.75,3.62A3.88,3.88,0,0,0,1459,851.69Z" transform="translate(-950 -534.89)"/><path class="cls-1" d="M1472,836.65V800.58a3.88,3.88,0,0,0-2.25-3.59,4,4,0,0,0-5.75,3.63v36a4,4,0,0,0,5.75,3.63A3.9,3.9,0,0,0,1472,836.65Z" transform="translate(-950 -534.89)"/><path class="cls-1" d="M1472,884.28V848.2a3.88,3.88,0,0,0-2.25-3.59,4,4,0,0,0-5.75,3.63v36a4,4,0,0,0,5.75,3.63A3.88,3.88,0,0,0,1472,884.28Z" transform="translate(-950 -534.89)"/><path class="cls-1" d="M1472,944.36V897.15a3.9,3.9,0,0,0-2.7-3.77A4,4,0,0,0,1464,897v47.62a4,4,0,0,0,5.3,3.57A3.91,3.91,0,0,0,1472,944.36Z" transform="translate(-950 -534.89)"/><path class="cls-1" d="M1472,958.5a4,4,0,0,0-5.3-3.57,3.9,3.9,0,0,0-2.7,3.78v42.4h8Z" transform="translate(-950 -534.89)"/><path class="cls-1" d="M1484,872.92V800.65a3.89,3.89,0,0,0-2.7-3.77,4,4,0,0,0-5.3,3.56v72.69a4,4,0,0,0,5.3,3.57A3.9,3.9,0,0,0,1484,872.92Z" transform="translate(-950 -534.89)"/><path class="cls-1" d="M1484,885.81a4,4,0,0,0-5.3-3.57A3.9,3.9,0,0,0,1476,886v115.09h8Z" transform="translate(-950 -534.89)"/><path class="cls-1" d="M1497,755.47a4,4,0,0,0-5.3-3.57,3.9,3.9,0,0,0-2.7,3.78v245.43h8Z" transform="translate(-950 -534.89)"/><path class="cls-1" d="M1509,943.11V700.39a3.89,3.89,0,0,0-2.7-3.77,4,4,0,0,0-5.3,3.56V943.32a4,4,0,0,0,5.3,3.56A3.89,3.89,0,0,0,1509,943.11Z" transform="translate(-950 -534.89)"/><path class="cls-1" d="M1509,956a4,4,0,0,0-5.3-3.57,3.9,3.9,0,0,0-2.7,3.78v44.91h8Z" transform="translate(-950 -534.89)"/><path class="cls-1" d="M1522,787.7V715.43a3.89,3.89,0,0,0-2.7-3.77,4,4,0,0,0-5.3,3.56v72.69a4,4,0,0,0,5.3,3.57A3.9,3.9,0,0,0,1522,787.7Z" transform="translate(-950 -534.89)"/><path class="cls-1" d="M1522,800.58a4,4,0,0,0-5.3-3.56,3.9,3.9,0,0,0-2.7,3.77v200.32h8Z" transform="translate(-950 -534.89)"/><path class="cls-1" d="M1534,923.05V680.34a3.91,3.91,0,0,0-2.7-3.78,4,4,0,0,0-5.3,3.57V923.26a4,4,0,0,0,5.3,3.57A3.9,3.9,0,0,0,1534,923.05Z" transform="translate(-950 -534.89)"/><path class="cls-1" d="M1534,935.94a4,4,0,0,0-5.3-3.57,3.9,3.9,0,0,0-2.7,3.78v65h8Z" transform="translate(-950 -534.89)"/><path class="cls-1" d="M1547,667.46V631.39a3.88,3.88,0,0,0-2.25-3.59,4,4,0,0,0-5.75,3.63v36a4,4,0,0,0,5.75,3.62A3.88,3.88,0,0,0,1547,667.46Z" transform="translate(-950 -534.89)"/><path class="cls-1" d="M1547,715.09V679a3.88,3.88,0,0,0-2.25-3.59,4,4,0,0,0-5.75,3.63v36a4,4,0,0,0,5.75,3.63A3.88,3.88,0,0,0,1547,715.09Z" transform="translate(-950 -534.89)"/><path class="cls-1" d="M1547,775.17V728a3.9,3.9,0,0,0-2.7-3.77,4,4,0,0,0-5.3,3.56v47.63a4,4,0,0,0,5.3,3.56A3.89,3.89,0,0,0,1547,775.17Z" transform="translate(-950 -534.89)"/><path class="cls-1" d="M1547,789.31a4,4,0,0,0-5.3-3.57,3.9,3.9,0,0,0-2.7,3.77v211.6h8Z" transform="translate(-950 -534.89)"/><path class="cls-1" d="M1560,726.29V608.9a3.89,3.89,0,0,0-2.7-3.77,4,4,0,0,0-5.3,3.56V726.5a4,4,0,0,0,5.3,3.57A3.9,3.9,0,0,0,1560,726.29Z" transform="translate(-950 -534.89)"/><path class="cls-1" d="M1560,739.17a4,4,0,0,0-5.3-3.56,3.9,3.9,0,0,0-2.7,3.77v261.73h8Z" transform="translate(-950 -534.89)"/><path class="cls-1" d="M1572,832.82V590.11a3.9,3.9,0,0,0-2.7-3.78,4,4,0,0,0-5.3,3.57V833a4,4,0,0,0,5.3,3.56A3.89,3.89,0,0,0,1572,832.82Z" transform="translate(-950 -534.89)"/><path class="cls-1" d="M1572,845.7a4,4,0,0,0-5.3-3.56,3.89,3.89,0,0,0-2.7,3.77v155.2h8Z" transform="translate(-950 -534.89)"/><path class="cls-1" d="M1585,810.26V567.55a3.9,3.9,0,0,0-2.7-3.78,4,4,0,0,0-5.3,3.57V810.47a4,4,0,0,0,5.3,3.57A3.9,3.9,0,0,0,1585,810.26Z" transform="translate(-950 -534.89)"/><path class="cls-1" d="M1585,823.14a4,4,0,0,0-5.3-3.56,3.89,3.89,0,0,0-2.7,3.77v177.76h8Z" transform="translate(-950 -534.89)"/><path class="cls-1" d="M1597,590a4,4,0,0,0-5.3-3.57,3.9,3.9,0,0,0-2.7,3.78v410.86h8Z" transform="translate(-950 -534.89)"/><path class="cls-1" d="M1610,590a4,4,0,0,0-5.3-3.57,3.9,3.9,0,0,0-2.7,3.78v410.86h8Z" transform="translate(-950 -534.89)"/><path class="cls-1" d="M1622,686.19V613.92a3.9,3.9,0,0,0-2.7-3.78,4,4,0,0,0-5.3,3.57V686.4a4,4,0,0,0,5.3,3.56A3.89,3.89,0,0,0,1622,686.19Z" transform="translate(-950 -534.89)"/><path class="cls-1" d="M1622,941.85V699.14a3.9,3.9,0,0,0-2.7-3.78,4,4,0,0,0-5.3,3.57V942.06a4,4,0,0,0,5.3,3.57A3.9,3.9,0,0,0,1622,941.85Z" transform="translate(-950 -534.89)"/><path class="cls-1" d="M1622,954.74a4,4,0,0,0-5.3-3.57A3.9,3.9,0,0,0,1614,955v46.16h8Z" transform="translate(-950 -534.89)"/><path class="cls-1" d="M1635,708.82V672.75a3.9,3.9,0,0,0-2.25-3.6,4,4,0,0,0-5.75,3.63v36a4,4,0,0,0,5.75,3.63A3.88,3.88,0,0,0,1635,708.82Z" transform="translate(-950 -534.89)"/><path class="cls-1" d="M1635,768.9V721.7a3.9,3.9,0,0,0-2.7-3.78,4,4,0,0,0-5.3,3.57v47.62a4,4,0,0,0,5.3,3.57A3.9,3.9,0,0,0,1635,768.9Z" transform="translate(-950 -534.89)"/><path class="cls-1" d="M1635,783a4,4,0,0,0-5.3-3.57,3.9,3.9,0,0,0-2.7,3.78v217.86h8Z" transform="translate(-950 -534.89)"/><path class="cls-1" d="M1647,707.49V635.22a3.89,3.89,0,0,0-2.7-3.77A4,4,0,0,0,1639,635V707.7a4,4,0,0,0,5.3,3.57A3.9,3.9,0,0,0,1647,707.49Z" transform="translate(-950 -534.89)"/><path class="cls-1" d="M1647,964.41V721.7a3.9,3.9,0,0,0-2.7-3.78,4,4,0,0,0-5.3,3.57V964.62a4,4,0,0,0,5.3,3.57A3.9,3.9,0,0,0,1647,964.41Z" transform="translate(-950 -534.89)"/><path class="cls-1" d="M1647,977.3a4,4,0,0,0-5.3-3.57,3.9,3.9,0,0,0-2.7,3.77v23.61h8Z" transform="translate(-950 -534.89)"/><path class="cls-1" d="M1660,806.5V563.79a3.9,3.9,0,0,0-2.7-3.78,4,4,0,0,0-5.3,3.57V806.71a4,4,0,0,0,5.3,3.57A3.9,3.9,0,0,0,1660,806.5Z" transform="translate(-950 -534.89)"/><path class="cls-1" d="M1660,818.13a4,4,0,0,0-5.3-3.57,3.91,3.91,0,0,0-2.7,3.78v182.77h8Z" transform="translate(-950 -534.89)"/><path class="cls-1" d="M1672,846.61V603.89a3.89,3.89,0,0,0-2.7-3.77,4,4,0,0,0-5.3,3.56V846.81a4,4,0,0,0,5.3,3.57A3.9,3.9,0,0,0,1672,846.61Z" transform="translate(-950 -534.89)"/><path class="cls-1" d="M1672,858.23a4,4,0,0,0-5.3-3.56,3.9,3.9,0,0,0-2.7,3.77v142.67h8Z" transform="translate(-950 -534.89)"/><path class="cls-1" d="M1685,581.26a4,4,0,0,0-5.3-3.56,3.89,3.89,0,0,0-2.7,3.77v419.64h8Z" transform="translate(-950 -534.89)"/><path class="cls-1" d="M1697,581.26a4,4,0,0,0-5.3-3.56,3.89,3.89,0,0,0-2.7,3.77v419.64h8Z" transform="translate(-950 -534.89)"/><path class="cls-1" d="M1710,748.85V676.58a3.91,3.91,0,0,0-2.7-3.78,4,4,0,0,0-5.3,3.57v72.69a4,4,0,0,0,5.3,3.57A3.9,3.9,0,0,0,1710,748.85Z" transform="translate(-950 -534.89)"/><path class="cls-1" d="M1710,761.73a4,4,0,0,0-5.3-3.56,3.89,3.89,0,0,0-2.7,3.77v239.17h8Z" transform="translate(-950 -534.89)"/><path class="cls-1" d="M1722,936.84V694.13a3.9,3.9,0,0,0-2.7-3.78,4,4,0,0,0-5.3,3.57V937.05a4,4,0,0,0,5.3,3.57A3.9,3.9,0,0,0,1722,936.84Z" transform="translate(-950 -534.89)"/><path class="cls-1" d="M1722,948.47a4,4,0,0,0-5.3-3.57,3.9,3.9,0,0,0-2.7,3.78v52.43h8Z" transform="translate(-950 -534.89)"/><path class="cls-1" d="M1735,761.46V725.38a3.88,3.88,0,0,0-2.25-3.59,4,4,0,0,0-5.75,3.63v36a4,4,0,0,0,5.75,3.63A3.88,3.88,0,0,0,1735,761.46Z" transform="translate(-950 -534.89)"/><path class="cls-1" d="M1735,809.08V773a3.88,3.88,0,0,0-2.25-3.59A4,4,0,0,0,1727,773v36a4,4,0,0,0,5.75,3.63A3.88,3.88,0,0,0,1735,809.08Z" transform="translate(-950 -534.89)"/><path class="cls-1" d="M1735,869.16V822a3.9,3.9,0,0,0-2.7-3.78,4,4,0,0,0-5.3,3.57v47.62a4,4,0,0,0,5.3,3.57A3.9,3.9,0,0,0,1735,869.16Z" transform="translate(-950 -534.89)"/><path class="cls-1" d="M1735,883.3a4,4,0,0,0-5.3-3.57,3.9,3.9,0,0,0-2.7,3.78v117.6h8Z" transform="translate(-950 -534.89)"/><path class="cls-1" d="M1810,950.63V798.15a3.9,3.9,0,0,0-2.7-3.78,4,4,0,0,0-5.3,3.57v152.9a4,4,0,0,0,5.3,3.56A3.89,3.89,0,0,0,1810,950.63Z" transform="translate(-950 -534.89)"/><path class="cls-1" d="M1823,847.86V770.58a3.9,3.9,0,0,0-2.7-3.78,4,4,0,0,0-5.3,3.57v77.7a4,4,0,0,0,5.3,3.56A3.89,3.89,0,0,0,1823,847.86Z" transform="translate(-950 -534.89)"/><path class="cls-1" d="M1823,938.09V860.81a3.91,3.91,0,0,0-2.7-3.78,4,4,0,0,0-5.3,3.57v77.7a4,4,0,0,0,5.3,3.57A3.9,3.9,0,0,0,1823,938.09Z" transform="translate(-950 -534.89)"/><path class="cls-1" d="M1835,914.28V761.8a3.89,3.89,0,0,0-2.7-3.77,4,4,0,0,0-5.3,3.56v152.9a4,4,0,0,0,5.3,3.57A3.9,3.9,0,0,0,1835,914.28Z" transform="translate(-950 -534.89)"/><path class="cls-1" d="M1848,808.1a4,4,0,0,0-5.3-3.56,3.89,3.89,0,0,0-2.7,3.77v192.8h8Z" transform="translate(-950 -534.89)"/><path class="cls-1" d="M1848,796.55V760.48a3.9,3.9,0,0,0-2.25-3.6,4,4,0,0,0-5.75,3.63v36a4,4,0,0,0,5.75,3.63A3.88,3.88,0,0,0,1848,796.55Z" transform="translate(-950 -534.89)"/><path class="cls-1" d="M1860,956.89V761.8a3.89,3.89,0,0,0-2.7-3.77,4,4,0,0,0-5.3,3.56V957.1a4,4,0,0,0,5.3,3.57A3.9,3.9,0,0,0,1860,956.89Z" transform="translate(-950 -534.89)"/><path class="cls-1" d="M1860,750.18V714.11a3.89,3.89,0,0,0-2.25-3.6,4,4,0,0,0-5.75,3.63v36a4,4,0,0,0,5.75,3.63A3.88,3.88,0,0,0,1860,750.18Z" transform="translate(-950 -534.89)"/><path class="cls-1" d="M1873,735.14V699.07a3.9,3.9,0,0,0-2.25-3.6,4,4,0,0,0-5.75,3.63v36a4,4,0,0,0,5.75,3.63A3.88,3.88,0,0,0,1873,735.14Z" transform="translate(-950 -534.89)"/><path class="cls-1" d="M1873,782.76V746.69a3.88,3.88,0,0,0-2.25-3.59,4,4,0,0,0-5.75,3.63v36a4,4,0,0,0,5.75,3.62A3.88,3.88,0,0,0,1873,782.76Z" transform="translate(-950 -534.89)"/><path class="cls-1" d="M1873,842.85V795.64a3.91,3.91,0,0,0-2.7-3.78,4,4,0,0,0-5.3,3.57v47.62a4,4,0,0,0,5.3,3.57A3.9,3.9,0,0,0,1873,842.85Z" transform="translate(-950 -534.89)"/><path class="cls-1" d="M1873,857a4,4,0,0,0-5.3-3.56,3.89,3.89,0,0,0-2.7,3.77v143.92h8Z" transform="translate(-950 -534.89)"/><path class="cls-1" d="M1885,730.05V657.78a3.89,3.89,0,0,0-2.7-3.77,4,4,0,0,0-5.3,3.56v72.69a4,4,0,0,0,5.3,3.57A3.9,3.9,0,0,0,1885,730.05Z" transform="translate(-950 -534.89)"/><path class="cls-1" d="M1885,742.93a4,4,0,0,0-5.3-3.56,3.9,3.9,0,0,0-2.7,3.77v258h8Z" transform="translate(-950 -534.89)"/><path class="cls-1" d="M1898,864.15V612.66a3.89,3.89,0,0,0-2.7-3.77,4,4,0,0,0-5.3,3.56V864.36a4,4,0,0,0,5.3,3.57A3.9,3.9,0,0,0,1898,864.15Z" transform="translate(-950 -534.89)"/><path class="cls-1" d="M1748,951.88V709.17a3.9,3.9,0,0,0-2.7-3.78A4,4,0,0,0,1740,709V952.09a4,4,0,0,0,5.3,3.57A3.91,3.91,0,0,0,1748,951.88Z" transform="translate(-950 -534.89)"/><path class="cls-1" d="M1748,964.76a4,4,0,0,0-5.3-3.56A3.89,3.89,0,0,0,1740,965v36.14h8Z" transform="translate(-950 -534.89)"/><path class="cls-1" d="M1798,852a4,4,0,0,0-5.3-3.57,3.9,3.9,0,0,0-2.7,3.78v148.93h8Z" transform="translate(-950 -534.89)"/><path class="cls-1" d="M1798,840.41V804.34a3.88,3.88,0,0,0-2.25-3.59,4,4,0,0,0-5.75,3.63v36a4,4,0,0,0,5.75,3.62A3.88,3.88,0,0,0,1798,840.41Z" transform="translate(-950 -534.89)"/><path class="cls-1" d="M1785,805.6a4,4,0,0,0-5.3-3.57,3.9,3.9,0,0,0-2.7,3.78v195.3h8Z" transform="translate(-950 -534.89)"/><path class="cls-1" d="M1773,869.51a4,4,0,0,0-5.3-3.56,3.89,3.89,0,0,0-2.7,3.77v131.39h8Z" transform="translate(-950 -534.89)"/><path class="cls-1" d="M1773,858V821.89a3.9,3.9,0,0,0-2.25-3.6,4,4,0,0,0-5.75,3.63v36a4,4,0,0,0,5.75,3.63A3.88,3.88,0,0,0,1773,858Z" transform="translate(-950 -534.89)"/><path class="cls-1" d="M1760,805.6a4,4,0,0,0-5.3-3.57,3.9,3.9,0,0,0-2.7,3.78v195.3h8Z" transform="translate(-950 -534.89)"/><path class="cls-1" d="M1810,963.51a4,4,0,0,0-5.3-3.57,3.9,3.9,0,0,0-2.7,3.78v37.39h8Z" transform="translate(-950 -534.89)"/><path class="cls-1" d="M1823,951a4,4,0,0,0-5.3-3.57,3.9,3.9,0,0,0-2.7,3.78v49.92h8Z" transform="translate(-950 -534.89)"/><path class="cls-1" d="M1835,928.42a4,4,0,0,0-5.3-3.57,3.9,3.9,0,0,0-2.7,3.78v72.48h8Z" transform="translate(-950 -534.89)"/><path class="cls-1" d="M1860,969.78a4,4,0,0,0-5.3-3.57A3.9,3.9,0,0,0,1852,970v31.13h8Z" transform="translate(-950 -534.89)"/><path class="cls-1" d="M1898,875.78a3.88,3.88,0,0,0-4-3.76h0a3.88,3.88,0,0,0-4,3.76v125.33h8Z" transform="translate(-950 -534.89)"/><path class="cls-1" d="M1910,538.65a4,4,0,0,0-5.3-3.56,3.89,3.89,0,0,0-2.7,3.77v462.25h8Z" transform="translate(-950 -534.89)"/></svg>