<svg id="Layer_1" data-name="Layer 1" xmlns="http://www.w3.org/2000/svg" width="960" height="300" viewBox="0 0 960 300"><defs><style>.cls-1{opacity:0.03;}</style></defs><title>bk-s3</title><path class="cls-1" d="M960,170.43l-17.8-24.84c-17.73-25.09-53.53-74.36-88.87-81.68C817.8,56.59,782,92.54,746.67,92.34c-35.54.2-71.34-35.75-106.67-32-35.53,3.53-71.33,46.14-106.67,71-35.53,25.1-71.33,31.75-106.66,7.12C391.13,113.84,355.33,56.59,320,60.38c-35.53,3.53-71.33,67.44-106.67,95.87-35.53,28.16-71.33,21.5-106.66-10.66C71.13,113.84,35.33,56.59,18,28.43L0,0H960Z" transform="translate(0 0)"/><path class="cls-1" d="M0,0V.48L11.33,29.12c11.34,28.38,34.4,86.07,57.34,82.24,22.66-3.55,45.6-67.95,68.66-82.24C160,14.56,182.87,50.79,206,75.61c22.67,24.82,45.4,39.58,68,42.93,23.33,3.35,46-3.35,68.67-21.47C366,79,388.6,50.79,411.33,39.85,434,29.32,457.13,36,480,43.41c22.67,7.38,45.73,14.09,68.67,25,22.66,10.53,45.6,25.29,68.66,25.09C640,93.72,662.87,79,686,61.32c22.67-17.91,45.4-39.38,68-39.38,23.33,0,46,21.47,68.67,50.11,23.33,28.38,45.93,64.6,68.66,71.51,22.67,7.18,45.8-14.29,57.27-25L960,107.81V0Z" transform="translate(0 0)"/><path class="cls-1" d="M0,0A57.53,57.53,0,0,1,9.26,6.47C44.91,35.78,79.64,123.85,114.9,145.87c35.65,22,70.38-22,105.64-44,35.65-22,70.38-22,105.63,7.3,35.66,29.86,70.38,87.66,105.64,95.5,35.65,7.3,70.38-36.74,105.64-29.45C573.1,183,607.83,240.83,643.09,256c35.65,15.14,70.38-15.13,105.63-44,35.66-28.9,70.39-59.18,105.64-44C890,183,924.74,240.83,942.44,270.69L960,300V0Z" transform="translate(0 0)"/></svg>