<svg id="Layer_1" data-name="Layer 1" xmlns="http://www.w3.org/2000/svg" width="64" height="65" viewBox="0 0 64 65"><defs><style>.cls-1{fill:#f6f6f6;}</style></defs><title>bk-s4</title><path class="cls-1" d="M39.86,8.52a9.61,9.61,0,0,0,.27-2,13.58,13.58,0,0,0-.34-2.25A5.43,5.43,0,0,1,39.64,2,2.6,2.6,0,0,1,40.82.41,2.17,2.17,0,0,1,42.57.06,2.23,2.23,0,0,1,44,1.2a2.61,2.61,0,0,1,.2,2,5,5,0,0,1-1.25,2,11.25,11.25,0,0,0-1.38,1.69,12.46,12.46,0,0,0-.82,1.89,10.14,10.14,0,0,0,2-.4,13.54,13.54,0,0,0,1.94-1,3.89,3.89,0,0,1,3-.75A2.25,2.25,0,0,1,49.1,7.62a2,2,0,0,1,.25,1.67,2.24,2.24,0,0,1-1.24,1.44,3.15,3.15,0,0,1-2.28.15l-1.52-.47c-.35-.11-.71-.22-1.12-.32s-1.35-.34-2.45-.57a11.9,11.9,0,0,0,1.06,1.85,12.76,12.76,0,0,0,1.51,1.53,5.2,5.2,0,0,1,1.47,1.89,2.28,2.28,0,0,1,0,1.49,2.24,2.24,0,0,1-1,1.41,2.14,2.14,0,0,1-1.69.23,2.42,2.42,0,0,1-1.48-1.22,5.19,5.19,0,0,1-.29-3,11.17,11.17,0,0,0,.12-2,11.42,11.42,0,0,0-.42-2,11.06,11.06,0,0,0-1.43,1.52,9.93,9.93,0,0,0-.9,1.69A5.05,5.05,0,0,1,36,15.42a2.3,2.3,0,0,1-1.86.29,2.2,2.2,0,0,1-1.38-1,2,2,0,0,1-.24-1.62,2.58,2.58,0,0,1,.9-1.41,5.47,5.47,0,0,1,2.18-.93,18.67,18.67,0,0,0,2.11-.62,16,16,0,0,0,1.8-.93l-2.29-.71L36,8.19c-.87-.18-1.46-.3-1.78-.39a3.07,3.07,0,0,1-1.84-1.23,2.23,2.23,0,0,1-.33-1.86,2.19,2.19,0,0,1,1-1.36,2.28,2.28,0,0,1,1.8-.2,3.78,3.78,0,0,1,2.27,2,21.94,21.94,0,0,0,1.2,2,11.21,11.21,0,0,0,1.47,1.35Z"/><path class="cls-1" d="M7.86,40.52a9.61,9.61,0,0,0,.27-2,13.58,13.58,0,0,0-.34-2.25A5.43,5.43,0,0,1,7.64,34a2.6,2.6,0,0,1,1.18-1.56,2.17,2.17,0,0,1,1.75-.35A2.23,2.23,0,0,1,12,33.2a2.61,2.61,0,0,1,.2,2,5,5,0,0,1-1.25,2,11.25,11.25,0,0,0-1.38,1.69,12.46,12.46,0,0,0-.82,1.89,10.14,10.14,0,0,0,2-.4,13.54,13.54,0,0,0,1.94-1,3.89,3.89,0,0,1,3-.75,2.25,2.25,0,0,1,1.44,1.06,2,2,0,0,1,.25,1.67,2.24,2.24,0,0,1-1.24,1.44,3.15,3.15,0,0,1-2.28.15l-1.52-.47c-.35-.11-.71-.22-1.12-.32s-1.35-.34-2.45-.57A11.9,11.9,0,0,0,9.8,43.37a12.76,12.76,0,0,0,1.51,1.53,5.2,5.2,0,0,1,1.47,1.89,2.28,2.28,0,0,1,.05,1.49,2.24,2.24,0,0,1-1.05,1.41,2.14,2.14,0,0,1-1.69.23A2.42,2.42,0,0,1,8.61,48.7a5.19,5.19,0,0,1-.29-3,11.17,11.17,0,0,0,.12-2A11.42,11.42,0,0,0,8,41.77a11.06,11.06,0,0,0-1.43,1.52A9.93,9.93,0,0,0,5.69,45,5.05,5.05,0,0,1,4,47.42a2.3,2.3,0,0,1-1.86.29,2.2,2.2,0,0,1-1.38-1,2,2,0,0,1-.24-1.62,2.58,2.58,0,0,1,.9-1.41,5.47,5.47,0,0,1,2.18-.93,18.67,18.67,0,0,0,2.11-.62,16,16,0,0,0,1.8-.93l-2.29-.71L4,40.19c-.87-.18-1.46-.3-1.78-.39A3.07,3.07,0,0,1,.41,38.57a2.23,2.23,0,0,1-.33-1.86,2.19,2.19,0,0,1,1-1.36,2.28,2.28,0,0,1,1.8-.2,3.78,3.78,0,0,1,2.27,2,21.94,21.94,0,0,0,1.2,2,11.21,11.21,0,0,0,1.47,1.35Z"/></svg>