<svg id="Layer_1" data-name="Layer 1" xmlns="http://www.w3.org/2000/svg" width="22" height="33.13" viewBox="0 0 22 33.13"><defs><style>.cls-1{fill:#fff;}</style></defs><title>i-down</title><circle class="cls-1" cx="11" cy="2" r="2"/><circle class="cls-1" cx="11" cy="12" r="2"/><path class="cls-1" d="M19.8,20a2.1,2.1,0,0,1,1.58.65A2.17,2.17,0,0,1,22,22.19a2.29,2.29,0,0,1-.62,1.57l-8.8,8.75a2.32,2.32,0,0,1-3.16,0L.62,23.76A2.29,2.29,0,0,1,0,22.19a2.17,2.17,0,0,1,.62-1.54A2.1,2.1,0,0,1,2.2,20ZM11,30.75l8.52-8.25h-17Z"/></svg>