<svg id="Layer_1" data-name="Layer 1" xmlns="http://www.w3.org/2000/svg" viewBox="0 0 100 100"><defs><style>.cls-1{fill:#d13927;}</style></defs><title>is-sol3</title><path class="cls-1" d="M30.65,76.35a1.46,1.46,0,0,0-1,1.78,4.87,4.87,0,0,1,.15,1.2,4.79,4.79,0,1,1-3.6-4.64,1.47,1.47,0,0,0,.74-2.84A7.93,7.93,0,0,0,25,71.61a7.73,7.73,0,1,0,7.73,7.73h0a7.85,7.85,0,0,0-.24-1.93,1.47,1.47,0,0,0-1.79-1.06Z"/><path class="cls-1" d="M65.13,76.35a1.46,1.46,0,0,0-1.06,1.77h0a4.87,4.87,0,0,1,.15,1.2,4.8,4.8,0,1,1-4.81-4.79h0a4.87,4.87,0,0,1,1.2.15,1.47,1.47,0,0,0,.73-2.84,7.85,7.85,0,0,0-1.93-.24,7.73,7.73,0,1,0,7.73,7.73h0a7.86,7.86,0,0,0-.25-1.93,1.46,1.46,0,0,0-1.78-1.05Z"/><path class="cls-1" d="M98.64,88.63a1.44,1.44,0,0,0,1-2.43L82.39,67.42a1.48,1.48,0,0,0-2.17,2l1.35,1.47h0L80,74l-5.3-16.29a4.59,4.59,0,0,0-3-3L60.67,51.17V51L58.3,20.14h3a1.47,1.47,0,0,0,1.59-1.34,1.48,1.48,0,0,0-1.35-1.59,1,1,0,0,0-.24,0h-22V14a4.6,4.6,0,1,0-9.17,0v3.3A6.18,6.18,0,0,0,25,22.68L23.74,39.45,12.25,35.82a1.62,1.62,0,0,0-.62,0,6.16,6.16,0,0,0-4.28-1.73H1.47A1.47,1.47,0,0,0,0,35.56H0v7.83H0V72.13a7.72,7.72,0,0,0,4.69,7.1L11.22,82a14,14,0,0,0,27.39.4h7.13A14,14,0,0,0,73.13,82l1.49,4.51a1.32,1.32,0,0,0,.29.48l.09.18a3,3,0,0,0,2.59,1.44ZM72,58.51l6.18,19.14-2,4.08L69.25,61a1.47,1.47,0,0,0-1-.94L19.8,44.77a6.09,6.09,0,0,0-1.45-2.28l-2.43-2.43L70.86,57.4A1.7,1.7,0,0,1,72,58.51Zm-38.81-6,.06-.43,7.32,2.31H34.79a1.66,1.66,0,0,1-1.66-1.68A1.41,1.41,0,0,1,33.14,52.51ZM20.13,48l2.54.8-.46,4.15a1.67,1.67,0,0,1-1.65,1.48h-.43ZM34.4,42.84l1.37-16.61a1.67,1.67,0,0,1,1.65-1.44H55.88l1.68,25.36Zm.27-30.57a1.66,1.66,0,0,1,1.7,1.62V17.2H33V14a1.66,1.66,0,0,1,1.61-1.71h0ZM27.87,23a3.24,3.24,0,0,1,3.26-2.89h24.2l.22,1.76H37.45a4.61,4.61,0,0,0-4.56,4l-1.3,16.1-5-1.58ZM7.35,37a3.18,3.18,0,0,1,2.29.94l6.64,6.64a3.18,3.18,0,0,1,.94,2.29V67.67a14,14,0,0,0-6.24,11L9.19,78V52.19a7.67,7.67,0,0,0-2.26-5.46l-4-4V37ZM2.94,72.07V46.87l1.92,1.92a4.8,4.8,0,0,1,1.41,3.39V76.65l-.43-.18a4.77,4.77,0,0,1-2.9-4.39Zm22,18.31A11.06,11.06,0,1,1,36,79.32h0A11.06,11.06,0,0,1,25,90.39Zm34.45,0a11.06,11.06,0,1,1,11-11.12v.06a11.07,11.07,0,0,1-11,11.07Zm0-25a14,14,0,0,0-14,14v.1H38.92v-.1A14,14,0,0,0,20.13,66.19V63.58H50a1.47,1.47,0,0,0,1.59-1.34,1.48,1.48,0,0,0-1.35-1.59H20.13V57.32h.43a4.59,4.59,0,0,0,4.57-4.09l.39-3.56,4.81,1.51-.13.94a4.59,4.59,0,0,0,3.94,5.16,4.3,4.3,0,0,0,.62,0h15l10.53,3.33H56.21A1.47,1.47,0,1,0,56,63.58a1,1,0,0,0,.24,0H67L68.74,69a14,14,0,0,0-9.34-3.63Zm18.1,20.3a.09.09,0,0,1,0-.1l6.2-12.4,11.5,12.54H77.59a.1.1,0,0,1-.09-.07Z"/></svg>