<?xml version="1.0" encoding="utf-8"?>
<!-- Generator: Adobe Illustrator 23.0.0, SVG Export Plug-In . SVG Version: 6.00 Build 0)  -->
<svg version="1.1" id="sol1" xmlns="http://www.w3.org/2000/svg" xmlns:xlink="http://www.w3.org/1999/xlink" x="0px" y="0px"
	 width="100px" height="100px" viewBox="0 0 100 100" style="enable-background:new 0 0 100 100;" xml:space="preserve">
<style type="text/css">
	.st0{fill:#D13927;}
</style>
<title>is-sol1</title>
<path class="st0" d="M56.6,63.3c0,9.2,7.5,16.7,16.7,16.7S90,72.5,90,63.3c0-9.2-7.5-16.7-16.7-16.7C64.1,46.7,56.7,54.1,56.6,63.3
	C56.6,63.3,56.6,63.3,56.6,63.3z M73.3,50c7.4,0,13.3,6,13.3,13.3c0,7.4-6,13.3-13.3,13.3S60,70.7,60,63.3c0,0,0,0,0,0
	C60,56,66,50,73.3,50C73.3,50,73.3,50,73.3,50z"/>
<path class="st0" d="M63.8,96.7h19v3.3h-19V96.7z"/>
<path class="st0" d="M56.6,90H90v3.3H56.6V90z"/>
<path class="st0" d="M20,90h3.3v3.3H20V90z"/>
<path class="st0" d="M10,93.3h3.3v3.3H10V93.3z"/>
<path class="st0" d="M20.2,80.6c8.7-15.2,14.1-32,16-49.3l15.5,15.4c0.3,0.3,0.7,0.5,1.2,0.5c0.1,0,0.2,0,0.3,0
	c0.5-0.1,1-0.4,1.2-0.9c3.1-6.3,1.9-13.8-3.1-18.8l-1.4-1.4h11.7c0.9,0,1.7-0.7,1.7-1.7c0-0.2,0-0.4-0.1-0.5
	c-2.2-6.6-8.4-11.1-15.4-11.1h-2.2L54,4.4c0.7-0.6,0.7-1.7,0-2.3c0,0,0,0,0,0c-0.1-0.1-0.3-0.2-0.4-0.3c-6.3-3.1-13.9-1.9-18.8,3.1
	l-1.6,1.6c-0.5,0.5-1,1.1-1.5,1.6c-0.4-0.6-0.9-1.1-1.4-1.7l-1.6-1.5c-5-5-12.5-6.2-18.8-3C9,2.1,8.7,3.1,9.1,3.9c0,0,0,0,0,0.1
	c0.1,0.2,0.2,0.3,0.3,0.4l8.3,8.4h-2.2c-7,0-13.2,4.5-15.5,11.1c-0.3,0.9,0.2,1.8,1.1,2.1c0.2,0.1,0.3,0.1,0.5,0.1h11.7L12,27.5
	c-4.9,5-6.2,12.5-3,18.8c0.2,0.5,0.7,0.8,1.2,0.9c0.1,0,0.2,0,0.3,0c0.4,0,0.8-0.2,1.1-0.5l14.4-14.4c-1.8,16-7.8,31.2-17.4,44.1
	c-2.2-0.6-4.5-1.1-6.8-1.4l-1-0.1l-0.4,3.3l1,0.1c1.7,0.2,3.3,0.6,5,1c-0.3,0.4-0.7,0.8-1,1.3l2.5,2.1c12.8-15.2,20.5-34.1,21.8-54
	l1.9-1.9l1.4,1.4c-1.7,21.2-9,41.6-21.1,59.2l2.7,1.9c1.3-1.9,2.6-3.8,3.8-5.8c7.8,3.7,14.7,9.1,20.2,15.8l2.6-2.1
	c-3.2-3.9-7-7.5-11.1-10.5H100v-3.3H25.2C23.6,82.3,21.9,81.4,20.2,80.6z M52.3,42.5L34.6,25c4.5-1.3,9.4-0.1,12.7,3.2l1.6,1.6
	C52.3,33.1,53.6,38,52.3,42.5z M59.1,22.8H45.3c-3.2-1.5-6.8-2-10.3-1.2c2.4-3.4,6.3-5.4,10.5-5.4h2.3
	C52.5,16.1,56.8,18.6,59.1,22.8z M35.4,8.8L37,7.2c3.3-3.3,8.2-4.6,12.7-3.3l-9.9,9.9c-3.2,1.2-6,3.4-7.9,6.2
	C31.2,15.9,32.5,11.7,35.4,8.8L35.4,8.8z M26.3,7.2l1.6,1.6c0.7,0.8,1.4,1.6,1.9,2.5c-0.8,1.8-1.2,3.6-1.3,5.5
	c-1.5-1.3-3.2-2.3-5.1-3l-9.9-10C18.1,2.5,22.9,3.8,26.3,7.2L26.3,7.2z M15.5,16.2h2.3c4.2,0,8.1,2,10.5,5.4
	c-3.5-0.7-7.1-0.3-10.3,1.2H4.2C6.5,18.7,10.8,16.1,15.5,16.2L15.5,16.2z M11.1,42.5c-1.3-4.5,0-9.4,3.3-12.7l1.6-1.6
	c2.4-2.4,5.6-3.7,9-3.7c1.2,0,2.5,0.2,3.7,0.5L11.1,42.5z"/>
</svg>
