<svg id="sol1" xmlns="http://www.w3.org/2000/svg" width="100.09" height="99.9" viewBox="0 0 100.09 99.9"><defs><style>.cls-1{fill:#d13927;}</style></defs><title>is-sol1</title><path class="cls-1" d="M56.6,63.3A16.7,16.7,0,1,0,73.3,46.6,16.73,16.73,0,0,0,56.6,63.3ZM73.3,50A13.3,13.3,0,1,1,60,63.3h0A13.36,13.36,0,0,1,73.3,50Z" transform="translate(0.09 -0.1)"/><path class="cls-1" d="M63.8,96.7h19V100h-19Z" transform="translate(0.09 -0.1)"/><path class="cls-1" d="M56.6,90H90v3.3H56.6Z" transform="translate(0.09 -0.1)"/><path class="cls-1" d="M20,90h3.3v3.3H20Z" transform="translate(0.09 -0.1)"/><path class="cls-1" d="M10,93.3h3.3v3.3H10Z" transform="translate(0.09 -0.1)"/><path class="cls-1" d="M20.2,80.6a127.17,127.17,0,0,0,16-49.3L51.7,46.7a1.66,1.66,0,0,0,1.2.5h.3a1.59,1.59,0,0,0,1.2-.9,16.29,16.29,0,0,0-3.1-18.8l-1.4-1.4H61.6a1.69,1.69,0,0,0,1.7-1.7.75.75,0,0,0-.1-.5A16.25,16.25,0,0,0,47.8,12.8H45.6L54,4.4a1.52,1.52,0,0,0,0-2.3h0c-.1-.1-.3-.2-.4-.3A16.26,16.26,0,0,0,34.8,4.9L33.2,6.5c-.5.5-1,1.1-1.5,1.6a21,21,0,0,0-1.4-1.7L28.7,4.9a16.11,16.11,0,0,0-18.8-3,1.35,1.35,0,0,0-.8,2V4a1.38,1.38,0,0,0,.3.4l8.3,8.4H15.5A16.47,16.47,0,0,0,0,23.9,1.65,1.65,0,0,0,1.1,26a.9.9,0,0,0,.5.1H13.3L12,27.5A16.26,16.26,0,0,0,9,46.3a1.59,1.59,0,0,0,1.2.9h.3a1.61,1.61,0,0,0,1.1-.5L26,32.3A90.83,90.83,0,0,1,8.6,76.4,51.23,51.23,0,0,0,1.8,75l-1-.1L.4,78.2l1,.1a44.23,44.23,0,0,1,5,1,14.7,14.7,0,0,0-1,1.3l2.5,2.1a93.32,93.32,0,0,0,21.8-54l1.9-1.9L33,28.2A121.7,121.7,0,0,1,11.9,87.4l2.7,1.9c1.3-1.9,2.6-3.8,3.8-5.8A58.7,58.7,0,0,1,38.6,99.3l2.6-2.1A61.4,61.4,0,0,0,30.1,86.7H100V83.4H25.2A35.3,35.3,0,0,0,20.2,80.6ZM52.3,42.5,34.6,25a12.92,12.92,0,0,1,12.7,3.2l1.6,1.6A12.79,12.79,0,0,1,52.3,42.5Zm6.8-19.7H45.3A15.89,15.89,0,0,0,35,21.6a12.8,12.8,0,0,1,10.5-5.4h2.3A12.52,12.52,0,0,1,59.1,22.8ZM35.4,8.8,37,7.2A13,13,0,0,1,49.7,3.9l-9.9,9.9A16.7,16.7,0,0,0,31.9,20,12.81,12.81,0,0,1,35.4,8.8ZM26.3,7.2l1.6,1.6a15,15,0,0,1,1.9,2.5,15.25,15.25,0,0,0-1.3,5.5,16.34,16.34,0,0,0-5.1-3l-9.9-10A13,13,0,0,1,26.3,7.2Zm-10.8,9h2.3a12.8,12.8,0,0,1,10.5,5.4A16.56,16.56,0,0,0,18,22.8H4.2a12.71,12.71,0,0,1,11.3-6.6ZM11.1,42.5a13,13,0,0,1,3.3-12.7L16,28.2a12.63,12.63,0,0,1,9-3.7,15.68,15.68,0,0,1,3.7.5Z" transform="translate(0.09 -0.1)"/></svg>