<svg id="Layer_1" data-name="Layer 1" xmlns="http://www.w3.org/2000/svg" width="100" height="100" viewBox="0 0 100 100"><defs><style>.cls-1{fill:#d13927;}</style></defs><title>is-sol5</title><path class="cls-1" d="M90.32,33.87A17.73,17.73,0,0,1,61.12,47.4L59,49.86A21,21,0,0,0,88.57,20.33l-2.46,2.08A17.71,17.71,0,0,1,90.32,33.87Z"/><path class="cls-1" d="M51.61,33.87a21,21,0,0,0,5,13.55l2.46-2.09a17.73,17.73,0,0,1,25-25l2.09-2.46a21,21,0,0,0-34.52,16Z"/><path class="cls-1" d="M44.17,53.23h2.6V50H32A4.83,4.83,0,0,0,29,47.07V43.55H25.81v3.52A4.81,4.81,0,0,0,22.88,50H8.06v3.23h2.61L8.52,59.68H6.45v1.61a8.07,8.07,0,0,0,16.13,0V59.68H20.52l-2.15-6.45h4.51a4.79,4.79,0,0,0,2.93,2.92V77.42H24.19a8.07,8.07,0,0,0-8.06,8.06V87.1H38.71V85.48a8.07,8.07,0,0,0-8.06-8.06H29V56.15A4.82,4.82,0,0,0,32,53.23h4.51l-2.15,6.45H32.26v1.61a8.07,8.07,0,0,0,16.13,0V59.68H46.32Zm-9,30.64H19.63a4.84,4.84,0,0,1,4.56-3.22h6.46A4.84,4.84,0,0,1,35.21,83.87ZM14.52,66.13A4.85,4.85,0,0,1,10,62.9h9.13A4.85,4.85,0,0,1,14.52,66.13Zm2.6-6.45H11.91l2.15-6.45H15Zm10.3-6.45A1.62,1.62,0,1,1,29,51.61,1.62,1.62,0,0,1,27.42,53.23Zm12.45,0h.9l2.15,6.45h-5.2Zm.45,12.9a4.85,4.85,0,0,1-4.56-3.23h9.13A4.85,4.85,0,0,1,40.32,66.13Z"/><path class="cls-1" d="M100,33.87A27.46,27.46,0,0,0,74.19,6.5V0H0V93.55H64.68a8.07,8.07,0,0,0,16-1.61V64.52H77.42V60.84A27.45,27.45,0,0,0,100,33.87ZM77.42,91.94a4.84,4.84,0,0,1-9.68,0V90.32H3.23V3.23H71V9.68h1.61a24.15,24.15,0,1,1-6,.76l1.21-.31V6.45H6.45v21H45.93A27.4,27.4,0,0,0,67.74,60.84v3.68H64.52V87.1h3.22V67.74h9.68ZM46.92,24.19H9.68V9.68h50A27.41,27.41,0,0,0,46.92,24.19ZM74.19,64.52H71V61.21c.53,0,1.07.08,1.61.08s1.08,0,1.61-.08Z"/><path class="cls-1" d="M6.45,30.65H9.68v3.22H6.45Z"/><path class="cls-1" d="M12.9,30.65h29v3.22h-29Z"/><path class="cls-1" d="M6.45,37.1H41.94v3.22H6.45Z"/></svg>