<svg id="Layer_1" data-name="Layer 1" xmlns="http://www.w3.org/2000/svg" width="100" height="100" viewBox="0 0 100 100"><defs><style>.cls-1{fill:#d13927;}</style></defs><title>is-sol6</title><path class="cls-1" d="M97.19,30.32,72.58,24.53V0H9.68A9.69,9.69,0,0,0,0,9.68V90.32A9.69,9.69,0,0,0,9.68,100h62.9V96.77a6.45,6.45,0,1,1,0-12.9V62.55l19.36-4.84V38.66l5.25-1.24a3.65,3.65,0,0,0,0-7.1ZM3.23,9.68A6.46,6.46,0,0,1,8.06,3.45V80.79a9.57,9.57,0,0,0-4.83,2.34ZM65.37,96.77H9.68a6.45,6.45,0,0,1,0-12.9H65.37a9.66,9.66,0,0,0,0,12.9Zm4-16.12H11.29V3.23H69.35v21.3L62.9,26.05V9.68H17.74v29h24.2v3.23H17.74v3.22h24.2v3.52a4.84,4.84,0,0,0-3.23,4.55V64.52h9.68V53.23a4.85,4.85,0,0,0-3.23-4.55V37.52L50,38.66V57.71l19.35,4.84ZM44.75,30.32a3.63,3.63,0,0,0-2.81,3.55v1.61H21V12.9H59.68V26.8Zm.41,22.91v8.06H41.94V53.23a1.61,1.61,0,1,1,3.22,0Zm43.55-4.49-3.57.9.78,3.12,2.79-.7v3.13L71,59.63,53.23,55.19V52.06L71,56.5l11.71-2.93-.78-3.12L71,53.18,53.23,48.74V39.42L71,43.59l17.74-4.17Zm7.74-14.46L71,40.28l-25.48-6a.42.42,0,0,1,0-.82l25.48-6,25.48,6a.42.42,0,0,1,0,.82Z"/><rect class="cls-1" x="17.74" y="50" width="17.74" height="3.23"/><rect class="cls-1" x="17.74" y="56.45" width="17.74" height="3.23"/><rect class="cls-1" x="17.74" y="62.9" width="17.74" height="3.23"/><rect class="cls-1" x="17.74" y="69.4" width="24.19" height="3.23" transform="translate(-0.35 0.15) rotate(-0.28)"/><rect class="cls-1" x="45.16" y="69.41" width="17.74" height="3.23" transform="translate(-0.43 0.33) rotate(-0.35)"/><rect class="cls-1" x="8.06" y="88.71" width="45.16" height="3.23"/><rect class="cls-1" x="56.45" y="88.71" width="3.23" height="3.23"/></svg>