<svg id="is1" xmlns="http://www.w3.org/2000/svg" width="150" height="150.27" viewBox="0 0 150 150.27"><defs><style>.cls-1{fill:#f69341;}</style></defs><title>is-serv1</title><path class="cls-1" d="M261.35,151H260v-9.62a12.5,12.5,0,0,0-25-.34v10H224.14a3,3,0,1,0,0,6H235v6.76a3,3,0,1,0,6,0V151h13v50H241V184.57s-.76-2.93-2.38-2.93a2.52,2.52,0,0,0-2.62,2.93v19.37a1.38,1.38,0,0,0,.1,1.49L242.86,217H185.2a2.78,2.78,0,0,0-2.93,2.82A3.34,3.34,0,0,0,185.2,223h74.51a3.34,3.34,0,0,0,2.93-3.18c0-1.61-2.93-2.82-2.93-2.82H252.8l6.79-11.49A2.91,2.91,0,0,0,260,204V157h1.21a8.78,8.78,0,0,1,8.79,8.79V229H148V207h58a10,10,0,0,0,10-10V139a10,10,0,0,0-10-10H136a10,10,0,0,0-10,10V197a10,10,0,0,0,10,10h6v32.35A14.65,14.65,0,0,0,156.65,254H195v7.15a14.73,14.73,0,0,0-14.22,14.92,3,3,0,0,0,3,2.93h51.38a3,3,0,0,0,3-2.93A14.73,14.73,0,0,0,224,261.15V254h37.35A14.65,14.65,0,0,0,276,239.35v-73.7A14.65,14.65,0,0,0,261.35,151Zm-9.11,56L248,214.19,243.75,207ZM254,145H241v-3.6a6.58,6.58,0,0,1,5-6.49,6.51,6.51,0,0,1,8,6.28ZM136.1,135h70.8a4.11,4.11,0,0,1,4.1,4.1V150H132V139.1A4.11,4.11,0,0,1,136.1,135ZM132,196.9V156h79v40.9a4.11,4.11,0,0,1-4.1,4.1H136.1A4.11,4.11,0,0,1,132,196.9ZM232.23,273H185.85a9,9,0,0,1,8.49-6h29.4A9,9,0,0,1,232.23,273ZM200,261v-7h18v7Zm61.21-13H156.79a8.78,8.78,0,0,1-8.79-8.79V234H270v5.21A8.78,8.78,0,0,1,261.21,248Z" transform="translate(-126 -128.73)"/><path class="cls-1" d="M201.48,139h-27.9a3,3,0,1,0,0,6h27.9a3,3,0,1,0,0-6Z" transform="translate(-126 -128.73)"/><path class="cls-1" d="M151.4,140.31a2.93,2.93,0,0,0-4.15,0,2.93,2.93,0,1,0,5,2.07A3,3,0,0,0,151.4,140.31Z" transform="translate(-126 -128.73)"/><path class="cls-1" d="M141.4,140.31a2.93,2.93,0,0,0-4.15,4.14,2.94,2.94,0,0,0,5-2.07A3,3,0,0,0,141.4,140.31Z" transform="translate(-126 -128.73)"/><path class="cls-1" d="M161.39,140.31a2.93,2.93,0,0,0-5,2.07,2.93,2.93,0,1,0,5-2.07Z" transform="translate(-126 -128.73)"/><path class="cls-1" d="M147.25,176.67l8-8a2.93,2.93,0,0,0-4.14-4.14l-10,10a2.93,2.93,0,0,0,0,4.15l10,10a2.93,2.93,0,0,0,4.14-4.15Z" transform="translate(-126 -128.73)"/><path class="cls-1" d="M201.43,174.59l-10-10a2.93,2.93,0,0,0-4.14,4.14l8,8-8,8a3,3,0,0,0,0,4.15,2.95,2.95,0,0,0,4.14,0l10-10a2.93,2.93,0,0,0,0-4.15Z" transform="translate(-126 -128.73)"/><path class="cls-1" d="M179.81,162.08a2.93,2.93,0,0,0-4,1l-14.18,24.12a2.93,2.93,0,0,0,1,4,2.91,2.91,0,0,0,4-1l14.18-24.12A2.93,2.93,0,0,0,179.81,162.08Z" transform="translate(-126 -128.73)"/><path class="cls-1" d="M240.69,172.15a2.92,2.92,0,1,0,.86,2.07A2.94,2.94,0,0,0,240.69,172.15Z" transform="translate(-126 -128.73)"/><path class="cls-1" d="M172.24,217h-.43a3,3,0,1,0,0,6h.43a3,3,0,1,0,0-6Z" transform="translate(-126 -128.73)"/></svg>