<svg id="Layer_1" data-name="Layer 1" xmlns="http://www.w3.org/2000/svg" width="100" height="100" viewBox="0 0 100 100"><defs><style>.cls-1{fill:#d13927;}</style></defs><title>is-sol7</title><path class="cls-1" d="M50,0a50,50,0,1,0,50,50A50.06,50.06,0,0,0,50,0Zm0,96.77A46.77,46.77,0,1,1,96.77,50,46.82,46.82,0,0,1,50,96.77Z"/><path class="cls-1" d="M50,6.45A43.55,43.55,0,1,0,77.83,83.5L75.77,81a40.3,40.3,0,1,1,2.15-1.92l2.23,2.32A43.55,43.55,0,0,0,50,6.45Z"/><path class="cls-1" d="M19.35,50A30.65,30.65,0,1,0,50,19.35,30.69,30.69,0,0,0,19.35,50ZM26.1,36.6l2.44,1.14-3.1,9.57-2.66-.51A27.3,27.3,0,0,1,26.1,36.6ZM38.55,74.88a27.57,27.57,0,0,1-8.67-6.31l1.83-1.95,8.14,5.91Zm22.9,0-1.3-2.35,8.14-5.91,1.83,1.95A27.57,27.57,0,0,1,61.45,74.88ZM77.22,46.8l-2.66.5-3.1-9.56L73.9,36.6A27.3,27.3,0,0,1,77.22,46.8ZM50,22.58a27.76,27.76,0,0,1,5.36.53L55,25.81H45l-.33-2.7A27.76,27.76,0,0,1,50,22.58ZM41.49,24,42.12,29H57.88L58.51,24a27.47,27.47,0,0,1,13.61,9.92L67.51,36l4.87,15,5-1a27.24,27.24,0,0,1-5.24,16L68.7,62.33,56,71.59l2.47,4.49a27.19,27.19,0,0,1-16.86,0l2.48-4.49L31.3,62.33l-3.48,3.72a27.24,27.24,0,0,1-5.24-16l5.05,1,4.86-15-4.61-2.16A27.47,27.47,0,0,1,41.49,24Z"/><path class="cls-1" d="M50,64.52A14.52,14.52,0,1,0,35.48,50,14.54,14.54,0,0,0,50,64.52Zm0-25.81A11.29,11.29,0,1,1,38.71,50,11.31,11.31,0,0,1,50,38.71Z"/><path class="cls-1" d="M50,58.06A8.06,8.06,0,1,0,41.94,50,8.06,8.06,0,0,0,50,58.06Zm0-12.9A4.84,4.84,0,1,1,45.16,50,4.84,4.84,0,0,1,50,45.16Z"/><rect class="cls-1" x="45.16" y="12.9" width="3.23" height="3.23"/><rect class="cls-1" x="51.61" y="12.9" width="3.23" height="3.23"/><rect class="cls-1" x="38.71" y="12.9" width="3.23" height="3.23"/><rect class="cls-1" x="58.06" y="12.9" width="3.23" height="3.23"/></svg>