<svg id="Layer_1" data-name="Layer 1" xmlns="http://www.w3.org/2000/svg" width="87.34" height="100" viewBox="0 0 87.34 100"><defs><style>.cls-1{fill:#d13927;}</style></defs><title>is-sol4</title><path class="cls-1" d="M89.39,11.67H84.64V4.85A4.86,4.86,0,0,0,79.79,0H17.19a4.86,4.86,0,0,0-4.85,4.85v6.82H7.89a1.47,1.47,0,1,0,0,2.93h4.45v6.83a4.86,4.86,0,0,0,4.85,4.85h2.12V31A5.82,5.82,0,0,0,28,36v7a5.82,5.82,0,0,0,11.64,0V26.28h5.55a1.47,1.47,0,0,0,0-2.93h-2a5.92,5.92,0,0,0,.83-3V12.94a6,6,0,0,0,9-5.13V2.93H79.79a1.92,1.92,0,0,1,1.92,1.92V21.43a1.92,1.92,0,0,1-1.92,1.92H52a1.47,1.47,0,0,0,0,2.93H79.79a4.86,4.86,0,0,0,4.85-4.85V14.6h4.75A1.45,1.45,0,0,1,90.83,16V31a3,3,0,0,1-2.12,2.83L49.43,45.53A3.37,3.37,0,0,0,47,48.75v2.57H40.47a3.74,3.74,0,0,0-3.74,3.74v2A3.74,3.74,0,0,0,40,60.78L37.26,87.9a11,11,0,1,0,21.9,0l-.95-9.52a1.46,1.46,0,1,0-2.91.29l1,9.52a8.08,8.08,0,1,1-16.08,0L42.9,60.81H53.52l1.09,11a1.47,1.47,0,0,0,2.92-.29L56.46,60.81h.32a3.73,3.73,0,0,0,3.74-3.73v-2a3.74,3.74,0,0,0-3.74-3.74H50V48.75a.44.44,0,0,1,.31-.42l39.28-11.7A5.93,5.93,0,0,0,93.76,31V16A4.37,4.37,0,0,0,89.39,11.67ZM28,31a2.89,2.89,0,0,1-5.78,0V26.28H28ZM36.73,43A2.89,2.89,0,1,1,31,43V26.28h5.78V43ZM47.05,10.85a3,3,0,0,1-3-3,1.47,1.47,0,1,0-2.93,0v12.5a3,3,0,0,1-3,3H17.19a1.92,1.92,0,0,1-1.92-1.92V4.85a1.92,1.92,0,0,1,1.92-1.92h32.9V7.81h0A3.05,3.05,0,0,1,47.05,10.85Zm9.74,43.4a.82.82,0,0,1,.8.81v2a.82.82,0,0,1-.8.8H40.47a.82.82,0,0,1-.81-.8v-2a.82.82,0,0,1,.81-.81Z" transform="translate(-6.42)"/><path class="cls-1" d="M48.21,83.56a4.92,4.92,0,1,0,4.91,4.92A4.92,4.92,0,0,0,48.21,83.56Zm0,6.9a2,2,0,1,1,2-2A2,2,0,0,1,48.21,90.46Z" transform="translate(-6.42)"/></svg>