<svg id="is2" xmlns="http://www.w3.org/2000/svg" width="150" height="150" viewBox="0 0 150 150"><defs><style>.cls-1{fill:#f69341;}</style></defs><title>is-serv2</title><path class="cls-1" d="M308.31,123.81h0a2.93,2.93,0,0,0-2.13-2.13,93.58,93.58,0,0,0-84.87,20.57l-2.56-.8a42.7,42.7,0,0,0-43,10.6L162,165.81a3,3,0,0,0,0,4.15l17.74,17.73,3.37,3.38-8.9,8.9a3,3,0,0,0,0,4.15l8,8-9.61,24.58a2.93,2.93,0,0,0,3.63,3.85l5-1.6-6.3,12.36a2.93,2.93,0,0,0,3.94,3.94l12.32-6.32-1.59,5a2.93,2.93,0,0,0,2.78,3.83,3.07,3.07,0,0,0,1.07-.2L218,247.85l8,8a2.93,2.93,0,0,0,4.15,0l8.9-8.9,3.35,3.34L260,268a2.93,2.93,0,0,0,4.15,0l13.75-13.76a42.69,42.69,0,0,0,10.61-43l-.8-2.56a93.65,93.65,0,0,0,20.57-84.87ZM181.82,181.47l-13.59-13.59,11.68-11.68a36.84,36.84,0,0,1,36.51-9.33ZM197,249.76l1.88-5.8a2.93,2.93,0,0,0-4.12-3.51l-10.57,5.41,5.4-10.58a2.93,2.93,0,0,0-3.51-4.12l-5.8,1.87,6.43-16.42,26.72,26.72Zm31-.17-7.2-7.2,0,0-33.09-33.09,0,0L180.43,202l6.84-6.83,47.54,47.54Zm45.81.49-11.68,11.68-13.59-13.59,34.6-34.6A36.84,36.84,0,0,1,273.79,250.08Zm5.81-41.28L244.37,244,186,185.62l5.79-5.78,13.34,13.34a2.88,2.88,0,0,0,2.07.86,2.93,2.93,0,0,0,2.08-5l-13.35-13.35,25.3-25.3A88.21,88.21,0,0,1,303,126.94,88.23,88.23,0,0,1,279.6,208.8Z" transform="translate(-161.15 -118.83)"/><path class="cls-1" d="M217.11,196.91a2.93,2.93,0,0,0-4.15,4.15,2.93,2.93,0,1,0,4.15-4.15Z" transform="translate(-161.15 -118.83)"/><path class="cls-1" d="M282.12,163.71a2.93,2.93,0,1,0-5.28,2.53A27.86,27.86,0,0,1,232,198a27.86,27.86,0,0,1,31.78-44.81,2.93,2.93,0,0,0,2.54-5.28,33.73,33.73,0,1,0,15.79,15.82Z" transform="translate(-161.15 -118.83)"/><path class="cls-1" d="M275.61,154.5l-.05-.05a2.93,2.93,0,1,0-4.16,4.13l.05,0a2.93,2.93,0,1,0,4.16-4.13Z" transform="translate(-161.15 -118.83)"/><path class="cls-1" d="M247.79,161H236.93a2.93,2.93,0,0,0-2.93,2.93v10.79a3,3,0,1,0,6,.07V167h7.72a3,3,0,1,0,.07-6Z" transform="translate(-161.15 -118.83)"/><path class="cls-1" d="M263,182.28V190h-7.72a3,3,0,1,0-.07,6h10.86a2.93,2.93,0,0,0,2.93-2.93V182.21a3,3,0,1,0-6,.07Z" transform="translate(-161.15 -118.83)"/><path class="cls-1" d="M264.59,174.94a2.92,2.92,0,0,0-3.57-2.1l-20.1,5.22a2.93,2.93,0,0,0,.73,5.77,3.14,3.14,0,0,0,.74-.1l20.1-5.22A2.93,2.93,0,0,0,264.59,174.94Z" transform="translate(-161.15 -118.83)"/><path class="cls-1" d="M172.7,257.29a3,3,0,0,0-4.15,0L162,263.83a3,3,0,0,0,0,4.15,2.95,2.95,0,0,0,4.14,0l6.55-6.55A2.93,2.93,0,0,0,172.7,257.29Z" transform="translate(-161.15 -118.83)"/><path class="cls-1" d="M186.76,259.05a2.92,2.92,0,0,0-4.14,0l-4.79,4.78a3,3,0,0,0,0,4.15,2.91,2.91,0,0,0,2.07.85A3,3,0,0,0,182,268l4.78-4.79A2.92,2.92,0,0,0,186.76,259.05Z" transform="translate(-161.15 -118.83)"/><path class="cls-1" d="M171.77,243.28a2.92,2.92,0,0,0-4.14,0L162,248.89a3,3,0,0,0,0,4.15,2.95,2.95,0,0,0,4.14,0l5.62-5.62A2.92,2.92,0,0,0,171.77,243.28Z" transform="translate(-161.15 -118.83)"/></svg>