<svg id="Layer_1" data-name="Layer 1" xmlns="http://www.w3.org/2000/svg" width="100" height="100" viewBox="0 0 100 100"><defs><style>.cls-1{fill:#d13927;}</style></defs><title>is-sol8</title><path class="cls-1" d="M55.84,11.26h-5.9A1.86,1.86,0,0,0,48,13.07V19.8a1.86,1.86,0,0,0,1.9,1.81h5.9a1.86,1.86,0,0,0,1.9-1.81V13.07A1.86,1.86,0,0,0,55.84,11.26Zm-1.1,7.5H51V14.11h3.7Z"/><path class="cls-1" d="M67.56,11.26H61.67a1.86,1.86,0,0,0-1.9,1.81V19.8a1.86,1.86,0,0,0,1.9,1.81h5.89a1.86,1.86,0,0,0,1.9-1.81V13.07A1.86,1.86,0,0,0,67.56,11.26Zm-1.1,7.5H62.77V14.11h3.69Z"/><path class="cls-1" d="M79.29,11.26h-5.9a1.86,1.86,0,0,0-1.9,1.81V19.8a1.86,1.86,0,0,0,1.9,1.81h5.9a1.86,1.86,0,0,0,1.9-1.81V13.07A1.86,1.86,0,0,0,79.29,11.26Zm-1.1,7.5h-3.7V14.11h3.7Z"/><path class="cls-1" d="M55.84,28h-5.9A1.86,1.86,0,0,0,48,29.8v6.74a1.86,1.86,0,0,0,1.9,1.81h5.9a1.86,1.86,0,0,0,1.9-1.81V29.8A1.86,1.86,0,0,0,55.84,28Zm-1.1,7.5H51V30.85h3.7Z"/><path class="cls-1" d="M67.56,28H61.67a1.86,1.86,0,0,0-1.9,1.81v6.74a1.86,1.86,0,0,0,1.9,1.81h5.89a1.86,1.86,0,0,0,1.9-1.81V29.8A1.86,1.86,0,0,0,67.56,28Zm-1.1,7.5H62.77V30.85h3.69Z"/><path class="cls-1" d="M79.29,28h-5.9a1.86,1.86,0,0,0-1.9,1.81v6.74a1.86,1.86,0,0,0,1.9,1.81h5.9a1.86,1.86,0,0,0,1.9-1.81V29.8A1.86,1.86,0,0,0,79.29,28Zm-1.1,7.5h-3.7V30.85h3.7Z"/><path class="cls-1" d="M55.84,44.73h-5.9A1.86,1.86,0,0,0,48,46.54v6.74a1.86,1.86,0,0,0,1.9,1.81h5.9a1.86,1.86,0,0,0,1.9-1.81V46.54A1.86,1.86,0,0,0,55.84,44.73Zm-1.1,7.5H51V47.58h3.7Z"/><path class="cls-1" d="M67.56,44.73H61.67a1.86,1.86,0,0,0-1.9,1.81v6.74a1.86,1.86,0,0,0,1.9,1.81h5.89a1.86,1.86,0,0,0,1.9-1.81V46.54A1.86,1.86,0,0,0,67.56,44.73Zm-1.1,7.5H62.77V47.58h3.69Z"/><path class="cls-1" d="M79.29,44.73h-5.9a1.86,1.86,0,0,0-1.9,1.81v6.74a1.86,1.86,0,0,0,1.9,1.81h5.9a1.86,1.86,0,0,0,1.9-1.81V46.54A1.86,1.86,0,0,0,79.29,44.73Zm-1.1,7.5h-3.7V47.58h3.7Z"/><path class="cls-1" d="M79.29,61.46h-5.9a1.86,1.86,0,0,0-1.9,1.81V70a1.86,1.86,0,0,0,1.9,1.81h5.9A1.86,1.86,0,0,0,81.19,70V63.27A1.86,1.86,0,0,0,79.29,61.46ZM78.19,69h-3.7V64.32h3.7Z"/><path class="cls-1" d="M98.92,67.83a6.44,6.44,0,0,0-8.62-1.59l-4.13,2.63V7.41h.3a1.92,1.92,0,0,0,2-1.87V1.88a1.92,1.92,0,0,0-2-1.88H76.89a1.47,1.47,0,0,0-1.5,1.43,1.47,1.47,0,0,0,1.5,1.43h8.55v1.7H43.33V2.86H67.5A1.47,1.47,0,0,0,69,1.43,1.47,1.47,0,0,0,67.5,0H42.29a1.92,1.92,0,0,0-2,1.88V5.54a1.92,1.92,0,0,0,2,1.87h.77V25.76H40V22.24A2.29,2.29,0,0,0,37.64,20H26.31A2.28,2.28,0,0,0,24,22.24v3.52H21.82a2.38,2.38,0,0,0-2.43,2.32V60.84c-.63,0-1.27-.06-1.91-.06H15.12V60a5.17,5.17,0,0,0-5.28-5H5.28A5.17,5.17,0,0,0,0,60v20.4a1.47,1.47,0,0,0,1.5,1.43A1.47,1.47,0,0,0,3,80.44V60a2.23,2.23,0,0,1,2.28-2.17H9.84A2.23,2.23,0,0,1,12.12,60V92.18a2.23,2.23,0,0,1-2.28,2.17H5.28A2.23,2.23,0,0,1,3,92.18v-2.8A1.47,1.47,0,0,0,1.5,88,1.47,1.47,0,0,0,0,89.38v2.8a5.17,5.17,0,0,0,5.28,5H9.84a5.17,5.17,0,0,0,5.28-5V92.1l20.77,7.49.12,0a10.12,10.12,0,0,0,4.2.26h0l30.66-4.21h0A15.57,15.57,0,0,0,78,92.63l0,0,19.82-17A5.74,5.74,0,0,0,98.92,67.83ZM46.06,7.41H83.17V70.78l-12.48,8-4.18-.23-.11-1a8.15,8.15,0,0,0-.52-2.15,5.51,5.51,0,0,0-.29-.66,6.78,6.78,0,0,0-.53-1,8.87,8.87,0,0,0-1.71-1.91h4.21A1.86,1.86,0,0,0,69.46,70V63.27a1.86,1.86,0,0,0-1.9-1.81H61.67a1.86,1.86,0,0,0-1.9,1.81V70a9,9,0,0,0-1.17-.23h0l-.82-.09V63.27a1.86,1.86,0,0,0-1.9-1.81h-5.9A1.86,1.86,0,0,0,48,63.27v5.32l-2-.22v-61ZM62.77,69V64.32h3.69V69Zm-8-4.64V69H51.45l-.41,0v-4.6ZM27,22.87H37v2.89H27Zm-4.59,5.75H43.06v4.47H26.12a1.72,1.72,0,0,0-1.76,1.67v4.32a1.72,1.72,0,0,0,1.76,1.67H43.06v4H26.12a1.72,1.72,0,0,0-1.76,1.68v4.31a1.72,1.72,0,0,0,1.76,1.67H43.06v4H26.12a1.73,1.73,0,0,0-1.76,1.68v3.41l-.77-.16-.36-.07-.43-.07-.41-.07ZM43.06,36V37.9H27.36V36Zm0,11.68v1.95H27.36V47.63ZM27.36,61.26V59.31h15.7v1.95Zm15.7,2.86V68L42.59,68a28.62,28.62,0,0,1-8.14-2.38l-.67-.33c-.36-.18-.72-.37-1.07-.57l-.79-.42-.18-.09-.15-.08Zm52.85,9.36-19.79,17a12.27,12.27,0,0,1-5.69,2.42L39.77,97.06h0a7,7,0,0,1-2.84-.17L15.12,89.05V63.64h2.36a27.12,27.12,0,0,1,3.25.19l.65.08h.09c.55.08,1.09.18,1.63.28l.51.11.25,0,.65.16.11,0a28.42,28.42,0,0,1,4.93,1.78l.14.07.6.3.18.09.71.38h0q1,.52,1.95,1a30.65,30.65,0,0,0,9,2.65h0l2.16.24,1.75.19,4,.44,1,.11h0l7,.77a6,6,0,0,1,5.22,5.2l0,.49L35.35,75.66A1.49,1.49,0,0,0,33.71,77a1.46,1.46,0,0,0,1.35,1.56l29.81,2.76a1.08,1.08,0,0,0,.19,0l6,.32h.27l.13,0,.1,0,.13,0s.06,0,.08,0a1.24,1.24,0,0,0,.2-.1l13.57-8.65h0L92,68.61a3.33,3.33,0,0,1,4.47.83A3,3,0,0,1,95.91,73.48Z"/></svg>