<svg id="sol3" xmlns="http://www.w3.org/2000/svg" width="100" height="84" viewBox="0 0 100 84"><defs><style>.cls-1{fill:#d13927;}</style></defs><title>is-sol3</title><path class="cls-1" d="M102.52,134.38a1.46,1.46,0,0,0-1,1.78,4.87,4.87,0,0,1,.15,1.2,4.79,4.79,0,1,1-3.6-4.64,1.47,1.47,0,0,0,.74-2.84,7.87,7.87,0,0,0-1.94-.24,7.73,7.73,0,1,0,7.73,7.72,7.85,7.85,0,0,0-.24-1.93A1.47,1.47,0,0,0,102.52,134.38Z" transform="translate(-71.87 -67.35)"/><path class="cls-1" d="M137,134.38a1.46,1.46,0,0,0-1.06,1.78,4.87,4.87,0,0,1,.15,1.2,4.8,4.8,0,1,1-4.79-4.79,4.87,4.87,0,0,1,1.2.15,1.47,1.47,0,0,0,.73-2.84,7.85,7.85,0,0,0-1.93-.24,7.73,7.73,0,1,0,7.73,7.72,7.86,7.86,0,0,0-.25-1.93A1.46,1.46,0,0,0,137,134.38Z" transform="translate(-71.87 -67.35)"/><path class="cls-1" d="M171.56,146.09l.05-.06a.21.21,0,0,1,0-.06.21.21,0,0,1,0-.06l0-.07,0-.06,0-.07a.14.14,0,0,1,0-.06s0-.05,0-.08,0,0,0-.06,0,0,0-.07,0-.05,0-.07,0-.05,0-.07v-.23s0,0,0-.06,0,0,0-.08a.15.15,0,0,1,0-.07,277055980517.38,277055980517.38,0,0,1,0-.14l0-.06,0-.07,0-.06,0-.07a229051076341.54,229051076341.54,0,0,1-.08-.12l0-.05-.05-.06,0,0-17.22-18.78a1.47,1.47,0,0,0-2.17,2l1.35,1.47h0l-1.53,3.06-5.3-16.29a4.58,4.58,0,0,0-3-3l-11.07-3.49a.57.57,0,0,1,0-.13l-2.37-30.9h3a1.47,1.47,0,1,0,0-2.93h-22V72A4.6,4.6,0,1,0,102,72v3.3a6.17,6.17,0,0,0-5.16,5.41L95.61,97.48,84.12,93.85a1.47,1.47,0,0,0-.62,0,6.16,6.16,0,0,0-4.28-1.73H73.34a1.47,1.47,0,0,0-1.47,1.47v7.83h0v28.74a7.72,7.72,0,0,0,4.69,7.1L83.09,140a14,14,0,0,0,27.39.4h7.13a14,14,0,0,0,27.39-.35l1.49,4.51a1.47,1.47,0,0,0,.29.48l.09.18a3,3,0,0,0,2.59,1.44h21.23l.06,0,.07,0h.06l.07,0,.06,0,.07,0,.06,0,.06,0,.06,0,.05,0,.06-.05,0,0,0,0,.05-.06a.12.12,0,0,0,.05-.05Zm-27.74-29.55L150,135.68l-2,4.08-6.88-20.71a1.46,1.46,0,0,0-1-.94L91.67,102.8a6.07,6.07,0,0,0-1.45-2.28l-2.43-2.43,54.94,17.34A1.7,1.7,0,0,1,143.82,116.54Zm-38.81-6,.06-.43,7.32,2.31h-5.73a1.67,1.67,0,0,1-1.65-1.88ZM92,106l2.54.8-.46,4.15a1.67,1.67,0,0,1-1.65,1.48H92Zm14.27-5.13,1.37-16.61a1.67,1.67,0,0,1,1.65-1.44h18.46l1.68,25.36Zm.27-30.57A1.66,1.66,0,0,1,108.24,72v3.23h-3.33V72A1.66,1.66,0,0,1,106.57,70.29ZM99.74,81A3.23,3.23,0,0,1,103,78.11H127.2l.22,1.76h-18.1a4.61,4.61,0,0,0-4.56,4l-1.3,16.1-5-1.58ZM79.22,95a3.2,3.2,0,0,1,2.29.94l6.64,6.64a3.2,3.2,0,0,1,.94,2.29v20.83a14,14,0,0,0-6.24,11L81.06,136a.76.76,0,0,0,0-.15V110.22a7.67,7.67,0,0,0-2.26-5.46l-4-4V95Zm-4.41,35.1v-25.2l1.92,1.92a4.76,4.76,0,0,1,1.41,3.39v24.47l-.43-.18A4.79,4.79,0,0,1,74.81,130.11Zm22,18.31a11.06,11.06,0,1,1,11.06-11.06A11.07,11.07,0,0,1,96.82,148.42Zm34.45,0a11.06,11.06,0,1,1,11-11.06A11.07,11.07,0,0,1,131.27,148.42Zm0-25a14,14,0,0,0-14,14s0,.07,0,.1h-6.47s0-.06,0-.1A14,14,0,0,0,92,124.22v-2.61h29.84a1.47,1.47,0,1,0,0-2.93H92v-3.33h.43A4.59,4.59,0,0,0,97,111.26l.39-3.56,4.81,1.51-.13.94a4.59,4.59,0,0,0,4.56,5.2h15l10.53,3.33h-4.08a1.47,1.47,0,1,0,0,2.93h10.74l1.79,5.4A13.94,13.94,0,0,0,131.27,123.38Zm18.1,20.3a.09.09,0,0,1,0-.1l6.2-12.4,11.5,12.54H149.46A.09.09,0,0,1,149.37,143.68Z" transform="translate(-71.87 -67.35)"/></svg>