<svg id="sol2" xmlns="http://www.w3.org/2000/svg" width="100" height="100" viewBox="0 0 100 100"><defs><style>.cls-1{fill:#d13927;}</style></defs><title>is-sol2</title><path class="cls-1" d="M255.18,190.47a2,2,0,1,0,2,1.95A2,2,0,0,0,255.18,190.47Z" transform="translate(-233.26 -165.86)"/><path class="cls-1" d="M274.76,227H268.9v-5.86a1.95,1.95,0,1,0-3.9,0V227h-5.86a2,2,0,1,0,0,3.91H265v5.86a1.95,1.95,0,0,0,3.9,0V230.9h5.86a2,2,0,0,0,0-3.91Z" transform="translate(-233.26 -165.86)"/><path class="cls-1" d="M331.18,228.75A15.54,15.54,0,0,0,309.9,223L302,227.61v-17a9.82,9.82,0,0,0-1.95-5.86l-9.73-13v-5.54a5.88,5.88,0,0,0,3.89-5.53v-9a5.86,5.86,0,0,0-5.84-5.86H246.89a5.86,5.86,0,0,0-5.84,5.86v9a5.88,5.88,0,0,0,3.9,5.53v5.54l-9.74,13a9.89,9.89,0,0,0-2,5.86v37.82a9.76,9.76,0,0,0,9.74,9.77h37.71a15.53,15.53,0,0,0,21.16,5.52l23.61-13.67A15.66,15.66,0,0,0,331.18,228.75Zm-86.23-57a1.94,1.94,0,0,1,1.94-1.95h41.47a2,2,0,0,1,1.95,1.95v9a2,2,0,0,1-1.95,2H246.89a2,2,0,0,1-1.94-2v-9Zm-6.62,35.41,10.12-13.54a1.87,1.87,0,0,0,.39-1.17v-5.86h37.57v3.91H263.67a2,2,0,0,0,0,3.91h23.72l9.54,12.75a5.92,5.92,0,0,1,1.12,2.87H237.2A5.93,5.93,0,0,1,238.33,207.13Zm4.67,47.2a5.85,5.85,0,0,1-5.84-5.86v-2H279a15.63,15.63,0,0,0,.1,7.83Zm37.48-11.71H237.16V213.91H298.1v16l-11.81,6.83A15.51,15.51,0,0,0,280.48,242.62Zm19.44,17.76a11.71,11.71,0,0,1-11.68-20.3L298.81,234l11.68,20.3Zm23.61-13.67-9.67,5.6L302.18,232l9.67-5.6a11.71,11.71,0,0,1,11.68,20.3Z" transform="translate(-233.26 -165.86)"/></svg>