<svg xmlns="http://www.w3.org/2000/svg" width="100" height="100" viewBox="0 0 100 100"><defs><style>.cls-1,.cls-4{fill:#d13927;}.cls-2{fill:none;stroke:#d13927;stroke-width:4px;}.cls-2,.cls-4{stroke-miterlimit:10;}.cls-3{fill:#f69341;}.cls-4{stroke:#fff;stroke-width:3px;}</style></defs><title>is-ts5</title><g id="l1"><circle class="cls-1" cx="12" cy="12" r="4"/><circle class="cls-1" cx="88" cy="12" r="4"/><circle class="cls-1" cx="78" cy="12" r="4"/><circle class="cls-1" cx="68" cy="12" r="4"/><rect class="cls-1" x="18" y="8" width="44" height="8" rx="4"/><rect class="cls-2" x="2" y="2" width="96" height="96" rx="7.83"/></g><g id="l2_copy_4" data-name="l2 copy 4"><rect class="cls-1" x="8" y="20" width="66" height="20"/><rect class="cls-3" x="8" y="44" width="26" height="14"/><rect class="cls-3" x="8" y="61" width="26" height="14"/><rect class="cls-3" x="8" y="78" width="26" height="14"/><rect class="cls-3" x="37" y="44" width="26" height="14"/><rect class="cls-3" x="37" y="61" width="26" height="14"/><rect class="cls-3" x="37" y="78" width="26" height="14"/><rect class="cls-3" x="66" y="61" width="26" height="14"/><rect class="cls-3" x="66" y="78" width="26" height="14"/><circle class="cls-4" cx="73.5" cy="38.5" r="20"/></g></svg>