<svg id="Layer_1" data-name="Layer 1" xmlns="http://www.w3.org/2000/svg" viewBox="0 0 50 52"><defs><style>.cls-1,.cls-2{fill:#f58020;}.cls-1{fill-rule:evenodd;}</style></defs><title>logo-sign</title><path class="cls-1" d="M50,52C45.52,23.34,14.88,34.4,0,52,18.42,39,41.08,35.27,50,52Z" transform="translate(0 -0.04)"/><path class="cls-2" d="M38.8,21.76a11.79,11.79,0,0,0,.31-2.29,16.58,16.58,0,0,0-.4-2.62,5.93,5.93,0,0,1-.17-2.68,3,3,0,0,1,1.38-1.82A2.52,2.52,0,0,1,42,12a2.56,2.56,0,0,1,1.66,1.32,3,3,0,0,1,.24,2.33,5.75,5.75,0,0,1-1.47,2.28,12.88,12.88,0,0,0-1.6,2,12.72,12.72,0,0,0-1,2.19,12,12,0,0,0,2.3-.47,14.86,14.86,0,0,0,2.26-1.21,4.62,4.62,0,0,1,3.52-.87,2.69,2.69,0,0,1,1.68,1.23,2.41,2.41,0,0,1,.29,1.94,2.6,2.6,0,0,1-1.45,1.67,3.65,3.65,0,0,1-2.66.17c-.34-.09-.93-.27-1.79-.55-.4-.12-.83-.25-1.3-.37-.63-.17-1.59-.38-2.87-.66A13.05,13.05,0,0,0,41.06,25a14.88,14.88,0,0,0,1.77,1.78A6.11,6.11,0,0,1,44.55,29a2.6,2.6,0,0,1,0,1.74,2.64,2.64,0,0,1-3.23,1.9,2.77,2.77,0,0,1-1.72-1.42,6,6,0,0,1-.35-3.5,12.31,12.31,0,0,0,.14-2.27,13.5,13.5,0,0,0-.49-2.27A13.31,13.31,0,0,0,37.23,25a10.9,10.9,0,0,0-1,2,6,6,0,0,1-2,2.84,2.81,2.81,0,0,1-2.19.34A2.61,2.61,0,0,1,30.39,29,2.32,2.32,0,0,1,30.22,27a3.09,3.09,0,0,1,1-1.64,6.74,6.74,0,0,1,2.54-1.08,23.25,23.25,0,0,0,2.47-.71,16.77,16.77,0,0,0,2.11-1.08l-2.68-.82c-.48-.12-.93-.24-1.36-.33-1-.2-1.7-.35-2.08-.45a3.57,3.57,0,0,1-2.15-1.43,2.53,2.53,0,0,1-.39-2.15,2.59,2.59,0,0,1,1.23-1.59A2.72,2.72,0,0,1,33,15.53a4.42,4.42,0,0,1,2.66,2.33,25,25,0,0,0,1.41,2.34,12.75,12.75,0,0,0,1.72,1.56Z" transform="translate(0 -0.04)"/><path class="cls-1" d="M32.51,30.45A10,10,0,0,1,18.6,29.12a9.77,9.77,0,0,1,1.29-13.76l.05,0a4,4,0,0,1,5.56.53,3.89,3.89,0,0,1-.5,5.49l0,0a5.87,5.87,0,0,0-.83,8.26l0,0A6,6,0,0,0,32.51,30.45Z" transform="translate(0 -0.04)"/><path class="cls-1" d="M28.29,0a6.7,6.7,0,1,1-6.75,6.69A6.7,6.7,0,0,1,28.29,0Z" transform="translate(0 -0.04)"/></svg>