<svg id="Layer_2" data-name="Layer 2" xmlns="http://www.w3.org/2000/svg" viewBox="0 0 40 164"><defs><style>.cls-1{fill:#f58020;}</style></defs><title>logo-txt</title><path class="cls-1" d="M587.55,4.77h-1.61V2.36H603.7a14.49,14.49,0,0,1,3.88.44h0l.51.18c.17.06.33.14.5.21a7.93,7.93,0,0,1,2.29,1.66h0c.22.23.42.47.61.71h0c.19.24.37.49.53.74a7.67,7.67,0,0,1,1.23,4.19v.32h-2.12v-.32h0a5,5,0,0,0-.51-2.22,3.79,3.79,0,0,0-.18-.34h0a6.92,6.92,0,0,0-1.35-1.63h0a5,5,0,0,0-.52-.39,3.68,3.68,0,0,0-.58-.34,9.22,9.22,0,0,0-4.09-.8h-2.66a10,10,0,0,1,4.12,8.56v0h0a11,11,0,0,1-.82,4.24h0c-.09.21-.19.42-.29.63a11.59,11.59,0,0,1-2.17,3h0a11.34,11.34,0,0,1-3.58,2.5,10.86,10.86,0,0,1-8.47,0h0l-.54-.26h0l-.53-.28a11.37,11.37,0,0,1-2.42-1.82h0l-.41-.43q-.2-.21-.39-.45a10.69,10.69,0,0,1-1.58-2.63,10.13,10.13,0,0,1-.65-2.09h0a10.73,10.73,0,0,1-.22-2.2v0h0a10.91,10.91,0,0,1,.63-3.71c.07-.19.14-.38.22-.56a11,11,0,0,1,1.64-2.71h0l.16-.19h0l.16-.18h0a11,11,0,0,1,.91-.9h0l.17-.15h0l.18-.15h0l.15-.11Zm6.62,17.36h0a7.56,7.56,0,0,0,1.72-.19h0l.55-.13a8.65,8.65,0,0,0,1.07-.4,9.15,9.15,0,0,0,1.5-.86h0a9.1,9.1,0,0,0,1.29-1.11h0c.11-.11.21-.22.32-.35s.21-.24.3-.36a9.71,9.71,0,0,0,1.27-2.1,8.24,8.24,0,0,0,.7-3.29h0a8,8,0,0,0-.66-3.25c-.07-.16-.15-.32-.23-.48a8.63,8.63,0,0,0-1.74-2.29,8.84,8.84,0,0,0-2.79-1.84,8.54,8.54,0,0,0-3.25-.61h0a8.26,8.26,0,0,0-1.65.18l-.26.07a6.79,6.79,0,0,0-1.31.46h0l-.43.21-.41.23a8.87,8.87,0,0,0-1.88,1.46,10,10,0,0,0-1,1.29,10.37,10.37,0,0,0-.8,1.47h0v0h0q-.17.39-.3.78c-.08.26-.15.52-.21.79a8.47,8.47,0,0,0-.17,1.68v0h0a7.67,7.67,0,0,0,.18,1.66h0l.07.27h0a8.23,8.23,0,0,0,.45,1.32,9.85,9.85,0,0,0,.8,1.47,9.38,9.38,0,0,0,1,1.29,8.57,8.57,0,0,0,1.27,1.07,8.17,8.17,0,0,0,1.44.83,6.92,6.92,0,0,0,1.57.53,7.34,7.34,0,0,0,1.63.18Z" transform="translate(-573.3 -2.36)"/><path class="cls-1" d="M583.48,76a11.3,11.3,0,0,1,.22-2.19,9.67,9.67,0,0,1,.64-2h0l.25-.54h0c.09-.18.19-.36.28-.52h0a11,11,0,0,1,3.4-3.71,10.91,10.91,0,0,1,1.84-1h0l.56-.22.56-.19h0a10.63,10.63,0,0,1,3.06-.43,9.56,9.56,0,0,1,4.09.9h0l.54.26h0l.53.29a12,12,0,0,1,2.43,1.84h0c.15.14.29.29.41.42h0c.13.14.27.29.4.46h0A12,12,0,0,1,604.38,72l0,0h0c.08.18.16.38.24.57s.14.39.2.58h0a10.22,10.22,0,0,1,.48,3.12,10,10,0,0,1-.88,4.15,11.08,11.08,0,0,1-1,1.82,10.58,10.58,0,0,1-1.33,1.59,11.22,11.22,0,0,1-1.6,1.32,12.51,12.51,0,0,1-1.83,1,10.25,10.25,0,0,1-4.15.87h0a10.13,10.13,0,0,1-2.13-.22h0c-.22,0-.45-.1-.68-.16a13.67,13.67,0,0,1-1.36-.47,11,11,0,0,1-1.88-1,10.38,10.38,0,0,1-1.64-1.33h0l-.4-.42h0q-.21-.22-.39-.45a11.49,11.49,0,0,1-1.6-2.61,9.67,9.67,0,0,1-.69-2.09h0a10.88,10.88,0,0,1-.23-2.23Zm2.4,0v0h0a8.51,8.51,0,0,0,.63,3.3,7.59,7.59,0,0,0,.49,1,9.25,9.25,0,0,0,1.39,1.8h0A8.64,8.64,0,0,0,591.22,84a9.06,9.06,0,0,0,3.37.62,8.27,8.27,0,0,0,1.66-.17,8.16,8.16,0,0,0,1.56-.52,8.57,8.57,0,0,0,1.42-.81,8.75,8.75,0,0,0,1.23-1,9.54,9.54,0,0,0,1-1.27,10.32,10.32,0,0,0,.79-1.47v0c.06-.14.11-.29.17-.44h0c0-.14.1-.29.14-.44a8.18,8.18,0,0,0,.34-2.37v0h0a7.43,7.43,0,0,0-.18-1.64l-.07-.27a7.72,7.72,0,0,0-.48-1.29h0a10.34,10.34,0,0,0-.86-1.44,9.13,9.13,0,0,0-1.09-1.24h0l-.35-.31-.36-.3a9.64,9.64,0,0,0-2-1.21h0c-.15-.07-.29-.12-.43-.17h0l-.44-.15a7.52,7.52,0,0,0-2.27-.34,8.25,8.25,0,0,0-6,2.46h0a8.52,8.52,0,0,0-.65.71,6.46,6.46,0,0,0-.54.75A8,8,0,0,0,585.88,76Z" transform="translate(-573.3 -2.36)"/><path class="cls-1" d="M583.48,137.82a11.3,11.3,0,0,1,.22-2.19,9.49,9.49,0,0,1,.64-2v0h0l.25-.54h0c.09-.18.19-.36.28-.52h0a10.73,10.73,0,0,1,1.8-2.38h0a10.18,10.18,0,0,1,1.6-1.33,12.57,12.57,0,0,1,1.83-1h0l.56-.22.56-.19h0a10.63,10.63,0,0,1,3.06-.43,9.67,9.67,0,0,1,2.08.22,10.31,10.31,0,0,1,2,.67h0l.54.26.53.29a12,12,0,0,1,2.43,1.84h0c.15.15.29.29.41.43h0c.13.14.27.29.4.46h0a12,12,0,0,1,1.64,2.63l0,0h0l.24.58c.07.19.14.39.2.58h0a10.17,10.17,0,0,1,.48,3.12,10,10,0,0,1-.88,4.15,11.08,11.08,0,0,1-1,1.82,10.58,10.58,0,0,1-1.33,1.59h0a11.22,11.22,0,0,1-1.6,1.32h0a11.61,11.61,0,0,1-1.83,1,9.36,9.36,0,0,1-2,.66,10,10,0,0,1-2.13.22h0a10.13,10.13,0,0,1-2.13-.22c-.22,0-.45-.1-.68-.16a11.58,11.58,0,0,1-1.36-.48,11.28,11.28,0,0,1-3.52-2.34h0l-.4-.42h0l-.39-.45a11.49,11.49,0,0,1-1.6-2.61,9.67,9.67,0,0,1-.69-2.09h0a10.88,10.88,0,0,1-.23-2.23Zm2.4,0v0h0a8.51,8.51,0,0,0,.63,3.3,7.59,7.59,0,0,0,.49,1,9.31,9.31,0,0,0,1.4,1.8h0a8.64,8.64,0,0,0,2.82,1.84,9.06,9.06,0,0,0,3.37.62,7.61,7.61,0,0,0,1.66-.18,7.49,7.49,0,0,0,1.56-.51,8.57,8.57,0,0,0,1.42-.81,8.75,8.75,0,0,0,1.23-1h0a9.54,9.54,0,0,0,1-1.27,10.32,10.32,0,0,0,.79-1.47v0c.06-.14.11-.29.17-.44h0c0-.14.1-.29.14-.45a8.12,8.12,0,0,0,.34-2.36v0h0a7.43,7.43,0,0,0-.18-1.64l-.07-.27a7.72,7.72,0,0,0-.48-1.29h0a9.34,9.34,0,0,0-2-2.69h0c-.11-.11-.23-.21-.35-.31l-.36-.3a9.64,9.64,0,0,0-2-1.21h0c-.15-.07-.29-.12-.43-.17h0l-.44-.15a7.52,7.52,0,0,0-2.27-.34,8.25,8.25,0,0,0-6,2.46h0a8.52,8.52,0,0,0-.65.71,6.46,6.46,0,0,0-.54.75,8,8,0,0,0-1.28,4.48Z" transform="translate(-573.3 -2.36)"/><path class="cls-1" d="M604.93,164.19v2.17H573.3v-5.8h0a7.47,7.47,0,0,1,.79-3.5,6.39,6.39,0,0,1,2.36-2.49,5.1,5.1,0,0,1,.77-.4,6.37,6.37,0,0,1,.79-.3,8.33,8.33,0,0,1,.84-.17h0a6.15,6.15,0,0,1,.87-.06h0a7.51,7.51,0,0,1,1.2.09l.37.07h0a5.24,5.24,0,0,1,1.66.62h0a3.06,3.06,0,0,1,.36.23h0a3.85,3.85,0,0,1,.34.26h0a6.72,6.72,0,0,1,1.49,1.78h0a6,6,0,0,1,.47.91,4.89,4.89,0,0,1,.29,1h0l0,.22h0a7.55,7.55,0,0,1,0,.83h0v4.16h18.9v.32Zm-29.26-3.71v3.39h8v-3.55a4.46,4.46,0,0,0-.47-2.1h0a3.91,3.91,0,0,0-1.42-1.47h0a3.44,3.44,0,0,0-1-.43,4.09,4.09,0,0,0-1.12-.14,3.76,3.76,0,0,0-1.59.31,3.56,3.56,0,0,0-1.27.94h0c-.1.12-.2.24-.29.37a2.55,2.55,0,0,0-.24.39,4.46,4.46,0,0,0-.57,2.28Z" transform="translate(-573.3 -2.36)"/><path class="cls-1" d="M583.59,147.32h2.24v.32a7.86,7.86,0,0,0,1.06,4.13h0a5.41,5.41,0,0,0,.45.65,6.2,6.2,0,0,0,.54.61h0a6.8,6.8,0,0,0,2.06,1.39l.48.18a10.14,10.14,0,0,0,3.44.54h11v2.4H593.81a12.33,12.33,0,0,1-4.33-.72,9.45,9.45,0,0,1-3.41-2.15,8.78,8.78,0,0,1-1.84-2.54c-.09-.19-.18-.38-.25-.57h0a10.86,10.86,0,0,1-.7-3.92h0v-.32Z" transform="translate(-573.3 -2.36)"/><path class="cls-1" d="M582.59,65.86V62.51h-3.18V60.1h3.18V55.26h2.09V60.1h12.75a5,5,0,0,0,3.81-1.34h0c.11-.13.23-.25.33-.39h0a4.27,4.27,0,0,0,.29-.41,4.51,4.51,0,0,0,.66-2.38v-.32h2.39v.32a6.9,6.9,0,0,1-.14,1.44,6.52,6.52,0,0,1-.4,1.37h0v0h0c0,.13-.11.26-.16.37h0c-.06.12-.12.24-.19.36h0a6.48,6.48,0,0,1-1.32,1.61h0l-.31.26-.32.23a6,6,0,0,1-1.78.87h0a8.41,8.41,0,0,1-1.34.3,9.32,9.32,0,0,1-1.4.1H584.68v3.67h-2.09v-.32Z" transform="translate(-573.3 -2.36)"/><polygon class="cls-1" points="31.62 47.45 31.62 49.26 31.62 49.57 31.31 49.57 12.61 49.57 12.3 49.57 12.3 49.26 12.3 47.45 12.3 47.13 12.61 47.13 31.31 47.13 31.62 47.13 31.62 47.45 31.62 47.45"/><path class="cls-1" d="M593.8,106h11.08v2.37h-11a10.43,10.43,0,0,0-3.45.52,6.89,6.89,0,0,0-2.56,1.53h0a7.34,7.34,0,0,0-.53.6,5.55,5.55,0,0,0-.45.63,7.25,7.25,0,0,0-1.06,4v0h0a8.07,8.07,0,0,0,.51,2.92h0q.09.19.18.42a6.79,6.79,0,0,0,1.35,1.9h0a7.42,7.42,0,0,0,1.32,1,9.42,9.42,0,0,0,4.68,1.06h11v2.36H593.81a12.57,12.57,0,0,1-4.33-.7,9.61,9.61,0,0,1-3.41-2.1,8.71,8.71,0,0,1-2.1-3,10.2,10.2,0,0,1-.69-3.83,10,10,0,0,1,.7-3.83,8.81,8.81,0,0,1,2.09-3,9.28,9.28,0,0,1,1.36-1.07c.29-.19.59-.37.91-.54l-.27-.14a9.86,9.86,0,0,1-2-1.46,8.59,8.59,0,0,1-2.09-3,10.83,10.83,0,0,1,0-7.66,8.55,8.55,0,0,1,2.09-3,9.61,9.61,0,0,1,3.41-2.1,12.6,12.6,0,0,1,4.33-.71h11.07v2.37h-11a10.67,10.67,0,0,0-3.44.52h0l-.48.18a7.08,7.08,0,0,0-2.07,1.36h0a7.23,7.23,0,0,0-.53.59,5.55,5.55,0,0,0-.45.63,7.27,7.27,0,0,0-1.06,4v0h0a8.12,8.12,0,0,0,.51,2.93l.18.42a6.61,6.61,0,0,0,3.87,3.43,10.41,10.41,0,0,0,3.41.51Z" transform="translate(-573.3 -2.36)"/><path class="cls-1" d="M585.88,36.32h0a7.87,7.87,0,0,0,1.06,4.14h0a5.41,5.41,0,0,0,.45.65,6.09,6.09,0,0,0,.53.61h0A6.7,6.7,0,0,0,590,43.12h0a4.78,4.78,0,0,0,.48.19,10.15,10.15,0,0,0,3.44.53h11v2.41H593.86a12.33,12.33,0,0,1-4.33-.72,9.68,9.68,0,0,1-3.42-2.15,8.74,8.74,0,0,1-2.08-3.1,11.3,11.3,0,0,1,0-7.83,8.82,8.82,0,0,1,2.08-3.1,9.86,9.86,0,0,1,3.42-2.15,12.33,12.33,0,0,1,4.33-.72h11.07v2.41h-11a10.42,10.42,0,0,0-3.45.53,6.71,6.71,0,0,0-3.91,3.51h0c-.07.14-.13.29-.18.42a8.05,8.05,0,0,0-.52,3Z" transform="translate(-573.3 -2.36)"/></svg>