<svg id="promoting" xmlns="http://www.w3.org/2000/svg" width="140" height="70" viewBox="0 0 140 70"><defs><style>.cls-1,.cls-2{fill:#999;}.cls-2{fill-rule:evenodd;}</style></defs><title>promoting</title><path class="cls-1" d="M139.94,49.1V47.73H142V62.86a12.69,12.69,0,0,1-.37,3.31h0a1.26,1.26,0,0,1-.15.45l-.18.41a6.8,6.8,0,0,1-1.41,2h0a7.49,7.49,0,0,1-.61.51h0c-.21.17-.42.31-.62.46a6.68,6.68,0,0,1-3.6,1h-.26V69.19h.27a4.44,4.44,0,0,0,1.86-.43l.3-.16h0a5.47,5.47,0,0,0,1.39-1.15h0A5.12,5.12,0,0,0,139,67a3,3,0,0,0,.28-.49,7.85,7.85,0,0,0,.69-3.48V60.76a8.52,8.52,0,0,1-7.31,3.51h0a9.58,9.58,0,0,1-3.63-.71h0a5.05,5.05,0,0,1-.53-.24,9.59,9.59,0,0,1-2.55-1.87h0a9.44,9.44,0,0,1-2.13-3.09,8.81,8.81,0,0,1-.72-3.58,8.59,8.59,0,0,1,.76-3.6h0l.21-.47h0a5.05,5.05,0,0,1,.25-.45,9.71,9.71,0,0,1,1.54-2.06h0l.37-.36.38-.33a9.38,9.38,0,0,1,4-1.94h0a9,9,0,0,1,1.86-.19h0a9.51,9.51,0,0,1,3.17.54l.48.18a9.53,9.53,0,0,1,2.31,1.39h0l.16.15h0l.24.2h0a9.32,9.32,0,0,1,.77.77h0l.13.15h0l.13.15h0L140,49Zm-14.82,5.6h0a7.85,7.85,0,0,0,.16,1.45h0a1.8,1.8,0,0,0,.12.47,8,8,0,0,0,.34,1,8.37,8.37,0,0,0,.73,1.27h0a8.47,8.47,0,0,0,1,1.1h0l.3.27.31.26a8.79,8.79,0,0,0,1.79,1.08,7.24,7.24,0,0,0,2.8.59h0a6.93,6.93,0,0,0,2.8-.56l.41-.2a8,8,0,0,0,3.53-3.88,7.48,7.48,0,0,0,.52-2.8h0a5.89,5.89,0,0,0-.16-1.4v-.23a6.46,6.46,0,0,0-.39-1.12h0a3.14,3.14,0,0,0-.18-.37c-.07-.11-.12-.23-.19-.35a7.37,7.37,0,0,0-1.25-1.59,7.28,7.28,0,0,0-1.1-1,7.66,7.66,0,0,0-1.26-.68h0c-.21-.09-.44-.18-.66-.25l-.68-.17a6.88,6.88,0,0,0-1.43-.15h0a6.69,6.69,0,0,0-1.41.15H131a5.3,5.3,0,0,0-1.12.39,5.89,5.89,0,0,0-1.26.68,6.6,6.6,0,0,0-1.16,1,7.63,7.63,0,0,0-1,1.07,10.08,10.08,0,0,0-.69,1.3,7,7,0,0,0-.45,1.34,6.5,6.5,0,0,0-.15,1.39Z" transform="translate(-2.01 -1)"/><path class="cls-1" d="M79.12,45.64a9,9,0,0,1,1.86.19,8.57,8.57,0,0,1,1.74.54h0l.46.22h0l.45.23h0a9.36,9.36,0,0,1,3.18,2.92,9.14,9.14,0,0,1,.85,1.57h0c.08.16.13.31.2.47a3.38,3.38,0,0,1,.16.48h0a9.25,9.25,0,0,1,.37,2.61,8.34,8.34,0,0,1-.77,3.49h0a3.88,3.88,0,0,1-.22.46h0a4.92,4.92,0,0,1-.24.45,11.06,11.06,0,0,1-1.54,2h0l-.37.35h0c-.11.11-.24.22-.38.34h0a10.49,10.49,0,0,1-2.17,1.44h0l-.48.2-.5.18h0a9,9,0,0,1-4.49.21,8,8,0,0,1-1.72-.56,9.44,9.44,0,0,1-2.91-2,9.35,9.35,0,0,1-1.21-1.38,10.31,10.31,0,0,1-.88-1.55A9.5,9.5,0,0,1,70,56.8,10.11,10.11,0,0,1,69.76,55h0A9.92,9.92,0,0,1,70,53.18h0a2.16,2.16,0,0,1,.14-.57,11.33,11.33,0,0,1,.4-1.16,10,10,0,0,1,.87-1.61,9.28,9.28,0,0,1,1.14-1.38h0a4.12,4.12,0,0,1,.37-.35h0a2.91,2.91,0,0,1,.37-.33,10.2,10.2,0,0,1,2.23-1.37,9.71,9.71,0,0,1,1.83-.57h0A9.31,9.31,0,0,1,79.12,45.64Zm0,2h0a7.46,7.46,0,0,0-2.8.54,5.43,5.43,0,0,0-.84.41A7.22,7.22,0,0,0,74,49.8h0a7.37,7.37,0,0,0-1.56,2.4,7.56,7.56,0,0,0-.53,2.86A6.76,6.76,0,0,0,72,56.47a6.52,6.52,0,0,0,.45,1.33,7.17,7.17,0,0,0,.69,1.2,6,6,0,0,0,1,1,6.43,6.43,0,0,0,1.08.87,7.56,7.56,0,0,0,1.26.66h0l.37.15h0l.38.12a7,7,0,0,0,2,.29h0a6.59,6.59,0,0,0,1.4-.15l.24-.06a7.7,7.7,0,0,0,1.1-.41h0a10.2,10.2,0,0,0,1.23-.73,9.65,9.65,0,0,0,1-1h0c.09-.1.18-.19.26-.29l.27-.31a8.09,8.09,0,0,0,1-1.72h0c.06-.12.1-.25.15-.37h0a1.47,1.47,0,0,1,.13-.37,6.44,6.44,0,0,0,.29-2,7,7,0,0,0-2.08-5.06h0c-.2-.2-.4-.38-.6-.56s-.43-.31-.65-.45a6.74,6.74,0,0,0-3.87-1.06Z" transform="translate(-2.01 -1)"/><path class="cls-1" d="M26.37,45.64a9,9,0,0,1,1.87.19,8.86,8.86,0,0,1,1.75.54h0l.46.22h0l.44.23h0a9.55,9.55,0,0,1,2,1.53h0a8.87,8.87,0,0,1,1.16,1.36A10.41,10.41,0,0,1,35,51.27h0l.18.47c.06.17.11.32.16.48h0a8.9,8.9,0,0,1,.37,2.61,8,8,0,0,1-.19,1.76,7.81,7.81,0,0,1-.57,1.71h0l-.22.46-.25.46a10.69,10.69,0,0,1-1.61,2.06h0l-.37.35h0l-.39.34h0a10.46,10.46,0,0,1-2.25,1.4h0l-.48.2-.51.18h0a9.57,9.57,0,0,1-2.66.4A9.19,9.19,0,0,1,24.37,64a8.62,8.62,0,0,1-1.72-.55,10.08,10.08,0,0,1-2.92-2h0a9.59,9.59,0,0,1-1.12-1.34h0a10.36,10.36,0,0,1-.89-1.55,8.74,8.74,0,0,1-.55-1.71A8.5,8.5,0,0,1,17,55h0a8.43,8.43,0,0,1,.19-1.81,2.63,2.63,0,0,1,.13-.57,8.84,8.84,0,0,1,.41-1.16,9.71,9.71,0,0,1,2-3h0l.36-.35h0l.39-.33a10.2,10.2,0,0,1,2.23-1.37,9.11,9.11,0,0,1,1.79-.57h0a9.73,9.73,0,0,1,1.87-.2Zm0,2h0a7.46,7.46,0,0,0-2.8.54,4.93,4.93,0,0,0-.83.41,7.79,7.79,0,0,0-1.58,1.17h0a7,7,0,0,0-1.57,2.4,7.56,7.56,0,0,0-.53,2.86,6.76,6.76,0,0,0,.15,1.41,7.15,7.15,0,0,0,.44,1.33A7.33,7.33,0,0,0,20.32,59a7.26,7.26,0,0,0,1,1h0a8.41,8.41,0,0,0,1.1.87,7.37,7.37,0,0,0,1.24.66h0l.38.15h0l.38.12a6.84,6.84,0,0,0,2,.29h0A6.59,6.59,0,0,0,27.8,62l.23-.06a7.4,7.4,0,0,0,1.11-.41h0a10.09,10.09,0,0,0,1.22-.73,8.92,8.92,0,0,0,1.07-1h0l.27-.29.25-.31a8.38,8.38,0,0,0,1-1.72h0c0-.12.1-.25.14-.37h0a1.16,1.16,0,0,1,.13-.37,6.77,6.77,0,0,0,.29-2,7,7,0,0,0-2.06-5.08h0c-.2-.2-.4-.38-.6-.56a6.74,6.74,0,0,0-.64-.45,6.85,6.85,0,0,0-3.87-1.06Z" transform="translate(-2.01 -1)"/><path class="cls-1" d="M3.87,63.88H2V37H7a6.4,6.4,0,0,1,3,.66,5.59,5.59,0,0,1,2.13,2,5,5,0,0,1,.34.65,4,4,0,0,1,.26.68c.06.23.11.47.15.71h0a4.45,4.45,0,0,1,0,.73h0a7.13,7.13,0,0,1-.07,1,1,1,0,0,1-.06.33h0a4.25,4.25,0,0,1-.54,1.41h0c-.06.1-.12.2-.19.3h0a3.25,3.25,0,0,1-.23.29h0a5.74,5.74,0,0,1-1.51,1.27h0a6.43,6.43,0,0,1-.79.39,5.13,5.13,0,0,1-.87.26H4.13V63.82ZM7,39H4.11V45.8H7.17A3.74,3.74,0,0,0,9,45.4H9a3.38,3.38,0,0,0,1.27-1.19h0a3.25,3.25,0,0,0,.35-.84,4,4,0,0,0,.13-1,3.64,3.64,0,0,0-.26-1.35A3,3,0,0,0,9.64,40h0l-.31-.26L9,39.51A3.86,3.86,0,0,0,7.05,39Z" transform="translate(-2.01 -1)"/><path class="cls-1" d="M18.27,45.72v1.87H18a7,7,0,0,0-3.53,1h0a4.29,4.29,0,0,0-.55.4,4.41,4.41,0,0,0-.52.45h0a5.56,5.56,0,0,0-1.18,1.76c-.06.13-.11.27-.16.4a8.69,8.69,0,0,0-.46,2.91h0v9.34H9.54V54.47a10.32,10.32,0,0,1,.61-3.73A8.1,8.1,0,0,1,12,47.82a7.56,7.56,0,0,1,2.17-1.55l.49-.22h0A8.88,8.88,0,0,1,18,45.46h.28v.26Z" transform="translate(-2.01 -1)"/><path class="cls-1" d="M87.79,44.89h2.92V42.18h2.05v2.71H96.9v1.8H92.71V57.51a4.24,4.24,0,0,0,1.15,3.23h0a3,3,0,0,0,.33.29h0l.36.25a3.8,3.8,0,0,0,2,.55h.27v2h-.27a5.73,5.73,0,0,1-1.24-.12,7.81,7.81,0,0,1-1.17-.33h0l-.32-.15h0l-.31-.15h0A6.16,6.16,0,0,1,92.17,62h0L92,61.73a1.39,1.39,0,0,1-.21-.27A4.8,4.8,0,0,1,91,60h0a5.56,5.56,0,0,1-.27-1.14,9.67,9.67,0,0,1-.08-1.2h0V46.69h-3.1v-1.8Z" transform="translate(-2.01 -1)"/><polygon class="cls-1" points="99.49 62.87 97.94 62.87 97.67 62.87 97.67 62.62 97.67 46.72 97.67 46.45 97.94 46.45 99.49 46.45 99.75 46.45 99.75 46.72 99.75 62.62 99.75 62.87 99.49 62.87 99.49 62.87"/><path class="cls-1" d="M53.54,54.47v9.34H51.48V54.47A9,9,0,0,0,51,51.56a5.71,5.71,0,0,0-1.31-2.16h0a4.41,4.41,0,0,0-.51-.46,5.3,5.3,0,0,0-.54-.39,6.27,6.27,0,0,0-3.39-1h0A6.85,6.85,0,0,0,42.8,48h0l-.36.15a5.56,5.56,0,0,0-1.62,1.15h0c-.16.17-.32.35-.46.53a4.49,4.49,0,0,0-.37.59,8,8,0,0,0-1,4v9.34H37V54.47a11,11,0,0,1,.59-3.73,8.62,8.62,0,0,1,1.79-2.92A7.47,7.47,0,0,1,42,46.05a9.18,9.18,0,0,1,6.53,0,7.5,7.5,0,0,1,2.6,1.78,9.67,9.67,0,0,1,1,1.15c.16.25.31.52.45.79l.12-.24a8.77,8.77,0,0,1,1.26-1.71,7.31,7.31,0,0,1,2.53-1.76,8.78,8.78,0,0,1,3.28-.6,8.65,8.65,0,0,1,3.26.6,7.33,7.33,0,0,1,2.58,1.78,8,8,0,0,1,1.8,2.92,10.65,10.65,0,0,1,.6,3.71v9.34h-2V54.47h0a8.71,8.71,0,0,0-.44-2.91h0a1.28,1.28,0,0,0-.15-.4,5.94,5.94,0,0,0-1.11-1.77h0a3.64,3.64,0,0,0-.5-.46c-.18-.14-.36-.27-.55-.39a6.21,6.21,0,0,0-3.38-1h0a6.81,6.81,0,0,0-2.49.44l-.37.15a5.56,5.56,0,0,0-1.62,1.15,5.74,5.74,0,0,0-1.4,2.25A8.7,8.7,0,0,0,53.54,54.47Z" transform="translate(-2.01 -1)"/><path class="cls-1" d="M113,47.67h0a6.72,6.72,0,0,0-3.53,1h0a4.14,4.14,0,0,0-.55.38,5.59,5.59,0,0,0-.52.45h0a5.82,5.82,0,0,0-1.19,1.76h0a3.25,3.25,0,0,0-.15.4,8.54,8.54,0,0,0-.46,2.92h0v9.33h-2.06V54.47a10.68,10.68,0,0,1,.62-3.67,8.12,8.12,0,0,1,1.87-2.92,7.27,7.27,0,0,1,2.64-1.77,9.6,9.6,0,0,1,6.68,0,7.38,7.38,0,0,1,2.6,1.82,8.4,8.4,0,0,1,1.87,2.92,11,11,0,0,1,.6,3.73V64h-2V54.66a8.79,8.79,0,0,0-.46-2.92,5.66,5.66,0,0,0-3-3.32h0l-.43-.27a6.84,6.84,0,0,0-2.53-.43Z" transform="translate(-2.01 -1)"/><path class="cls-2" d="M141.81,44.41c-3.74-24-29.36-14.73-41.81,0C115.41,33.53,134.35,30.41,141.81,44.41Z" transform="translate(-2.01 -1)"/><path class="cls-1" d="M132.44,19.16a9.81,9.81,0,0,0,.27-1.87,14.74,14.74,0,0,0-.34-2.18,4.9,4.9,0,0,1-.14-2.25,2.46,2.46,0,0,1,1.15-1.51,2.16,2.16,0,0,1,1.71-.34,2.2,2.2,0,0,1,1.39,1.1,2.55,2.55,0,0,1,.2,2,5,5,0,0,1-1.22,1.86,9.67,9.67,0,0,0-1.34,1.65,10.58,10.58,0,0,0-.81,1.86,9.79,9.79,0,0,0,1.94-.38,13.25,13.25,0,0,0,1.87-1,3.81,3.81,0,0,1,2.92-.72,2.27,2.27,0,0,1,1.4,1,2,2,0,0,1,.24,1.63,2.16,2.16,0,0,1-1.22,1.39,3,3,0,0,1-2.21.13c-.29-.07-.78-.22-1.5-.45l-1.09-.31c-.4-.1-1.32-.32-2.39-.55a10.94,10.94,0,0,0,1,1.79,12.25,12.25,0,0,0,1.48,1.49,5.1,5.1,0,0,1,1.44,1.81,2.28,2.28,0,0,1-1.33,2.94,2.23,2.23,0,0,1-1.35.09,2.41,2.41,0,0,1-1.45-1.19,5,5,0,0,1-.28-2.91,9.8,9.8,0,0,0,.12-1.87,9.92,9.92,0,0,0-.42-1.87,11.52,11.52,0,0,0-1.4,1.48,9.41,9.41,0,0,0-.86,1.63A5.25,5.25,0,0,1,128.56,26a2.34,2.34,0,0,1-1.86.28,2.21,2.21,0,0,1-1.34-1,2,2,0,0,1-.25-1.57,2.65,2.65,0,0,1,1-1.37,5.53,5.53,0,0,1,2.12-1,18.8,18.8,0,0,0,2.07-.6,14.31,14.31,0,0,0,1.76-1l-2.25-.68-1.13-.28c-.84-.17-1.43-.29-1.73-.37a3,3,0,0,1-1.8-1.2,2.15,2.15,0,0,1,.5-3l.19-.13a2.3,2.3,0,0,1,1.86-.28,3.77,3.77,0,0,1,2.23,1.95c.35.66.75,1.31,1.17,1.94a9.77,9.77,0,0,0,1.44,1.29Z" transform="translate(-2.01 -1)"/><path class="cls-2" d="M127.18,26.46a8.31,8.31,0,0,1-11.66-1.11,8.15,8.15,0,0,1,1.07-11.47v-.05a3.31,3.31,0,0,1,4.66.45,3.25,3.25,0,0,1-.41,4.58h0a4.91,4.91,0,0,0-.71,6.87,5,5,0,0,0,7,.66Z" transform="translate(-2.01 -1)"/><path class="cls-2" d="M123.65,1a5.6,5.6,0,1,1-5.6,5.6,5.6,5.6,0,0,1,5.6-5.6Z" transform="translate(-2.01 -1)"/></svg>