<svg id="promoting" xmlns="http://www.w3.org/2000/svg" width="150" height="75" viewBox="0 0 150 75"><defs><style>.cls-1,.cls-2{fill:#999;}.cls-2{fill-rule:evenodd;}</style></defs><title>promoting</title><path class="cls-1" d="M110.18,87.25V85.79h2.2V102a13.48,13.48,0,0,1-.39,3.54h0c0,.16-.1.32-.16.48l-.2.45a7,7,0,0,1-1.51,2.08h0a8.39,8.39,0,0,1-.65.56h0c-.22.17-.45.33-.67.48a7.08,7.08,0,0,1-3.84,1.13h-.29v-1.94h.3a4.68,4.68,0,0,0,2-.46l.31-.17h0a6.2,6.2,0,0,0,1.49-1.23h0a3.43,3.43,0,0,0,.36-.47,3.88,3.88,0,0,0,.31-.53,8.29,8.29,0,0,0,.73-3.73V99.75a9.13,9.13,0,0,1-7.83,3.76h0a10.22,10.22,0,0,1-3.89-.76h0a5.65,5.65,0,0,1-.57-.26,10.63,10.63,0,0,1-2.73-2h0a10.19,10.19,0,0,1-2.28-3.27,9.56,9.56,0,0,1-.77-3.83,9.42,9.42,0,0,1,.81-3.87h0l.23-.5h0c.08-.16.17-.32.26-.48a10.57,10.57,0,0,1,1.66-2.21h0l.39-.38.41-.35a10.06,10.06,0,0,1,2.41-1.44,9.85,9.85,0,0,1,1.91-.6h0a10.4,10.4,0,0,1,2-.19h0a10.07,10.07,0,0,1,3.4.57l.51.2a10.09,10.09,0,0,1,2.48,1.49h0l.17.15h0L109,86h0a9.06,9.06,0,0,1,.82.82h0l.14.16h0l.14.17h0l.1.13Zm-15.88,6v0h0a7.38,7.38,0,0,0,.17,1.56h0c0,.17.08.34.13.5a7.28,7.28,0,0,0,.37,1,7.88,7.88,0,0,0,.78,1.36h0a8.08,8.08,0,0,0,1,1.18h0l.32.29.33.28a9.77,9.77,0,0,0,1.92,1.15,7.87,7.87,0,0,0,3,.64h0a7.3,7.3,0,0,0,3-.6l.44-.21a8.56,8.56,0,0,0,3.78-4.13,7.7,7.7,0,0,0,.56-3v0h0a6.82,6.82,0,0,0-.16-1.5l-.06-.24a6.58,6.58,0,0,0-.42-1.2h0c-.06-.13-.12-.26-.19-.39s-.13-.25-.21-.38a7.57,7.57,0,0,0-1.33-1.7,8.26,8.26,0,0,0-1.18-1,8,8,0,0,0-1.35-.73h0a6.77,6.77,0,0,0-.71-.26,6,6,0,0,0-.73-.19,7.1,7.1,0,0,0-1.53-.16h0a6.91,6.91,0,0,0-1.51.16h0l-.25,0h0a5.87,5.87,0,0,0-1.2.41,7.59,7.59,0,0,0-1.35.73,7.74,7.74,0,0,0-1.18,1,8.27,8.27,0,0,0-1,1.15A8.45,8.45,0,0,0,95,90.37a6.91,6.91,0,0,0-.49,1.43,7.29,7.29,0,0,0-.16,1.48Z" transform="translate(37.62 -35.72)"/><path class="cls-1" d="M45,83.55a10.23,10.23,0,0,1,2,.2,9.42,9.42,0,0,1,1.87.58h0l.49.23h0l.48.25h0a10.1,10.1,0,0,1,3.4,3.1,10.44,10.44,0,0,1,.92,1.68h0v0h0c.08.17.14.34.21.5s.12.35.17.52h0a9.92,9.92,0,0,1,.4,2.8,8.47,8.47,0,0,1-.21,1.88,9,9,0,0,1-.61,1.84h0c-.07.16-.15.32-.24.49h0a5.42,5.42,0,0,1-.26.48A11.22,11.22,0,0,1,52,100.34h0c-.13.14-.26.26-.39.38h0c-.13.12-.26.24-.41.36h0a10.83,10.83,0,0,1-2.41,1.5h0l-.52.22-.53.19h0a9.68,9.68,0,0,1-4.81.23,8.79,8.79,0,0,1-1.84-.6,10.05,10.05,0,0,1-1.67-.93,9.31,9.31,0,0,1-1.45-1.21A10,10,0,0,1,36.67,99a10.88,10.88,0,0,1-.94-1.67,9.33,9.33,0,0,1-.6-1.83,9.68,9.68,0,0,1-.2-1.94v0h0a9.58,9.58,0,0,1,.2-1.93h0c0-.2.09-.41.15-.62a10.68,10.68,0,0,1,.43-1.24,10.53,10.53,0,0,1,.93-1.72,9.6,9.6,0,0,1,1.22-1.48h0a4.51,4.51,0,0,1,.39-.37h0a4.59,4.59,0,0,1,.41-.36,11,11,0,0,1,2.38-1.46A9.91,9.91,0,0,1,43,83.76h0a9.8,9.8,0,0,1,2-.21Zm0,2.18h0a7.94,7.94,0,0,0-3,.58,5.66,5.66,0,0,0-.89.44A7.91,7.91,0,0,0,39.42,88h0a7.88,7.88,0,0,0-1.68,2.57,8.3,8.3,0,0,0-.56,3.07,7.51,7.51,0,0,0,.15,1.51,7.42,7.42,0,0,0,.48,1.42,8.73,8.73,0,0,0,.74,1.3,7.72,7.72,0,0,0,1,1.11,8.75,8.75,0,0,0,1.16.93,8.64,8.64,0,0,0,1.35.71h0l.4.16h0l.41.13a7.83,7.83,0,0,0,2.16.31h0a6.69,6.69,0,0,0,1.5-.17l.25-.06a7,7,0,0,0,1.18-.44h0a9.55,9.55,0,0,0,1.32-.78,9.65,9.65,0,0,0,1.13-1v0h0c.09-.1.19-.2.28-.31l.28-.33a8.61,8.61,0,0,0,1.1-1.85v0h0a4,4,0,0,0,.16-.39h0c0-.14.1-.27.14-.4a7.19,7.19,0,0,0,.31-2.06A7.54,7.54,0,0,0,50.45,88h0c-.22-.21-.43-.41-.65-.59a6.63,6.63,0,0,0-.69-.49A7.34,7.34,0,0,0,45,85.73Z" transform="translate(37.62 -35.72)"/><path class="cls-1" d="M-11.51,83.55a10.2,10.2,0,0,1,2,.2,9.22,9.22,0,0,1,1.87.58h0l.49.23h0l.48.25h0a10.3,10.3,0,0,1,2.18,1.64h0a9.87,9.87,0,0,1,1.21,1.46,10.47,10.47,0,0,1,.93,1.67h0v0l.2.5c.07.18.12.35.17.52h0a9.57,9.57,0,0,1,.4,2.8,9.09,9.09,0,0,1-.2,1.88,9.06,9.06,0,0,1-.62,1.84h0l-.24.49c-.09.17-.17.33-.26.48a11.27,11.27,0,0,1-1.69,2.21h0l-.39.38h0l-.42.36h0a10.61,10.61,0,0,1-2.41,1.5h0l-.52.22-.54.19h0a9.69,9.69,0,0,1-2.85.43,9.63,9.63,0,0,1-1.95-.2,8.61,8.61,0,0,1-1.84-.6,9.31,9.31,0,0,1-1.67-.93,9.87,9.87,0,0,1-1.46-1.21h0A10.66,10.66,0,0,1-19.85,99h0a10.88,10.88,0,0,1-.94-1.67,8.71,8.71,0,0,1-.6-1.83,9,9,0,0,1-.2-1.94v0h0a9.58,9.58,0,0,1,.2-1.93c0-.2.09-.41.15-.62a9.09,9.09,0,0,1,.43-1.24,10.53,10.53,0,0,1,.93-1.72,9.54,9.54,0,0,1,1.21-1.48h0c.13-.13.26-.26.39-.37h0l.41-.36a11.07,11.07,0,0,1,2.39-1.46,9.69,9.69,0,0,1,1.91-.62h0a9.8,9.8,0,0,1,2-.21Zm0,2.18h0a7.92,7.92,0,0,0-3,.58,6.24,6.24,0,0,0-.9.44A8.52,8.52,0,0,0-17.1,88h0a7.72,7.72,0,0,0-1.68,2.57,8.1,8.1,0,0,0-.57,3.07,7.51,7.51,0,0,0,.16,1.51,7.39,7.39,0,0,0,.47,1.42A8.26,8.26,0,0,0-18,97.9,8.4,8.4,0,0,0-17,99h0a8.85,8.85,0,0,0,1.17.93,8.54,8.54,0,0,0,1.34.71h0a3.7,3.7,0,0,0,.4.16h0l.41.13a7.72,7.72,0,0,0,2.16.31h0a6.83,6.83,0,0,0,1.5-.17l.24-.06a7,7,0,0,0,1.18-.44h0a9,9,0,0,0,1.32-.78,9,9,0,0,0,1.14-1v0h0c.1-.1.2-.2.29-.31l.27-.33a8.65,8.65,0,0,0,1.11-1.85v0h0c.06-.13.11-.27.16-.39h0c0-.14.09-.27.13-.4a6.86,6.86,0,0,0,.31-2.06A7.5,7.5,0,0,0-6.07,88h0c-.21-.21-.43-.41-.65-.59a7.76,7.76,0,0,0-.68-.49,7.36,7.36,0,0,0-4.1-1.17Z" transform="translate(37.62 -35.72)"/><path class="cls-1" d="M-35.63,103.09h-2V74.28h5.31a6.89,6.89,0,0,1,3.2.71,5.89,5.89,0,0,1,2.28,2.16,7.55,7.55,0,0,1,.37.69,5.39,5.39,0,0,1,.27.73,6.41,6.41,0,0,1,.16.76h0a6.84,6.84,0,0,1,.05.79h0v0h0a7.69,7.69,0,0,1-.08,1.1q0,.15-.06.33h0a4.8,4.8,0,0,1-.58,1.51h0a3,3,0,0,1-.21.33h0a3.24,3.24,0,0,1-.24.31h0a6.09,6.09,0,0,1-1.63,1.36h0a5.49,5.49,0,0,1-.84.42,5,5,0,0,1-.93.27h0l-.21,0h0a4.9,4.9,0,0,1-.77.05h-3.81v17.22Zm3.39-26.66h-3.1v7.28l3.25,0a4.07,4.07,0,0,0,1.93-.43h0A3.47,3.47,0,0,0-28.81,82h0a3.39,3.39,0,0,0,.39-.89,4.25,4.25,0,0,0,.13-1,3.61,3.61,0,0,0-.28-1.45,3.31,3.31,0,0,0-.87-1.16h0l-.34-.27-.36-.22a4.18,4.18,0,0,0-2.09-.52Z" transform="translate(37.62 -35.72)"/><path class="cls-1" d="M-20.2,83.65v2h-.29a7.28,7.28,0,0,0-3.78,1h0a5.46,5.46,0,0,0-.6.42,5,5,0,0,0-.55.48h0a6.16,6.16,0,0,0-1.27,1.89c-.06.14-.12.29-.17.43A9.43,9.43,0,0,0-27.36,93h0v10h-2.2V93A11.11,11.11,0,0,1-28.9,89a8.8,8.8,0,0,1,2-3.12,8.06,8.06,0,0,1,2.32-1.67l.52-.23h0a9.77,9.77,0,0,1,3.59-.64h.3v.28Z" transform="translate(37.62 -35.72)"/><path class="cls-1" d="M54.3,82.74h3.07v-2.9h2.2v2.9H64v1.9H59.57V96.26a4.57,4.57,0,0,0,1.23,3.47h0c.11.11.23.21.35.31h0l.38.26a4.18,4.18,0,0,0,2.18.6H64v2.18h-.29a6.42,6.42,0,0,1-1.32-.13,7,7,0,0,1-1.26-.36h0l-.34-.15h0l-.33-.17h0a6.19,6.19,0,0,1-1.47-1.2h0v0a2.15,2.15,0,0,1-.23-.28,3.15,3.15,0,0,1-.22-.29,5.54,5.54,0,0,1-.79-1.62h0a7.2,7.2,0,0,1-.28-1.22,9,9,0,0,1-.09-1.28h0V84.64H54v-1.9Z" transform="translate(37.62 -35.72)"/><polygon class="cls-1" points="106.6 67.37 104.95 67.37 104.66 67.37 104.66 67.09 104.66 50.05 104.66 49.77 104.95 49.77 106.6 49.77 106.89 49.77 106.89 50.05 106.89 67.09 106.89 67.37 106.6 67.37 106.6 67.37"/><path class="cls-1" d="M17.56,93V103H15.39V93a9.84,9.84,0,0,0-.47-3.15,6.35,6.35,0,0,0-1.41-2.32h0a6.28,6.28,0,0,0-.54-.49c-.18-.14-.38-.28-.58-.41a6.71,6.71,0,0,0-3.63-1h0a7.17,7.17,0,0,0-2.67.47h0a3.89,3.89,0,0,0-.38.16,5.86,5.86,0,0,0-1.74,1.23h0a5.43,5.43,0,0,0-.49.57,5.23,5.23,0,0,0-.41.63,8.5,8.5,0,0,0-1,4.26v10H-.12V93A11.69,11.69,0,0,1,.52,89,9,9,0,0,1,2.44,85.9,7.93,7.93,0,0,1,5.22,84a9.32,9.32,0,0,1,3.5-.64,9.29,9.29,0,0,1,3.5.64A8,8,0,0,1,15,85.91a8.89,8.89,0,0,1,1,1.23,8.68,8.68,0,0,1,.48.84l.13-.25a9.2,9.2,0,0,1,1.35-1.83A7.89,7.89,0,0,1,20.71,84a9.38,9.38,0,0,1,3.51-.64,9.27,9.27,0,0,1,3.49.64,7.83,7.83,0,0,1,2.77,1.91A8.86,8.86,0,0,1,32.41,89,11.63,11.63,0,0,1,33.05,93V103H30.88V93h0a9.44,9.44,0,0,0-.48-3.13h0c0-.15-.1-.29-.16-.43A6.26,6.26,0,0,0,29,87.56h0a6.28,6.28,0,0,0-.54-.49c-.18-.14-.38-.28-.58-.41a6.71,6.71,0,0,0-3.63-1h0a7.17,7.17,0,0,0-2.67.47,3.2,3.2,0,0,0-.39.16,6,6,0,0,0-1.74,1.23A6.18,6.18,0,0,0,18,89.84,9.51,9.51,0,0,0,17.56,93Z" transform="translate(37.62 -35.72)"/><path class="cls-1" d="M81.33,85.73h0a7.19,7.19,0,0,0-3.78,1h0a5.33,5.33,0,0,0-.6.41,6.3,6.3,0,0,0-.55.48h0a6,6,0,0,0-1.27,1.89h0c-.06.14-.12.29-.17.43a9.45,9.45,0,0,0-.49,3.14h0v10h-2.2V93a11.15,11.15,0,0,1,.66-3.94,8.81,8.81,0,0,1,2-3.11,7.89,7.89,0,0,1,2.84-1.9,10.3,10.3,0,0,1,7.15,0A8.06,8.06,0,0,1,87.7,86a8.81,8.81,0,0,1,2,3.11,11.4,11.4,0,0,1,.65,4v10.08h-2.2v-10a9.22,9.22,0,0,0-.49-3.15,6,6,0,0,0-1.44-2.32,6.11,6.11,0,0,0-1.76-1.24h0L84,86.2a7.56,7.56,0,0,0-2.71-.47Z" transform="translate(37.62 -35.72)"/><path class="cls-2" d="M112.17,82.23c-4-25.67-31.45-15.78-44.77,0,16.49-11.66,36.79-15,44.77,0Z" transform="translate(37.62 -35.72)"/><path class="cls-1" d="M102.14,55.18a10.34,10.34,0,0,0,.28-2,14.17,14.17,0,0,0-.36-2.35,5.32,5.32,0,0,1-.15-2.4,2.68,2.68,0,0,1,1.23-1.62,2.3,2.3,0,0,1,1.84-.36,2.34,2.34,0,0,1,1.49,1.18,2.67,2.67,0,0,1,.21,2.09,5.21,5.21,0,0,1-1.31,2,11.5,11.5,0,0,0-1.44,1.76,12.17,12.17,0,0,0-.86,2,11.07,11.07,0,0,0,2.06-.41,14.62,14.62,0,0,0,2-1.09,4.08,4.08,0,0,1,3.15-.77,2.38,2.38,0,0,1,1.5,1.09,2.16,2.16,0,0,1,.26,1.74,2.31,2.31,0,0,1-1.3,1.49,3.31,3.31,0,0,1-2.38.15c-.31-.08-.83-.24-1.6-.49-.36-.11-.74-.22-1.17-.33s-1.42-.34-2.56-.59a12.18,12.18,0,0,0,1.1,1.92,12.82,12.82,0,0,0,1.59,1.59,5.54,5.54,0,0,1,1.54,2,2.39,2.39,0,0,1,0,1.55,2.32,2.32,0,0,1-1.11,1.46,2.27,2.27,0,0,1-1.76.24,2.53,2.53,0,0,1-1.55-1.27,5.29,5.29,0,0,1-.3-3.13,11,11,0,0,0,.12-2,10.79,10.79,0,0,0-.44-2,11.55,11.55,0,0,0-1.5,1.58,10.27,10.27,0,0,0-.93,1.75,5.46,5.46,0,0,1-1.8,2.54,2.5,2.5,0,0,1-2,.3,2.38,2.38,0,0,1-1.44-1.06,2.09,2.09,0,0,1-.26-1.68,2.82,2.82,0,0,1,1-1.47,6,6,0,0,1,2.28-1,22,22,0,0,0,2.21-.63,17.32,17.32,0,0,0,1.89-1l-2.41-.73-1.21-.3c-.91-.18-1.53-.31-1.86-.4a3.18,3.18,0,0,1-1.92-1.28,2.3,2.3,0,0,1,.74-3.34A2.43,2.43,0,0,1,97,49.61a4,4,0,0,1,2.38,2.08c.63,1.13,1.06,1.83,1.26,2.1a11.24,11.24,0,0,0,1.54,1.39Z" transform="translate(37.62 -35.72)"/><path class="cls-2" d="M96.51,63a8.92,8.92,0,0,1-12.46-1.19,8.73,8.73,0,0,1,1.2-12.34,3.56,3.56,0,0,1,5,.48,3.48,3.48,0,0,1-.48,4.93A5.25,5.25,0,0,0,89,62.24a5.36,5.36,0,0,0,7.48.71Z" transform="translate(37.62 -35.72)"/><path class="cls-2" d="M92.73,35.72a6,6,0,1,1-6,6,6,6,0,0,1,6-6Z" transform="translate(37.62 -35.72)"/></svg>