<?xml version="1.0" encoding="utf-8"?>
<!-- Generator: Adobe Illustrator 23.0.0, SVG Export Plug-In . SVG Version: 6.00 Build 0)  -->
<svg version="1.1" id="Layer_1" xmlns="http://www.w3.org/2000/svg" xmlns:xlink="http://www.w3.org/1999/xlink" x="0px" y="0px"
	 width="136px" height="68px" viewBox="0 0 136 68" style="enable-background:new 0 0 136 68;" xml:space="preserve">
<style type="text/css">
	.st0{fill:#D13927;}
	.st1{fill:#F58020;}
	.st2{fill-rule:evenodd;clip-rule:evenodd;fill:#F58020;}
	.st3{fill-rule:evenodd;clip-rule:evenodd;fill:#D13927;}
</style>
<path class="st0" d="M118.3,61h-3.1c-0.5,0-0.9-0.4-0.9-1v-7.2h-1.8c-0.5,0-0.9-0.4-0.9-1v-3.1c0-0.5,0.4-1,0.9-1h1.8v-1.6
	c0-1.5,0.5-2.8,1.4-3.8c0.9-0.9,2.1-1.4,3.6-1.4l2.4,0c0.5,0,0.9,0.4,0.9,1v2.9c0,0.5-0.4,1-0.9,1l-1.6,0c-0.5,0-0.6,0.1-0.6,0.1
	c0,0.1-0.1,0.2-0.1,0.6v1.2h2.2c0.2,0,0.3,0,0.5,0.1c0.3,0.2,0.5,0.5,0.5,0.8l0,3.1c0,0.5-0.4,1-0.9,1h-2.2V60
	C119.2,60.6,118.8,61,118.3,61z M115.4,59.8h2.7v-7.5c0-0.4,0.3-0.6,0.6-0.6h2.5l0-2.7h-2.5c-0.3,0-0.6-0.3-0.6-0.6v-1.7
	c0-0.5,0-1,0.4-1.4c0.4-0.5,1-0.5,1.5-0.5l1.4,0v-2.5l-2.2,0c-2.3,0-3.8,1.6-3.8,4v2.1c0,0.4-0.3,0.6-0.6,0.6h-2.1v2.7h2.1
	c0.3,0,0.6,0.3,0.6,0.6V59.8z M121.6,42.2L121.6,42.2L121.6,42.2z"/>
<path class="st1" d="M118.3,27h-3.1c-0.5,0-0.9-0.4-0.9-1v-7.2h-1.8c-0.5,0-0.9-0.4-0.9-1v-3.1c0-0.5,0.4-1,0.9-1h1.8v-1.6
	c0-1.5,0.5-2.8,1.4-3.8c0.9-0.9,2.1-1.4,3.6-1.4l2.4,0c0.5,0,0.9,0.4,0.9,1v2.9c0,0.5-0.4,1-0.9,1l-1.6,0c-0.5,0-0.6,0.1-0.6,0.1
	c0,0.1-0.1,0.2-0.1,0.6v1.2h2.2c0.2,0,0.3,0,0.5,0.1c0.3,0.2,0.5,0.5,0.5,0.8l0,3.1c0,0.5-0.4,1-0.9,1h-2.2V26
	C119.2,26.6,118.8,27,118.3,27z M115.4,25.8h2.7v-7.5c0-0.4,0.3-0.6,0.6-0.6h2.5l0-2.7h-2.5c-0.3,0-0.6-0.3-0.6-0.6v-1.7
	c0-0.5,0-1,0.4-1.4c0.4-0.5,1-0.5,1.5-0.5l1.4,0V8.2l-2.2,0c-2.3,0-3.8,1.6-3.8,4v2.1c0,0.4-0.3,0.6-0.6,0.6h-2.1v2.7h2.1
	c0.3,0,0.6,0.3,0.6,0.6V25.8z M121.6,8.2L121.6,8.2L121.6,8.2z"/>
<g>
	<path class="st2" d="M59,27c-1.8-11-14-6.8-20,0C46.4,22,55.4,20.6,59,27L59,27z"/>
</g>
<g>
	<path class="st1" d="M54.5,15.4c0.1-0.4,0.1-0.7,0.1-0.9c0-0.2-0.1-0.5-0.2-1c-0.1-0.5-0.1-0.8-0.1-1c0.1-0.3,0.3-0.5,0.6-0.7
		c0.3-0.2,0.6-0.2,0.8-0.2c0.3,0.1,0.5,0.2,0.7,0.5c0.2,0.3,0.2,0.6,0.1,0.9c-0.1,0.3-0.3,0.6-0.6,0.9c-0.3,0.3-0.5,0.6-0.6,0.8
		c-0.1,0.2-0.2,0.5-0.4,0.8c0.4-0.1,0.7-0.1,0.9-0.2c0.2-0.1,0.5-0.2,0.9-0.5c0.5-0.3,1-0.4,1.4-0.3c0.3,0.1,0.5,0.2,0.7,0.5
		c0.2,0.2,0.2,0.5,0.1,0.7c-0.1,0.3-0.3,0.5-0.6,0.6c-0.3,0.1-0.7,0.2-1.1,0.1c-0.1,0-0.4-0.1-0.7-0.2c-0.2,0-0.3-0.1-0.5-0.1
		c-0.2-0.1-0.6-0.1-1.1-0.3c0.2,0.4,0.4,0.7,0.5,0.8c0.1,0.2,0.4,0.4,0.7,0.7c0.3,0.3,0.6,0.6,0.7,0.8c0.1,0.2,0.1,0.4,0,0.7
		c-0.1,0.3-0.2,0.5-0.5,0.6c-0.3,0.1-0.5,0.2-0.8,0.1c-0.3-0.1-0.5-0.3-0.7-0.5c-0.2-0.3-0.2-0.7-0.1-1.3c0.1-0.4,0.1-0.7,0.1-0.9
		c0-0.2-0.1-0.5-0.2-0.9c-0.3,0.3-0.5,0.5-0.7,0.7c-0.1,0.2-0.3,0.4-0.4,0.8c-0.3,0.6-0.5,0.9-0.8,1.1c-0.3,0.2-0.6,0.2-0.9,0.1
		c-0.3-0.1-0.5-0.2-0.6-0.5c-0.1-0.2-0.2-0.5-0.1-0.7c0.1-0.3,0.2-0.5,0.4-0.6c0.2-0.2,0.5-0.3,1-0.4c0.5-0.1,0.8-0.2,1-0.3
		c0.2-0.1,0.5-0.2,0.8-0.4l-1.1-0.3c-0.2,0-0.4-0.1-0.5-0.1c-0.4-0.1-0.7-0.1-0.8-0.2c-0.4-0.1-0.7-0.3-0.9-0.5
		c-0.2-0.3-0.2-0.5-0.2-0.8c0.1-0.3,0.2-0.5,0.5-0.6c0.3-0.1,0.5-0.2,0.8-0.1c0.4,0.1,0.8,0.4,1.1,0.9c0.3,0.5,0.5,0.8,0.6,0.9
		C54,14.9,54.2,15.1,54.5,15.4L54.5,15.4z"/>
</g>
<g>
	<path class="st2" d="M52,18.7c-1.7,1.3-4.2,1.1-5.6-0.5c-1.4-1.6-1.1-4,0.5-5.3c0.7-0.5,1.7-0.4,2.2,0.2c0.6,0.6,0.5,1.6-0.2,2.1
		c-1,0.8-1.2,2.2-0.3,3.2C49.5,19.4,51,19.5,52,18.7L52,18.7z"/>
</g>
<g>
	<path class="st2" d="M50.3,7C51.8,7,53,8.2,53,9.6c0,1.4-1.2,2.6-2.7,2.6c-1.5,0-2.7-1.2-2.7-2.6C47.6,8.2,48.8,7,50.3,7L50.3,7z"
		/>
</g>
<g>
	<path class="st3" d="M59,61c-1.8-11-14-6.8-20,0C46.4,56,55.4,54.6,59,61L59,61z"/>
</g>
<g>
	<path class="st0" d="M54.5,49.4c0.1-0.4,0.1-0.7,0.1-0.9c0-0.2-0.1-0.5-0.2-1c-0.1-0.5-0.1-0.8-0.1-1c0.1-0.3,0.3-0.5,0.6-0.7
		c0.3-0.2,0.6-0.2,0.8-0.2c0.3,0.1,0.5,0.2,0.7,0.5c0.2,0.3,0.2,0.6,0.1,0.9c-0.1,0.3-0.3,0.6-0.6,0.9c-0.3,0.3-0.5,0.6-0.6,0.8
		c-0.1,0.2-0.2,0.5-0.4,0.8c0.4-0.1,0.7-0.1,0.9-0.2c0.2-0.1,0.5-0.2,0.9-0.5c0.5-0.3,1-0.4,1.4-0.3c0.3,0.1,0.5,0.2,0.7,0.5
		c0.2,0.2,0.2,0.5,0.1,0.7c-0.1,0.3-0.3,0.5-0.6,0.6c-0.3,0.1-0.7,0.2-1.1,0.1c-0.1,0-0.4-0.1-0.7-0.2c-0.2,0-0.3-0.1-0.5-0.1
		c-0.2-0.1-0.6-0.1-1.1-0.3c0.2,0.4,0.4,0.7,0.5,0.8c0.1,0.2,0.4,0.4,0.7,0.7c0.3,0.3,0.6,0.6,0.7,0.8c0.1,0.2,0.1,0.4,0,0.7
		c-0.1,0.3-0.2,0.5-0.5,0.6c-0.3,0.1-0.5,0.2-0.8,0.1c-0.3-0.1-0.5-0.3-0.7-0.5c-0.2-0.3-0.2-0.7-0.1-1.3c0.1-0.4,0.1-0.7,0.1-0.9
		c0-0.2-0.1-0.5-0.2-0.9c-0.3,0.3-0.5,0.5-0.7,0.7c-0.1,0.2-0.3,0.4-0.4,0.8c-0.3,0.6-0.5,0.9-0.8,1.1c-0.3,0.2-0.6,0.2-0.9,0.1
		c-0.3-0.1-0.5-0.2-0.6-0.5c-0.1-0.2-0.2-0.5-0.1-0.7c0.1-0.3,0.2-0.5,0.4-0.6c0.2-0.2,0.5-0.3,1-0.4c0.5-0.1,0.8-0.2,1-0.3
		c0.2-0.1,0.5-0.2,0.8-0.4l-1.1-0.3c-0.2,0-0.4-0.1-0.5-0.1c-0.4-0.1-0.7-0.1-0.8-0.2c-0.4-0.1-0.7-0.3-0.9-0.5
		c-0.2-0.3-0.2-0.5-0.2-0.8c0.1-0.3,0.2-0.5,0.5-0.6c0.3-0.1,0.5-0.2,0.8-0.1c0.4,0.1,0.8,0.4,1.1,0.9c0.3,0.5,0.5,0.8,0.6,0.9
		C54,48.9,54.2,49.1,54.5,49.4L54.5,49.4z"/>
</g>
<g>
	<path class="st3" d="M52,52.7c-1.7,1.3-4.2,1.1-5.6-0.5c-1.4-1.6-1.1-4,0.5-5.3c0.7-0.5,1.7-0.4,2.2,0.2c0.6,0.6,0.5,1.6-0.2,2.1
		c-1,0.8-1.2,2.2-0.3,3.2C49.5,53.4,51,53.5,52,52.7L52,52.7z"/>
</g>
<g>
	<path class="st3" d="M50.3,41c1.5,0,2.7,1.2,2.7,2.6c0,1.4-1.2,2.6-2.7,2.6c-1.5,0-2.7-1.2-2.7-2.6C47.6,42.2,48.8,41,50.3,41
		L50.3,41z"/>
</g>
<path class="st1" d="M89.6,7h-9.2c-3,0-5.4,2.4-5.4,5.4v9.2c0,3,2.4,5.4,5.4,5.4h9.2c3,0,5.4-2.4,5.4-5.4v-9.2C95,9.4,92.6,7,89.6,7
	z M93.8,21.6c0,2.3-1.9,4.2-4.2,4.2h-9.2c-2.3,0-4.2-1.9-4.2-4.2v-9.2c0-2.3,1.9-4.2,4.2-4.2h9.2c2.3,0,4.2,1.9,4.2,4.2V21.6z"/>
<path class="st1" d="M85,11.5c-3,0-5.5,2.5-5.5,5.5s2.5,5.5,5.5,5.5s5.5-2.5,5.5-5.5S88,11.5,85,11.5z M85,21.3
	c-2.4,0-4.3-1.9-4.3-4.3c0-2.4,1.9-4.3,4.3-4.3c2.4,0,4.3,1.9,4.3,4.3C89.3,19.4,87.4,21.3,85,21.3z"/>
<path class="st1" d="M90.6,9.6c-0.9,0-1.6,0.7-1.6,1.6c0,0.9,0.7,1.6,1.6,1.6s1.6-0.7,1.6-1.6S91.5,9.6,90.6,9.6z M90.6,11.6
	c-0.2,0-0.4-0.2-0.4-0.4c0-0.2,0.2-0.4,0.4-0.4c0.2,0,0.4,0.2,0.4,0.4C91,11.4,90.8,11.6,90.6,11.6z"/>
<path class="st0" d="M89.6,41h-9.2c-3,0-5.4,2.4-5.4,5.4v9.2c0,3,2.4,5.4,5.4,5.4h9.2c3,0,5.4-2.4,5.4-5.4v-9.2
	C95,43.4,92.6,41,89.6,41z M93.8,55.6c0,2.3-1.9,4.2-4.2,4.2h-9.2c-2.3,0-4.2-1.9-4.2-4.2v-9.2c0-2.3,1.9-4.2,4.2-4.2h9.2
	c2.3,0,4.2,1.9,4.2,4.2V55.6z"/>
<path class="st0" d="M85,45.5c-3,0-5.5,2.5-5.5,5.5s2.5,5.5,5.5,5.5s5.5-2.5,5.5-5.5S88,45.5,85,45.5z M85,55.3
	c-2.4,0-4.3-1.9-4.3-4.3c0-2.4,1.9-4.3,4.3-4.3c2.4,0,4.3,1.9,4.3,4.3C89.3,53.4,87.4,55.3,85,55.3z"/>
<path class="st0" d="M90.6,43.6c-0.9,0-1.6,0.7-1.6,1.6c0,0.9,0.7,1.6,1.6,1.6s1.6-0.7,1.6-1.6S91.5,43.6,90.6,43.6z M90.6,45.6
	c-0.2,0-0.4-0.2-0.4-0.4c0-0.2,0.2-0.4,0.4-0.4c0.2,0,0.4,0.2,0.4,0.4C91,45.4,90.8,45.6,90.6,45.6z"/>
<path class="st1" d="M21.7,27c-0.4,0-0.8,0-1.2-0.1c-1.5-0.4-3.2-1.4-4.8-3.1l-5.4-5.4c-1.7-1.7-2.7-3.3-3.1-4.8
	C6.7,11.7,7.3,10,8.8,8.5l0.9-0.9C10,7.2,10.5,7,11,7c0.3,0,0.6,0.1,0.9,0.2c1.4,0.8,2.9,3.3,3,3.4c0.3,0.5,0.4,1,0.2,1.4
	c-0.1,0.3-0.3,0.6-0.6,0.8c-0.5,0.4-1,0.8-1,0.9c-0.6,0.8-0.5,1.5,0.2,2.2l4.2,4.2c0.1,0.1,0.2,0.2,0.2,0.2c0.4,0.3,0.6,0.4,0.9,0.4
	c0.3,0,0.6-0.1,1-0.4c0.1-0.1,0.5-0.5,0.9-1c0.2-0.3,0.4-0.5,0.8-0.6c0.1,0,0.3-0.1,0.4-0.1c0.3,0,0.7,0.1,1,0.3
	c0.3,0.2,2.7,1.6,3.4,3c0.4,0.7,0.3,1.6-0.3,2.2l-0.9,0.9C24.3,26.4,23,27,21.7,27L21.7,27z M11,7.9c-0.3,0-0.5,0.1-0.7,0.3L9.4,9.2
	c-1.3,1.3-1.7,2.6-1.4,4.2c0.3,1.4,1.3,2.8,2.8,4.4l5.4,5.4c1.6,1.6,3,2.5,4.4,2.8c0.3,0.1,0.7,0.1,1,0.1c1.1,0,2.2-0.5,3.2-1.5
	l0.9-0.9c0.3-0.3,0.4-0.8,0.2-1.1c-0.6-1.2-3.1-2.6-3.1-2.6c-0.2-0.1-0.4-0.2-0.6-0.2c-0.1,0-0.1,0-0.1,0c-0.1,0-0.2,0.1-0.2,0.2
	c-0.4,0.5-1,1.1-1.2,1.3c-0.2,0.1-0.4,0.2-0.6,0.3c0.5,0.2,1,0.3,1.6,0.4c0.1,0,0.2,0.1,0.3,0.2c0.1,0.1,0.1,0.2,0.1,0.3
	c0,0.2-0.2,0.4-0.5,0.4c-2.6-0.3-4.3-1.9-4.4-2l-4-4c-0.1-0.1-2.1-1.8-2.4-4.4c0-0.3,0.2-0.5,0.4-0.5c0,0,0,0,0,0
	c0.3,0,0.5,0.2,0.5,0.4c0.1,0.6,0.2,1.2,0.5,1.7c0.1-0.3,0.2-0.6,0.4-0.8c0.2-0.2,0.8-0.8,1.2-1.1c0.2-0.1,0.2-0.2,0.3-0.3
	c0.1-0.2,0-0.5-0.2-0.7C14.1,11,12.6,8.7,11.5,8C11.4,8,11.2,7.9,11,7.9z"/>
<path class="st1" d="M26.8,22.2c-0.7-1.4-3.3-2.9-3.4-3c-0.5-0.3-1-0.4-1.4-0.2c-0.3,0.1-0.6,0.3-0.7,0.6c-0.4,0.5-0.8,1-1,1.1
	c-0.8,0.5-1.4,0.5-2,0c0,0,0,0-0.1,0c-0.1-0.1-0.2-0.1-0.3-0.2l-4.3-4.3c-0.8-0.8-0.8-1.5-0.2-2.3c0.1-0.1,0.6-0.6,1.1-1
	c0.3-0.2,0.5-0.4,0.6-0.7c0.1-0.4,0-0.9-0.2-1.4c-0.1-0.1-1.6-2.7-3-3.4C11.1,6.8,10.3,7,9.7,7.5L8.7,8.5c-1.5,1.5-2,3.2-1.6,5
	c0.4,1.5,1.4,3.2,3.1,4.8l5.5,5.5c1.7,1.7,3.3,2.7,4.8,3.1c0.4,0.1,0.8,0.1,1.2,0.1c1.4,0,2.7-0.6,3.8-1.7l0.9-0.9
	C27,23.7,27.2,22.9,26.8,22.2z M25.9,23.8L25,24.7c-1.3,1.3-2.7,1.8-4.3,1.4c-1.4-0.3-2.9-1.3-4.5-2.9l-5.5-5.5
	c-1.6-1.6-2.6-3.1-2.9-4.5C7.5,11.7,8,10.3,9.3,9l0.9-0.9c0.2-0.2,0.5-0.3,0.8-0.3c0.2,0,0.3,0,0.5,0.1c1.2,0.6,2.7,3.1,2.7,3.2
	c0.2,0.3,0.2,0.6,0.2,0.8c0,0.1-0.1,0.2-0.3,0.3l-0.1,0c-0.3,0.3-1.1,0.9-1.2,1.1c-0.2,0.4-0.4,0.7-0.5,1.1c-0.3-0.6-0.6-1.2-0.7-2
	c0-0.2-0.2-0.3-0.4-0.3c-0.2,0-0.4,0.2-0.3,0.4c0.3,2.6,2.3,4.3,2.4,4.3c0,0,0,0,0,0l4,4c0,0,0,0,0,0c0.1,0.1,1.7,1.7,4.3,2
	c0,0,0,0,0,0c0.2,0,0.3-0.1,0.4-0.3c0-0.2-0.1-0.4-0.3-0.4c-0.7-0.1-1.3-0.3-1.8-0.5c0.3-0.1,0.5-0.2,0.8-0.4
	c0.2-0.2,0.9-0.9,1.1-1.2l0-0.1c0.1-0.1,0.2-0.2,0.3-0.3c0.2-0.1,0.5,0,0.8,0.2c0,0,2.5,1.5,3.2,2.7C26.4,22.9,26.3,23.5,25.9,23.8z
	"/>
<path class="st1" d="M18.1,16.4c-0.1,0-0.1,0-0.2,0c-0.1,0-0.2-0.1-0.3-0.3c0-0.1,0-0.1,0-0.2v-4.4c0-0.3,0.2-0.5,0.5-0.5
	s0.5,0.2,0.5,0.5v3.3l5.5-5.5c0.1-0.1,0.2-0.1,0.3-0.1s0.2,0,0.3,0.1c0.2,0.2,0.2,0.5,0,0.7l-5.5,5.5h3.3c0.3,0,0.5,0.2,0.5,0.5
	c0,0.3-0.2,0.5-0.5,0.5H18.1z"/>
<path class="st1" d="M18,16.2c0,0,0.1,0,0.1,0h4.4c0.2,0,0.4-0.2,0.4-0.4c0-0.2-0.2-0.4-0.4-0.4H19l5.7-5.7c0.1-0.1,0.1-0.4,0-0.5
	s-0.4-0.1-0.5,0L18.5,15v-3.6c0-0.2-0.2-0.4-0.4-0.4c-0.2,0-0.4,0.2-0.4,0.4v4.4c0,0,0,0.1,0,0.1C17.8,16.1,17.9,16.2,18,16.2z"/>
<path class="st0" d="M21.7,61c-0.4,0-0.8,0-1.2-0.1c-1.5-0.4-3.2-1.4-4.8-3.1l-5.4-5.4c-1.7-1.7-2.7-3.3-3.1-4.8
	c-0.4-1.9,0.1-3.6,1.6-5.1l0.9-0.9C10,41.2,10.5,41,11,41c0.3,0,0.6,0.1,0.9,0.2c1.4,0.8,2.9,3.3,3,3.4c0.3,0.5,0.4,1,0.2,1.4
	c-0.1,0.3-0.3,0.6-0.6,0.8c-0.5,0.4-1,0.8-1,0.9c-0.6,0.8-0.5,1.5,0.2,2.2l4.2,4.2c0.1,0.1,0.2,0.2,0.2,0.2c0.4,0.3,0.6,0.4,0.9,0.4
	c0.3,0,0.6-0.1,1-0.4c0.1-0.1,0.5-0.5,0.9-1c0.2-0.3,0.4-0.5,0.8-0.6c0.1,0,0.3-0.1,0.4-0.1c0.3,0,0.7,0.1,1,0.3
	c0.3,0.2,2.7,1.6,3.4,3c0.4,0.7,0.3,1.6-0.3,2.2l-0.9,0.9C24.3,60.4,23,61,21.7,61L21.7,61z M11,41.9c-0.3,0-0.5,0.1-0.7,0.3
	l-0.9,0.9c-1.3,1.3-1.7,2.6-1.4,4.2c0.3,1.4,1.3,2.8,2.8,4.4l5.4,5.4c1.6,1.6,3,2.5,4.4,2.8c0.3,0.1,0.7,0.1,1,0.1
	c1.1,0,2.2-0.5,3.2-1.5l0.9-0.9c0.3-0.3,0.4-0.8,0.2-1.1c-0.6-1.2-3.1-2.6-3.1-2.6c-0.2-0.1-0.4-0.2-0.6-0.2c-0.1,0-0.1,0-0.1,0
	c-0.1,0-0.2,0.1-0.2,0.2c-0.4,0.5-1,1.1-1.2,1.3c-0.2,0.1-0.4,0.2-0.6,0.3c0.5,0.2,1,0.3,1.6,0.4c0.1,0,0.2,0.1,0.3,0.2
	c0.1,0.1,0.1,0.2,0.1,0.3c0,0.2-0.2,0.4-0.5,0.4c-2.6-0.3-4.3-1.9-4.4-2l-4-4c-0.1-0.1-2.1-1.8-2.4-4.4c0-0.3,0.2-0.5,0.4-0.5
	c0,0,0,0,0,0c0.3,0,0.5,0.2,0.5,0.4c0.1,0.6,0.2,1.2,0.5,1.7c0.1-0.3,0.2-0.6,0.4-0.8c0.2-0.2,0.8-0.8,1.2-1.1
	c0.2-0.1,0.2-0.2,0.3-0.3c0.1-0.2,0-0.5-0.2-0.7c-0.1-0.1-1.5-2.5-2.6-3.1C11.4,42,11.2,41.9,11,41.9z"/>
<path class="st0" d="M26.8,56.2c-0.7-1.4-3.3-2.9-3.4-3c-0.5-0.3-1-0.4-1.4-0.2c-0.3,0.1-0.6,0.3-0.7,0.6c-0.4,0.5-0.8,1-1,1.1
	c-0.8,0.5-1.4,0.5-2,0c0,0,0,0-0.1,0c-0.1-0.1-0.2-0.1-0.3-0.2l-4.3-4.3c-0.8-0.8-0.8-1.5-0.2-2.3c0.1-0.1,0.6-0.6,1.1-1
	c0.3-0.2,0.5-0.4,0.6-0.7c0.1-0.4,0-0.9-0.2-1.4c-0.1-0.1-1.6-2.7-3-3.4c-0.7-0.4-1.6-0.2-2.1,0.3l-0.9,0.9c-1.5,1.5-2,3.2-1.6,5
	c0.4,1.5,1.4,3.2,3.1,4.8l5.5,5.5c1.7,1.7,3.3,2.7,4.8,3.1c0.4,0.1,0.8,0.1,1.2,0.1c1.4,0,2.7-0.6,3.8-1.7l0.9-0.9
	C27,57.7,27.2,56.9,26.8,56.2z M25.9,57.8L25,58.7c-1.3,1.3-2.7,1.8-4.3,1.4c-1.4-0.3-2.9-1.3-4.5-2.9l-5.5-5.5
	c-1.6-1.6-2.6-3.1-2.9-4.5c-0.4-1.6,0.1-3,1.4-4.3l0.9-0.9c0.2-0.2,0.5-0.3,0.8-0.3c0.2,0,0.3,0,0.5,0.1c1.2,0.6,2.7,3.1,2.7,3.2
	c0.2,0.3,0.2,0.6,0.2,0.8c0,0.1-0.1,0.2-0.3,0.3l-0.1,0c-0.3,0.3-1.1,0.9-1.2,1.1c-0.2,0.4-0.4,0.7-0.5,1.1c-0.3-0.6-0.6-1.2-0.7-2
	c0-0.2-0.2-0.3-0.4-0.3c-0.2,0-0.4,0.2-0.3,0.4c0.3,2.6,2.3,4.3,2.4,4.3c0,0,0,0,0,0l4,4c0,0,0,0,0,0c0.1,0.1,1.7,1.7,4.3,2
	c0,0,0,0,0,0c0.2,0,0.3-0.1,0.4-0.3c0-0.2-0.1-0.4-0.3-0.4c-0.7-0.1-1.3-0.3-1.8-0.5c0.3-0.1,0.5-0.2,0.8-0.4
	c0.2-0.2,0.9-0.9,1.1-1.2l0-0.1c0.1-0.1,0.2-0.2,0.3-0.3c0.2-0.1,0.5,0,0.8,0.2c0,0,2.5,1.5,3.2,2.7C26.4,56.9,26.3,57.5,25.9,57.8z
	"/>
<path class="st0" d="M18.1,50.4c-0.1,0-0.1,0-0.2,0c-0.1,0-0.2-0.1-0.3-0.3c0-0.1,0-0.1,0-0.2v-4.4c0-0.3,0.2-0.5,0.5-0.5
	s0.5,0.2,0.5,0.5v3.3l5.5-5.5c0.1-0.1,0.2-0.1,0.3-0.1s0.2,0,0.3,0.1c0.2,0.2,0.2,0.5,0,0.7l-5.5,5.5h3.3c0.3,0,0.5,0.2,0.5,0.5
	c0,0.3-0.2,0.5-0.5,0.5H18.1z"/>
<path class="st0" d="M18,50.2c0,0,0.1,0,0.1,0h4.4c0.2,0,0.4-0.2,0.4-0.4c0-0.2-0.2-0.4-0.4-0.4H19l5.7-5.7c0.1-0.1,0.1-0.4,0-0.5
	s-0.4-0.1-0.5,0L18.5,49v-3.6c0-0.2-0.2-0.4-0.4-0.4c-0.2,0-0.4,0.2-0.4,0.4v4.4c0,0,0,0.1,0,0.1C17.8,50.1,17.9,50.2,18,50.2z"/>
</svg>
