<svg id="Capa_1" data-name="Capa 1" xmlns="http://www.w3.org/2000/svg" width="260" height="260"><defs><style>.cls-1{fill:#d13927}</style></defs><path class="cls-1" d="M315.86 254a15.24 15.24 0 00-15.23 15.23v55a15.25 15.25 0 0012.42 15l29.56 5.55a5.08 5.08 0 014.14 5v7.06a5.08 5.08 0 0010.16 0v-7.06a15.25 15.25 0 00-12.43-15l-29.56-5.55a5.09 5.09 0 01-4.14-5v-55a5.08 5.08 0 015.08-5.07 64.05 64.05 0 0116.25 2.09v46.63a5.08 5.08 0 0010.16 0v-43a64.08 64.08 0 0137.57 58.28v111.7a64.08 64.08 0 01-37.57 58.28v-37.05a5.08 5.08 0 00-10.16 0v40.66a64.05 64.05 0 01-16.25 2.09 5.08 5.08 0 01-5.08-5.07v-55a5.08 5.08 0 014.14-5l29.57-5.56a15.25 15.25 0 0012.42-15v-9.52a5.08 5.08 0 00-10.16 0v9.52a5.08 5.08 0 01-4.14 5l-29.56 5.55a15.25 15.25 0 00-12.42 15v55A15.24 15.24 0 00315.86 514 74.23 74.23 0 00390 439.86V328.14A74.23 74.23 0 00315.86 254z" transform="translate(-130 -254)"/><path class="cls-1" d="M351.83 377.67a5.07 5.07 0 00-5.08 5.08v.49a5.08 5.08 0 1010.16 0v-.49a5.08 5.08 0 00-5.08-5.08zM172.1 457.32a5.07 5.07 0 101.49 3.59 5.11 5.11 0 00-1.49-3.59zm111.54-185.69A115.2 115.2 0 00207.31 282a5.08 5.08 0 104.67 9 105 105 0 0169.58-9.44 5.08 5.08 0 102.08-9.94zm6.17 218.04a5.07 5.07 0 00-6.09-3.8 104.86 104.86 0 01-71.57-8.87 5.08 5.08 0 00-4.65 9 115.15 115.15 0 0078.5 9.76 5.08 5.08 0 003.81-6.09zm38.78-109.26l-12.83-12.83a5.08 5.08 0 10-7.19 7.18l4.17 4.16h-36.92a5.08 5.08 0 000 10.16h36.92l-4.17 4.16a5.08 5.08 0 007.19 7.19l12.83-12.84a5.08 5.08 0 000-7.18z" transform="translate(-130 -254)"/><path class="cls-1" d="M256.41 419v-65.17a51.84 51.84 0 00-103.68 0V419C133 423.38 130 435.2 130 441.91v19a5.07 5.07 0 005.08 5.08h15.86a5.08 5.08 0 100-10.15h-10.78v-13.93c0-2.45 0-9.9 15.26-13.11h.08l16.15-3.68a74.12 74.12 0 0064.69-.18l.1-.06 17.21 3.92h.08C269 432 269 439.46 269 441.91v13.95h-80.86a5.08 5.08 0 000 10.15h85.93a5.08 5.08 0 005.08-5.08v-19c0-6.73-2.99-18.56-22.74-22.93zm-69.33 1.09a12.94 12.94 0 006.3-11.36v-3a34.45 34.45 0 0022.39 0v3a12.82 12.82 0 005.85 11 63.44 63.44 0 01-34.54.35zm17.49-22.62a24.4 24.4 0 01-24.37-24.38v-19.7a73.55 73.55 0 0037.31 10.22H229v9.48a24.41 24.41 0 01-24.43 24.37zm41.69 19.22l-14.51-3.3c-5.82-2-5.82-3.41-5.82-4.66v-8.53a34.48 34.48 0 0013.17-27.11v-14.57a5.07 5.07 0 00-5.07-5.08h-16.52a63.4 63.4 0 01-39.24-13.67 5.08 5.08 0 00-8.23 4v29.33a34.47 34.47 0 0013.18 27.11v8.53c0 1.25 0 2.67-5.82 4.66l-14.51 3.3v-62.87a41.69 41.69 0 0183.37 0z" transform="translate(-130 -254)"/></svg>