<svg data-name="Layer 1" xmlns="http://www.w3.org/2000/svg" width="40" height="40"><path d="M22.91 13.63q2.22 1.74 4.53 3.65a1.46 1.46 0 01.56 1.16v8.06a1.5 1.5 0 01-1.5 1.5h-13a1.5 1.5 0 01-1.5-1.5v-8.06a1.46 1.46 0 01.56-1.16q2.31-1.87 4.53-3.65l.32-.29a10.2 10.2 0 011.18-.87A2.71 2.71 0 0120 12a2.71 2.71 0 011.41.47c.29.19.68.48 1.18.87a2.91 2.91 0 00.32.29zM26.5 27a.48.48 0 00.5-.5v-8.06a.47.47 0 00-.19-.38c-1.43-1.18-2.95-2.4-4.53-3.65l-.28-.25a8.41 8.41 0 00-1-.75 1.93 1.93 0 00-1-.41 1.93 1.93 0 00-1 .41 8.41 8.41 0 00-1 .75l-.31.25-4.53 3.65a.47.47 0 00-.19.38v8.06a.48.48 0 00.5.5zm-.28-6.75l-.16-.25a.39.39 0 00-.25-.11.4.4 0 00-.28.08L22 22.84a6.87 6.87 0 01-1 .75 1.93 1.93 0 01-1 .41 1.93 1.93 0 01-1-.41 6.87 6.87 0 01-1-.75L14.47 20a.4.4 0 00-.28-.08.39.39 0 00-.25.11l-.16.22a.38.38 0 00-.08.27.45.45 0 00.14.26l3.57 2.85a10 10 0 001.18.9A2.83 2.83 0 0020 25a2.83 2.83 0 001.41-.47c.29-.19.68-.49 1.18-.9l3.57-2.85a.45.45 0 00.14-.26.38.38 0 00-.08-.27z" fill="#fac090"/></svg>