<svg data-name="Layer 1" xmlns="http://www.w3.org/2000/svg" width="40" height="40"><path d="M21.58 21.58a12.52 12.52 0 002.36-3.27L22 16.77a1.19 1.19 0 01-.37-.6 1.13 1.13 0 010-.7l1.62-3.8a1.08 1.08 0 01.53-.56 1 1 0 01.74-.07l3.55.81a1 1 0 01.6.38 1.1 1.1 0 01.24.67 16.1 16.1 0 01-8 13.92A15.72 15.72 0 0112.9 29a1.1 1.1 0 01-.67-.24 1 1 0 01-.38-.6L11 24.61a1 1 0 01.07-.74 1.12 1.12 0 01.56-.53l3.8-1.62a1.13 1.13 0 01.7 0 1.19 1.19 0 01.6.37l1.54 1.9m-5.37 3.94a14.62 14.62 0 007.52-2 14.84 14.84 0 005.38-5.38 14.52 14.52 0 002-7.52l-3.52-.81-1.62 3.79L25.31 18a15 15 0 01-2.92 4.39A15 15 0 0118 25.31l-2.08-2.57-3.79 1.62z" fill="#fac090"/></svg>