<svg data-name="Layer 1" xmlns="http://www.w3.org/2000/svg" width="40" height="40"><path d="M23.16 21.13a4.64 4.64 0 012.36.63 4.58 4.58 0 011.72 1.72 4.65 4.65 0 01.64 2.36v1.47a1.64 1.64 0 01-.5 1.2 1.61 1.61 0 01-1.19.49H13.81a1.61 1.61 0 01-1.19-.49 1.63 1.63 0 01-.49-1.2v-1.47a4.64 4.64 0 01.63-2.36 4.58 4.58 0 011.72-1.72 4.64 4.64 0 012.36-.63 4.07 4.07 0 011.19.24c.33.09.6.17.81.21a6.17 6.17 0 002.32 0c.21 0 .48-.12.81-.21a4.07 4.07 0 011.19-.24zm3.59 6.18v-1.47a3.58 3.58 0 00-3.59-3.59 3.39 3.39 0 00-.87.18 7.09 7.09 0 01-4.58 0 3.39 3.39 0 00-.87-.18 3.58 3.58 0 00-3.59 3.59v1.47a.54.54 0 00.16.41.56.56 0 00.4.16h12.38a.56.56 0 00.4-.16.54.54 0 00.16-.41zM20 20a4.45 4.45 0 01-2.27-.6 4.4 4.4 0 01-1.63-1.63 4.59 4.59 0 010-4.54 4.4 4.4 0 011.63-1.63 4.59 4.59 0 014.54 0 4.4 4.4 0 011.63 1.63 4.59 4.59 0 010 4.54 4.4 4.4 0 01-1.63 1.63A4.45 4.45 0 0120 20zm0-7.87a3.35 3.35 0 00-3.37 3.37 3.37 3.37 0 005.76 2.39 3.38 3.38 0 000-4.78 3.24 3.24 0 00-2.39-.98z" fill="#fac090"/></svg>