<svg data-name="Layer 2" xmlns="http://www.w3.org/2000/svg" width="960.06" height="412.89"><path d="M9.35 401.62a12.38 12.38 0 00.31-2.35 16.35 16.35 0 00-.41-2.68 6.4 6.4 0 01-.17-2.76 3 3 0 011.46-1.83 2.56 2.56 0 012.08-.41 2.67 2.67 0 011.69 1.35 3.09 3.09 0 01.24 2.39 5.84 5.84 0 01-1.49 2.34 13.82 13.82 0 00-1.63 2 13.13 13.13 0 00-1 2.24 13.18 13.18 0 002.35-.47 15.55 15.55 0 002.29-1.25 4.68 4.68 0 013.58-.89 2.76 2.76 0 011.71 1.26 2.51 2.51 0 01.29 2 2.67 2.67 0 01-1.47 1.7 3.72 3.72 0 01-2.71.18c-.35-.09-.94-.28-1.81-.56l-1.33-.38c-.63-.17-1.61-.39-2.91-.68a14.49 14.49 0 001.22 2.18 15.34 15.34 0 001.8 1.82 6.24 6.24 0 011.75 2.24 2.75 2.75 0 010 1.78 2.6 2.6 0 01-1.25 1.67 2.51 2.51 0 01-2 .27 2.79 2.79 0 01-1.75-1.45 6.07 6.07 0 01-.35-3.59 12.88 12.88 0 00.14-2.33 13.71 13.71 0 00-.44-2.31 13.8 13.8 0 00-1.7 1.81 10.52 10.52 0 00-1.06 2 6.2 6.2 0 01-2.05 2.91 2.8 2.8 0 01-2.22.34A2.66 2.66 0 01.87 409a2.4 2.4 0 01-.33-2 3.12 3.12 0 011.07-1.68 6.67 6.67 0 012.59-1.11 22.5 22.5 0 002.5-.73 16.06 16.06 0 002.15-1.11l-2.73-.83c-.48-.13-.94-.25-1.38-.34-1-.21-1.73-.36-2.11-.47a3.62 3.62 0 01-2.09-1.43 2.65 2.65 0 01.84-3.83 2.77 2.77 0 012.14-.24 4.52 4.52 0 012.7 2.39c.71 1.29 1.2 2.09 1.42 2.4a13.42 13.42 0 001.76 1.6zm17.57-43.24a16.83 16.83 0 00.45-3.33 22.65 22.65 0 00-.58-3.82 8.89 8.89 0 01-.24-3.91 4.32 4.32 0 012-2.63 3.63 3.63 0 013-.58 3.76 3.76 0 012.4 1.92 4.41 4.41 0 01.34 3.39 8.41 8.41 0 01-2.11 3.32 18.22 18.22 0 00-2.32 2.86 19.65 19.65 0 00-1.39 3.18 16.8 16.8 0 003.33-.68 20.91 20.91 0 003.26-1.76c2-1.23 3.66-1.64 5.08-1.26a3.82 3.82 0 012.4 1.78 3.55 3.55 0 01.43 2.82 3.85 3.85 0 01-2.1 2.43 5.32 5.32 0 01-3.84.25c-.49-.13-1.34-.39-2.58-.79-.58-.19-1.2-.37-1.89-.55-.89-.24-2.28-.56-4.13-1a21.4 21.4 0 001.78 3.13 21.81 21.81 0 002.56 2.59 9 9 0 012.46 3.26 4 4 0 01.07 2.52 3.76 3.76 0 01-1.76 2.34 3.63 3.63 0 01-2.84.39 4.08 4.08 0 01-2.49-2.06c-.61-1.09-.78-2.8-.5-5.1a18.7 18.7 0 00.21-3.31 20 20 0 00-.72-3.29 19.91 19.91 0 00-2.41 2.56 16.19 16.19 0 00-1.51 2.85q-1.37 3.21-2.91 4.13a3.91 3.91 0 01-3.15.49 3.76 3.76 0 01-2.31-1.72 3.38 3.38 0 01-.42-2.74 4.56 4.56 0 011.52-2.39 9.71 9.71 0 013.68-1.57 33.78 33.78 0 003.56-1 25.55 25.55 0 003-1.58l-3.88-1.19c-.69-.18-1.34-.34-2-.48-1.46-.3-2.46-.51-3-.66a5.19 5.19 0 01-3.1-2.07 3.78 3.78 0 011.2-5.44 3.91 3.91 0 013-.34 6.44 6.44 0 013.84 3.38 39.06 39.06 0 002 3.42 20.05 20.05 0 002.49 2.27zm57 7a16.83 16.83 0 00.45-3.33 22.65 22.65 0 00-.58-3.82 8.89 8.89 0 01-.24-3.91 4.32 4.32 0 012-2.63 3.63 3.63 0 013-.58 3.76 3.76 0 012.4 1.92 4.41 4.41 0 01.34 3.39 8.41 8.41 0 01-2.11 3.32 18.22 18.22 0 00-2.32 2.86 19.65 19.65 0 00-1.39 3.18 16.8 16.8 0 003.33-.68 20.91 20.91 0 003.26-1.76c2-1.23 3.66-1.64 5.08-1.26a3.82 3.82 0 012.4 1.78 3.55 3.55 0 01.43 2.82 3.85 3.85 0 01-2.1 2.43 5.32 5.32 0 01-3.84.25c-.49-.13-1.34-.39-2.58-.79-.58-.19-1.2-.37-1.89-.55-.89-.24-2.28-.56-4.13-1a21.4 21.4 0 001.78 3.13 21.81 21.81 0 002.56 2.59 9 9 0 012.46 3.26 4 4 0 01.07 2.52 3.76 3.76 0 01-1.76 2.34 3.63 3.63 0 01-2.84.39 4.08 4.08 0 01-2.49-2.06c-.61-1.09-.78-2.8-.5-5.1a18.7 18.7 0 00.21-3.31 20 20 0 00-.72-3.29 19.91 19.91 0 00-2.41 2.56 16.19 16.19 0 00-1.51 2.85q-1.36 3.21-2.91 4.13a3.91 3.91 0 01-3.15.49 3.76 3.76 0 01-2.31-1.72 3.38 3.38 0 01-.42-2.74 4.56 4.56 0 011.52-2.39 9.71 9.71 0 013.68-1.57 33.78 33.78 0 003.56-1 25.55 25.55 0 003-1.58l-3.88-1.19c-.69-.18-1.34-.34-2-.48-1.46-.3-2.46-.51-3-.66a5.19 5.19 0 01-3.1-2.07 3.78 3.78 0 011.2-5.44 3.91 3.91 0 013-.34 6.44 6.44 0 013.84 3.38 39.06 39.06 0 002 3.42 20.05 20.05 0 002.49 2.27zm-15.47-48.27a22.52 22.52 0 00.6-4.43 30.35 30.35 0 00-.78-5.07 12 12 0 01-.32-5.19 5.84 5.84 0 012.65-3.51 4.88 4.88 0 013.93-.77 5 5 0 013.2 2.56 5.83 5.83 0 01.44 4.51 11.14 11.14 0 01-2.8 4.41 24.16 24.16 0 00-3.08 3.8 25.69 25.69 0 00-1.85 4.22 22.4 22.4 0 004.43-.89 29.93 29.93 0 004.33-2.35c2.62-1.63 4.87-2.18 6.75-1.68a5.08 5.08 0 013.22 2.38 4.63 4.63 0 01.56 3.75 5 5 0 01-2.78 3.22 7.08 7.08 0 01-5.11.33c-.65-.17-1.78-.52-3.42-1-.77-.24-1.6-.48-2.51-.73-1.19-.32-3-.74-5.49-1.27a26.2 26.2 0 002.37 4.16 28.83 28.83 0 003.4 3.44 12.08 12.08 0 013.3 4.22 5.23 5.23 0 01.09 3.36 5 5 0 01-2.35 3.16 4.81 4.81 0 01-3.79.51 5.33 5.33 0 01-3.31-2.73c-.8-1.44-1-3.72-.66-6.78a25.82 25.82 0 00.28-4.4 27.32 27.32 0 00-.95-4.38 25.33 25.33 0 00-3.21 3.42 20.55 20.55 0 00-2 3.78c-1.2 2.85-2.5 4.67-3.86 5.49a5.24 5.24 0 01-4.19.65 5 5 0 01-3.09-2.3 4.5 4.5 0 01-.55-3.63 6 6 0 012-3.18 12.62 12.62 0 014.89-2.09 43.82 43.82 0 004.75-1.41 33.86 33.86 0 004-2.1l-5.1-1.59c-.92-.24-1.78-.46-2.6-.64-1.95-.4-3.27-.68-4-.87a6.89 6.89 0 01-4.12-2.76 5 5 0 01-.75-4.17 4.92 4.92 0 012.35-3.06 5.21 5.21 0 014-.45c2 .55 3.74 2.05 5.1 4.5s2.27 3.95 2.69 4.53a25.28 25.28 0 003.31 3zm44.47-34.73a16.83 16.83 0 00.45-3.33 22.65 22.65 0 00-.58-3.82 8.89 8.89 0 01-.24-3.91 4.32 4.32 0 012-2.63 3.63 3.63 0 013-.58 3.76 3.76 0 012.4 1.92 4.41 4.41 0 01.34 3.39 8.41 8.41 0 01-2.11 3.32 18.22 18.22 0 00-2.32 2.86 19.65 19.65 0 00-1.39 3.18 16.8 16.8 0 003.33-.68 20.91 20.91 0 003.26-1.76c2-1.23 3.66-1.64 5.08-1.26a3.82 3.82 0 012.42 1.78 3.55 3.55 0 01.43 2.82 3.85 3.85 0 01-2.1 2.43 5.32 5.32 0 01-3.84.25c-.49-.13-1.34-.39-2.58-.79-.58-.19-1.2-.37-1.89-.55-.89-.24-2.28-.56-4.13-1a21.4 21.4 0 001.78 3.13 21.81 21.81 0 002.56 2.59 9 9 0 012.49 3.18 4 4 0 01.07 2.52 3.76 3.76 0 01-1.78 2.38 3.63 3.63 0 01-2.84.39 4.08 4.08 0 01-2.49-2.06c-.61-1.09-.78-2.8-.5-5.1a18.7 18.7 0 00.21-3.31 20 20 0 00-.72-3.29 19.91 19.91 0 00-2.41 2.56 16.19 16.19 0 00-1.51 2.85q-1.36 3.21-2.91 4.13a3.91 3.91 0 01-3.15.49 3.76 3.76 0 01-2.31-1.72 3.38 3.38 0 01-.42-2.74 4.56 4.56 0 011.52-2.39 9.71 9.71 0 013.68-1.57 33.78 33.78 0 003.56-1 25.55 25.55 0 003-1.58l-3.88-1.19c-.69-.18-1.34-.34-2-.48-1.46-.3-2.46-.51-3-.66a5.19 5.19 0 01-3.1-2.07 3.78 3.78 0 011.2-5.44 3.91 3.91 0 013-.34 6.44 6.44 0 013.84 3.38 39.06 39.06 0 002 3.42 20.05 20.05 0 002.49 2.27zm18.96 52.41a29.33 29.33 0 00.78-5.75 40.3 40.3 0 00-1-6.57c-.68-3-.82-5.26-.42-6.74a7.54 7.54 0 013.44-4.55 6.27 6.27 0 015.09-1 6.46 6.46 0 014.15 3.31 7.58 7.58 0 01.58 5.85 14.6 14.6 0 01-3.64 5.73 31.76 31.76 0 00-4 4.92 34.35 34.35 0 00-2.4 5.48 28.68 28.68 0 005.75-1.16 39 39 0 005.62-3.05q5.1-3.16 8.75-2.17a6.67 6.67 0 014.19 3.08 6.08 6.08 0 01.77 4.83 6.53 6.53 0 01-3.61 4.18 9.19 9.19 0 01-6.63.44c-.84-.22-2.31-.68-4.43-1.37-1-.32-2.08-.63-3.26-.94-1.55-.42-3.94-1-7.13-1.66a35.4 35.4 0 003.08 5.4 37.17 37.17 0 004.41 4.46 15.65 15.65 0 014.28 5.48 6.74 6.74 0 01.13 4.35 6.49 6.49 0 01-3.06 4.1 6.24 6.24 0 01-4.91.67 6.93 6.93 0 01-4.29-3.55c-1-1.87-1.34-4.82-.86-8.79a32.38 32.38 0 00.35-5.71 34.55 34.55 0 00-1.22-5.68 33.91 33.91 0 00-4.17 4.43 28.16 28.16 0 00-2.6 4.91q-2.36 5.53-5 7.13a6.83 6.83 0 01-5.44.83 6.47 6.47 0 01-4-3 5.9 5.9 0 01-.72-4.72 7.84 7.84 0 012.63-4.12 16.51 16.51 0 016.34-2.71 55.5 55.5 0 006.13-1.78 43.59 43.59 0 005.26-2.73l-6.68-2a102.5 102.5 0 00-3.38-.83c-2.52-.51-4.24-.88-5.17-1.13a8.94 8.94 0 01-5.35-3.58 6.48 6.48 0 01-1-5.41 6.41 6.41 0 013-4 6.8 6.8 0 015.22-.59q4 1.08 6.61 5.84a68.27 68.27 0 003.49 5.88 33.22 33.22 0 004.29 3.92zm37.91-53.06a29.55 29.55 0 00.8-6 40 40 0 00-1-6.82c-.7-3.14-.84-5.46-.43-7a7.76 7.76 0 013.57-4.72 6.53 6.53 0 015.29-1 6.76 6.76 0 014.3 3.44 7.84 7.84 0 01.6 6.08 15.1 15.1 0 01-3.77 5.94 33.76 33.76 0 00-4.16 5.11 36.25 36.25 0 00-2.48 5.7 30.51 30.51 0 006-1.21 39.43 39.43 0 005.83-3.16c3.54-2.2 6.57-2.94 9.09-2.26a6.86 6.86 0 014.35 3.2 6.28 6.28 0 01.75 5 6.77 6.77 0 01-3.75 4.34 9.49 9.49 0 01-6.88.45c-.88-.22-2.4-.7-4.61-1.42-1-.32-2.15-.65-3.37-1-1.61-.44-4.1-1-7.4-1.72a36.48 36.48 0 003.19 5.6 39.28 39.28 0 004.58 4.63 16.22 16.22 0 014.44 5.7 6.88 6.88 0 01.13 4.51 6.71 6.71 0 01-3.17 4.26 6.48 6.48 0 01-5.1.69 7.23 7.23 0 01-4.46-3.68c-1.08-1.94-1.38-5-.88-9.13a34 34 0 00.36-5.92 35.05 35.05 0 00-1.27-5.9 33.54 33.54 0 00-4.32 4.6 28.3 28.3 0 00-2.71 5.09q-2.43 5.74-5.2 7.4a7.07 7.07 0 01-5.64.87 6.7 6.7 0 01-4.14-3.08 6 6 0 01-.75-4.9 8.15 8.15 0 012.73-4.28 17.2 17.2 0 016.58-2.81 59.48 59.48 0 006.37-1.84 45.13 45.13 0 005.45-2.84l-6.93-2.12c-1.24-.32-2.4-.61-3.51-.86-2.62-.53-4.4-.92-5.37-1.18a9.26 9.26 0 01-5.55-3.71 6.74 6.74 0 01-1-5.62 6.62 6.62 0 013.15-4.12 7 7 0 015.42-.61c2.76.74 5 2.77 6.87 6.06a69.56 69.56 0 003.63 6.11 33.2 33.2 0 004.45 4.06zm80.87 4.36a43.26 43.26 0 001.16-8.59 59.55 59.55 0 00-1.5-9.84c-1-4.52-1.22-7.87-.62-10.09a11.21 11.21 0 015.14-6.8 9.42 9.42 0 017.62-1.49 9.68 9.68 0 016.2 4.95 11.3 11.3 0 01.88 8.77c-.69 2.58-2.53 5.45-5.45 8.57a47.87 47.87 0 00-6 7.37 50.57 50.57 0 00-3.58 8.2 43.65 43.65 0 008.59-1.74 56.53 56.53 0 008.41-4.56q7.63-4.74 13.1-3.25a9.93 9.93 0 016.26 4.61 9 9 0 011.09 7.27 9.74 9.74 0 01-5.41 6.25 13.64 13.64 0 01-9.91.66c-1.27-.33-3.46-1-6.64-2.05-1.5-.47-3.1-.94-4.87-1.4-2.32-.64-5.9-1.45-10.67-2.49a53.4 53.4 0 004.6 8.08 56.93 56.93 0 006.61 6.68c3.23 2.9 5.37 5.62 6.4 8.2a10.09 10.09 0 01.19 6.51 9.72 9.72 0 01-4.58 6.14 9.32 9.32 0 01-7.34 1 10.33 10.33 0 01-6.43-5.3c-1.55-2.8-2-7.21-1.27-13.16a48.62 48.62 0 00.52-8.54 50.82 50.82 0 00-1.84-8.5 49.57 49.57 0 00-6.22 6.63 40.09 40.09 0 00-3.9 7.34c-2.34 5.53-4.85 9.07-7.5 10.67a10.2 10.2 0 01-8.13 1.25 9.7 9.7 0 01-6-4.44 8.72 8.72 0 01-1.08-7.06 11.79 11.79 0 013.93-6.17c2-1.61 5.11-2.95 9.49-4.05a87 87 0 009.18-2.66 64.53 64.53 0 007.86-4.08l-10-3.06c-1.77-.47-3.45-.89-5-1.24-3.77-.77-6.35-1.32-7.74-1.7a13.41 13.41 0 01-8-5.35 9.67 9.67 0 01-1.45-8.1 9.52 9.52 0 014.55-5.93 10.06 10.06 0 017.81-.88c4 1.06 7.26 4 9.9 8.73a101.84 101.84 0 005.23 8.81 48.74 48.74 0 006.42 5.85zm-85.74 94.29a16.83 16.83 0 00.45-3.33 22.65 22.65 0 00-.58-3.82 8.89 8.89 0 01-.24-3.91 4.32 4.32 0 012-2.63 3.63 3.63 0 013-.58 3.76 3.76 0 012.4 1.92 4.41 4.41 0 01.34 3.39 8.41 8.41 0 01-2.11 3.32 18.22 18.22 0 00-2.32 2.86 19.65 19.65 0 00-1.39 3.18 16.8 16.8 0 003.33-.68 20.91 20.91 0 003.26-1.76c2-1.23 3.66-1.64 5.08-1.26a3.82 3.82 0 012.42 1.78 3.55 3.55 0 01.43 2.82 3.85 3.85 0 01-2.1 2.43 5.32 5.32 0 01-3.84.25c-.49-.13-1.34-.39-2.58-.79-.58-.19-1.2-.37-1.89-.55-.89-.24-2.28-.56-4.13-1a21.4 21.4 0 001.78 3.13 21.81 21.81 0 002.56 2.59 9 9 0 012.49 3.18 4 4 0 01.07 2.52 3.76 3.76 0 01-1.78 2.38 3.63 3.63 0 01-2.84.39 4.08 4.08 0 01-2.49-2.06c-.61-1.09-.78-2.8-.5-5.1a18.7 18.7 0 00.21-3.31 20 20 0 00-.72-3.29 19.91 19.91 0 00-2.41 2.56 16.19 16.19 0 00-1.51 2.85q-1.36 3.21-2.91 4.13a3.91 3.91 0 01-3.15.49 3.76 3.76 0 01-2.31-1.72 3.38 3.38 0 01-.42-2.74 4.56 4.56 0 011.52-2.39 9.71 9.71 0 013.68-1.57 33.78 33.78 0 003.56-1 25.55 25.55 0 003.05-1.58l-3.88-1.19c-.69-.18-1.34-.34-2-.48-1.46-.3-2.46-.51-3-.66a5.19 5.19 0 01-3.1-2.07 3.78 3.78 0 011.2-5.44 3.91 3.91 0 013-.34 6.44 6.44 0 013.84 3.38 39.06 39.06 0 002 3.42 20.05 20.05 0 002.49 2.27zm25.53-43.27a22.52 22.52 0 00.6-4.43 30.35 30.35 0 00-.78-5.07 12 12 0 01-.32-5.19 5.84 5.84 0 012.65-3.51 4.88 4.88 0 013.93-.77 5 5 0 013.2 2.56 5.83 5.83 0 01.44 4.51 11.14 11.14 0 01-2.8 4.41 24.16 24.16 0 00-3.08 3.8 25.69 25.69 0 00-1.85 4.22 22.4 22.4 0 004.43-.89 29.93 29.93 0 004.33-2.35c2.62-1.63 4.87-2.18 6.75-1.68a5.08 5.08 0 013.22 2.38 4.63 4.63 0 01.56 3.75 5 5 0 01-2.78 3.22 7.08 7.08 0 01-5.11.33c-.65-.17-1.78-.52-3.42-1-.77-.24-1.6-.48-2.51-.73-1.19-.32-3-.74-5.49-1.27a26.2 26.2 0 002.37 4.16 28.83 28.83 0 003.4 3.44 12.08 12.08 0 013.3 4.22 5.23 5.23 0 01.09 3.36 5 5 0 01-2.35 3.16 4.81 4.81 0 01-3.79.51 5.33 5.33 0 01-3.31-2.73c-.8-1.44-1-3.72-.66-6.78a25.82 25.82 0 00.28-4.4 27.32 27.32 0 00-1-4.38 25.33 25.33 0 00-3.21 3.42 20.55 20.55 0 00-2 3.78c-1.2 2.85-2.5 4.67-3.86 5.49a5.24 5.24 0 01-4.19.65 5 5 0 01-3.08-2.29 4.5 4.5 0 01-.55-3.63 6 6 0 012-3.18 12.62 12.62 0 014.89-2.09 43.82 43.82 0 004.73-1.37 33.86 33.86 0 004.05-2.1l-5.09-1.64c-.92-.24-1.78-.46-2.6-.64-2-.4-3.27-.68-4-.87a6.89 6.89 0 01-4.12-2.76 5 5 0 01-.75-4.17 4.92 4.92 0 012.35-3.06 5.21 5.21 0 014-.45c2.05.55 3.74 2.05 5.1 4.5s2.27 3.95 2.69 4.53a25.28 25.28 0 003.31 3zM244.26 362a24.76 24.76 0 00.66-4.87 33.75 33.75 0 00-.85-5.56 13 13 0 01-.35-5.72 6.35 6.35 0 012.91-3.85 5.33 5.33 0 014.31-.84 5.52 5.52 0 013.52 2.8 6.42 6.42 0 01.49 5 12.29 12.29 0 01-3.09 4.85 27.41 27.41 0 00-3.38 4.17 28.09 28.09 0 00-2 4.65 24.16 24.16 0 004.86-1 32.17 32.17 0 004.76-2.58q4.34-2.68 7.42-1.84a5.65 5.65 0 013.55 2.61 5.16 5.16 0 01.61 4.12 5.54 5.54 0 01-3.06 3.54 7.73 7.73 0 01-5.61.37c-.72-.18-2-.58-3.76-1.16-.85-.26-1.76-.53-2.76-.79-1.31-.36-3.34-.82-6-1.41a28.51 28.51 0 002.61 4.57 31.46 31.46 0 003.74 3.78 13.42 13.42 0 013.62 4.65 5.68 5.68 0 01.11 3.69 5.53 5.53 0 01-2.59 3.47 5.29 5.29 0 01-4.16.56 5.87 5.87 0 01-3.64-3c-.88-1.58-1.13-4.08-.72-7.45a28.17 28.17 0 00.3-4.83 29.54 29.54 0 00-1.05-4.82 27.3 27.3 0 00-3.52 3.76 22.53 22.53 0 00-2.21 4.15q-2 4.69-4.24 6a5.76 5.76 0 01-4.61.71 5.51 5.51 0 01-3.38-2.51 4.94 4.94 0 01-.61-4 6.61 6.61 0 012.23-3.49 13.9 13.9 0 015.37-2.3 48.34 48.34 0 005.19-1.5 38.64 38.64 0 004.46-2.31l-5.66-1.74c-1-.26-2-.5-2.87-.7-2.13-.44-3.59-.75-4.38-1a7.58 7.58 0 01-4.53-3 5.53 5.53 0 01-.82-4.59 5.44 5.44 0 012.58-3.36 5.7 5.7 0 014.42-.49c2.25.6 4.11 2.26 5.6 4.94s2.5 4.35 3 5a27.9 27.9 0 003.63 3.31zm102.66-76.62a16.83 16.83 0 00.45-3.33 22.65 22.65 0 00-.58-3.82 8.89 8.89 0 01-.24-3.91 4.32 4.32 0 012-2.63 3.63 3.63 0 013-.58 3.76 3.76 0 012.4 1.92 4.41 4.41 0 01.34 3.39 8.41 8.41 0 01-2.11 3.32 18.22 18.22 0 00-2.32 2.86 19.65 19.65 0 00-1.39 3.18 16.8 16.8 0 003.33-.68 20.91 20.91 0 003.26-1.76c2-1.23 3.66-1.64 5.08-1.26a3.82 3.82 0 012.42 1.78 3.55 3.55 0 01.43 2.82 3.85 3.85 0 01-2.1 2.43 5.32 5.32 0 01-3.84.25c-.49-.13-1.34-.39-2.58-.79-.58-.19-1.2-.37-1.89-.55-.89-.24-2.28-.56-4.13-1a21.4 21.4 0 001.78 3.13 21.81 21.81 0 002.56 2.59 9 9 0 012.49 3.18 4 4 0 01.07 2.52 3.76 3.76 0 01-1.78 2.38 3.63 3.63 0 01-2.84.39 4.08 4.08 0 01-2.49-2.06c-.61-1.09-.78-2.8-.5-5.1a18.7 18.7 0 00.21-3.31 20 20 0 00-.72-3.29 19.91 19.91 0 00-2.41 2.56 16.19 16.19 0 00-1.51 2.85q-1.37 3.21-2.91 4.13a3.91 3.91 0 01-3.15.49 3.76 3.76 0 01-2.31-1.72 3.38 3.38 0 01-.42-2.74 4.56 4.56 0 011.52-2.39 9.71 9.71 0 013.68-1.57 33.78 33.78 0 003.56-1 25.55 25.55 0 003.05-1.58l-3.88-1.19c-.69-.18-1.34-.34-2-.48-1.46-.3-2.46-.51-3-.66a5.19 5.19 0 01-3.1-2.07 3.78 3.78 0 011.2-5.44 3.91 3.91 0 013-.34 6.44 6.44 0 013.84 3.38 39.06 39.06 0 002 3.42 20.05 20.05 0 002.49 2.27zm-43.38-50.25a21.38 21.38 0 00.58-4.35 29.75 29.75 0 00-.76-5 11.56 11.56 0 01-.31-5.1 5.68 5.68 0 012.6-3.44 4.76 4.76 0 013.85-.75 4.91 4.91 0 013.14 2.51 5.7 5.7 0 01.43 4.42 10.79 10.79 0 01-2.75 4.33 24.51 24.51 0 00-3 3.73 25.55 25.55 0 00-1.81 4.14 21.67 21.67 0 004.34-.88 28.54 28.54 0 004.25-2.3c2.58-1.6 4.78-2.14 6.62-1.64a5 5 0 013.17 2.33 4.57 4.57 0 01.55 3.67 5 5 0 01-2.8 3.2 6.89 6.89 0 01-5 .33c-.64-.16-1.74-.51-3.35-1-.76-.24-1.57-.47-2.46-.71-1.18-.32-3-.73-5.4-1.26a27.1 27.1 0 002.33 4.09 28.71 28.71 0 003.34 3.37 11.85 11.85 0 013.23 4.15 5 5 0 01.1 3.29 4.92 4.92 0 01-2.31 3.1 4.7 4.7 0 01-3.71.5 5.17 5.17 0 01-3.25-2.68c-.79-1.41-1-3.64-.65-6.65a25.57 25.57 0 00.27-4.31 26.66 26.66 0 00-.93-4.3 25.12 25.12 0 00-3.15 3.35 21.12 21.12 0 00-2 3.71c-1.18 2.79-2.45 4.59-3.79 5.39a5.17 5.17 0 01-4.11.64 4.92 4.92 0 01-3-2.25 4.39 4.39 0 01-.54-3.57 5.93 5.93 0 012-3.12 12.45 12.45 0 014.8-2 41.54 41.54 0 004.64-1.35 33.3 33.3 0 004-2.06l-5.11-1.66c-.9-.23-1.75-.45-2.56-.62-1.9-.39-3.2-.67-3.91-.86a6.81 6.81 0 01-4-2.71 4.89 4.89 0 01-.73-4.09 4.82 4.82 0 012.3-3 5.11 5.11 0 013.95-.45 8.37 8.37 0 015 4.42 51.07 51.07 0 002.64 4.45 24.35 24.35 0 003.25 3zm31.19 107.57a30.43 30.43 0 00.82-6.1 41.52 41.52 0 00-1.06-7c-.72-3.2-.87-5.58-.44-7.16a8 8 0 013.65-4.83 6.63 6.63 0 015.4-1.05 6.92 6.92 0 014.41 3.51 8 8 0 01.61 6.22 15.36 15.36 0 01-3.86 6.08 34.46 34.46 0 00-4.25 5.23 36.93 36.93 0 00-2.54 5.82 30.72 30.72 0 006.1-1.24 39.84 39.84 0 006-3.23q5.43-3.36 9.3-2.31a7 7 0 014.45 3.27 6.49 6.49 0 01.77 5.16 7 7 0 01-3.84 4.44 9.71 9.71 0 01-7 .46c-.89-.23-2.45-.72-4.71-1.45-1.06-.33-2.2-.66-3.45-1-1.65-.45-4.19-1-7.57-1.76a37.48 37.48 0 003.26 5.73 40.37 40.37 0 004.69 4.74 16.67 16.67 0 014.54 5.82 7.15 7.15 0 01.14 4.62 6.93 6.93 0 01-3.25 4.36 6.63 6.63 0 01-5.21.7 7.33 7.33 0 01-4.56-3.76c-1.11-2-1.42-5.12-.91-9.34a35 35 0 00.38-6.06 36.78 36.78 0 00-1.31-6 34.36 34.36 0 00-4.42 4.71 28.28 28.28 0 00-2.76 5.2c-1.67 3.93-3.44 6.44-5.32 7.57a7.29 7.29 0 01-5.78.89 6.91 6.91 0 01-4.23-3.15 6.23 6.23 0 01-.77-5 8.35 8.35 0 012.79-4.37 17.46 17.46 0 016.73-2.88 58.46 58.46 0 006.52-1.89 47.38 47.38 0 005.58-2.89l-7.1-2.17a80.31 80.31 0 00-3.58-.88c-2.68-.55-4.51-.94-5.5-1.21a9.47 9.47 0 01-5.67-3.8 6.87 6.87 0 01-1-5.74 6.79 6.79 0 013.23-4.22 7.15 7.15 0 015.54-.62c2.82.76 5.15 2.83 7 6.2a72.21 72.21 0 003.72 6.25 34.89 34.89 0 004.55 4.15zM375.3 226a23.62 23.62 0 00.64-4.78 33.08 33.08 0 00-.83-5.47 12.82 12.82 0 01-.35-5.62 6.32 6.32 0 012.86-3.79 5.24 5.24 0 014.24-.82 5.39 5.39 0 013.46 2.75 6.35 6.35 0 01.48 4.88 12.19 12.19 0 01-3 4.77 26.43 26.43 0 00-3.36 4.08 28.35 28.35 0 00-2 4.57 23.71 23.71 0 004.78-1 32.29 32.29 0 004.68-2.53c2.83-1.76 5.26-2.36 7.29-1.82a5.57 5.57 0 013.48 2.57 5 5 0 01.61 4.05 5.46 5.46 0 01-3 3.48 7.65 7.65 0 01-5.52.36c-.7-.18-1.92-.56-3.69-1.14-.84-.26-1.73-.52-2.71-.78-1.29-.35-3.29-.8-5.94-1.38a29 29 0 002.56 4.49 31.23 31.23 0 003.68 3.72 13 13 0 013.56 4.57 5.54 5.54 0 01.1 3.62 5.37 5.37 0 01-2.54 3.41 5.21 5.21 0 01-4.09.56 5.82 5.82 0 01-3.58-3c-.86-1.55-1.11-4-.71-7.32a27.25 27.25 0 00.3-4.75 29 29 0 00-1-4.73 27.08 27.08 0 00-3.46 3.69 22.45 22.45 0 00-2.17 4.08c-1.3 3.08-2.7 5.05-4.17 5.94a5.7 5.7 0 01-4.53.7 5.43 5.43 0 01-3.32-2.47 4.82 4.82 0 01-.6-3.93 6.51 6.51 0 012.19-3.43 13.58 13.58 0 015.27-2.26 48 48 0 005.11-1.48 37.27 37.27 0 004.38-2.27l-5.56-1.7c-1-.26-1.93-.5-2.82-.69-2.1-.43-3.53-.74-4.31-.95a7.38 7.38 0 01-4.44-3 5.42 5.42 0 011.72-7.81 5.66 5.66 0 014.35-.49c2.21.6 4 2.23 5.5 4.86a52.47 52.47 0 002.92 4.9 25.56 25.56 0 003.57 3.26zm67 1a21.67 21.67 0 00.56-4.18 28.79 28.79 0 00-.73-4.78 11.09 11.09 0 01-.3-4.9 5.47 5.47 0 012.5-3.31 4.56 4.56 0 013.7-.72 4.7 4.7 0 013 2.4 5.53 5.53 0 01.42 4.26 10.6 10.6 0 01-2.65 4.17 22.48 22.48 0 00-2.9 3.58 23.92 23.92 0 00-1.75 4 21.19 21.19 0 004.18-.85 28.06 28.06 0 004.09-2.21c2.47-1.54 4.6-2.07 6.37-1.59a4.81 4.81 0 013 2.25 4.39 4.39 0 01.53 3.53 4.73 4.73 0 01-2.63 3 6.67 6.67 0 01-4.82.32c-.61-.16-1.68-.5-3.23-1-.72-.23-1.5-.45-2.36-.68-1.13-.31-2.87-.7-5.19-1.21a24.76 24.76 0 002.24 3.93 26.52 26.52 0 003.21 3.24 11.52 11.52 0 013.11 4 4.86 4.86 0 01.09 3.17 4.7 4.7 0 01-2.22 3 4.49 4.49 0 01-3.57.48 5 5 0 01-3.13-2.57c-.75-1.36-1-3.51-.62-6.4a23.47 23.47 0 00.26-4.15 24.65 24.65 0 00-.89-4.13 22.75 22.75 0 00-3 3.22 19.91 19.91 0 00-1.9 3.57q-1.71 4-3.64 5.18a5 5 0 01-4 .61 4.69 4.69 0 01-2.9-2.16 4.26 4.26 0 01-.52-3.43 5.76 5.76 0 011.91-3 12.11 12.11 0 014.61-2 42.08 42.08 0 004.46-1.29 32.05 32.05 0 003.83-2l-4.86-1.49c-.87-.23-1.68-.43-2.46-.6-1.83-.38-3.09-.65-3.76-.83a6.5 6.5 0 01-3.89-2.6 4.73 4.73 0 01-.71-3.94 4.62 4.62 0 012.22-2.88 4.86 4.86 0 013.79-.43 8 8 0 014.81 4.25 46.87 46.87 0 002.55 4.27 22.22 22.22 0 003.12 2.85zm-28.76 74.59a32 32 0 00.88-6.53 44.08 44.08 0 00-1.14-7.48c-.76-3.44-.92-6-.47-7.68a8.6 8.6 0 013.91-5.18 7.17 7.17 0 015.8-1.13 7.41 7.41 0 014.72 3.77 8.61 8.61 0 01.66 6.66 16.65 16.65 0 01-4.14 6.52 35.87 35.87 0 00-4.55 5.6 38.89 38.89 0 00-2.73 6.24 32.91 32.91 0 006.54-1.32 43.9 43.9 0 006.39-3.47q5.81-3.6 10-2.47a7.54 7.54 0 014.76 3.51 6.88 6.88 0 01.83 5.53 7.44 7.44 0 01-4.12 4.75 10.36 10.36 0 01-7.54.5c-1-.25-2.63-.77-5-1.56-1.14-.35-2.36-.71-3.7-1.07-1.77-.48-4.49-1.09-8.12-1.88a40.78 40.78 0 003.5 6.14 43.78 43.78 0 005 5.08 18 18 0 014.87 6.24 7.61 7.61 0 01.14 4.95 7.36 7.36 0 01-3.49 4.69 7.13 7.13 0 01-5.59.76 7.9 7.9 0 01-4.88-4c-1.19-2.13-1.53-5.49-1-10a38.49 38.49 0 00.4-6.49 39.82 39.82 0 00-1.4-6.47 37.87 37.87 0 00-4.74 5 31.12 31.12 0 00-3 5.59q-2.67 6.3-5.7 8.11a7.77 7.77 0 01-6.18.95 7.37 7.37 0 01-4.55-3.37 6.69 6.69 0 01-.82-5.37 8.9 8.9 0 013-4.69c1.48-1.23 3.88-2.25 7.21-3.09a63 63 0 007-2 49.5 49.5 0 006-3.11l-7.61-2.32a78.9 78.9 0 00-3.85-.94c-2.86-.59-4.82-1-5.88-1.3a10.15 10.15 0 01-6.08-4.06 7.39 7.39 0 01-1.11-6.17 7.27 7.27 0 013.46-4.51 7.67 7.67 0 015.95-.67c3 .81 5.52 3 7.52 6.64s3.35 5.85 4 6.7a37.57 37.57 0 004.88 4.45zM403 372.85a28.32 28.32 0 00.74-5.48 38.75 38.75 0 00-1-6.26c-.64-2.88-.78-5-.39-6.44a7.1 7.1 0 013.27-4.33 6 6 0 014.86-.95 6.16 6.16 0 013.95 3.16 7.18 7.18 0 01.56 5.58 13.91 13.91 0 01-3.47 5.46 31.08 31.08 0 00-3.82 4.69 32.66 32.66 0 00-2.28 5.24 28.1 28.1 0 005.48-1.12 35.88 35.88 0 005.35-2.9q4.88-3 8.36-2.07a6.31 6.31 0 014 2.94 5.78 5.78 0 01.69 4.63 6.25 6.25 0 01-3.45 4 8.73 8.73 0 01-6.32.41c-.8-.21-2.2-.65-4.23-1.3-1-.3-2-.6-3.1-.9-1.48-.4-3.76-.92-6.8-1.58a33.12 33.12 0 002.93 5.15 36.26 36.26 0 004.21 4.22 14.83 14.83 0 014.08 5.23 6.34 6.34 0 01.12 4.15 6.14 6.14 0 01-2.92 3.91 5.9 5.9 0 01-4.67.64 6.62 6.62 0 01-4.1-3.38c-1-1.79-1.28-4.6-.81-8.39a31.86 31.86 0 00.33-5.44 33.39 33.39 0 00-1.17-5.42 31.51 31.51 0 00-4 4.23 26.42 26.42 0 00-2.49 4.67c-1.49 3.53-3.08 5.79-4.77 6.8a6.52 6.52 0 01-5.19.8 6.16 6.16 0 01-3.8-2.83 5.53 5.53 0 01-.69-4.5 7.47 7.47 0 012.51-3.93 15.59 15.59 0 016-2.58 53.36 53.36 0 005.85-1.7 41.46 41.46 0 005-2.6l-6.28-1.93c-1.13-.3-2.2-.56-3.22-.79-2.4-.49-4-.84-4.93-1.08a8.53 8.53 0 01-5.1-3.41 6.18 6.18 0 01-.92-5.17 6.08 6.08 0 012.9-3.78 6.47 6.47 0 015-.56c2.53.68 4.62 2.55 6.3 5.57a64.21 64.21 0 003.34 5.61 30.69 30.69 0 004.09 3.73zm95.61-189.22a31.71 31.71 0 00.86-6.38 44.49 44.49 0 00-1.11-7.31c-.75-3.36-.91-5.84-.47-7.5a8.4 8.4 0 013.82-5.05 7 7 0 015.66-1.1 7.2 7.2 0 014.61 3.68 8.39 8.39 0 01.65 6.5 16.18 16.18 0 01-4.05 6.37 35.66 35.66 0 00-4.44 5.47 37.86 37.86 0 00-2.66 6.09 31.86 31.86 0 006.38-1.29 42.4 42.4 0 006.24-3.38q5.69-3.53 9.74-2.42a7.37 7.37 0 014.65 3.42 6.78 6.78 0 01.81 5.4 7.28 7.28 0 01-4 4.65 10.22 10.22 0 01-7.37.49c-.94-.25-2.56-.76-4.93-1.53-1.11-.34-2.3-.69-3.62-1-1.72-.47-4.38-1.07-7.92-1.84a38.85 38.85 0 003.42 6 43.17 43.17 0 004.9 4.95 17.41 17.41 0 014.76 6.1 7.41 7.41 0 01.14 4.84 7.19 7.19 0 01-3.4 4.55 6.88 6.88 0 01-5.45.74 7.71 7.71 0 01-4.78-3.94c-1.15-2.08-1.48-5.35-.94-9.77a37.56 37.56 0 00.39-6.34 39.52 39.52 0 00-1.37-6.32 36.88 36.88 0 00-4.63 4.93 30.28 30.28 0 00-2.89 5.45q-2.61 6.15-5.57 7.92a7.55 7.55 0 01-6 .93 7.25 7.25 0 01-4.44-3.29 6.56 6.56 0 01-.8-5.25 8.69 8.69 0 012.93-4.58 18.29 18.29 0 017-3 66.13 66.13 0 006.82-2 51.15 51.15 0 005.84-3l-7.43-2.27a88 88 0 00-3.75-.92c-2.8-.58-4.71-1-5.75-1.26a10 10 0 01-5.94-4 7.2 7.2 0 01-1.08-6 7 7 0 013.38-4.41 7.5 7.5 0 015.81-.66q4.41 1.2 7.34 6.49a74.31 74.31 0 003.89 6.54 35.77 35.77 0 004.77 4.35zm13.76 92.3a46 46 0 001.25-9.25 64 64 0 00-1.61-10.59c-1.09-4.86-1.31-8.47-.67-10.86a12.11 12.11 0 015.53-7.33 10.18 10.18 0 018.21-1.6 10.46 10.46 0 016.68 5.33 12.2 12.2 0 01.93 9.43c-.74 2.77-2.72 5.86-5.86 9.23a51.54 51.54 0 00-6.44 7.93 54.59 54.59 0 00-3.86 8.83 46.19 46.19 0 009.25-1.88 60.75 60.75 0 009-4.9q8.24-5.1 14.11-3.5a10.68 10.68 0 016.74 5 9.78 9.78 0 011.17 7.83 10.53 10.53 0 01-5.82 6.73 14.7 14.7 0 01-10.68.7c-1.36-.35-3.71-1.09-7.14-2.2-1.62-.5-3.34-1-5.25-1.51-2.49-.68-6.35-1.55-11.48-2.68a57.49 57.49 0 004.95 8.7 61.37 61.37 0 007.11 7.19c3.48 3.12 5.79 6.05 6.9 8.83a10.8 10.8 0 01.2 7 10.42 10.42 0 01-4.93 6.6 10 10 0 01-7.9 1.08 11.18 11.18 0 01-6.92-5.71c-1.68-3-2.16-7.77-1.37-14.17a53 53 0 00.56-9.19 54.28 54.28 0 00-2-9.15 53.57 53.57 0 00-6.7 7.13 44.24 44.24 0 00-4.2 7.91c-2.52 5.95-5.22 9.76-8.07 11.48a11 11 0 01-8.75 1.35 10.49 10.49 0 01-6.43-4.78 9.37 9.37 0 01-1.16-7.6 12.58 12.58 0 014.23-6.64c2.11-1.74 5.5-3.18 10.21-4.36a92 92 0 009.88-2.86 71.48 71.48 0 008.5-4.45l-10.76-3.29c-1.92-.51-3.72-1-5.45-1.34-4.05-.83-6.83-1.42-8.33-1.83a14.31 14.31 0 01-8.6-5.76 10.46 10.46 0 013.33-15.11 10.88 10.88 0 018.41-.94c4.27 1.14 7.82 4.29 10.65 9.4a108.79 108.79 0 005.64 9.48 52.45 52.45 0 006.9 6.3zm72.17-68.36a33 33 0 00.89-6.62 45.82 45.82 0 00-1.16-7.57c-.77-3.48-.93-6.06-.47-7.78a8.65 8.65 0 013.95-5.24 7.24 7.24 0 015.88-1.14 7.47 7.47 0 014.78 3.81 8.74 8.74 0 01.66 6.75 16.66 16.66 0 01-4.19 6.6 37.35 37.35 0 00-4.61 5.67 39.65 39.65 0 00-2.76 6.32 32.64 32.64 0 006.62-1.34 43.94 43.94 0 006.48-3.51q5.88-3.65 10.09-2.5a7.56 7.56 0 014.82 3.55 6.93 6.93 0 01.84 5.6 7.57 7.57 0 01-4.16 4.82 10.53 10.53 0 01-7.64.5c-1-.25-2.66-.78-5.12-1.58-1.15-.36-2.39-.72-3.75-1.08-1.78-.49-4.54-1.11-8.21-1.91a40.07 40.07 0 003.54 6.22 43.19 43.19 0 005.09 5.14 18 18 0 014.93 6.32 7.75 7.75 0 01.14 5 7.47 7.47 0 01-3.52 4.73 7.21 7.21 0 01-5.66.76 8 8 0 01-4.95-4.08c-1.2-2.16-1.54-5.56-1-10.14a37.45 37.45 0 00.4-6.58 38.86 38.86 0 00-1.41-6.54 37.54 37.54 0 00-4.8 5.1 31.26 31.26 0 00-3 5.66q-2.72 6.38-5.78 8.21a7.88 7.88 0 01-6.26 1 7.45 7.45 0 01-4.6-3.42 6.69 6.69 0 01-.83-5.44 9 9 0 013-4.75c1.5-1.25 3.93-2.28 7.3-3.12a66.3 66.3 0 007.07-2 50.12 50.12 0 006.06-3.15l-7.7-2.35c-1.37-.36-2.66-.69-3.89-1-2.91-.59-4.89-1-6-1.31a10.34 10.34 0 01-6.07-4.18 7.47 7.47 0 01-1.11-6.24 7.35 7.35 0 013.5-4.57 7.81 7.81 0 016-.68c3.06.82 5.59 3.08 7.62 6.73a77.47 77.47 0 004 6.78 36.72 36.72 0 005 4.51zm-24.9-67.35a20.28 20.28 0 00.54-4 27.51 27.51 0 00-.7-4.57 10.69 10.69 0 01-.29-4.68 5.24 5.24 0 012.39-3.16 4.36 4.36 0 013.54-.69 4.52 4.52 0 012.88 2.3 5.26 5.26 0 01.4 4.06 10.08 10.08 0 01-2.53 4 22.64 22.64 0 00-2.78 3.42 23.81 23.81 0 00-1.66 3.81 21 21 0 004-.81 26.85 26.85 0 003.9-2.11c2.37-1.47 4.39-2 6.08-1.52a4.63 4.63 0 012.91 2.15 4.2 4.2 0 01.5 3.37 4.5 4.5 0 01-2.51 2.9 6.34 6.34 0 01-4.6.31c-.59-.16-1.6-.48-3.08-1-.7-.22-1.44-.44-2.26-.66-1.08-.29-2.74-.67-5-1.15a24.59 24.59 0 002.17 3.81 26.52 26.52 0 003.07 3.1 10.91 10.91 0 013 3.81 4.67 4.67 0 01.09 3 4.52 4.52 0 01-2.13 2.85 4.32 4.32 0 01-3.4.46 4.83 4.83 0 01-3-2.46c-.72-1.3-.93-3.35-.59-6.11a23.1 23.1 0 00.25-4 23.91 23.91 0 00-.86-3.95 23.79 23.79 0 00-2.89 3.08 19.2 19.2 0 00-1.81 3.41c-1.08 2.56-2.25 4.21-3.48 5a4.75 4.75 0 01-3.77.58 4.49 4.49 0 01-2.77-2.06 4 4 0 01-.5-3.28 5.39 5.39 0 011.82-2.86 11.43 11.43 0 014.4-1.88 38.94 38.94 0 004.26-1.24 30.54 30.54 0 003.66-1.89l-4.64-1.42c-.83-.22-1.61-.41-2.35-.58-1.75-.36-3-.61-3.59-.79a6.22 6.22 0 01-3.72-2.48 4.5 4.5 0 01-.67-3.76 4.42 4.42 0 012.11-2.75 4.64 4.64 0 013.63-.41 7.65 7.65 0 014.59 4 46 46 0 002.43 4.09 23.28 23.28 0 003 2.72zm43.24 149.57a29.33 29.33 0 00.78-5.75 40.3 40.3 0 00-1-6.57c-.68-3-.82-5.26-.42-6.74a7.54 7.54 0 013.44-4.55 6.27 6.27 0 015.09-1 6.46 6.46 0 014.15 3.31 7.58 7.58 0 01.58 5.85 14.6 14.6 0 01-3.64 5.73 31.76 31.76 0 00-4 4.92 34.35 34.35 0 00-2.4 5.48 28.68 28.68 0 005.75-1.16 39 39 0 005.62-3.05q5.1-3.16 8.75-2.17a6.67 6.67 0 014.19 3.08 6.08 6.08 0 01.77 4.83 6.53 6.53 0 01-3.61 4.18 9.19 9.19 0 01-6.63.44c-.84-.22-2.31-.68-4.43-1.37-1-.32-2.08-.63-3.26-.94-1.55-.42-3.94-1-7.13-1.66a35.4 35.4 0 003.08 5.4 37.17 37.17 0 004.41 4.46 15.65 15.65 0 014.28 5.48 6.74 6.74 0 01.13 4.35 6.49 6.49 0 01-3.06 4.1 6.24 6.24 0 01-4.91.67 6.93 6.93 0 01-4.29-3.55c-1-1.87-1.34-4.82-.86-8.79a32.38 32.38 0 00.35-5.71 34.55 34.55 0 00-1.22-5.68 33.91 33.91 0 00-4.17 4.43 28.16 28.16 0 00-2.6 4.91q-2.35 5.53-5 7.13a6.83 6.83 0 01-5.44.83 6.47 6.47 0 01-4-3 5.9 5.9 0 01-.72-4.72 7.84 7.84 0 012.63-4.12 16.51 16.51 0 016.34-2.71 55.5 55.5 0 006.13-1.78 43.59 43.59 0 005.26-2.73l-6.68-2a102.5 102.5 0 00-3.38-.83c-2.52-.51-4.24-.88-5.17-1.13a8.94 8.94 0 01-5.35-3.58 6.48 6.48 0 01-1-5.41 6.41 6.41 0 013.05-4 6.8 6.8 0 015.22-.59q4 1.08 6.61 5.84a68.27 68.27 0 003.49 5.88 33.22 33.22 0 004.29 3.92zm52-135a29.33 29.33 0 00.78-5.75 40.3 40.3 0 00-1-6.57c-.68-3-.82-5.26-.42-6.74a7.54 7.54 0 013.44-4.55 6.27 6.27 0 015.09-1 6.46 6.46 0 014.15 3.31 7.58 7.58 0 01.58 5.85 14.6 14.6 0 01-3.64 5.73 31.76 31.76 0 00-4 4.92 34.35 34.35 0 00-2.4 5.48 28.68 28.68 0 005.75-1.16 39 39 0 005.62-3q5.1-3.17 8.75-2.17a6.67 6.67 0 014.19 3.08 6.08 6.08 0 01.77 4.78 6.53 6.53 0 01-3.61 4.18 9.19 9.19 0 01-6.63.44c-.84-.22-2.31-.68-4.43-1.37-1-.32-2.08-.63-3.26-.94-1.55-.42-3.94-1-7.13-1.66a35.4 35.4 0 003.08 5.4 37.17 37.17 0 004.41 4.46 15.65 15.65 0 014.28 5.48 6.74 6.74 0 01.13 4.35 6.49 6.49 0 01-3.06 4.1 6.24 6.24 0 01-4.91.67 6.93 6.93 0 01-4.29-3.55c-1-1.87-1.34-4.82-.86-8.79a32.38 32.38 0 00.35-5.71 34.55 34.55 0 00-1.22-5.68 33.91 33.91 0 00-4.17 4.43 28.16 28.16 0 00-2.6 4.91q-2.35 5.53-5 7.13a6.83 6.83 0 01-5.44.83 6.47 6.47 0 01-4-3 5.9 5.9 0 01-.72-4.72 7.84 7.84 0 012.63-4.12 16.51 16.51 0 016.34-2.71 55.5 55.5 0 006.13-1.78 43.59 43.59 0 005.26-2.73l-6.68-2a102.5 102.5 0 00-3.38-.83c-2.52-.51-4.24-.88-5.17-1.13a8.94 8.94 0 01-5.35-3.58 6.48 6.48 0 01-1-5.41 6.41 6.41 0 013.05-4 6.8 6.8 0 015.22-.59q4 1.08 6.61 5.84a68.27 68.27 0 003.49 5.88 33.22 33.22 0 004.29 3.92zm-43.81-66.9a26.92 26.92 0 00.72-5.3 36.52 36.52 0 00-.93-6.07c-.62-2.79-.75-4.86-.38-6.23a7 7 0 013.17-4.2 5.83 5.83 0 014.71-.92 6 6 0 013.83 3.06 7 7 0 01.53 5.41 13.43 13.43 0 01-3.36 5.29 28.82 28.82 0 00-3.69 4.54 31.17 31.17 0 00-2.21 5.07 27.09 27.09 0 005.3-1.08 35.92 35.92 0 005.19-2.81q4.71-2.93 8.09-2a6.11 6.11 0 013.86 2.85 5.56 5.56 0 01.64 4.5 6 6 0 01-3.33 3.85 8.44 8.44 0 01-6.13.41c-.78-.2-2.13-.63-4.09-1.27-.93-.28-1.92-.57-3-.86-1.43-.39-3.64-.89-6.58-1.54a31.31 31.31 0 002.84 5 34.57 34.57 0 004.07 4.12 14.44 14.44 0 014 5.07 6.18 6.18 0 01.11 4 6 6 0 01-2.82 3.79 5.78 5.78 0 01-4.53.62 6.4 6.4 0 01-4-3.28c-1-1.73-1.24-4.45-.79-8.12a29.67 29.67 0 00.32-5.27 31.38 31.38 0 00-1.07-5.27 30.2 30.2 0 00-3.84 4.09 24.81 24.81 0 00-2.41 4.54q-2.18 5.12-4.63 6.58a6.3 6.3 0 01-5 .77 6 6 0 01-3.68-2.74 5.38 5.38 0 01-.67-4.35 7.2 7.2 0 012.43-3.81 15.18 15.18 0 015.85-2.5 54.73 54.73 0 005.67-1.64 41.56 41.56 0 004.86-2.53l-6.18-1.88a78.19 78.19 0 00-3.12-.77c-2.32-.48-3.91-.81-4.78-1.05a8.24 8.24 0 01-4.93-3.3 6 6 0 011.84-8.66 6.21 6.21 0 014.82-.54c2.45.65 4.49 2.46 6.11 5.39s2.72 4.74 3.23 5.43a29.91 29.91 0 004 3.61zm58.81 152.9a29.33 29.33 0 00.78-5.75 40.3 40.3 0 00-1-6.57c-.68-3-.82-5.26-.42-6.74a7.54 7.54 0 013.44-4.55 6.27 6.27 0 015.09-1 6.46 6.46 0 014.15 3.31 7.58 7.58 0 01.58 5.85 14.6 14.6 0 01-3.64 5.73 31.76 31.76 0 00-4 4.92 34.35 34.35 0 00-2.4 5.48 28.68 28.68 0 005.75-1.16 39 39 0 005.62-3q5.1-3.17 8.75-2.17a6.67 6.67 0 014.19 3.08 6.08 6.08 0 01.77 4.78 6.53 6.53 0 01-3.61 4.18 9.19 9.19 0 01-6.63.44c-.84-.22-2.31-.68-4.43-1.37-1-.32-2.08-.63-3.26-.94-1.55-.42-3.94-1-7.13-1.66a35.4 35.4 0 003.08 5.4 37.17 37.17 0 004.41 4.46 15.65 15.65 0 014.28 5.48 6.74 6.74 0 01.13 4.35 6.49 6.49 0 01-3.06 4.1 6.24 6.24 0 01-4.91.67 6.93 6.93 0 01-4.29-3.55c-1-1.87-1.34-4.82-.86-8.79a32.38 32.38 0 00.35-5.71 34.55 34.55 0 00-1.22-5.68 33.91 33.91 0 00-4.17 4.43 28.16 28.16 0 00-2.6 4.91q-2.35 5.53-5 7.13a6.83 6.83 0 01-5.44.83 6.47 6.47 0 01-4-3 5.9 5.9 0 01-.72-4.72 7.84 7.84 0 012.63-4.12 16.51 16.51 0 016.34-2.71 55.5 55.5 0 006.13-1.78 43.59 43.59 0 005.26-2.73l-6.68-2a102.5 102.5 0 00-3.38-.83c-2.52-.51-4.24-.88-5.17-1.13a8.94 8.94 0 01-5.35-3.58 6.48 6.48 0 01-1-5.41 6.41 6.41 0 013.05-4 6.8 6.8 0 015.22-.59q4 1.08 6.61 5.84a68.27 68.27 0 003.49 5.88 33.22 33.22 0 004.29 3.92zm23.78 84.3a43.26 43.26 0 001.16-8.59 59.55 59.55 0 00-1.5-9.84c-1-4.52-1.22-7.87-.62-10.09a11.21 11.21 0 015.14-6.8 9.42 9.42 0 017.62-1.49 9.68 9.68 0 016.2 5 11.3 11.3 0 01.88 8.72c-.69 2.58-2.53 5.45-5.45 8.57a47.87 47.87 0 00-6 7.37 50.57 50.57 0 00-3.58 8.2 43.65 43.65 0 008.59-1.74 56.53 56.53 0 008.41-4.56q7.63-4.74 13.1-3.25a9.93 9.93 0 016.26 4.61 9 9 0 011.09 7.27 9.74 9.74 0 01-5.41 6.25 13.64 13.64 0 01-9.91.66c-1.27-.33-3.46-1-6.64-2.05-1.5-.47-3.1-.94-4.87-1.4-2.32-.64-5.9-1.45-10.67-2.49a53.4 53.4 0 004.6 8.08 56.93 56.93 0 006.61 6.68c3.23 2.9 5.37 5.62 6.4 8.2a10.09 10.09 0 01.19 6.51 9.72 9.72 0 01-4.58 6.14 9.32 9.32 0 01-7.34 1 10.33 10.33 0 01-6.43-5.3c-1.55-2.8-2-7.21-1.27-13.16a48.62 48.62 0 00.52-8.54 50.82 50.82 0 00-1.84-8.5 49.57 49.57 0 00-6.22 6.63 40.09 40.09 0 00-3.9 7.34c-2.34 5.53-4.85 9.07-7.5 10.67a10.2 10.2 0 01-8.13 1.25 9.7 9.7 0 01-6-4.44 8.72 8.72 0 01-1.08-7.06 11.79 11.79 0 013.93-6.17c2-1.61 5.11-2.95 9.49-4.05a87 87 0 009.18-2.66 64.53 64.53 0 007.86-4.08l-10-3.06c-1.77-.47-3.45-.89-5.05-1.24-3.77-.77-6.35-1.32-7.74-1.7a13.41 13.41 0 01-8-5.35 9.67 9.67 0 01-1.45-8.1 9.52 9.52 0 014.55-5.93 10.06 10.06 0 017.81-.88c4 1.06 7.26 4 9.9 8.73a101.84 101.84 0 005.23 8.81 48.74 48.74 0 006.42 5.85zm62.26-60.71a16.83 16.83 0 00.45-3.33 22.65 22.65 0 00-.58-3.82 8.89 8.89 0 01-.24-3.91 4.32 4.32 0 012-2.63 3.63 3.63 0 013-.58 3.76 3.76 0 012.4 1.92 4.41 4.41 0 01.34 3.39 8.41 8.41 0 01-2.11 3.32 18.22 18.22 0 00-2.32 2.86 19.65 19.65 0 00-1.39 3.18 16.8 16.8 0 003.33-.68 20.91 20.91 0 003.26-1.76c2-1.23 3.66-1.64 5.08-1.26a3.82 3.82 0 012.42 1.78 3.55 3.55 0 01.43 2.82 3.85 3.85 0 01-2.1 2.43 5.32 5.32 0 01-3.84.25c-.49-.13-1.34-.39-2.58-.79-.58-.19-1.2-.37-1.89-.55-.89-.24-2.28-.56-4.13-1a21.4 21.4 0 001.78 3.13 21.81 21.81 0 002.56 2.59 9 9 0 012.49 3.18 4 4 0 01.07 2.52 3.76 3.76 0 01-1.78 2.38 3.63 3.63 0 01-2.84.39 4.08 4.08 0 01-2.49-2.06c-.61-1.09-.78-2.8-.5-5.1a18.7 18.7 0 00.21-3.31 20 20 0 00-.72-3.29 19.91 19.91 0 00-2.41 2.56 16.19 16.19 0 00-1.51 2.85q-1.37 3.21-2.91 4.13a3.91 3.91 0 01-3.15.49 3.76 3.76 0 01-2.31-1.72 3.38 3.38 0 01-.42-2.74 4.56 4.56 0 011.52-2.39 9.71 9.71 0 013.68-1.57 33.78 33.78 0 003.56-1 25.55 25.55 0 003-1.58l-3.88-1.19c-.69-.18-1.34-.34-2-.48-1.46-.3-2.46-.51-3-.66a5.19 5.19 0 01-3.1-2.07 3.78 3.78 0 011.2-5.44 3.91 3.91 0 013-.34 6.44 6.44 0 013.84 3.38 39.06 39.06 0 002 3.42 20.05 20.05 0 002.49 2.27zm-26.47-71.27a22.52 22.52 0 00.6-4.43 30.35 30.35 0 00-.78-5.07 12 12 0 01-.32-5.19 5.84 5.84 0 012.65-3.51 4.88 4.88 0 013.93-.77 5 5 0 013.2 2.56 5.83 5.83 0 01.44 4.51 11.14 11.14 0 01-2.8 4.41 24.16 24.16 0 00-3.08 3.8 25.69 25.69 0 00-1.85 4.22 22.4 22.4 0 004.43-.89 29.93 29.93 0 004.33-2.35c2.62-1.63 4.87-2.18 6.75-1.68a5.08 5.08 0 013.22 2.38 4.63 4.63 0 01.56 3.75 5 5 0 01-2.78 3.22 7.08 7.08 0 01-5.11.33c-.65-.17-1.78-.52-3.42-1.05-.77-.24-1.6-.48-2.51-.73-1.19-.32-3-.74-5.49-1.27a26.2 26.2 0 002.37 4.16 28.83 28.83 0 003.4 3.44 12.08 12.08 0 013.3 4.22 5.23 5.23 0 01.09 3.36 5 5 0 01-2.35 3.16 4.81 4.81 0 01-3.79.51 5.33 5.33 0 01-3.31-2.73c-.8-1.44-1-3.72-.66-6.78a25.82 25.82 0 00.28-4.4 27.32 27.32 0 00-1-4.38 25.33 25.33 0 00-3.21 3.42 20.55 20.55 0 00-2 3.78c-1.2 2.85-2.5 4.67-3.86 5.49a5.24 5.24 0 01-4.19.65 5 5 0 01-3.08-2.29 4.5 4.5 0 01-.55-3.63 6 6 0 012-3.18 12.62 12.62 0 014.89-2.09 43.82 43.82 0 004.73-1.37 33.86 33.86 0 004-2.1l-5.04-1.59c-.92-.24-1.78-.46-2.6-.64-1.95-.4-3.27-.68-4-.87a6.89 6.89 0 01-4.12-2.76 5 5 0 01-.75-4.17 4.92 4.92 0 012.35-3.06 5.21 5.21 0 014-.45c2.05.55 3.74 2.05 5.1 4.5s2.27 3.95 2.69 4.53a25.28 25.28 0 003.31 3zm33.34-64.38a29.55 29.55 0 00.8-6 40 40 0 00-1-6.82c-.7-3.14-.84-5.46-.43-7a7.76 7.76 0 013.57-4.72 6.53 6.53 0 015.29-1 6.76 6.76 0 014.3 3.44 7.84 7.84 0 01.6 6.08 15.1 15.1 0 01-3.77 5.94 33.76 33.76 0 00-4.16 5.11 36.25 36.25 0 00-2.48 5.7 30.51 30.51 0 006-1.21 39.43 39.43 0 005.83-3.16c3.54-2.2 6.57-2.94 9.09-2.26a6.86 6.86 0 014.35 3.2 6.28 6.28 0 01.75 5 6.77 6.77 0 01-3.75 4.34 9.49 9.49 0 01-6.88.45c-.88-.22-2.4-.7-4.61-1.42-1-.32-2.15-.65-3.37-1-1.61-.44-4.1-1-7.4-1.72a36.48 36.48 0 003.19 5.6 39.28 39.28 0 004.58 4.63 16.22 16.22 0 014.44 5.7 6.88 6.88 0 01.13 4.51 6.71 6.71 0 01-3.17 4.26 6.48 6.48 0 01-5.1.69 7.23 7.23 0 01-4.46-3.68c-1.08-1.94-1.38-5-.88-9.13a34 34 0 00.36-5.92 35.05 35.05 0 00-1.27-5.9 33.54 33.54 0 00-4.32 4.6 28.3 28.3 0 00-2.71 5.09q-2.43 5.75-5.2 7.4a7.07 7.07 0 01-5.64.87 6.7 6.7 0 01-4.14-3.08 6 6 0 01-.75-4.9 8.15 8.15 0 012.73-4.28 17.2 17.2 0 016.58-2.81 59.48 59.48 0 006.37-1.84 45.13 45.13 0 005.45-2.84l-6.93-2.12c-1.24-.32-2.4-.61-3.51-.86-2.62-.53-4.4-.92-5.37-1.18a9.26 9.26 0 01-5.55-3.71 6.74 6.74 0 01-1-5.62 6.62 6.62 0 013.15-4.12 7 7 0 015.42-.61c2.76.74 5 2.77 6.87 6.06a69.56 69.56 0 003.63 6.11 33.2 33.2 0 004.45 4.06zm-65.85-56.48a39.8 39.8 0 001.07-7.94 54.89 54.89 0 00-1.38-9.08c-.93-4.17-1.13-7.26-.58-9.32a10.47 10.47 0 014.75-6.28 8.68 8.68 0 017-1.37 9 9 0 015.74 4.57 10.44 10.44 0 01.8 8.09c-.64 2.38-2.34 5-5 7.91a44.58 44.58 0 00-5.52 6.8 46.92 46.92 0 00-3.28 7.58 39.35 39.35 0 007.93-1.61 52.67 52.67 0 007.76-4.2q7.07-4.38 12.1-3a9.19 9.19 0 015.79 4.26 8.38 8.38 0 011 6.71 9 9 0 01-5 5.78 12.64 12.64 0 01-9.16.6c-1.17-.3-3.19-.94-6.13-1.89-1.38-.43-2.86-.86-4.5-1.3-2.14-.58-5.45-1.33-9.85-2.29a48.44 48.44 0 004.25 7.46 53.15 53.15 0 006.1 6.16c3 2.69 5 5.19 5.91 7.58a9.26 9.26 0 01.18 6 9 9 0 01-4.23 5.67 8.59 8.59 0 01-6.78.92 9.59 9.59 0 01-5.94-4.9c-1.43-2.58-1.86-6.66-1.19-12.16a45.23 45.23 0 00.48-7.88 47.51 47.51 0 00-1.72-7.84 44.82 44.82 0 00-5.76 6.12 37.64 37.64 0 00-3.6 6.78c-2.16 5.1-4.47 8.37-6.92 9.85a9.43 9.43 0 01-7.51 1.15 8.94 8.94 0 01-5.51-4.1 8.05 8.05 0 01-1-6.51 10.84 10.84 0 013.63-5.7c1.81-1.49 4.72-2.73 8.76-3.74a79.76 79.76 0 008.48-2.46 60.22 60.22 0 007.26-3.77l-9.23-2.82a112.4 112.4 0 00-4.67-1.15c-3.48-.71-5.86-1.22-7.15-1.57a12.34 12.34 0 01-7.38-4.94 8.94 8.94 0 01-1.34-7.48 8.83 8.83 0 014.2-5.48 9.35 9.35 0 017.22-.81c3.66 1 6.7 3.69 9.13 8.07s4.07 7.09 4.83 8.12a44.63 44.63 0 005.93 5.41zm122.98 181.13a16.83 16.83 0 00.45-3.33 22.65 22.65 0 00-.58-3.82 8.89 8.89 0 01-.24-3.91 4.32 4.32 0 012-2.63 3.63 3.63 0 013-.58 3.76 3.76 0 012.4 1.92 4.41 4.41 0 01.34 3.39 8.41 8.41 0 01-2.11 3.32 18.22 18.22 0 00-2.32 2.86 19.65 19.65 0 00-1.39 3.18 16.8 16.8 0 003.33-.68 20.91 20.91 0 003.26-1.76c2-1.23 3.66-1.64 5.08-1.26a3.82 3.82 0 012.42 1.78 3.55 3.55 0 01.43 2.82 3.85 3.85 0 01-2.1 2.43 5.32 5.32 0 01-3.84.25c-.49-.13-1.34-.39-2.58-.79-.58-.19-1.2-.37-1.89-.55-.89-.24-2.28-.56-4.13-1a21.4 21.4 0 001.78 3.13 21.81 21.81 0 002.56 2.59 9 9 0 012.49 3.18 4 4 0 01.07 2.52 3.76 3.76 0 01-1.78 2.38 3.63 3.63 0 01-2.84.39 4.08 4.08 0 01-2.49-2.06c-.61-1.09-.78-2.8-.5-5.1a18.7 18.7 0 00.21-3.31 20 20 0 00-.72-3.29 19.91 19.91 0 00-2.41 2.56 16.19 16.19 0 00-1.51 2.85q-1.37 3.21-2.91 4.13a3.91 3.91 0 01-3.15.49 3.76 3.76 0 01-2.31-1.72 3.38 3.38 0 01-.42-2.74 4.56 4.56 0 011.52-2.39 9.71 9.71 0 013.68-1.57 33.78 33.78 0 003.56-1 25.55 25.55 0 003-1.58l-3.88-1.19c-.69-.18-1.34-.34-2-.48-1.46-.3-2.46-.51-3-.66a5.19 5.19 0 01-3.1-2.07 3.78 3.78 0 011.2-5.44 3.91 3.91 0 013-.34 6.44 6.44 0 013.84 3.38 39.06 39.06 0 002 3.42 20.05 20.05 0 002.49 2.27zm-11.38-65.22a20.57 20.57 0 00.57-4.21 29 29 0 00-.73-4.81 11.16 11.16 0 01-.31-4.94 5.51 5.51 0 012.52-3.33 4.59 4.59 0 013.73-.73 4.71 4.71 0 013 2.42 5.52 5.52 0 01.42 4.29 10.49 10.49 0 01-2.66 4.2 22.89 22.89 0 00-2.93 3.6 24.87 24.87 0 00-1.75 4 20.89 20.89 0 004.2-.85 27.63 27.63 0 004.12-2.23q3.74-2.33 6.41-1.6a4.92 4.92 0 013.07 2.26 4.42 4.42 0 01.53 3.56 4.73 4.73 0 01-2.64 3.06 6.68 6.68 0 01-4.86.32c-.62-.16-1.69-.49-3.25-1-.73-.23-1.52-.46-2.38-.69-1.14-.31-2.89-.7-5.23-1.21a24.43 24.43 0 002.26 4 26.77 26.77 0 003.23 3.27 11.38 11.38 0 013.13 4 4.92 4.92 0 01.1 3.19 4.75 4.75 0 01-2.25 3 4.53 4.53 0 01-3.59.49 5.1 5.1 0 01-3.15-2.6c-.76-1.37-1-3.53-.62-6.44a24.86 24.86 0 00.26-4.18 26.21 26.21 0 00-.9-4.16 23 23 0 00-3.05 3.24 19.32 19.32 0 00-1.91 3.6c-1.15 2.7-2.38 4.44-3.67 5.22a5 5 0 01-4 .61 4.76 4.76 0 01-2.92-2.17 4.29 4.29 0 01-.53-3.46 5.74 5.74 0 011.93-3 12.11 12.11 0 014.64-2 42.23 42.23 0 004.5-1.3 35.42 35.42 0 003.85-2l-4.9-1.5c-.87-.23-1.69-.44-2.47-.61-1.85-.38-3.11-.65-3.79-.83a6.55 6.55 0 01-3.92-2.62 4.76 4.76 0 01-.71-4 4.67 4.67 0 012.23-2.9 4.89 4.89 0 013.82-.43 8.08 8.08 0 014.9 4.31 49.94 49.94 0 002.56 4.32 23.91 23.91 0 003.14 2.86zm87.34 83.63a29.33 29.33 0 00.78-5.75 40.3 40.3 0 00-1-6.57c-.68-3-.82-5.26-.42-6.74a7.54 7.54 0 013.44-4.55 6.27 6.27 0 015.09-1 6.46 6.46 0 014.15 3.31 7.58 7.58 0 01.58 5.85 14.6 14.6 0 01-3.64 5.73 31.76 31.76 0 00-4 4.92 34.35 34.35 0 00-2.4 5.48 28.68 28.68 0 005.75-1.16 39 39 0 005.62-3q5.1-3.17 8.75-2.17a6.67 6.67 0 014.19 3.08 6.08 6.08 0 01.77 4.78 6.53 6.53 0 01-3.61 4.18 9.19 9.19 0 01-6.63.44c-.84-.22-2.31-.68-4.43-1.37-1-.32-2.08-.63-3.26-.94-1.55-.42-3.94-1-7.13-1.66a35.4 35.4 0 003.08 5.4 37.17 37.17 0 004.41 4.46 15.65 15.65 0 014.28 5.48 6.74 6.74 0 01.13 4.35 6.49 6.49 0 01-3.06 4.1 6.24 6.24 0 01-4.91.67 6.93 6.93 0 01-4.29-3.55c-1-1.87-1.34-4.82-.86-8.79a32.38 32.38 0 00.35-5.71 34.55 34.55 0 00-1.22-5.68 33.91 33.91 0 00-4.17 4.43 28.16 28.16 0 00-2.6 4.91q-2.35 5.53-5 7.13a6.83 6.83 0 01-5.44.83 6.47 6.47 0 01-4-3 5.9 5.9 0 01-.72-4.72 7.84 7.84 0 012.63-4.12 16.51 16.51 0 016.34-2.71 55.5 55.5 0 006.13-1.78 43.59 43.59 0 005.26-2.73l-6.68-2a102.5 102.5 0 00-3.38-.83c-2.52-.51-4.24-.88-5.17-1.13a8.94 8.94 0 01-5.35-3.58 6.48 6.48 0 01-1-5.41 6.41 6.41 0 013.05-4 6.8 6.8 0 015.22-.59q4 1.08 6.61 5.84a68.27 68.27 0 003.49 5.88 33.22 33.22 0 004.29 3.92zM892 161.71a50.94 50.94 0 001.36-10.12A69.2 69.2 0 00891.6 140c-1.19-5.33-1.44-9.28-.74-11.9a13.28 13.28 0 016.06-8q4.64-2.91 9-1.75a11.42 11.42 0 017.32 5.84 13.32 13.32 0 011 10.32c-.82 3-3 6.42-6.42 10.1a56.65 56.65 0 00-7 8.68 60.3 60.3 0 00-4.22 9.67 51.31 51.31 0 0010.13-2.05 67.55 67.55 0 009.9-5.37q9-5.6 15.45-3.84a11.7 11.7 0 017.38 5.44 10.7 10.7 0 011.28 8.57 11.52 11.52 0 01-6.37 7.37 16.14 16.14 0 01-11.69.77c-1.49-.39-4.07-1.2-7.83-2.41-1.76-.56-3.65-1.11-5.74-1.66-2.73-.75-6.95-1.7-12.57-2.93a61.22 61.22 0 005.43 9.53 67.18 67.18 0 007.78 7.86c3.81 3.42 6.33 6.62 7.55 9.67a11.87 11.87 0 01.22 7.68 11.46 11.46 0 01-5.4 7.23 11 11 0 01-8.65 1.17 12.23 12.23 0 01-7.58-6.25c-1.83-3.3-2.35-8.5-1.5-15.51a57.33 57.33 0 00.62-10.06 60.68 60.68 0 00-2.16-10 58.84 58.84 0 00-7.35 7.81 48.56 48.56 0 00-4.59 8.65q-4.14 9.78-8.83 12.57a12 12 0 01-9.59 1.48 11.41 11.41 0 01-7-5.23 10.32 10.32 0 01-1.27-8.32 13.76 13.76 0 014.64-7.27c2.3-1.91 6-3.48 11.17-4.78a100.46 100.46 0 0010.82-3.13 78.26 78.26 0 009.28-4.81l-11.79-3.61c-2.1-.55-4.07-1-6-1.46-4.44-.91-7.48-1.56-9.12-2a15.71 15.71 0 01-9.42-6.31 11.45 11.45 0 013.65-16.54 11.88 11.88 0 019.21-1c4.67 1.25 8.55 4.7 11.66 10.29a119.11 119.11 0 006.16 10.37 56.77 56.77 0 007.57 6.9zm-62.59-94.19a34.11 34.11 0 00.92-6.84 46.55 46.55 0 00-1.19-7.83c-.8-3.59-1-6.26-.49-8a8.9 8.9 0 014.09-5.41 7.45 7.45 0 016.06-1.19 7.72 7.72 0 014.94 4 9 9 0 01.69 7A17.34 17.34 0 01840.1 56a37.1 37.1 0 00-4.76 5.86 39.9 39.9 0 00-2.8 6.49 34.45 34.45 0 006.78-1.35 44.9 44.9 0 006.69-3.62q6.09-3.78 10.43-2.6a7.9 7.9 0 015 3.68 7.24 7.24 0 01.86 5.78 7.78 7.78 0 01-4.3 5 10.93 10.93 0 01-7.89.52c-1-.26-2.75-.81-5.29-1.63-1.19-.37-2.47-.75-3.87-1.12-1.85-.5-4.7-1.15-8.49-2a42.08 42.08 0 003.66 6.43 46.07 46.07 0 005.26 5.31 18.62 18.62 0 015.09 6.53 8 8 0 01.15 5.18 7.73 7.73 0 01-3.64 4.88 7.4 7.4 0 01-5.84.79 8.23 8.23 0 01-5.12-4.22c-1.24-2.22-1.59-5.74-1-10.47a37.42 37.42 0 00.42-6.79 40.67 40.67 0 00-1.46-6.77 39.91 39.91 0 00-5 5.28 32.49 32.49 0 00-3.1 5.84c-1.86 4.4-3.86 7.22-6 8.49a8.17 8.17 0 01-6.48 1 7.72 7.72 0 01-4.75-3.53 7 7 0 01-.86-5.62 9.38 9.38 0 013.13-4.91c1.62-1.32 4.12-2.43 7.62-3.26a69 69 0 007.31-2.12 53.46 53.46 0 006.26-3.25l-8-2.43c-1.42-.37-2.75-.71-4-1-3-.61-5.05-1.05-6.16-1.35a10.62 10.62 0 01-6.41-4.25 7.75 7.75 0 012.47-11.17 8.07 8.07 0 016.22-.7c3.16.85 5.77 3.18 7.87 7a80.78 80.78 0 004.16 7 39.34 39.34 0 005.11 4.66zm-64.43-43.68a27.22 27.22 0 00.74-5.52 37 37 0 00-1-6.32c-.65-2.91-.78-5.06-.4-6.49a7.2 7.2 0 013.3-4.37 6 6 0 014.9-1 6.23 6.23 0 014 3.18 7.27 7.27 0 01.59 5.68 14 14 0 01-3.5 5.51 31.43 31.43 0 00-3.85 4.73 34.08 34.08 0 00-2.3 5.28 27.58 27.58 0 005.52-1.12 37.69 37.69 0 005.41-2.93q4.9-3 8.42-2.09a6.35 6.35 0 014 3 5.82 5.82 0 01.73 4.62 6.25 6.25 0 01-3.47 4 8.89 8.89 0 01-6.38.42c-.81-.21-2.22-.66-4.26-1.32-1-.3-2-.6-3.13-.9-1.49-.41-3.8-.93-6.86-1.6a32.13 32.13 0 003 5.19 35.89 35.89 0 004.24 4.29 15.08 15.08 0 014.12 5.28 6.49 6.49 0 01.12 4.18 6.26 6.26 0 01-2.94 4 6 6 0 01-4.72.64 6.66 6.66 0 01-4.13-3.41c-1-1.8-1.29-4.64-.82-8.46a31.4 31.4 0 00.33-5.49 32 32 0 00-1.18-5.46 31.35 31.35 0 00-4 4.26 26.32 26.32 0 00-2.51 4.72c-1.5 3.55-3.11 5.83-4.81 6.85a6.58 6.58 0 01-5.23.81 6.27 6.27 0 01-3.84-2.85 5.63 5.63 0 01-.69-4.54 7.51 7.51 0 012.53-4 15.79 15.79 0 016.09-2.6 53.88 53.88 0 005.9-1.71 43.35 43.35 0 005.06-2.63l-6.43-2c-1.14-.3-2.22-.57-3.25-.8q-3.63-.74-5-1.09a8.6 8.6 0 01-5.14-3.44 6.23 6.23 0 01-.94-5.21 6.16 6.16 0 012.93-3.81 6.52 6.52 0 015-.57c2.55.69 4.67 2.57 6.36 5.62s2.83 4.94 3.36 5.66a31.41 31.41 0 004.13 3.76zm149 19a27.22 27.22 0 00.74-5.52 37 37 0 00-1-6.32c-.65-2.91-.78-5.06-.4-6.49a7.2 7.2 0 013.3-4.37 6 6 0 014.9-1 6.23 6.23 0 014 3.18 7.27 7.27 0 01.56 5.63 14 14 0 01-3.5 5.51 31.43 31.43 0 00-3.85 4.73 34.08 34.08 0 00-2.3 5.28 27.58 27.58 0 005.52-1.12 37.69 37.69 0 005.41-2.93q4.9-3 8.42-2.09a6.35 6.35 0 014 3 5.82 5.82 0 01.76 4.67 6.25 6.25 0 01-3.47 4 8.89 8.89 0 01-6.38.42c-.81-.21-2.22-.66-4.26-1.32-1-.3-2-.6-3.13-.9-1.49-.41-3.8-.93-6.86-1.6a32.13 32.13 0 003 5.19 35.89 35.89 0 004.24 4.29 15.08 15.08 0 014.12 5.28 6.49 6.49 0 01.12 4.18 6.26 6.26 0 01-2.94 4 6 6 0 01-4.72.64 6.66 6.66 0 01-4.13-3.41c-1-1.8-1.29-4.64-.82-8.46a31.4 31.4 0 00.33-5.49 32 32 0 00-1.18-5.46 31.35 31.35 0 00-4 4.26 26.32 26.32 0 00-2.51 4.72c-1.5 3.55-3.11 5.83-4.81 6.85a6.58 6.58 0 01-5.23.81 6.27 6.27 0 01-3.84-2.85 5.63 5.63 0 01-.69-4.54 7.51 7.51 0 012.53-4 15.79 15.79 0 016.09-2.6 53.88 53.88 0 005.9-1.71 43.35 43.35 0 005.06-2.63l-6.43-2c-1.14-.3-2.22-.57-3.25-.8q-3.63-.74-5-1.09a8.6 8.6 0 01-5.14-3.44 6.23 6.23 0 01-.94-5.21 6.16 6.16 0 012.93-3.81 6.52 6.52 0 015-.57c2.55.69 4.67 2.57 6.36 5.62s2.83 4.94 3.36 5.66a31.41 31.41 0 004.13 3.76zm29.94 66.54a16.83 16.83 0 00.45-3.33 22.65 22.65 0 00-.58-3.82 8.89 8.89 0 01-.24-3.91 4.32 4.32 0 012-2.63 3.63 3.63 0 013-.58 3.76 3.76 0 012.4 1.92 4.41 4.41 0 01.34 3.39 8.41 8.41 0 01-2.11 3.32 18.22 18.22 0 00-2.32 2.86 19.65 19.65 0 00-1.39 3.18 16.8 16.8 0 003.33-.68 20.91 20.91 0 003.26-1.76c2-1.23 3.66-1.64 5.08-1.26a3.82 3.82 0 012.4 1.78 3.55 3.55 0 01.43 2.82 3.85 3.85 0 01-2.1 2.43 5.32 5.32 0 01-3.84.25c-.49-.13-1.34-.39-2.58-.79-.58-.19-1.2-.37-1.89-.55-.89-.24-2.28-.56-4.13-1a21.4 21.4 0 001.78 3.13 21.81 21.81 0 002.56 2.59 9 9 0 012.49 3.18 4 4 0 01.07 2.52 3.76 3.76 0 01-1.78 2.38 3.63 3.63 0 01-2.84.39 4.08 4.08 0 01-2.49-2.06c-.61-1.09-.78-2.8-.5-5.1a18.7 18.7 0 00.21-3.31 20 20 0 00-.72-3.29 19.91 19.91 0 00-2.41 2.56 16.19 16.19 0 00-1.51 2.85q-1.37 3.21-2.91 4.13a3.91 3.91 0 01-3.15.49 3.76 3.76 0 01-2.31-1.72 3.38 3.38 0 01-.42-2.74 4.56 4.56 0 011.52-2.39 9.71 9.71 0 013.68-1.57 33.78 33.78 0 003.56-1 25.55 25.55 0 003-1.58l-3.88-1.19c-.69-.18-1.34-.34-2-.48-1.46-.3-2.46-.51-3-.66a5.19 5.19 0 01-3.1-2.07 3.78 3.78 0 011.2-5.44 3.91 3.91 0 013-.34 6.44 6.44 0 013.84 3.38 39.06 39.06 0 002 3.42 20.05 20.05 0 002.49 2.27z" fill="#eee"/></svg>