<svg data-name="2" xmlns="http://www.w3.org/2000/svg" width="960" height="466.21"><path d="M21 396.03a4 4 0 00-5.3-3.56 3.89 3.89 0 00-2.7 3.77v70h8zm12 26.32a4 4 0 00-5.3-3.56 3.89 3.89 0 00-2.7 3.77v43.66h8zm0-11.55v-36.08a3.88 3.88 0 00-2.25-3.59 4 4 0 00-5.75 3.63v36a4 4 0 005.75 3.63A3.88 3.88 0 0033 410.8zm13-34.82a4 4 0 00-5.3-3.56 3.89 3.89 0 00-2.7 3.77v90h8zm12 56.05v-77.28a3.9 3.9 0 00-2.7-3.78 4 4 0 00-5.3 3.57v77.7a4 4 0 005.3 3.56 3.89 3.89 0 002.7-3.77zm0 12.88a4 4 0 00-5.3-3.56 3.89 3.89 0 00-2.7 3.76v21.1h8zm-50-8.8a4 4 0 00-5.3-3.57 3.9 3.9 0 00-2.7 3.78v29.87h8zM71 381a4 4 0 00-5.3-3.57 3.9 3.9 0 00-2.7 3.77v85h8zm0-11.56v-36.07a3.9 3.9 0 00-2.25-3.6A4 4 0 0063 333.4v36a4 4 0 005.75 3.63 3.88 3.88 0 002.25-3.59zm12-16.02a4 4 0 00-5.3-3.56 3.89 3.89 0 00-2.7 3.77v112.59h8zm13 78.61v-77.28a3.9 3.9 0 00-2.7-3.78 4 4 0 00-5.3 3.57v77.7a4 4 0 005.3 3.56 3.89 3.89 0 002.7-3.77zm0 12.88a4 4 0 00-5.3-3.56 3.89 3.89 0 00-2.7 3.76v21.1h8zm12-129.08a4 4 0 00-5.3-3.57 3.9 3.9 0 00-2.7 3.77v150.19h8zm13 52.36v-36.08a3.88 3.88 0 00-2.25-3.59 4 4 0 00-5.75 3.59v36a4 4 0 005.75 3.63 3.89 3.89 0 002.25-3.55zm0 47.62v-36.07a3.9 3.9 0 00-2.25-3.6 4 4 0 00-5.75 3.63v36a4 4 0 005.75 3.63 3.88 3.88 0 002.25-3.59zm0 12.81a4 4 0 00-5.3-3.57 3.9 3.9 0 00-2.7 3.78v37.39h8zm12-80.21a4 4 0 00-5.3-3.57 3.9 3.9 0 00-2.7 3.78v117.6h8zm13 16.29a4 4 0 00-5.3-3.56 3.89 3.89 0 00-2.7 3.77v101.31h8zm12 49.78V337.2a3.9 3.9 0 00-2.7-3.78 4 4 0 00-5.3 3.57v77.7a4 4 0 005.3 3.57 3.9 3.9 0 002.7-3.78zm0 12.89a4 4 0 00-5.3-3.57 3.9 3.9 0 00-2.7 3.78v38.64h8zm13 4.66v-77.28a3.9 3.9 0 00-2.7-3.78 4 4 0 00-5.3 3.57v77.7a4 4 0 005.3 3.56 3.89 3.89 0 002.7-3.77zm0 12.88a4 4 0 00-5.3-3.56 3.89 3.89 0 00-2.7 3.76v21.1h8zm12-161.67a4 4 0 00-5.3-3.57 3.91 3.91 0 00-2.7 3.78v182.77h8zm13 137.51V268.27a3.9 3.9 0 00-2.7-3.78 4 4 0 00-5.3 3.62v152.9a4 4 0 005.3 3.56 3.89 3.89 0 002.7-3.82zm0 12.88a4 4 0 00-5.3-3.56 3.89 3.89 0 00-2.7 3.77v32.38h8zm25-40.1a4 4 0 00-5.3-3.57 3.9 3.9 0 00-2.7 3.78v72.48h8zm-12 23.81a4 4 0 00-5.3-3.57 3.9 3.9 0 00-2.7 3.78v48.67h8zm25-10.38v-77.28a3.9 3.9 0 00-2.7-3.78 4 4 0 00-5.3 3.57v77.7a4 4 0 005.3 3.57 3.9 3.9 0 002.7-3.78zm0 12.89a4 4 0 00-5.3-3.57 3.9 3.9 0 00-2.7 3.83v46.16h8zM246 287a4 4 0 00-5.3-3.57 3.9 3.9 0 00-2.7 3.78v179h8zm13 112.44V156.73a3.9 3.9 0 00-2.7-3.78 4 4 0 00-5.3 3.57v243.13a4 4 0 005.3 3.57 3.9 3.9 0 002.7-3.78zm0 11.67a4 4 0 00-5.3-3.56 3.89 3.89 0 00-2.7 3.77v54.94h8zm12-198.33v-36.07a3.88 3.88 0 00-2.25-3.59 4 4 0 00-5.75 3.62v36a4 4 0 005.75 3.63 3.88 3.88 0 002.25-3.59zm0 47.62v-36.07a3.88 3.88 0 00-2.25-3.59 4 4 0 00-5.75 3.63v36a4 4 0 005.75 3.63 3.9 3.9 0 002.25-3.6zm0 60.09v-47.21a3.89 3.89 0 00-2.7-3.77 4 4 0 00-5.3 3.6v47.63a4 4 0 005.3 3.56 3.89 3.89 0 002.7-3.81zm0 14.13a4 4 0 00-5.3-3.56 3.89 3.89 0 00-2.7 3.77v131.39h8zm13-109.03a4 4 0 00-5.3-3.57 3.9 3.9 0 00-2.7 3.78v240.42h8zm12 13.79a4 4 0 00-5.3-3.57 3.9 3.9 0 00-2.7 3.78v226.63h8zm13 109.93v-77.28a3.9 3.9 0 00-2.7-3.78 4 4 0 00-5.3 3.57v77.7a4 4 0 005.3 3.57 3.9 3.9 0 002.7-3.78zm0 90.24v-77.29a3.9 3.9 0 00-2.7-3.77 4 4 0 00-5.3 3.62v77.7a4 4 0 005.3 3.56 3.89 3.89 0 002.7-3.82zm0 12.88a4 4 0 00-5.3-3.57 3.91 3.91 0 00-2.7 3.78v13.58h8zm12-45.47V254.48a3.89 3.89 0 00-2.7-3.77 4 4 0 00-5.3 3.56v152.9a4 4 0 005.3 3.57 3.9 3.9 0 002.7-3.78zm0 11.63a4 4 0 00-5.3-3.56 3.89 3.89 0 00-2.7 3.77v47.42h8zm13-146.63a4 4 0 00-5.3-3.57 3.91 3.91 0 00-2.7 3.78v194.05h8zm12 84.87v-72.27a3.89 3.89 0 00-2.7-3.77 4 4 0 00-5.3 3.56v72.69a4 4 0 005.3 3.57 3.9 3.9 0 002.7-3.78zm0 12.89a4 4 0 00-5.3-3.57 3.9 3.9 0 00-2.7 3.78v96.29h8zm13-130.34a4 4 0 00-5.3-3.57 3.9 3.9 0 00-2.7 3.78v226.63h8zm12 0a4 4 0 00-5.3-3.57 3.9 3.9 0 00-2.7 3.78v226.63h8zm13 46.37a4 4 0 00-5.3-3.57 3.9 3.9 0 00-2.7 3.78v180.26h8zm0-11.56v-36.08a3.88 3.88 0 00-2.25-3.59 4 4 0 00-5.75 3.59v36a4 4 0 005.75 3.63 3.88 3.88 0 002.25-3.55zm13 132.77V254.48a3.89 3.89 0 00-2.7-3.77 4 4 0 00-5.3 3.56v152.9a4 4 0 005.3 3.57 3.9 3.9 0 002.7-3.78zm0 12.89a4 4 0 00-5.3-3.57 3.9 3.9 0 00-2.7 3.83v46.16h8zm12-96.74V287a3.9 3.9 0 00-2.25-3.6 4 4 0 00-5.75 3.63v36a4 4 0 005.75 3.63 3.88 3.88 0 002.25-3.55zm0 60v-47.2a3.9 3.9 0 00-2.7-3.78 4 4 0 00-5.3 3.57v47.62a4 4 0 005.3 3.57 3.9 3.9 0 002.7-3.78zm0 14.18a4 4 0 00-5.3-3.57 3.9 3.9 0 00-2.7 3.78v68.72h8zm13-81.46a4 4 0 00-5.3-3.57 3.9 3.9 0 00-2.7 3.77v150.19h8zm12 52.36v-36.08a3.88 3.88 0 00-2.25-3.59 4 4 0 00-5.75 3.59v36a4 4 0 005.75 3.63 3.89 3.89 0 002.25-3.55zm0 47.62v-36.07a3.9 3.9 0 00-2.25-3.6 4 4 0 00-5.75 3.63v36a4 4 0 005.75 3.63 3.88 3.88 0 002.25-3.59zm0 12.81a4 4 0 00-5.3-3.57 3.9 3.9 0 00-2.7 3.78v37.39h8zm13-80.21a4 4 0 00-5.3-3.57 3.9 3.9 0 00-2.7 3.78v117.6h8zm12 16.29a4 4 0 00-5.3-3.56 3.89 3.89 0 00-2.7 3.77v101.31h8zm13 49.78V337.2a3.9 3.9 0 00-2.7-3.78 4 4 0 00-5.3 3.57v77.7a4 4 0 005.3 3.57 3.9 3.9 0 002.7-3.78zm0 12.89a4 4 0 00-5.3-3.57 3.9 3.9 0 00-2.7 3.78v38.64h8zm12-99.01a4 4 0 00-5.3-3.57 3.9 3.9 0 00-2.7 3.78v137.65h8zm13 46.37a4 4 0 00-5.3-3.57 3.9 3.9 0 00-2.7 3.78v91.28h8zm0-11.56v-36.06a3.88 3.88 0 00-2.25-3.59 4 4 0 00-5.75 3.59v36a4 4 0 005.75 3.63 3.9 3.9 0 002.25-3.57zm12-34.81a4 4 0 00-5.3-3.57 3.9 3.9 0 00-2.7 3.78v137.65h8zm0-11.56v-36.07a3.88 3.88 0 00-2.25-3.59 4 4 0 00-5.75 3.63v36a4 4 0 005.75 3.62 3.88 3.88 0 002.25-3.59zm13-15.04v-36.07a3.88 3.88 0 00-2.25-3.59 4 4 0 00-5.75 3.63v36a4 4 0 005.75 3.63 3.9 3.9 0 002.25-3.6zm0 47.63v-36.08a3.88 3.88 0 00-2.25-3.59 4 4 0 00-5.75 3.63v36a4 4 0 005.75 3.63 3.88 3.88 0 002.25-3.59zm0 60.08v-47.21a3.9 3.9 0 00-2.7-3.77 4 4 0 00-5.3 3.62v47.62a4 4 0 005.3 3.57 3.91 3.91 0 002.7-3.83zm0 14.14a4 4 0 00-5.3-3.57 3.9 3.9 0 00-2.7 3.78v42.4h8zm12-85.58v-72.27a3.89 3.89 0 00-2.7-3.77 4 4 0 00-5.3 3.56v72.69a4 4 0 005.3 3.57 3.9 3.9 0 002.7-3.78zm0 12.89a4 4 0 00-5.3-3.57 3.9 3.9 0 00-2.7 3.76V466.2h8zm13-130.34a4 4 0 00-5.3-3.57 3.9 3.9 0 00-2.7 3.78v245.43h8zm12 187.64V165.5a3.89 3.89 0 00-2.7-3.77 4 4 0 00-5.3 3.56v243.14a4 4 0 005.3 3.56 3.89 3.89 0 002.7-3.77zm0 12.89a4 4 0 00-5.3-3.57 3.9 3.9 0 00-2.7 3.78v44.91h8zm13-168.3v-72.27a3.89 3.89 0 00-2.7-3.77 4 4 0 00-5.3 3.56v72.69a4 4 0 005.3 3.57 3.9 3.9 0 002.7-3.78zm0 12.88a4 4 0 00-5.3-3.56 3.9 3.9 0 00-2.7 3.77v200.32h8zm12 122.47V145.45a3.91 3.91 0 00-2.7-3.78 4 4 0 00-5.3 3.57v243.13a4 4 0 005.3 3.57 3.9 3.9 0 002.7-3.78zm0 12.89a4 4 0 00-5.3-3.57 3.9 3.9 0 00-2.7 3.78v65h8zm13-268.48V96.5a3.88 3.88 0 00-2.25-3.59 4 4 0 00-5.75 3.63v36a4 4 0 005.75 3.62 3.88 3.88 0 002.25-3.59zm0 47.63v-36.09a3.88 3.88 0 00-2.25-3.59 4 4 0 00-5.75 3.63v36a4 4 0 005.75 3.63 3.88 3.88 0 002.25-3.58zm0 60.08v-47.17a3.9 3.9 0 00-2.7-3.77 4 4 0 00-5.3 3.56v47.63a4 4 0 005.3 3.56 3.89 3.89 0 002.7-3.81zm0 14.14a4 4 0 00-5.3-3.57 3.9 3.9 0 00-2.7 3.77v211.6h8zm13-63.02V74.01a3.89 3.89 0 00-2.7-3.77 4 4 0 00-5.3 3.56v117.81a4 4 0 005.3 3.57 3.9 3.9 0 002.7-3.78zm0 12.88a4 4 0 00-5.3-3.56 3.9 3.9 0 00-2.7 3.77v261.73h8zm12 93.65V55.22a3.9 3.9 0 00-2.7-3.78 4 4 0 00-5.3 3.57v243.1a4 4 0 005.3 3.56 3.89 3.89 0 002.7-3.74zm0 12.88a4 4 0 00-5.3-3.56 3.89 3.89 0 00-2.7 3.77v155.2h8zm13-35.44V32.66a3.9 3.9 0 00-2.7-3.78 4 4 0 00-5.3 3.57v243.13a4 4 0 005.3 3.57 3.9 3.9 0 002.7-3.78zm0 12.88a4 4 0 00-5.3-3.56 3.89 3.89 0 00-2.7 3.77v177.76h8zm12-233.14a4 4 0 00-5.3-3.57 3.9 3.9 0 00-2.7 3.78v410.86h8zm13 0a4 4 0 00-5.3-3.57 3.9 3.9 0 00-2.7 3.78v410.86h8zm12 96.19V79.03a3.9 3.9 0 00-2.7-3.78 4 4 0 00-5.3 3.57v72.69a4 4 0 005.3 3.56 3.89 3.89 0 002.7-3.77zm0 255.66V164.25a3.9 3.9 0 00-2.7-3.78 4 4 0 00-5.3 3.57v243.13a4 4 0 005.3 3.57 3.9 3.9 0 002.7-3.78zm0 12.89a4 4 0 00-5.3-3.57 3.9 3.9 0 00-2.7 3.83v46.16h8zm13-245.92v-36.07a3.9 3.9 0 00-2.25-3.6 4 4 0 00-5.75 3.63v36a4 4 0 005.75 3.63 3.88 3.88 0 002.25-3.59zm0 60.08v-47.2a3.9 3.9 0 00-2.7-3.78 4 4 0 00-5.3 3.57v47.62a4 4 0 005.3 3.57 3.9 3.9 0 002.7-3.78zm0 14.1a4 4 0 00-5.3-3.57 3.9 3.9 0 00-2.7 3.78v217.86h8zm12-75.51v-72.27a3.89 3.89 0 00-2.7-3.77 4 4 0 00-5.3 3.55v72.7a4 4 0 005.3 3.57 3.9 3.9 0 002.7-3.78zm0 256.92V186.81a3.9 3.9 0 00-2.7-3.78 4 4 0 00-5.3 3.57v243.13a4 4 0 005.3 3.57 3.9 3.9 0 002.7-3.78zm0 12.89a4 4 0 00-5.3-3.57 3.9 3.9 0 00-2.7 3.77v23.61h8zm13-170.8V28.9a3.9 3.9 0 00-2.7-3.78 4 4 0 00-5.3 3.57v243.13a4 4 0 005.3 3.57 3.9 3.9 0 002.7-3.78zm0 11.63a4 4 0 00-5.3-3.57 3.91 3.91 0 00-2.7 3.78v182.77h8zm12 28.48V69a3.89 3.89 0 00-2.7-3.77 4 4 0 00-5.3 3.56v243.13a4 4 0 005.3 3.57 3.9 3.9 0 002.7-3.77zm0 11.62a4 4 0 00-5.3-3.56 3.9 3.9 0 00-2.7 3.77v142.67h8zm13-276.97a4 4 0 00-5.3-3.56 3.89 3.89 0 00-2.7 3.77v419.64h8zm12 0a4 4 0 00-5.3-3.56 3.89 3.89 0 00-2.7 3.77v419.64h8zm13 167.59v-72.27a3.91 3.91 0 00-2.7-3.78 4 4 0 00-5.3 3.57v72.69a4 4 0 005.3 3.57 3.9 3.9 0 002.7-3.78zm0 12.88a4 4 0 00-5.3-3.56 3.89 3.89 0 00-2.7 3.77v239.17h8zm12 175.11V159.24a3.9 3.9 0 00-2.7-3.78 4 4 0 00-5.3 3.57v243.13a4 4 0 005.3 3.57 3.9 3.9 0 002.7-3.78zm0 11.63a4 4 0 00-5.3-3.57 3.9 3.9 0 00-2.7 3.78v52.43h8zm13-187.01v-36.08a3.88 3.88 0 00-2.25-3.59 4 4 0 00-5.75 3.63v36a4 4 0 005.75 3.63 3.88 3.88 0 002.25-3.59zm0 47.62v-36.08a3.88 3.88 0 00-2.25-3.59 4 4 0 00-5.75 3.59v36a4 4 0 005.75 3.63 3.88 3.88 0 002.25-3.55zm0 60.08v-47.16a3.9 3.9 0 00-2.7-3.78 4 4 0 00-5.3 3.57v47.62a4 4 0 005.3 3.57 3.9 3.9 0 002.7-3.82zm0 14.14a4 4 0 00-5.3-3.57 3.9 3.9 0 00-2.7 3.78v117.6h8zm75 67.33V263.26a3.9 3.9 0 00-2.7-3.78 4 4 0 00-5.3 3.57v152.9a4 4 0 005.3 3.56 3.89 3.89 0 002.7-3.77zm13-102.77v-77.28a3.9 3.9 0 00-2.7-3.78 4 4 0 00-5.3 3.57v77.7a4 4 0 005.3 3.56 3.89 3.89 0 002.7-3.77zm0 90.23v-77.28a3.91 3.91 0 00-2.7-3.78 4 4 0 00-5.3 3.57v77.7a4 4 0 005.3 3.57 3.9 3.9 0 002.7-3.78zm12-23.81V226.91a3.89 3.89 0 00-2.7-3.77 4 4 0 00-5.3 3.56v152.9a4 4 0 005.3 3.57 3.9 3.9 0 002.7-3.78zm13-106.18a4 4 0 00-5.3-3.56 3.89 3.89 0 00-2.7 3.77v192.8h8zm0-11.55v-36.07a3.9 3.9 0 00-2.25-3.6 4 4 0 00-5.75 3.63v36a4 4 0 005.75 3.63 3.88 3.88 0 002.25-3.59zM910 422V226.91a3.89 3.89 0 00-2.7-3.77 4 4 0 00-5.3 3.56v195.51a4 4 0 005.3 3.57A3.9 3.9 0 00910 422zm0-206.71v-36.07a3.89 3.89 0 00-2.25-3.6 4 4 0 00-5.75 3.63v36a4 4 0 005.75 3.63 3.88 3.88 0 002.25-3.59zm13-15.04v-36.07a3.9 3.9 0 00-2.25-3.6 4 4 0 00-5.75 3.63v36a4 4 0 005.75 3.63 3.88 3.88 0 002.25-3.59zm0 47.62V211.8a3.88 3.88 0 00-2.25-3.59 4 4 0 00-5.75 3.63v36a4 4 0 005.75 3.62 3.88 3.88 0 002.25-3.59zm0 60.09v-47.21a3.91 3.91 0 00-2.7-3.78 4 4 0 00-5.3 3.57v47.62a4 4 0 005.3 3.57 3.9 3.9 0 002.7-3.77zm0 14.15a4 4 0 00-5.3-3.56 3.89 3.89 0 00-2.7 3.77v143.92h8zm12-126.95v-72.27a3.89 3.89 0 00-2.7-3.77 4 4 0 00-5.3 3.56v72.69a4 4 0 005.3 3.57 3.9 3.9 0 002.7-3.78zm0 12.88a4 4 0 00-5.3-3.56 3.9 3.9 0 00-2.7 3.77v258h8zm13 121.22V77.77a3.89 3.89 0 00-2.7-3.77 4 4 0 00-5.3 3.56v251.91a4 4 0 005.3 3.57 3.9 3.9 0 002.7-3.78zm-150 87.73V174.28a3.9 3.9 0 00-2.7-3.78 4 4 0 00-5.3 3.61V417.2a4 4 0 005.3 3.57 3.91 3.91 0 002.7-3.78zm0 12.88a4 4 0 00-5.3-3.56 3.89 3.89 0 00-2.7 3.8v36.14h8zm50-112.76a4 4 0 00-5.3-3.57 3.9 3.9 0 00-2.7 3.78v148.93h8zm0-11.59v-36.07a3.88 3.88 0 00-2.25-3.59 4 4 0 00-5.75 3.63v36a4 4 0 005.75 3.62 3.88 3.88 0 002.25-3.59zm-13-34.81a4 4 0 00-5.3-3.57 3.9 3.9 0 00-2.7 3.78v195.3h8zm-12 63.91a4 4 0 00-5.3-3.56 3.89 3.89 0 00-2.7 3.77v131.39h8zm0-11.51V287a3.9 3.9 0 00-2.25-3.6 4 4 0 00-5.75 3.63v36a4 4 0 005.75 3.63 3.88 3.88 0 002.25-3.55zm-13-52.4a4 4 0 00-5.3-3.57 3.9 3.9 0 00-2.7 3.78v195.3h8zm50 157.91a4 4 0 00-5.3-3.57 3.9 3.9 0 00-2.7 3.78v37.39h8zm13-12.51a4 4 0 00-5.3-3.57 3.9 3.9 0 00-2.7 3.78v49.92h8zm12-22.58a4 4 0 00-5.3-3.57 3.9 3.9 0 00-2.7 3.78v72.48h8zm25 41.36a4 4 0 00-5.3-3.57 3.9 3.9 0 00-2.7 3.79v31.13h8zm38-94a3.88 3.88 0 00-4-3.76 3.88 3.88 0 00-4 3.76v125.33h8zM960 3.76A4 4 0 00954.7.2a3.89 3.89 0 00-2.7 3.77v462.25h8z" fill="#feecde"/></svg>