<svg data-name="Layer 1" xmlns="http://www.w3.org/2000/svg" width="64" height="65"><path d="M39.86 8.52a9.61 9.61 0 00.27-2 13.58 13.58 0 00-.34-2.25A5.43 5.43 0 0139.64 2 2.6 2.6 0 0140.82.41a2.17 2.17 0 011.75-.35A2.23 2.23 0 0144 1.2a2.61 2.61 0 01.2 2 5 5 0 01-1.25 2 11.25 11.25 0 00-1.38 1.69 12.46 12.46 0 00-.82 1.89 10.14 10.14 0 002-.4 13.54 13.54 0 001.94-1 3.89 3.89 0 013-.75 2.25 2.25 0 011.41.99 2 2 0 01.25 1.67 2.24 2.24 0 01-1.24 1.44 3.15 3.15 0 01-2.28.15l-1.52-.47c-.35-.11-.71-.22-1.12-.32s-1.35-.34-2.45-.57a11.9 11.9 0 001.06 1.85 12.76 12.76 0 001.51 1.53 5.2 5.2 0 011.47 1.89 2.28 2.28 0 010 1.49 2.24 2.24 0 01-1 1.41 2.14 2.14 0 01-1.69.23 2.42 2.42 0 01-1.48-1.22 5.19 5.19 0 01-.29-3 11.17 11.17 0 00.12-2 11.42 11.42 0 00-.42-2 11.06 11.06 0 00-1.43 1.52 9.93 9.93 0 00-.9 1.69A5.05 5.05 0 0136 15.42a2.3 2.3 0 01-1.86.29 2.2 2.2 0 01-1.38-1 2 2 0 01-.24-1.62 2.58 2.58 0 01.9-1.41 5.47 5.47 0 012.18-.93 18.67 18.67 0 002.11-.62 16 16 0 001.8-.93l-2.29-.71-1.22-.3c-.87-.18-1.46-.3-1.78-.39a3.07 3.07 0 01-1.84-1.23 2.23 2.23 0 01-.33-1.86 2.19 2.19 0 011-1.36 2.28 2.28 0 011.8-.2 3.78 3.78 0 012.27 2 21.94 21.94 0 001.2 2 11.21 11.21 0 001.47 1.35zm-32 32a9.61 9.61 0 00.27-2 13.58 13.58 0 00-.34-2.25A5.43 5.43 0 017.64 34a2.6 2.6 0 011.18-1.56 2.17 2.17 0 011.75-.35A2.23 2.23 0 0112 33.2a2.61 2.61 0 01.2 2 5 5 0 01-1.25 2 11.25 11.25 0 00-1.38 1.69 12.46 12.46 0 00-.82 1.89 10.14 10.14 0 002-.4 13.54 13.54 0 001.94-1 3.89 3.89 0 013-.75 2.25 2.25 0 011.44 1.06 2 2 0 01.25 1.67 2.24 2.24 0 01-1.24 1.44 3.15 3.15 0 01-2.28.15l-1.52-.47c-.35-.11-.71-.22-1.12-.32s-1.35-.34-2.45-.57a11.9 11.9 0 001.03 1.78 12.76 12.76 0 001.51 1.53 5.2 5.2 0 011.47 1.89 2.28 2.28 0 01.05 1.49 2.24 2.24 0 01-1.05 1.41 2.14 2.14 0 01-1.69.23 2.42 2.42 0 01-1.48-1.22 5.19 5.19 0 01-.29-3 11.17 11.17 0 00.12-2A11.42 11.42 0 008 41.77a11.06 11.06 0 00-1.43 1.52A9.93 9.93 0 005.69 45 5.05 5.05 0 014 47.42a2.3 2.3 0 01-1.86.29 2.2 2.2 0 01-1.38-1 2 2 0 01-.24-1.62 2.58 2.58 0 01.9-1.41 5.47 5.47 0 012.18-.93 18.67 18.67 0 002.11-.62 16 16 0 001.8-.93l-2.29-.71-1.22-.3c-.87-.18-1.46-.3-1.78-.39a3.07 3.07 0 01-1.81-1.23 2.23 2.23 0 01-.33-1.86 2.19 2.19 0 011-1.36 2.28 2.28 0 011.8-.2 3.78 3.78 0 012.27 2 21.94 21.94 0 001.2 2 11.21 11.21 0 001.47 1.35z" fill="#f6f6f6"/></svg>