<svg id="Layer_1" data-name="Layer 1" xmlns="http://www.w3.org/2000/svg" width="960" height="300"><defs><style>.cls-1{opacity:.03}</style></defs><path class="cls-1" d="M960 170.43l-17.8-24.84c-17.73-25.09-53.53-74.36-88.87-81.68C817.8 56.59 782 92.54 746.67 92.34c-35.54.2-71.34-35.75-106.67-32-35.53 3.53-71.33 46.14-106.67 71-35.53 25.1-71.33 31.75-106.66 7.12-35.54-24.62-71.34-81.87-106.67-78.08-35.53 3.53-71.33 67.44-106.67 95.87-35.53 28.16-71.33 21.5-106.66-10.66-35.54-31.75-71.34-89-88.67-117.16L0 0h960z"/><path class="cls-1" d="M0 0v.48l11.33 28.64c11.34 28.38 34.4 86.07 57.34 82.24 22.66-3.55 45.6-67.95 68.66-82.24C160 14.56 182.87 50.79 206 75.61c22.67 24.82 45.4 39.58 68 42.93 23.33 3.35 46-3.35 68.67-21.47C366 79 388.6 50.79 411.33 39.85 434 29.32 457.13 36 480 43.41c22.67 7.38 45.73 14.09 68.67 25 22.66 10.53 45.6 25.29 68.66 25.09C640 93.72 662.87 79 686 61.32c22.67-17.91 45.4-39.38 68-39.38 23.33 0 46 21.47 68.67 50.11 23.33 28.38 45.93 64.6 68.66 71.51 22.67 7.18 45.8-14.29 57.27-25l11.4-10.75V0z"/><path class="cls-1" d="M0 0a57.53 57.53 0 019.26 6.47c35.65 29.31 70.38 117.38 105.64 139.4 35.65 22 70.38-22 105.64-44 35.65-22 70.38-22 105.63 7.3 35.66 29.86 70.38 87.66 105.64 95.5 35.65 7.3 70.38-36.74 105.64-29.45C573.1 183 607.83 240.83 643.09 256c35.65 15.14 70.38-15.13 105.63-44 35.66-28.9 70.39-59.18 105.64-44 35.64 15 70.38 72.83 88.08 102.69L960 300V0z"/></svg>