<svg id="is1" xmlns="http://www.w3.org/2000/svg" width="150" height="150.27"><defs><style>.cls-1{fill:#f69341}</style></defs><path class="cls-1" d="M261.35 151H260v-9.62a12.5 12.5 0 00-25-.34v10h-10.86a3 3 0 100 6H235v6.76a3 3 0 106 0V151h13v50h-13v-16.43s-.76-2.93-2.38-2.93a2.52 2.52 0 00-2.62 2.93v19.37a1.38 1.38 0 00.1 1.49l6.76 11.57H185.2a2.78 2.78 0 00-2.93 2.82 3.34 3.34 0 002.93 3.18h74.51a3.34 3.34 0 002.93-3.18c0-1.61-2.93-2.82-2.93-2.82h-6.91l6.79-11.49A2.91 2.91 0 00260 204v-47h1.21a8.78 8.78 0 018.79 8.79V229H148v-22h58a10 10 0 0010-10v-58a10 10 0 00-10-10h-70a10 10 0 00-10 10v58a10 10 0 0010 10h6v32.35A14.65 14.65 0 00156.65 254H195v7.15a14.73 14.73 0 00-14.22 14.92 3 3 0 003 2.93h51.38a3 3 0 003-2.93A14.73 14.73 0 00224 261.15V254h37.35A14.65 14.65 0 00276 239.35v-73.7A14.65 14.65 0 00261.35 151zm-9.11 56l-4.24 7.19-4.25-7.19zm1.76-62h-13v-3.6a6.58 6.58 0 015-6.49 6.51 6.51 0 018 6.28zm-117.9-10h70.8a4.11 4.11 0 014.1 4.1V150h-79v-10.9a4.11 4.11 0 014.1-4.1zm-4.1 61.9V156h79v40.9a4.11 4.11 0 01-4.1 4.1h-70.8a4.11 4.11 0 01-4.1-4.1zM232.23 273h-46.38a9 9 0 018.49-6h29.4a9 9 0 018.49 6zM200 261v-7h18v7zm61.21-13H156.79a8.78 8.78 0 01-8.79-8.79V234h122v5.21a8.78 8.78 0 01-8.79 8.79z" transform="translate(-126 -128.73)"/><path class="cls-1" d="M201.48 139h-27.9a3 3 0 100 6h27.9a3 3 0 100-6zm-50.08 1.31a2.93 2.93 0 00-4.15 0 2.93 2.93 0 105 2.07 3 3 0 00-.85-2.07zm-10 0a2.93 2.93 0 00-4.15 4.14 2.94 2.94 0 005-2.07 3 3 0 00-.85-2.07zm19.99 0a2.93 2.93 0 00-5 2.07 2.93 2.93 0 105-2.07zm-14.14 36.36l8-8a2.93 2.93 0 00-4.14-4.14l-10 10a2.93 2.93 0 000 4.15l10 10a2.93 2.93 0 004.14-4.15zm54.18-2.08l-10-10a2.93 2.93 0 00-4.14 4.14l8 8-8 8a3 3 0 000 4.15 2.95 2.95 0 004.14 0l10-10a2.93 2.93 0 000-4.15zm-21.62-12.51a2.93 2.93 0 00-4 1l-14.18 24.12a2.93 2.93 0 001 4 2.91 2.91 0 004-1l14.18-24.12a2.93 2.93 0 00-1-4zm60.88 10.07a2.92 2.92 0 10.86 2.07 2.94 2.94 0 00-.86-2.07zM172.24 217h-.43a3 3 0 100 6h.43a3 3 0 100-6z" transform="translate(-126 -128.73)"/></svg>