<svg id="Layer_1" data-name="Layer 1" xmlns="http://www.w3.org/2000/svg" width="100" height="100"><defs><style>.cls-1{fill:#d13927}</style></defs><path class="cls-1" d="M55.84 11.26h-5.9A1.86 1.86 0 0048 13.07v6.73a1.86 1.86 0 001.9 1.81h5.9a1.86 1.86 0 001.9-1.81v-6.73a1.86 1.86 0 00-1.86-1.81zm-1.1 7.5H51v-4.65h3.7zm12.82-7.5h-5.89a1.86 1.86 0 00-1.9 1.81v6.73a1.86 1.86 0 001.9 1.81h5.89a1.86 1.86 0 001.9-1.81v-6.73a1.86 1.86 0 00-1.9-1.81zm-1.1 7.5h-3.69v-4.65h3.69zm12.83-7.5h-5.9a1.86 1.86 0 00-1.9 1.81v6.73a1.86 1.86 0 001.9 1.81h5.9a1.86 1.86 0 001.9-1.81v-6.73a1.86 1.86 0 00-1.9-1.81zm-1.1 7.5h-3.7v-4.65h3.7zM55.84 28h-5.9A1.86 1.86 0 0048 29.8v6.74a1.86 1.86 0 001.9 1.81h5.9a1.86 1.86 0 001.9-1.81V29.8a1.86 1.86 0 00-1.86-1.8zm-1.1 7.5H51v-4.65h3.7zM67.56 28h-5.89a1.86 1.86 0 00-1.9 1.81v6.74a1.86 1.86 0 001.9 1.81h5.89a1.86 1.86 0 001.9-1.81V29.8a1.86 1.86 0 00-1.9-1.8zm-1.1 7.5h-3.69v-4.65h3.69zM79.29 28h-5.9a1.86 1.86 0 00-1.9 1.81v6.74a1.86 1.86 0 001.9 1.81h5.9a1.86 1.86 0 001.9-1.81V29.8a1.86 1.86 0 00-1.9-1.8zm-1.1 7.5h-3.7v-4.65h3.7zm-22.35 9.23h-5.9A1.86 1.86 0 0048 46.54v6.74a1.86 1.86 0 001.9 1.81h5.9a1.86 1.86 0 001.9-1.81v-6.74a1.86 1.86 0 00-1.86-1.81zm-1.1 7.5H51v-4.65h3.7zm12.82-7.5h-5.89a1.86 1.86 0 00-1.9 1.81v6.74a1.86 1.86 0 001.9 1.81h5.89a1.86 1.86 0 001.9-1.81v-6.74a1.86 1.86 0 00-1.9-1.81zm-1.1 7.5h-3.69v-4.65h3.69zm12.83-7.5h-5.9a1.86 1.86 0 00-1.9 1.81v6.74a1.86 1.86 0 001.9 1.81h5.9a1.86 1.86 0 001.9-1.81v-6.74a1.86 1.86 0 00-1.9-1.81zm-1.1 7.5h-3.7v-4.65h3.7zm1.1 9.23h-5.9a1.86 1.86 0 00-1.9 1.81V70a1.86 1.86 0 001.9 1.81h5.9a1.86 1.86 0 001.9-1.81v-6.73a1.86 1.86 0 00-1.9-1.81zM78.19 69h-3.7v-4.68h3.7z"/><path class="cls-1" d="M98.92 67.83a6.44 6.44 0 00-8.62-1.59l-4.13 2.63V7.41h.3a1.92 1.92 0 002-1.87V1.88a1.92 1.92 0 00-2-1.88h-9.58a1.47 1.47 0 00-1.5 1.43 1.47 1.47 0 001.5 1.43h8.55v1.7H43.33v-1.7H67.5A1.47 1.47 0 0069 1.43 1.47 1.47 0 0067.5 0H42.29a1.92 1.92 0 00-2 1.88v3.66a1.92 1.92 0 002 1.87h.77v18.35H40v-3.52A2.29 2.29 0 0037.64 20H26.31A2.28 2.28 0 0024 22.24v3.52h-2.18a2.38 2.38 0 00-2.43 2.32v32.76c-.63 0-1.27-.06-1.91-.06h-2.36V60a5.17 5.17 0 00-5.28-5H5.28A5.17 5.17 0 000 60v20.4a1.47 1.47 0 001.5 1.43A1.47 1.47 0 003 80.44V60a2.23 2.23 0 012.28-2.17h4.56A2.23 2.23 0 0112.12 60v32.18a2.23 2.23 0 01-2.28 2.17H5.28A2.23 2.23 0 013 92.18v-2.8A1.47 1.47 0 001.5 88 1.47 1.47 0 000 89.38v2.8a5.17 5.17 0 005.28 5h4.56a5.17 5.17 0 005.28-5v-.08l20.77 7.49h.12a10.12 10.12 0 004.2.26l30.66-4.21A15.57 15.57 0 0078 92.63l19.82-17a5.74 5.74 0 001.1-7.8zM46.06 7.41h37.11v63.37l-12.48 8-4.18-.23-.11-1a8.15 8.15 0 00-.52-2.15 5.51 5.51 0 00-.29-.66 6.78 6.78 0 00-.53-1 8.87 8.87 0 00-1.71-1.91h4.21a1.86 1.86 0 001.9-1.83v-6.73a1.86 1.86 0 00-1.9-1.81h-5.89a1.86 1.86 0 00-1.9 1.81V70a9 9 0 00-1.17-.23l-.82-.09v-6.41a1.86 1.86 0 00-1.9-1.81h-5.9A1.86 1.86 0 0048 63.27v5.32l-2-.22v-61zM62.77 69v-4.68h3.69V69zm-8-4.64V69h-3.73v-4.6zM27 22.87h10v2.89H27zm-4.59 5.75h20.65v4.47H26.12a1.72 1.72 0 00-1.76 1.67v4.32a1.72 1.72 0 001.76 1.67h16.94v4H26.12a1.72 1.72 0 00-1.76 1.68v4.31a1.72 1.72 0 001.76 1.67h16.94v4H26.12a1.73 1.73 0 00-1.76 1.68v3.41l-.77-.16-.36-.07-.43-.07-.41-.07zM43.06 36v1.9h-15.7V36zm0 11.68v1.95h-15.7v-2zm-15.7 13.58v-1.95h15.7v1.95zm15.7 2.86V68h-.47a28.62 28.62 0 01-8.14-2.38l-.67-.33c-.36-.18-.72-.37-1.07-.57l-.79-.42-.18-.09-.15-.08zm52.85 9.36l-19.79 17a12.27 12.27 0 01-5.69 2.42l-30.66 4.16a7 7 0 01-2.84-.17l-21.81-7.84V63.64h2.36a27.12 27.12 0 013.25.19l.65.08h.09c.55.08 1.09.18 1.63.28l.51.11h.25l.65.16h.11a28.42 28.42 0 014.93 1.78l.14.07.6.3.18.09.71.38q1 .52 1.95 1a30.65 30.65 0 009 2.65l2.16.24 1.75.19 4 .44 1 .11 7 .77a6 6 0 015.22 5.2v.49l-27.91-2.51A1.49 1.49 0 0033.71 77a1.46 1.46 0 001.35 1.56l29.81 2.76a1.08 1.08 0 00.19 0l6 .32h.71a1.24 1.24 0 00.2-.1l13.57-8.65L92 68.61a3.33 3.33 0 014.47.83 3 3 0 01-.56 4.04z"/></svg>