<svg id="Layer_1" data-name="Layer 1" xmlns="http://www.w3.org/2000/svg" width="87.34" height="100"><defs><style>.cls-1{fill:#d13927}</style></defs><path class="cls-1" d="M89.39 11.67h-4.75V4.85A4.86 4.86 0 0079.79 0h-62.6a4.86 4.86 0 00-4.85 4.85v6.82H7.89a1.47 1.47 0 100 2.93h4.45v6.83a4.86 4.86 0 004.85 4.85h2.12V31A5.82 5.82 0 0028 36v7a5.82 5.82 0 0011.64 0V26.28h5.55a1.47 1.47 0 000-2.93h-2a5.92 5.92 0 00.83-3v-7.41a6 6 0 009-5.13V2.93h26.77a1.92 1.92 0 011.92 1.92v16.58a1.92 1.92 0 01-1.92 1.92H52a1.47 1.47 0 000 2.93h27.79a4.86 4.86 0 004.85-4.85V14.6h4.75a1.45 1.45 0 011.44 1.4v15a3 3 0 01-2.12 2.83l-39.28 11.7A3.37 3.37 0 0047 48.75v2.57h-6.53a3.74 3.74 0 00-3.74 3.74v2A3.74 3.74 0 0040 60.78L37.26 87.9a11 11 0 1021.9 0l-.95-9.52a1.46 1.46 0 10-2.91.29l1 9.52a8.08 8.08 0 11-16.08 0l2.68-27.38h10.62l1.09 11a1.47 1.47 0 002.92-.29l-1.07-10.71h.32a3.73 3.73 0 003.74-3.73v-2a3.74 3.74 0 00-3.74-3.74H50v-2.59a.44.44 0 01.31-.42l39.28-11.7A5.93 5.93 0 0093.76 31V16a4.37 4.37 0 00-4.37-4.33zM28 31a2.89 2.89 0 01-5.78 0v-4.72H28zm8.73 12A2.89 2.89 0 1131 43V26.28h5.78V43zm10.32-32.15a3 3 0 01-3-3 1.47 1.47 0 10-2.93 0v12.5a3 3 0 01-3 3H17.19a1.92 1.92 0 01-1.92-1.92V4.85a1.92 1.92 0 011.92-1.92h32.9v4.88a3.05 3.05 0 01-3.04 3.04zm9.74 43.4a.82.82 0 01.8.81v2a.82.82 0 01-.8.8H40.47a.82.82 0 01-.81-.8v-2a.82.82 0 01.81-.81z" transform="translate(-6.42)"/><path class="cls-1" d="M48.21 83.56a4.92 4.92 0 104.91 4.92 4.92 4.92 0 00-4.91-4.92zm0 6.9a2 2 0 112-2 2 2 0 01-2 2z" transform="translate(-6.42)"/></svg>