<svg id="Layer_1" data-name="Layer 1" xmlns="http://www.w3.org/2000/svg" width="100" height="100"><defs><style>.cls-1{fill:#d13927}</style></defs><path class="cls-1" d="M50 0a50 50 0 1050 50A50.06 50.06 0 0050 0zm0 96.77A46.77 46.77 0 1196.77 50 46.82 46.82 0 0150 96.77z"/><path class="cls-1" d="M50 6.45A43.55 43.55 0 1077.83 83.5L75.77 81a40.3 40.3 0 112.15-1.92l2.23 2.32A43.55 43.55 0 0050 6.45z"/><path class="cls-1" d="M19.35 50A30.65 30.65 0 1050 19.35 30.69 30.69 0 0019.35 50zm6.75-13.4l2.44 1.14-3.1 9.57-2.66-.51a27.3 27.3 0 013.32-10.2zm12.45 38.28a27.57 27.57 0 01-8.67-6.31l1.83-1.95 8.14 5.91zm22.9 0l-1.3-2.35 8.14-5.91 1.83 1.95a27.57 27.57 0 01-8.67 6.31zM77.22 46.8l-2.66.5-3.1-9.56 2.44-1.14a27.3 27.3 0 013.32 10.2zM50 22.58a27.76 27.76 0 015.36.53l-.36 2.7H45l-.33-2.7a27.76 27.76 0 015.33-.53zM41.49 24l.63 5h15.76l.63-5a27.47 27.47 0 0113.61 9.92L67.51 36l4.87 15 5-1a27.24 27.24 0 01-5.24 16l-3.44-3.67L56 71.59l2.47 4.49a27.19 27.19 0 01-16.86 0l2.48-4.49-12.79-9.26-3.48 3.72a27.24 27.24 0 01-5.24-16l5.05 1 4.86-15-4.61-2.16A27.47 27.47 0 0141.49 24z"/><path class="cls-1" d="M50 64.52A14.52 14.52 0 1035.48 50 14.54 14.54 0 0050 64.52zm0-25.81A11.29 11.29 0 1138.71 50 11.31 11.31 0 0150 38.71z"/><path class="cls-1" d="M50 58.06A8.06 8.06 0 1041.94 50 8.06 8.06 0 0050 58.06zm0-12.9A4.84 4.84 0 1145.16 50 4.84 4.84 0 0150 45.16zM45.16 12.9h3.23v3.23h-3.23zm6.45 0h3.23v3.23h-3.23zm-12.9 0h3.23v3.23h-3.23zm19.35 0h3.23v3.23h-3.23z"/></svg>