<svg id="sol3" xmlns="http://www.w3.org/2000/svg" width="100" height="84"><defs><style>.cls-1{fill:#d13927}</style></defs><path class="cls-1" d="M102.52 134.38a1.46 1.46 0 00-1 1.78 4.87 4.87 0 01.15 1.2 4.79 4.79 0 11-3.6-4.64 1.47 1.47 0 00.74-2.84 7.87 7.87 0 00-1.94-.24 7.73 7.73 0 107.73 7.72 7.85 7.85 0 00-.24-1.93 1.47 1.47 0 00-1.84-1.05zm34.48 0a1.46 1.46 0 00-1.06 1.78 4.87 4.87 0 01.15 1.2 4.8 4.8 0 11-4.79-4.79 4.87 4.87 0 011.2.15 1.47 1.47 0 00.73-2.84 7.85 7.85 0 00-1.93-.24 7.73 7.73 0 107.73 7.72 7.86 7.86 0 00-.25-1.93 1.46 1.46 0 00-1.78-1.05z" transform="translate(-71.87 -67.35)"/><path class="cls-1" d="M171.56 146.09l.05-.06a.21.21 0 010-.06.21.21 0 010-.06v-.2a.14.14 0 010-.06v-.72a.15.15 0 010-.07 277055980517.38 277055980517.38 0 010-.14v-.26a229051076341.54 229051076341.54 0 01-.08-.12v-.05l-.05-.06-17.22-18.78a1.47 1.47 0 00-2.17 2l1.35 1.47-1.53 3.06-5.3-16.29a4.58 4.58 0 00-3-3l-11.07-3.49a.57.57 0 010-.13l-2.37-30.9h3a1.47 1.47 0 100-2.93h-22V72a4.6 4.6 0 10-9.17 0v3.3a6.17 6.17 0 00-5.16 5.41l-1.23 16.77-11.49-3.63a1.47 1.47 0 00-.62 0 6.16 6.16 0 00-4.28-1.73h-5.88a1.47 1.47 0 00-1.47 1.47v36.57a7.72 7.72 0 004.69 7.1l6.53 2.74a14 14 0 0027.39.4h7.13a14 14 0 0027.39-.35l1.49 4.51a1.47 1.47 0 00.29.48l.09.18a3 3 0 002.59 1.44h21.85l.06-.05.05-.06a.12.12 0 00.05-.05zm-27.74-29.55l6.18 19.14-2 4.08-6.88-20.71a1.46 1.46 0 00-1-.94L91.67 102.8a6.07 6.07 0 00-1.45-2.28l-2.43-2.43 54.94 17.34a1.7 1.7 0 011.09 1.11zm-38.81-6l.06-.43 7.32 2.31h-5.73a1.67 1.67 0 01-1.65-1.88zM92 106l2.54.8-.46 4.15a1.67 1.67 0 01-1.65 1.48H92zm14.27-5.13l1.37-16.61a1.67 1.67 0 011.65-1.44h18.46l1.68 25.36zm.27-30.57a1.66 1.66 0 011.7 1.7v3.23h-3.33V72a1.66 1.66 0 011.66-1.71zM99.74 81a3.23 3.23 0 013.26-2.89h24.2l.22 1.76h-18.1a4.61 4.61 0 00-4.56 4l-1.3 16.1-5-1.58zM79.22 95a3.2 3.2 0 012.29.94l6.64 6.64a3.2 3.2 0 01.94 2.29v20.83a14 14 0 00-6.24 11l-1.79-.7a.76.76 0 000-.15v-25.63a7.67 7.67 0 00-2.26-5.46l-4-4V95zm-4.41 35.1v-25.2l1.92 1.92a4.76 4.76 0 011.41 3.39v24.47l-.43-.18a4.79 4.79 0 01-2.9-4.39zm22 18.31a11.06 11.06 0 1111.06-11.06 11.07 11.07 0 01-11.05 11.07zm34.45 0a11.06 11.06 0 1111-11.06 11.07 11.07 0 01-10.99 11.07zm0-25a14 14 0 00-14 14v.1h-6.47v-.1A14 14 0 0092 124.22v-2.61h29.84a1.47 1.47 0 100-2.93H92v-3.33h.43a4.59 4.59 0 004.57-4.09l.39-3.56 4.81 1.51-.13.94a4.59 4.59 0 004.56 5.2h15l10.53 3.33h-4.08a1.47 1.47 0 100 2.93h10.74l1.79 5.4a13.94 13.94 0 00-9.34-3.63zm18.1 20.3a.09.09 0 010-.1l6.2-12.4 11.5 12.54h-17.6a.09.09 0 01-.09-.07z" transform="translate(-71.87 -67.35)"/></svg>