<svg id="Layer_1" data-name="Layer 1" xmlns="http://www.w3.org/2000/svg" width="100" height="100"><defs><style>.cls-1{fill:#d13927}</style></defs><path class="cls-1" d="M90.32 33.87a17.73 17.73 0 01-29.2 13.53L59 49.86a21 21 0 0029.57-29.53l-2.46 2.08a17.71 17.71 0 014.21 11.46zm-38.71 0a21 21 0 005 13.55l2.46-2.09a17.73 17.73 0 0125-25l2.09-2.46a21 21 0 00-34.52 16zm-7.44 19.36h2.6V50H32a4.83 4.83 0 00-3-2.93v-3.52h-3.19v3.52A4.81 4.81 0 0022.88 50H8.06v3.23h2.61l-2.15 6.45H6.45v1.61a8.07 8.07 0 0016.13 0v-1.61h-2.06l-2.15-6.45h4.51a4.79 4.79 0 002.93 2.92v21.27h-1.62a8.07 8.07 0 00-8.06 8.06v1.62h22.58v-1.62a8.07 8.07 0 00-8.06-8.06H29V56.15a4.82 4.82 0 003-2.92h4.51l-2.15 6.45h-2.1v1.61a8.07 8.07 0 0016.13 0v-1.61h-2.07zm-9 30.64H19.63a4.84 4.84 0 014.56-3.22h6.46a4.84 4.84 0 014.56 3.22zM14.52 66.13A4.85 4.85 0 0110 62.9h9.13a4.85 4.85 0 01-4.61 3.23zm2.6-6.45h-5.21l2.15-6.45H15zm10.3-6.45A1.62 1.62 0 1129 51.61a1.62 1.62 0 01-1.58 1.62zm12.45 0h.9l2.15 6.45h-5.2zm.45 12.9a4.85 4.85 0 01-4.56-3.23h9.13a4.85 4.85 0 01-4.57 3.23z"/><path class="cls-1" d="M100 33.87A27.46 27.46 0 0074.19 6.5V0H0v93.55h64.68a8.07 8.07 0 0016-1.61V64.52h-3.26v-3.68A27.45 27.45 0 00100 33.87zM77.42 91.94a4.84 4.84 0 01-9.68 0v-1.62H3.23V3.23H71v6.45h1.61a24.15 24.15 0 11-6 .76l1.21-.31V6.45H6.45v21h39.48a27.4 27.4 0 0021.81 33.39v3.68h-3.22V87.1h3.22V67.74h9.68zm-30.5-67.75H9.68V9.68h50a27.41 27.41 0 00-12.76 14.51zm27.27 40.33H71v-3.31c.53 0 1.07.08 1.61.08s1.08 0 1.61-.08z"/><path class="cls-1" d="M6.45 30.65h3.23v3.22H6.45zm6.45 0h29v3.22h-29zM6.45 37.1h35.49v3.22H6.45z"/></svg>