<svg id="Layer_1" data-name="Layer 1" xmlns="http://www.w3.org/2000/svg" viewBox="0 0 100 100"><defs><style>.cls-1{fill:#d13927}</style></defs><path class="cls-1" d="M30.65 76.35a1.46 1.46 0 00-1 1.78 4.87 4.87 0 01.15 1.2 4.79 4.79 0 11-3.6-4.64 1.47 1.47 0 00.74-2.84 7.93 7.93 0 00-1.94-.24 7.73 7.73 0 107.73 7.73 7.85 7.85 0 00-.24-1.93 1.47 1.47 0 00-1.79-1.06zm34.48 0a1.46 1.46 0 00-1.06 1.77 4.87 4.87 0 01.15 1.2 4.8 4.8 0 11-4.81-4.79 4.87 4.87 0 011.2.15 1.47 1.47 0 00.73-2.84 7.85 7.85 0 00-1.93-.24 7.73 7.73 0 107.73 7.73 7.86 7.86 0 00-.25-1.93 1.46 1.46 0 00-1.78-1.05z"/><path class="cls-1" d="M98.64 88.63a1.44 1.44 0 001-2.43L82.39 67.42a1.48 1.48 0 00-2.17 2l1.35 1.47L80 74l-5.3-16.29a4.59 4.59 0 00-3-3l-11.03-3.54V51L58.3 20.14h3a1.47 1.47 0 001.59-1.34 1.48 1.48 0 00-1.35-1.59 1 1 0 00-.24 0h-22V14a4.6 4.6 0 10-9.17 0v3.3A6.18 6.18 0 0025 22.68l-1.26 16.77-11.49-3.63a1.62 1.62 0 00-.62 0 6.16 6.16 0 00-4.28-1.73H1.47A1.47 1.47 0 000 35.56v36.57a7.72 7.72 0 004.69 7.1L11.22 82a14 14 0 0027.39.4h7.13a14 14 0 0027.39-.4l1.49 4.51a1.32 1.32 0 00.29.48l.09.18a3 3 0 002.59 1.44zM72 58.51l6.18 19.14-2 4.08L69.25 61a1.47 1.47 0 00-1-.94L19.8 44.77a6.09 6.09 0 00-1.45-2.28l-2.43-2.43L70.86 57.4A1.7 1.7 0 0172 58.51zm-38.81-6l.06-.43 7.32 2.31h-5.78a1.66 1.66 0 01-1.66-1.68 1.41 1.41 0 01.01-.2zM20.13 48l2.54.8-.46 4.15a1.67 1.67 0 01-1.65 1.48h-.43zm14.27-5.16l1.37-16.61a1.67 1.67 0 011.65-1.44h18.46l1.68 25.36zm.27-30.57a1.66 1.66 0 011.7 1.62v3.31H33V14a1.66 1.66 0 011.61-1.71zM27.87 23a3.24 3.24 0 013.26-2.89h24.2l.22 1.76h-18.1a4.61 4.61 0 00-4.56 4l-1.3 16.1-5-1.58zM7.35 37a3.18 3.18 0 012.29.94l6.64 6.64a3.18 3.18 0 01.94 2.29v20.8a14 14 0 00-6.24 11L9.19 78V52.19a7.67 7.67 0 00-2.26-5.46l-4-4V37zM2.94 72.07v-25.2l1.92 1.92a4.8 4.8 0 011.41 3.39v24.47l-.43-.18a4.77 4.77 0 01-2.9-4.39zm22 18.31A11.06 11.06 0 1136 79.32a11.06 11.06 0 01-11 11.07zm34.45 0a11.06 11.06 0 1111-11.12v.06a11.07 11.07 0 01-11 11.07zm0-25a14 14 0 00-14 14v.1h-6.47v-.1a14 14 0 00-18.79-13.19v-2.61H50a1.47 1.47 0 001.59-1.34 1.48 1.48 0 00-1.35-1.59H20.13v-3.33h.43a4.59 4.59 0 004.57-4.09l.39-3.56 4.81 1.51-.13.94a4.59 4.59 0 003.94 5.16 4.3 4.3 0 00.62 0h15l10.53 3.33h-4.08a1.47 1.47 0 10-.21 2.97 1 1 0 00.24 0H67L68.74 69a14 14 0 00-9.34-3.63zm18.1 20.3a.09.09 0 010-.1l6.2-12.4 11.5 12.54h-17.6a.1.1 0 01-.09-.07z"/></svg>