<svg version="1.1" id="sol1" xmlns="http://www.w3.org/2000/svg" x="0" y="0" width="100" height="100" xml:space="preserve"><style>.st0{fill:#d13927}</style><path class="st0" d="M56.6 63.3c0 9.2 7.5 16.7 16.7 16.7S90 72.5 90 63.3s-7.5-16.7-16.7-16.7c-9.2.1-16.6 7.5-16.7 16.7zM73.3 50c7.4 0 13.3 6 13.3 13.3 0 7.4-6 13.3-13.3 13.3S60 70.7 60 63.3C60 56 66 50 73.3 50zm-9.5 46.7h19v3.3h-19v-3.3zM56.6 90H90v3.3H56.6V90zM20 90h3.3v3.3H20V90zm-10 3.3h3.3v3.3H10v-3.3z"/><path class="st0" d="M20.2 80.6c8.7-15.2 14.1-32 16-49.3l15.5 15.4c.3.3.7.5 1.2.5h.3c.5-.1 1-.4 1.2-.9 3.1-6.3 1.9-13.8-3.1-18.8l-1.4-1.4h11.7c.9 0 1.7-.7 1.7-1.7 0-.2 0-.4-.1-.5-2.2-6.6-8.4-11.1-15.4-11.1h-2.2L54 4.4c.7-.6.7-1.7 0-2.3-.1-.1-.3-.2-.4-.3-6.3-3.1-13.9-1.9-18.8 3.1l-1.6 1.6c-.5.5-1 1.1-1.5 1.6-.4-.6-.9-1.1-1.4-1.7l-1.6-1.5c-5-5-12.5-6.2-18.8-3-.9.2-1.2 1.2-.8 2V4c.1.2.2.3.3.4l8.3 8.4h-2.2c-7 0-13.2 4.5-15.5 11.1-.3.9.2 1.8 1.1 2.1.2.1.3.1.5.1h11.7L12 27.5c-4.9 5-6.2 12.5-3 18.8.2.5.7.8 1.2.9h.3c.4 0 .8-.2 1.1-.5L26 32.3c-1.8 16-7.8 31.2-17.4 44.1-2.2-.6-4.5-1.1-6.8-1.4l-1-.1-.4 3.3 1 .1c1.7.2 3.3.6 5 1-.3.4-.7.8-1 1.3l2.5 2.1c12.8-15.2 20.5-34.1 21.8-54l1.9-1.9 1.4 1.4c-1.7 21.2-9 41.6-21.1 59.2l2.7 1.9c1.3-1.9 2.6-3.8 3.8-5.8 7.8 3.7 14.7 9.1 20.2 15.8l2.6-2.1c-3.2-3.9-7-7.5-11.1-10.5H100v-3.3H25.2c-1.6-1.1-3.3-2-5-2.8zm32.1-38.1L34.6 25c4.5-1.3 9.4-.1 12.7 3.2l1.6 1.6c3.4 3.3 4.7 8.2 3.4 12.7zm6.8-19.7H45.3c-3.2-1.5-6.8-2-10.3-1.2 2.4-3.4 6.3-5.4 10.5-5.4h2.3c4.7-.1 9 2.4 11.3 6.6zm-23.7-14L37 7.2c3.3-3.3 8.2-4.6 12.7-3.3l-9.9 9.9c-3.2 1.2-6 3.4-7.9 6.2-.7-4.1.6-8.3 3.5-11.2zm-9.1-1.6l1.6 1.6c.7.8 1.4 1.6 1.9 2.5-.8 1.8-1.2 3.6-1.3 5.5-1.5-1.3-3.2-2.3-5.1-3l-9.9-10c4.6-1.3 9.4 0 12.8 3.4zm-10.8 9h2.3c4.2 0 8.1 2 10.5 5.4-3.5-.7-7.1-.3-10.3 1.2H4.2c2.3-4.1 6.6-6.7 11.3-6.6zm-4.4 26.3c-1.3-4.5 0-9.4 3.3-12.7l1.6-1.6c2.4-2.4 5.6-3.7 9-3.7 1.2 0 2.5.2 3.7.5L11.1 42.5z"/></svg>