<svg id="Layer_1" data-name="Layer 1" xmlns="http://www.w3.org/2000/svg" width="100" height="100"><defs><style>.cls-1{fill:#d13927}</style></defs><path class="cls-1" d="M97.19 30.32l-24.61-5.79V0H9.68A9.69 9.69 0 000 9.68v80.64A9.69 9.69 0 009.68 100h62.9v-3.23a6.45 6.45 0 110-12.9V62.55l19.36-4.84V38.66l5.25-1.24a3.65 3.65 0 000-7.1zM3.23 9.68a6.46 6.46 0 014.83-6.23v77.34a9.57 9.57 0 00-4.83 2.34zm62.14 87.09H9.68a6.45 6.45 0 010-12.9h55.69a9.66 9.66 0 000 12.9zm4-16.12H11.29V3.23h58.06v21.3l-6.45 1.52V9.68H17.74v29h24.2v3.23h-24.2v3.22h24.2v3.52a4.84 4.84 0 00-3.23 4.55v11.32h9.68V53.23a4.85 4.85 0 00-3.23-4.55V37.52L50 38.66v19.05l19.35 4.84zM44.75 30.32a3.63 3.63 0 00-2.81 3.55v1.61H21V12.9h38.68v13.9zm.41 22.91v8.06h-3.22v-8.06a1.61 1.61 0 113.22 0zm43.55-4.49l-3.57.9.78 3.12 2.79-.7v3.13L71 59.63l-17.77-4.44v-3.13L71 56.5l11.71-2.93-.78-3.12L71 53.18l-17.77-4.44v-9.32L71 43.59l17.74-4.17zm7.74-14.46l-25.45 6-25.48-6a.42.42 0 010-.82l25.48-6 25.48 6a.42.42 0 010 .82z"/><path class="cls-1" d="M17.74 50h17.74v3.23H17.74zm0 6.45h17.74v3.23H17.74zm0 6.45h17.74v3.23H17.74z"/><path class="cls-1" transform="rotate(-.28 30.52 71.695)" d="M17.74 69.4h24.19v3.23H17.74z"/><path class="cls-1" transform="rotate(-.35 53.807 70.557)" d="M45.16 69.41H62.9v3.23H45.16z"/><path class="cls-1" d="M8.06 88.71h45.16v3.23H8.06zm48.39 0h3.23v3.23h-3.23z"/></svg>