<svg id="is3" xmlns="http://www.w3.org/2000/svg" width="150" height="150"><defs><style>.cls-1{fill:#f69341}</style></defs><path class="cls-1" d="M301.09 173.56l-5.24-1.31-2.61-6.3 2.78-4.62a3 3 0 00-.44-3.59l-8-8a2.93 2.93 0 00-3.58-.44l-4.63 2.78-6.3-2.61-1.3-5.24a2.94 2.94 0 00-2.85-2.22h-11.34a2.93 2.93 0 00-2.84 2.22l-1.31 5.24-6.3 2.61-4.62-2.78a2.93 2.93 0 00-3.58.44l-8 8a2.93 2.93 0 00-.44 3.58l2.78 4.62-2.61 6.3-5.24 1.31a2.92 2.92 0 00-2.22 2.84v11.33a2.92 2.92 0 002.22 2.84l5.25 1.31 2.61 6.3-2.79 4.62a2.93 2.93 0 00.44 3.58l8 8a2.93 2.93 0 003.58.44l4.62-2.78 6.3 2.61 1.31 5.24a2.93 2.93 0 002.84 2.22h11.33a2.94 2.94 0 002.85-2.22l1.3-5.24 6.3-2.61 4.63 2.78a2.93 2.93 0 003.58-.44l8-8a2.93 2.93 0 00.44-3.58l-2.78-4.62 2.61-6.3 5.24-1.31a2.91 2.91 0 002.22-2.84V176.4a2.91 2.91 0 00-2.21-2.84zm-3.64 11.88l-4.45 1.11a2.93 2.93 0 00-2 1.72l-3.74 9a2.94 2.94 0 00.19 2.63l2.37 3.93-4.82 4.81-3.93-2.37a2.91 2.91 0 00-2.63-.19l-9 3.74a2.93 2.93 0 00-1.72 2l-1.11 4.45h-6.75l-1.11-4.45a2.91 2.91 0 00-1.72-2l-9-3.74a2.91 2.91 0 00-2.63.19l-3.93 2.37-4.77-4.78 2.36-3.93a2.91 2.91 0 00.19-2.63l-3.74-9a2.89 2.89 0 00-2-1.72l-4.51-1.14v-6.75l4.45-1.11a2.91 2.91 0 002-1.72l3.74-9a2.91 2.91 0 00-.19-2.63l-2.36-3.93 4.77-4.78 3.93 2.37a2.94 2.94 0 002.63.19l9-3.74a2.93 2.93 0 001.72-2l1.11-4.45h6.75l1.11 4.45a3 3 0 001.72 2l9 3.74a2.94 2.94 0 002.63-.19l3.93-2.37 4.78 4.78-2.36 3.93a2.91 2.91 0 00-.2 2.63l3.74 9a3 3 0 002 1.72l4.45 1.11v6.75zm40.79 44.49a11.46 11.46 0 00-19.6-7.49l-25.37 25.63a8.33 8.33 0 01-3.3 2 11.32 11.32 0 001.1-3.86 11.18 11.18 0 00-8.4-12l-16.94-4.35a52.67 52.67 0 00-32.35 1.93l-20 7.76-3.12-5.41a2.94 2.94 0 00-4-1.08l-16.58 9.56a2.93 2.93 0 00-1.08 4l8 13.92a2.93 2.93 0 005.07-2.93l-6.57-11.38 11.51-6.63 22.41 38.82-11.5 6.63-5.68-9.83a2.93 2.93 0 00-5.08 2.93l7.24 12.39a2.91 2.91 0 002.53 1.46 3 3 0 001.46-.39l16.58-9.56a2.9 2.9 0 001.44-2.94h8.35a2.93 2.93 0 000-5.86h-11.49l-16.48-28.54 19.11-7.44a46.82 46.82 0 0128.77-1.71l16.94 4.34a5.4 5.4 0 01-1.34 10.63h-22.3a2.93 2.93 0 000 5.86h29.76a14.32 14.32 0 0010.11-4.22l25.37-25.63a5.64 5.64 0 017.58-.35 5.61 5.61 0 01.42 8.21l-28 28.67a33.87 33.87 0 01-24.12 10.16H265a2.93 2.93 0 100 5.86h13.71A39.78 39.78 0 00307 267.18l28-28.67a11.52 11.52 0 003.24-8.58z" transform="translate(-188.25 -142)"/><path class="cls-1" d="M256.39 274.11a2.95 2.95 0 10.85 2.07 2.94 2.94 0 00-.85-2.07zm-50.03-8.3a2.92 2.92 0 10.86 2.07 2.94 2.94 0 00-.86-2.07zm40.16-83.75l5.38-5.38a2.93 2.93 0 00-4.15-4.14L240.3 180a3 3 0 000 4.15l7.45 7.45a2.93 2.93 0 004.15-4.15zM286.2 180l-7.45-7.45a2.93 2.93 0 00-4.15 4.14l5.39 5.38-5.39 5.38a2.93 2.93 0 104.15 4.15l7.45-7.45a3 3 0 000-4.15zm-16.2-9.41a2.92 2.92 0 00-4 1l-10.53 17.9a2.93 2.93 0 001 4 2.83 2.83 0 001.53.51 2.94 2.94 0 002.53-1.45L271 174.6a2.93 2.93 0 00-1-4.01z" transform="translate(-188.25 -142)"/></svg>