<svg id="is2" xmlns="http://www.w3.org/2000/svg" width="150" height="150"><defs><style>.cls-1{fill:#f69341}</style></defs><path class="cls-1" d="M308.31 123.81a2.93 2.93 0 00-2.13-2.13 93.58 93.58 0 00-84.87 20.57l-2.56-.8a42.7 42.7 0 00-43 10.6L162 165.81a3 3 0 000 4.15l17.74 17.73 3.37 3.38-8.9 8.9a3 3 0 000 4.15l8 8-9.61 24.58a2.93 2.93 0 003.63 3.85l5-1.6-6.3 12.36a2.93 2.93 0 003.94 3.94l12.32-6.32-1.59 5a2.93 2.93 0 002.78 3.83 3.07 3.07 0 001.07-.2l24.55-9.71 8 8a2.93 2.93 0 004.15 0l8.9-8.9 3.35 3.34L260 268a2.93 2.93 0 004.15 0l13.75-13.76a42.69 42.69 0 0010.61-43l-.8-2.56a93.65 93.65 0 0020.57-84.87zm-126.49 57.66l-13.59-13.59 11.68-11.68a36.84 36.84 0 0136.51-9.33zM197 249.76l1.88-5.8a2.93 2.93 0 00-4.12-3.51l-10.57 5.41 5.4-10.58a2.93 2.93 0 00-3.51-4.12l-5.8 1.87 6.43-16.42 26.72 26.72zm31-.17l-7.2-7.2-33.09-33.09-7.28-7.3 6.84-6.83 47.54 47.54zm45.81.49l-11.68 11.68-13.59-13.59 34.6-34.6a36.84 36.84 0 01-9.35 36.51zm5.81-41.28L244.37 244 186 185.62l5.79-5.78 13.34 13.34a2.88 2.88 0 002.07.86 2.93 2.93 0 002.08-5l-13.35-13.35 25.3-25.3A88.21 88.21 0 01303 126.94a88.23 88.23 0 01-23.4 81.86z" transform="translate(-161.15 -118.83)"/><path class="cls-1" d="M217.11 196.91a2.93 2.93 0 00-4.15 4.15 2.93 2.93 0 104.15-4.15zm65.01-33.2a2.93 2.93 0 10-5.28 2.53A27.86 27.86 0 01232 198a27.86 27.86 0 0131.78-44.81 2.93 2.93 0 002.54-5.28 33.73 33.73 0 1015.79 15.82z" transform="translate(-161.15 -118.83)"/><path class="cls-1" d="M275.61 154.5l-.05-.05a2.93 2.93 0 10-4.16 4.13h.05a2.93 2.93 0 104.16-4.13zm-27.82 6.5h-10.86a2.93 2.93 0 00-2.93 2.93v10.79a3 3 0 106 .07V167h7.72a3 3 0 10.07-6zM263 182.28V190h-7.72a3 3 0 10-.07 6h10.86a2.93 2.93 0 002.93-2.93v-10.86a3 3 0 10-6 .07zm1.59-7.34a2.92 2.92 0 00-3.57-2.1l-20.1 5.22a2.93 2.93 0 00.73 5.77 3.14 3.14 0 00.74-.1l20.1-5.22a2.93 2.93 0 002.1-3.57zm-91.89 82.35a3 3 0 00-4.15 0l-6.55 6.54a3 3 0 000 4.15 2.95 2.95 0 004.14 0l6.55-6.55a2.93 2.93 0 00.01-4.14zm14.06 1.76a2.92 2.92 0 00-4.14 0l-4.79 4.78a3 3 0 000 4.15 2.91 2.91 0 002.07.85 3 3 0 002.1-.83l4.78-4.79a2.92 2.92 0 00-.02-4.16zm-14.99-15.77a2.92 2.92 0 00-4.14 0l-5.63 5.61a3 3 0 000 4.15 2.95 2.95 0 004.14 0l5.62-5.62a2.92 2.92 0 00.01-4.14z" transform="translate(-161.15 -118.83)"/></svg>