<svg id="sol1" xmlns="http://www.w3.org/2000/svg" width="100.09" height="99.9"><defs><style>.cls-1{fill:#d13927}</style></defs><path class="cls-1" d="M56.6 63.3a16.7 16.7 0 1016.7-16.7 16.73 16.73 0 00-16.7 16.7zM73.3 50A13.3 13.3 0 1160 63.3 13.36 13.36 0 0173.3 50zm-9.5 46.7h19v3.3h-19zM56.6 90H90v3.3H56.6zM20 90h3.3v3.3H20zm-10 3.3h3.3v3.3H10z" transform="translate(.09 -.1)"/><path class="cls-1" d="M20.2 80.6a127.17 127.17 0 0016-49.3l15.5 15.4a1.66 1.66 0 001.2.5h.3a1.59 1.59 0 001.2-.9 16.29 16.29 0 00-3.1-18.8l-1.4-1.4h11.7a1.69 1.69 0 001.7-1.7.75.75 0 00-.1-.5 16.25 16.25 0 00-15.4-11.1h-2.2L54 4.4a1.52 1.52 0 000-2.3c-.1-.1-.3-.2-.4-.3a16.26 16.26 0 00-18.8 3.1l-1.6 1.6c-.5.5-1 1.1-1.5 1.6a21 21 0 00-1.4-1.7l-1.6-1.5a16.11 16.11 0 00-18.8-3 1.35 1.35 0 00-.8 2V4a1.38 1.38 0 00.3.4l8.3 8.4h-2.2A16.47 16.47 0 000 23.9 1.65 1.65 0 001.1 26a.9.9 0 00.5.1h11.7L12 27.5a16.26 16.26 0 00-3 18.8 1.59 1.59 0 001.2.9h.3a1.61 1.61 0 001.1-.5L26 32.3A90.83 90.83 0 018.6 76.4 51.23 51.23 0 001.8 75l-1-.1-.4 3.3 1 .1a44.23 44.23 0 015 1 14.7 14.7 0 00-1 1.3l2.5 2.1a93.32 93.32 0 0021.8-54l1.9-1.9 1.4 1.4a121.7 121.7 0 01-21.1 59.2l2.7 1.9c1.3-1.9 2.6-3.8 3.8-5.8a58.7 58.7 0 0120.2 15.8l2.6-2.1a61.4 61.4 0 00-11.1-10.5H100v-3.3H25.2a35.3 35.3 0 00-5-2.8zm32.1-38.1L34.6 25a12.92 12.92 0 0112.7 3.2l1.6 1.6a12.79 12.79 0 013.4 12.7zm6.8-19.7H45.3A15.89 15.89 0 0035 21.6a12.8 12.8 0 0110.5-5.4h2.3a12.52 12.52 0 0111.3 6.6zm-23.7-14L37 7.2a13 13 0 0112.7-3.3l-9.9 9.9a16.7 16.7 0 00-7.9 6.2 12.81 12.81 0 013.5-11.2zm-9.1-1.6l1.6 1.6a15 15 0 011.9 2.5 15.25 15.25 0 00-1.3 5.5 16.34 16.34 0 00-5.1-3l-9.9-10a13 13 0 0112.8 3.4zm-10.8 9h2.3a12.8 12.8 0 0110.5 5.4A16.56 16.56 0 0018 22.8H4.2a12.71 12.71 0 0111.3-6.6zm-4.4 26.3a13 13 0 013.3-12.7l1.6-1.6a12.63 12.63 0 019-3.7 15.68 15.68 0 013.7.5z" transform="translate(.09 -.1)"/></svg>