<svg id="sol2" xmlns="http://www.w3.org/2000/svg" width="100" height="100"><defs><style>.cls-1{fill:#d13927}</style></defs><path class="cls-1" d="M255.18 190.47a2 2 0 102 1.95 2 2 0 00-2-1.95zM274.76 227h-5.86v-5.86a1.95 1.95 0 10-3.9 0V227h-5.86a2 2 0 100 3.91H265v5.86a1.95 1.95 0 003.9 0v-5.87h5.86a2 2 0 000-3.91z" transform="translate(-233.26 -165.86)"/><path class="cls-1" d="M331.18 228.75A15.54 15.54 0 00309.9 223l-7.9 4.61v-17a9.82 9.82 0 00-1.95-5.86l-9.73-13v-5.54a5.88 5.88 0 003.89-5.53v-9a5.86 5.86 0 00-5.84-5.86h-41.48a5.86 5.86 0 00-5.84 5.86v9a5.88 5.88 0 003.9 5.53v5.54l-9.74 13a9.89 9.89 0 00-2 5.86v37.82a9.76 9.76 0 009.74 9.77h37.71a15.53 15.53 0 0021.16 5.52l23.61-13.67a15.66 15.66 0 005.75-21.3zm-86.23-57a1.94 1.94 0 011.94-1.95h41.47a2 2 0 011.95 1.95v9a2 2 0 01-1.95 2h-41.47a2 2 0 01-1.94-2v-9zm-6.62 35.41l10.12-13.54a1.87 1.87 0 00.39-1.17v-5.86h37.57v3.91h-22.74a2 2 0 000 3.91h23.72l9.54 12.75a5.92 5.92 0 011.12 2.87H237.2a5.93 5.93 0 011.13-2.9zm4.67 47.2a5.85 5.85 0 01-5.84-5.86v-2H279a15.63 15.63 0 00.1 7.83zm37.48-11.71h-43.32v-28.74h60.94v16l-11.81 6.83a15.51 15.51 0 00-5.81 5.88zm19.44 17.76a11.71 11.71 0 01-11.68-20.3l10.57-6.11 11.68 20.3zm23.61-13.67l-9.67 5.6L302.18 232l9.67-5.6a11.71 11.71 0 0111.68 20.3z" transform="translate(-233.26 -165.86)"/></svg>