<svg xmlns="http://www.w3.org/2000/svg" width="100" height="100"><defs><style>.cls-1{fill:#d13927}</style></defs><g id="l1"><circle class="cls-1" cx="12" cy="12" r="4"/><circle class="cls-1" cx="88" cy="12" r="4"/><circle class="cls-1" cx="78" cy="12" r="4"/><circle class="cls-1" cx="68" cy="12" r="4"/><rect class="cls-1" x="18" y="8" width="44" height="8" rx="4"/><rect x="2" y="2" width="96" height="96" rx="7.83" stroke-miterlimit="10" fill="none" stroke="#d13927" stroke-width="4"/></g><g id="l2_copy_4" data-name="l2 copy 4"><path class="cls-1" d="M8 20h66v20H8z"/><path d="M8 44h26v14H8zm0 17h26v14H8zm0 17h26v14H8zm29-34h26v14H37zm0 17h26v14H37zm0 17h26v14H37zm29-17h26v14H66zm0 17h26v14H66z" fill="#f69341"/><circle cx="73.5" cy="38.5" r="20" stroke="#fff" stroke-width="3" stroke-miterlimit="10" fill="#d13927"/></g></svg>