<svg xmlns="http://www.w3.org/2000/svg" width="100" height="100"><defs><style>.cls-1{fill:#d13927}</style></defs><g id="l1"><circle class="cls-1" cx="12" cy="12" r="4"/><circle class="cls-1" cx="88" cy="12" r="4"/><circle class="cls-1" cx="78" cy="12" r="4"/><circle class="cls-1" cx="68" cy="12" r="4"/><rect class="cls-1" x="18" y="8" width="44" height="8" rx="4"/><rect x="2" y="2" width="96" height="96" rx="7.83" stroke-miterlimit="10" fill="none" stroke="#d13927" stroke-width="4"/></g><g id="l2"><path class="cls-1" d="M8 20h84v32H8z"/><path d="M37 55h26v17H37zM8 55h26v17H8zm58 0h26v17H66zM37 75h26v17H37zM8 75h26v17H8zm58 0h26v17H66z" fill="#f69341"/><circle cx="50" cy="39" r="20" stroke="#fff" stroke-width="3" stroke-miterlimit="10" fill="#d13927"/></g></svg>