<svg id="Layer_2" data-name="Layer 2" xmlns="http://www.w3.org/2000/svg" viewBox="0 0 40 164"><defs><style>.cls-1{fill:#f58020}</style></defs><path class="cls-1" d="M587.55 4.77h-1.61V2.36h17.76a14.49 14.49 0 013.88.44l.51.18c.17.06.33.14.5.21a7.93 7.93 0 012.29 1.66c.22.23.42.47.61.71s.37.49.53.74a7.67 7.67 0 011.23 4.19v.32h-2.12v-.32a5 5 0 00-.51-2.22 3.79 3.79 0 00-.18-.34 6.92 6.92 0 00-1.35-1.63 5 5 0 00-.52-.39 3.68 3.68 0 00-.58-.34 9.22 9.22 0 00-4.09-.8h-2.66a10 10 0 014.12 8.56 11 11 0 01-.82 4.24c-.09.21-.19.42-.29.63a11.59 11.59 0 01-2.17 3 11.34 11.34 0 01-3.58 2.5 10.86 10.86 0 01-8.47 0l-.54-.26-.53-.28a11.37 11.37 0 01-2.42-1.82l-.41-.43q-.2-.21-.39-.45a10.69 10.69 0 01-1.58-2.63 10.13 10.13 0 01-.65-2.09 10.73 10.73 0 01-.22-2.2 10.91 10.91 0 01.63-3.71c.07-.19.14-.38.22-.56a11 11 0 011.64-2.71l.16-.19.16-.18a11 11 0 01.91-.9l.17-.15.18-.15.15-.11zm6.62 17.36a7.56 7.56 0 001.72-.19l.55-.13a8.65 8.65 0 001.07-.4 9.15 9.15 0 001.5-.86 9.1 9.1 0 001.29-1.11c.11-.11.21-.22.32-.35s.21-.24.3-.36a9.71 9.71 0 001.27-2.1 8.24 8.24 0 00.7-3.29 8 8 0 00-.66-3.25c-.07-.16-.15-.32-.23-.48a8.63 8.63 0 00-1.74-2.29 8.84 8.84 0 00-2.79-1.84 8.54 8.54 0 00-3.25-.61 8.26 8.26 0 00-1.65.18l-.26.07a6.79 6.79 0 00-1.31.46l-.43.21-.41.23a8.87 8.87 0 00-1.88 1.46 10 10 0 00-1 1.29 10.37 10.37 0 00-.8 1.47q-.17.39-.3.78c-.08.26-.15.52-.21.79a8.47 8.47 0 00-.17 1.68 7.67 7.67 0 00.18 1.66l.07.27a8.23 8.23 0 00.45 1.32 9.85 9.85 0 00.8 1.47 9.38 9.38 0 001 1.29 8.57 8.57 0 001.27 1.07 8.17 8.17 0 001.44.83 6.92 6.92 0 001.57.53 7.34 7.34 0 001.63.18zM583.48 76a11.3 11.3 0 01.22-2.19 9.67 9.67 0 01.64-2l.25-.54c.09-.18.19-.36.28-.52a11 11 0 013.4-3.71 10.91 10.91 0 011.84-1l.56-.22.56-.19a10.63 10.63 0 013.06-.43 9.56 9.56 0 014.09.9l.54.26.53.29a12 12 0 012.43 1.84c.15.14.29.29.41.42.13.14.27.29.4.46a12 12 0 011.69 2.63c.08.18.16.38.24.57s.14.39.2.58a10.22 10.22 0 01.48 3.12 10 10 0 01-.88 4.15 11.08 11.08 0 01-1 1.82 10.58 10.58 0 01-1.33 1.59 11.22 11.22 0 01-1.6 1.32 12.51 12.51 0 01-1.83 1 10.25 10.25 0 01-4.15.87 10.13 10.13 0 01-2.13-.22c-.22 0-.45-.1-.68-.16a13.67 13.67 0 01-1.36-.47 11 11 0 01-1.88-1 10.38 10.38 0 01-1.64-1.33l-.4-.42q-.21-.22-.39-.45a11.49 11.49 0 01-1.6-2.61 9.67 9.67 0 01-.69-2.09 10.88 10.88 0 01-.23-2.23zm2.4 0a8.51 8.51 0 00.63 3.3 7.59 7.59 0 00.49 1 9.25 9.25 0 001.39 1.8 8.64 8.64 0 002.83 1.9 9.06 9.06 0 003.37.62 8.27 8.27 0 001.66-.17 8.16 8.16 0 001.56-.52 8.57 8.57 0 001.42-.81 8.75 8.75 0 001.23-1 9.54 9.54 0 001-1.27 10.32 10.32 0 00.79-1.47c.06-.14.11-.29.17-.44 0-.14.1-.29.14-.44a8.18 8.18 0 00.34-2.37 7.43 7.43 0 00-.18-1.64l-.07-.27a7.72 7.72 0 00-.48-1.29 10.34 10.34 0 00-.86-1.44 9.13 9.13 0 00-1.09-1.24l-.35-.31-.36-.3a9.64 9.64 0 00-2-1.21c-.15-.07-.29-.12-.43-.17l-.44-.15a7.52 7.52 0 00-2.27-.34 8.25 8.25 0 00-6 2.46 8.52 8.52 0 00-.65.71 6.46 6.46 0 00-.54.75 8 8 0 00-1.3 4.31zm-2.4 61.82a11.3 11.3 0 01.22-2.19 9.49 9.49 0 01.64-2l.25-.54c.09-.18.19-.36.28-.52a10.73 10.73 0 011.8-2.38 10.18 10.18 0 011.6-1.33 12.57 12.57 0 011.83-1l.56-.22.56-.19a10.63 10.63 0 013.06-.43 9.67 9.67 0 012.08.22 10.31 10.31 0 012 .67l.54.26.53.29a12 12 0 012.43 1.84c.15.15.29.29.41.43.13.14.27.29.4.46a12 12 0 011.64 2.63l.24.58c.07.19.14.39.2.58a10.17 10.17 0 01.48 3.12 10 10 0 01-.88 4.15 11.08 11.08 0 01-1 1.82 10.58 10.58 0 01-1.33 1.59 11.22 11.22 0 01-1.6 1.32 11.61 11.61 0 01-1.83 1 9.36 9.36 0 01-2 .66 10 10 0 01-2.13.22 10.13 10.13 0 01-2.13-.22c-.22 0-.45-.1-.68-.16a11.58 11.58 0 01-1.36-.48 11.28 11.28 0 01-3.52-2.34l-.4-.42-.39-.45a11.49 11.49 0 01-1.6-2.61 9.67 9.67 0 01-.69-2.09 10.88 10.88 0 01-.23-2.23zm2.4 0a8.51 8.51 0 00.63 3.3 7.59 7.59 0 00.49 1 9.31 9.31 0 001.4 1.8 8.64 8.64 0 002.82 1.84 9.06 9.06 0 003.37.62 7.61 7.61 0 001.66-.18 7.49 7.49 0 001.56-.51 8.57 8.57 0 001.42-.81 8.75 8.75 0 001.23-1 9.54 9.54 0 001-1.27 10.32 10.32 0 00.79-1.47c.06-.14.11-.29.17-.44 0-.14.1-.29.14-.45a8.12 8.12 0 00.34-2.36 7.43 7.43 0 00-.18-1.64l-.07-.27a7.72 7.72 0 00-.48-1.29 9.34 9.34 0 00-2-2.69c-.11-.11-.23-.21-.35-.31l-.36-.3a9.64 9.64 0 00-2-1.21c-.15-.07-.29-.12-.43-.17l-.44-.15a7.52 7.52 0 00-2.27-.34 8.25 8.25 0 00-6 2.46 8.52 8.52 0 00-.65.71 6.46 6.46 0 00-.54.75 8 8 0 00-1.28 4.48zm19.05 26.37v2.17H573.3v-5.8a7.47 7.47 0 01.79-3.5 6.39 6.39 0 012.36-2.49 5.1 5.1 0 01.77-.4 6.37 6.37 0 01.79-.3 8.33 8.33 0 01.84-.17 6.15 6.15 0 01.87-.06 7.51 7.51 0 011.2.09l.37.07a5.24 5.24 0 011.66.62 3.06 3.06 0 01.36.23 3.85 3.85 0 01.34.26 6.72 6.72 0 011.49 1.78 6 6 0 01.47.91 4.89 4.89 0 01.29 1v.22a7.55 7.55 0 010 .83v4.16h18.9v.32zm-29.26-3.71v3.39h8v-3.55a4.46 4.46 0 00-.47-2.1 3.91 3.91 0 00-1.42-1.47 3.44 3.44 0 00-1-.43 4.09 4.09 0 00-1.12-.14 3.76 3.76 0 00-1.59.31 3.56 3.56 0 00-1.27.94c-.1.12-.2.24-.29.37a2.55 2.55 0 00-.24.39 4.46 4.46 0 00-.57 2.28zm7.92-13.16h2.24v.32a7.86 7.86 0 001.06 4.13 5.41 5.41 0 00.45.65 6.2 6.2 0 00.54.61 6.8 6.8 0 002.06 1.39l.48.18a10.14 10.14 0 003.44.54h11v2.4h-11.05a12.33 12.33 0 01-4.33-.72 9.45 9.45 0 01-3.41-2.15 8.78 8.78 0 01-1.84-2.54c-.09-.19-.18-.38-.25-.57a10.86 10.86 0 01-.7-3.92v-.32zm-1-81.46v-3.35h-3.18V60.1h3.18v-4.84h2.09v4.84h12.75a5 5 0 003.81-1.34c.11-.13.23-.25.33-.39a4.27 4.27 0 00.29-.41 4.51 4.51 0 00.66-2.38v-.32h2.39v.32a6.9 6.9 0 01-.14 1.44 6.52 6.52 0 01-.4 1.37c0 .13-.11.26-.16.37-.06.12-.12.24-.19.36a6.48 6.48 0 01-1.32 1.61l-.31.26-.32.23a6 6 0 01-1.78.87 8.41 8.41 0 01-1.34.3 9.32 9.32 0 01-1.4.1h-12.87v3.67h-2.09v-.32z" transform="translate(-573.3 -2.36)"/><path class="cls-1" d="M31.62 47.45v2.12H12.3v-2.44h19.32v.32z"/><path class="cls-1" d="M593.8 106h11.08v2.37h-11a10.43 10.43 0 00-3.45.52 6.89 6.89 0 00-2.56 1.53 7.34 7.34 0 00-.53.6 5.55 5.55 0 00-.45.63 7.25 7.25 0 00-1.06 4 8.07 8.07 0 00.51 2.92q.09.19.18.42a6.79 6.79 0 001.35 1.9 7.42 7.42 0 001.32 1 9.42 9.42 0 004.68 1.06h11v2.36h-11.06a12.57 12.57 0 01-4.33-.7 9.61 9.61 0 01-3.41-2.1 8.71 8.71 0 01-2.1-3 10.2 10.2 0 01-.69-3.83 10 10 0 01.7-3.83 8.81 8.81 0 012.09-3 9.28 9.28 0 011.36-1.07c.29-.19.59-.37.91-.54l-.27-.14a9.86 9.86 0 01-2-1.46 8.59 8.59 0 01-2.09-3 10.83 10.83 0 010-7.66 8.55 8.55 0 012.09-3 9.61 9.61 0 013.41-2.1 12.6 12.6 0 014.33-.71h11.07v2.37h-11a10.67 10.67 0 00-3.44.52l-.48.18a7.08 7.08 0 00-2.07 1.36 7.23 7.23 0 00-.53.59 5.55 5.55 0 00-.45.63 7.27 7.27 0 00-1.06 4 8.12 8.12 0 00.51 2.93l.18.42a6.61 6.61 0 003.87 3.43 10.41 10.41 0 003.41.51zm-7.92-69.68a7.87 7.87 0 001.06 4.14 5.41 5.41 0 00.45.65 6.09 6.09 0 00.53.61 6.7 6.7 0 002.08 1.4 4.78 4.78 0 00.48.19 10.15 10.15 0 003.44.53h11v2.41h-11.06a12.33 12.33 0 01-4.33-.72 9.68 9.68 0 01-3.42-2.15 8.74 8.74 0 01-2.08-3.1 11.3 11.3 0 010-7.83 8.82 8.82 0 012.08-3.1 9.86 9.86 0 013.42-2.15 12.33 12.33 0 014.33-.72h11.07v2.41h-11a10.42 10.42 0 00-3.45.53 6.71 6.71 0 00-3.91 3.51c-.07.14-.13.29-.18.42a8.05 8.05 0 00-.52 3z" transform="translate(-573.3 -2.36)"/></svg>