<svg id="Layer_1" data-name="Layer 1" xmlns="http://www.w3.org/2000/svg" viewBox="0 0 50 52"><defs><style>.cls-1{fill:#f58020;fill-rule:evenodd}</style></defs><path class="cls-1" d="M50 52c-4.48-28.66-35.12-17.6-50 0 18.42-13 41.08-16.73 50 0z" transform="translate(0 -.04)"/><path d="M38.8 21.76a11.79 11.79 0 00.31-2.29 16.58 16.58 0 00-.4-2.62 5.93 5.93 0 01-.17-2.68 3 3 0 011.38-1.82A2.52 2.52 0 0142 12a2.56 2.56 0 011.66 1.32 3 3 0 01.24 2.33 5.75 5.75 0 01-1.47 2.28 12.88 12.88 0 00-1.6 2 12.72 12.72 0 00-1 2.19 12 12 0 002.3-.47 14.86 14.86 0 002.26-1.21 4.62 4.62 0 013.52-.87 2.69 2.69 0 011.68 1.23 2.41 2.41 0 01.29 1.94 2.6 2.6 0 01-1.45 1.67 3.65 3.65 0 01-2.66.17c-.34-.09-.93-.27-1.79-.55-.4-.12-.83-.25-1.3-.37-.63-.17-1.59-.38-2.87-.66a13.05 13.05 0 001.25 2 14.88 14.88 0 001.77 1.78A6.11 6.11 0 0144.55 29a2.6 2.6 0 010 1.74 2.64 2.64 0 01-3.23 1.9 2.77 2.77 0 01-1.72-1.42 6 6 0 01-.35-3.5 12.31 12.31 0 00.14-2.27 13.5 13.5 0 00-.49-2.27A13.31 13.31 0 0037.23 25a10.9 10.9 0 00-1 2 6 6 0 01-2 2.84 2.81 2.81 0 01-2.19.34A2.61 2.61 0 0130.39 29a2.32 2.32 0 01-.17-2 3.09 3.09 0 011-1.64 6.74 6.74 0 012.54-1.08 23.25 23.25 0 002.47-.71 16.77 16.77 0 002.11-1.08l-2.68-.82c-.48-.12-.93-.24-1.36-.33-1-.2-1.7-.35-2.08-.45a3.57 3.57 0 01-2.15-1.43 2.53 2.53 0 01-.39-2.15 2.59 2.59 0 011.23-1.59 2.72 2.72 0 012.09-.19 4.42 4.42 0 012.66 2.33 25 25 0 001.41 2.34 12.75 12.75 0 001.72 1.56z" transform="translate(0 -.04)" fill="#f58020"/><path class="cls-1" d="M32.51 30.45a10 10 0 01-13.91-1.33 9.77 9.77 0 011.29-13.76h.05a4 4 0 015.56.53 3.89 3.89 0 01-.5 5.49 5.87 5.87 0 00-.83 8.26 6 6 0 008.34.81zM28.29 0a6.7 6.7 0 11-6.75 6.69A6.7 6.7 0 0128.29 0z" transform="translate(0 -.04)"/></svg>