<svg id="promoting" xmlns="http://www.w3.org/2000/svg" width="150" height="75"><defs><style>.cls-1,.cls-2{fill:#999}.cls-2{fill-rule:evenodd}</style></defs><path class="cls-1" d="M110.18 87.25v-1.46h2.2V102a13.48 13.48 0 01-.39 3.54c0 .16-.1.32-.16.48l-.2.45a7 7 0 01-1.51 2.08 8.39 8.39 0 01-.65.56c-.22.17-.45.33-.67.48a7.08 7.08 0 01-3.84 1.13h-.29v-1.94h.3a4.68 4.68 0 002-.46l.31-.17a6.2 6.2 0 001.49-1.23 3.43 3.43 0 00.36-.47 3.88 3.88 0 00.31-.53 8.29 8.29 0 00.73-3.73v-2.44a9.13 9.13 0 01-7.83 3.76 10.22 10.22 0 01-3.89-.76 5.65 5.65 0 01-.57-.26 10.63 10.63 0 01-2.73-2 10.19 10.19 0 01-2.28-3.27 9.56 9.56 0 01-.77-3.83 9.42 9.42 0 01.81-3.87l.23-.5c.08-.16.17-.32.26-.48a10.57 10.57 0 011.66-2.21l.39-.38.41-.35a10.06 10.06 0 012.41-1.44 9.85 9.85 0 011.91-.6 10.4 10.4 0 012-.19 10.07 10.07 0 013.4.57l.51.2a10.09 10.09 0 012.48 1.49l.17.15.26.22a9.06 9.06 0 01.82.82l.14.16.14.17.1.13zm-15.88 6a7.38 7.38 0 00.17 1.56c0 .17.08.34.13.5a7.28 7.28 0 00.37 1 7.88 7.88 0 00.78 1.36 8.08 8.08 0 001 1.18l.32.29.33.28a9.77 9.77 0 001.92 1.15 7.87 7.87 0 003 .64 7.3 7.3 0 003-.6l.44-.21a8.56 8.56 0 003.78-4.13 7.7 7.7 0 00.56-3 6.82 6.82 0 00-.16-1.5l-.06-.24a6.58 6.58 0 00-.42-1.2c-.06-.13-.12-.26-.19-.39s-.13-.25-.21-.38a7.57 7.57 0 00-1.33-1.7 8.26 8.26 0 00-1.18-1 8 8 0 00-1.35-.73 6.77 6.77 0 00-.71-.26 6 6 0 00-.73-.19 7.1 7.1 0 00-1.53-.16 6.91 6.91 0 00-1.51.16h-.25a5.87 5.87 0 00-1.2.41 7.59 7.59 0 00-1.35.73 7.74 7.74 0 00-1.18 1 8.27 8.27 0 00-1 1.15 8.45 8.45 0 00-.74 1.4 6.91 6.91 0 00-.49 1.43 7.29 7.29 0 00-.16 1.48zM45 83.55a10.23 10.23 0 012 .2 9.42 9.42 0 011.87.58l.49.23.48.25a10.1 10.1 0 013.4 3.1 10.44 10.44 0 01.92 1.68c.08.17.14.34.21.5s.12.35.17.52a9.92 9.92 0 01.4 2.8 8.47 8.47 0 01-.21 1.88 9 9 0 01-.61 1.84c-.07.16-.15.32-.24.49a5.42 5.42 0 01-.26.48 11.22 11.22 0 01-1.62 2.24c-.13.14-.26.26-.39.38s-.26.24-.41.36a10.83 10.83 0 01-2.41 1.5l-.52.22-.53.19a9.68 9.68 0 01-4.81.23 8.79 8.79 0 01-1.84-.6 10.05 10.05 0 01-1.67-.93 9.31 9.31 0 01-1.45-1.21 10 10 0 01-1.3-1.48 10.88 10.88 0 01-.94-1.67 9.33 9.33 0 01-.6-1.83 9.68 9.68 0 01-.2-1.94 9.58 9.58 0 01.2-1.93c0-.2.09-.41.15-.62a10.68 10.68 0 01.43-1.24 10.53 10.53 0 01.93-1.72 9.6 9.6 0 011.22-1.48 4.51 4.51 0 01.39-.37 4.59 4.59 0 01.41-.36 11 11 0 012.38-1.46 9.91 9.91 0 011.96-.62 9.8 9.8 0 012-.21zm0 2.18a7.94 7.94 0 00-3 .58 5.66 5.66 0 00-.89.44A7.91 7.91 0 0039.42 88a7.88 7.88 0 00-1.68 2.57 8.3 8.3 0 00-.56 3.07 7.51 7.51 0 00.15 1.51 7.42 7.42 0 00.48 1.42 8.73 8.73 0 00.74 1.3 7.72 7.72 0 001 1.11 8.75 8.75 0 001.16.93 8.64 8.64 0 001.35.71l.4.16.41.13a7.83 7.83 0 002.16.31 6.69 6.69 0 001.5-.17l.25-.06a7 7 0 001.18-.44 9.55 9.55 0 001.32-.78 9.65 9.65 0 001.13-1c.09-.1.19-.2.28-.31l.28-.33a8.61 8.61 0 001.1-1.85 4 4 0 00.16-.39c0-.14.1-.27.14-.4a7.19 7.19 0 00.31-2.06A7.54 7.54 0 0050.45 88c-.22-.21-.43-.41-.65-.59a6.63 6.63 0 00-.69-.49A7.34 7.34 0 0045 85.73zm-56.51-2.18a10.2 10.2 0 012 .2 9.22 9.22 0 011.87.58l.49.23.48.25a10.3 10.3 0 012.18 1.64 9.87 9.87 0 011.21 1.46 10.47 10.47 0 01.93 1.67l.2.5c.07.18.12.35.17.52a9.57 9.57 0 01.4 2.8 9.09 9.09 0 01-.2 1.88 9.06 9.06 0 01-.62 1.84l-.24.49c-.09.17-.17.33-.26.48a11.27 11.27 0 01-1.69 2.21l-.39.38-.42.36a10.61 10.61 0 01-2.41 1.5l-.52.22-.54.19a9.69 9.69 0 01-2.85.43 9.63 9.63 0 01-1.95-.2 8.61 8.61 0 01-1.84-.6 9.31 9.31 0 01-1.67-.93 9.87 9.87 0 01-1.46-1.21A10.66 10.66 0 01-19.85 99a10.88 10.88 0 01-.94-1.67 8.71 8.71 0 01-.6-1.83 9 9 0 01-.2-1.94 9.58 9.58 0 01.2-1.93c0-.2.09-.41.15-.62a9.09 9.09 0 01.43-1.24 10.53 10.53 0 01.93-1.72 9.54 9.54 0 011.21-1.48c.13-.13.26-.26.39-.37l.41-.36a11.07 11.07 0 012.39-1.46 9.69 9.69 0 011.91-.62 9.8 9.8 0 012-.21zm0 2.18a7.92 7.92 0 00-3 .58 6.24 6.24 0 00-.9.44A8.52 8.52 0 00-17.1 88a7.72 7.72 0 00-1.68 2.57 8.1 8.1 0 00-.57 3.07 7.51 7.51 0 00.16 1.51 7.39 7.39 0 00.47 1.42A8.26 8.26 0 00-18 97.9a8.4 8.4 0 001 1.1 8.85 8.85 0 001.17.93 8.54 8.54 0 001.34.71 3.7 3.7 0 00.4.16l.41.13a7.72 7.72 0 002.16.31 6.83 6.83 0 001.5-.17l.24-.06a7 7 0 001.18-.44 9 9 0 001.32-.78 9 9 0 001.14-1c.1-.1.2-.2.29-.31l.27-.33a8.65 8.65 0 001.11-1.85c.06-.13.11-.27.16-.39 0-.14.09-.27.13-.4a6.86 6.86 0 00.31-2.06A7.5 7.5 0 00-6.07 88c-.21-.21-.43-.41-.65-.59a7.76 7.76 0 00-.68-.49 7.36 7.36 0 00-4.1-1.17zm-24.12 17.36h-2V74.28h5.31a6.89 6.89 0 013.2.71 5.89 5.89 0 012.28 2.16 7.55 7.55 0 01.37.69 5.39 5.39 0 01.27.73 6.41 6.41 0 01.16.76 6.84 6.84 0 01.05.79 7.69 7.69 0 01-.08 1.1q0 .15-.06.33a4.8 4.8 0 01-.58 1.51 3 3 0 01-.21.33 3.24 3.24 0 01-.24.31 6.09 6.09 0 01-1.63 1.36 5.49 5.49 0 01-.84.42 5 5 0 01-.93.27h-.21a4.9 4.9 0 01-.77.05h-3.81v17.22zm3.39-26.66h-3.1v7.28h3.25a4.07 4.07 0 001.93-.43A3.47 3.47 0 00-28.81 82a3.39 3.39 0 00.39-.89 4.25 4.25 0 00.13-1 3.61 3.61 0 00-.28-1.45 3.31 3.31 0 00-.87-1.16l-.34-.27-.36-.22a4.18 4.18 0 00-2.09-.52zm12.04 7.22v2h-.29a7.28 7.28 0 00-3.78 1 5.46 5.46 0 00-.6.42 5 5 0 00-.55.48 6.16 6.16 0 00-1.27 1.89c-.06.14-.12.29-.17.43a9.43 9.43 0 00-.5 3.13v10h-2.2V93a11.11 11.11 0 01.66-4 8.8 8.8 0 012-3.12 8.06 8.06 0 012.32-1.67l.52-.23a9.77 9.77 0 013.59-.64h.3v.28zm74.5-.91h3.07v-2.9h2.2v2.9H64v1.9h-4.43v11.62a4.57 4.57 0 001.23 3.47c.11.11.23.21.35.31l.38.26a4.18 4.18 0 002.18.6H64v2.18h-.29a6.42 6.42 0 01-1.32-.13 7 7 0 01-1.26-.36l-.34-.15-.33-.17a6.19 6.19 0 01-1.47-1.2 2.15 2.15 0 01-.23-.28 3.15 3.15 0 01-.22-.29 5.54 5.54 0 01-.79-1.62 7.2 7.2 0 01-.28-1.22 9 9 0 01-.09-1.28V84.64H54v-1.9z" transform="translate(37.62 -35.72)"/><path class="cls-1" d="M106.6 67.37h-1.94v-17.6h2.23v17.6h-.29z"/><path class="cls-1" d="M17.56 93v10h-2.17V93a9.84 9.84 0 00-.47-3.15 6.35 6.35 0 00-1.41-2.32 6.28 6.28 0 00-.54-.49c-.18-.14-.38-.28-.58-.41a6.71 6.71 0 00-3.63-1 7.17 7.17 0 00-2.67.47 3.89 3.89 0 00-.38.16 5.86 5.86 0 00-1.74 1.23 5.43 5.43 0 00-.49.57 5.23 5.23 0 00-.41.63 8.5 8.5 0 00-1 4.26v10H-.12V93a11.69 11.69 0 01.64-4 9 9 0 011.92-3.1A7.93 7.93 0 015.22 84a9.32 9.32 0 013.5-.64 9.29 9.29 0 013.5.64A8 8 0 0115 85.91a8.89 8.89 0 011 1.23 8.68 8.68 0 01.48.84l.13-.25a9.2 9.2 0 011.35-1.83 7.89 7.89 0 012.75-1.9 9.38 9.38 0 013.51-.64 9.27 9.27 0 013.49.64 7.83 7.83 0 012.77 1.91A8.86 8.86 0 0132.41 89a11.63 11.63 0 01.64 4v10h-2.17V93a9.44 9.44 0 00-.48-3.13c0-.15-.1-.29-.16-.43A6.26 6.26 0 0029 87.56a6.28 6.28 0 00-.54-.49c-.18-.14-.38-.28-.58-.41a6.71 6.71 0 00-3.63-1 7.17 7.17 0 00-2.67.47 3.2 3.2 0 00-.39.16 6 6 0 00-1.74 1.23A6.18 6.18 0 0018 89.84a9.51 9.51 0 00-.44 3.16zm63.77-7.27a7.19 7.19 0 00-3.78 1 5.33 5.33 0 00-.6.41 6.3 6.3 0 00-.55.48 6 6 0 00-1.27 1.89c-.06.14-.12.29-.17.43a9.45 9.45 0 00-.49 3.14v10h-2.2V93a11.15 11.15 0 01.66-3.94 8.81 8.81 0 012-3.11 7.89 7.89 0 012.84-1.9 10.3 10.3 0 017.15 0A8.06 8.06 0 0187.7 86a8.81 8.81 0 012 3.11 11.4 11.4 0 01.65 4v10.08h-2.2v-10a9.22 9.22 0 00-.49-3.15 6 6 0 00-1.44-2.32 6.11 6.11 0 00-1.76-1.24L84 86.2a7.56 7.56 0 00-2.71-.47z" transform="translate(37.62 -35.72)"/><path class="cls-2" d="M112.17 82.23c-4-25.67-31.45-15.78-44.77 0 16.49-11.66 36.79-15 44.77 0z" transform="translate(37.62 -35.72)"/><path class="cls-1" d="M102.14 55.18a10.34 10.34 0 00.28-2 14.17 14.17 0 00-.36-2.35 5.32 5.32 0 01-.15-2.4 2.68 2.68 0 011.23-1.62 2.3 2.3 0 011.84-.36 2.34 2.34 0 011.49 1.18 2.67 2.67 0 01.21 2.09 5.21 5.21 0 01-1.31 2 11.5 11.5 0 00-1.44 1.76 12.17 12.17 0 00-.86 2 11.07 11.07 0 002.06-.41 14.62 14.62 0 002-1.09 4.08 4.08 0 013.15-.77 2.38 2.38 0 011.5 1.09 2.16 2.16 0 01.26 1.74 2.31 2.31 0 01-1.3 1.49 3.31 3.31 0 01-2.38.15c-.31-.08-.83-.24-1.6-.49-.36-.11-.74-.22-1.17-.33s-1.42-.34-2.56-.59a12.18 12.18 0 001.1 1.92 12.82 12.82 0 001.59 1.59 5.54 5.54 0 011.54 2 2.39 2.39 0 010 1.55 2.32 2.32 0 01-1.11 1.46 2.27 2.27 0 01-1.76.24 2.53 2.53 0 01-1.55-1.27 5.29 5.29 0 01-.3-3.13 11 11 0 00.12-2 10.79 10.79 0 00-.44-2 11.55 11.55 0 00-1.5 1.58 10.27 10.27 0 00-.93 1.75 5.46 5.46 0 01-1.8 2.54 2.5 2.5 0 01-2 .3 2.38 2.38 0 01-1.44-1.06 2.09 2.09 0 01-.26-1.68 2.82 2.82 0 011-1.47 6 6 0 012.28-1 22 22 0 002.21-.63 17.32 17.32 0 001.89-1l-2.41-.73-1.21-.3c-.91-.18-1.53-.31-1.86-.4a3.18 3.18 0 01-1.92-1.28 2.3 2.3 0 01.74-3.34 2.43 2.43 0 011.99-.3 4 4 0 012.38 2.08c.63 1.13 1.06 1.83 1.26 2.1a11.24 11.24 0 001.54 1.39z" transform="translate(37.62 -35.72)"/><path class="cls-2" d="M96.51 63a8.92 8.92 0 01-12.46-1.19 8.73 8.73 0 011.2-12.34 3.56 3.56 0 015 .48 3.48 3.48 0 01-.48 4.93 5.25 5.25 0 00-.77 7.36 5.36 5.36 0 007.48.71zm-3.78-27.28a6 6 0 11-6 6 6 6 0 016-6z" transform="translate(37.62 -35.72)"/></svg>