<svg id="promoting" xmlns="http://www.w3.org/2000/svg" width="140" height="70"><defs><style>.cls-1,.cls-2{fill:#999}.cls-2{fill-rule:evenodd}</style></defs><path class="cls-1" d="M139.94 49.1v-1.37H142v15.13a12.69 12.69 0 01-.37 3.31 1.26 1.26 0 01-.15.45l-.18.41a6.8 6.8 0 01-1.41 2 7.49 7.49 0 01-.61.51c-.21.17-.42.31-.62.46a6.68 6.68 0 01-3.6 1h-.26v-1.81h.27a4.44 4.44 0 001.86-.43l.3-.16a5.47 5.47 0 001.39-1.15A5.12 5.12 0 00139 67a3 3 0 00.28-.49 7.85 7.85 0 00.69-3.48v-2.27a8.52 8.52 0 01-7.31 3.51 9.58 9.58 0 01-3.63-.71 5.05 5.05 0 01-.53-.24 9.59 9.59 0 01-2.55-1.87 9.44 9.44 0 01-2.13-3.09 8.81 8.81 0 01-.72-3.58 8.59 8.59 0 01.76-3.6l.21-.47a5.05 5.05 0 01.25-.45 9.71 9.71 0 011.54-2.06l.37-.36.38-.33a9.38 9.38 0 014-1.94 9 9 0 011.86-.19 9.51 9.51 0 013.17.54l.48.18a9.53 9.53 0 012.31 1.39l.16.15.24.2a9.32 9.32 0 01.77.77l.13.15.13.15.14.09zm-14.82 5.6a7.85 7.85 0 00.16 1.45 1.8 1.8 0 00.12.47 8 8 0 00.34 1 8.37 8.37 0 00.73 1.27 8.47 8.47 0 001 1.1l.3.27.31.26a8.79 8.79 0 001.79 1.08 7.24 7.24 0 002.8.59 6.93 6.93 0 002.8-.56l.41-.2a8 8 0 003.53-3.88 7.48 7.48 0 00.52-2.8 5.89 5.89 0 00-.16-1.4v-.23a6.46 6.46 0 00-.39-1.12 3.14 3.14 0 00-.18-.37c-.07-.11-.12-.23-.19-.35a7.37 7.37 0 00-1.25-1.59 7.28 7.28 0 00-1.1-1 7.66 7.66 0 00-1.26-.68c-.21-.09-.44-.18-.66-.25l-.68-.17a6.88 6.88 0 00-1.43-.15 6.69 6.69 0 00-1.41.15H131a5.3 5.3 0 00-1.12.39 5.89 5.89 0 00-1.26.68 6.6 6.6 0 00-1.16 1 7.63 7.63 0 00-1 1.07 10.08 10.08 0 00-.69 1.3 7 7 0 00-.45 1.34 6.5 6.5 0 00-.15 1.39zm-46-9.06a9 9 0 011.86.19 8.57 8.57 0 011.74.54l.46.22.45.23a9.36 9.36 0 013.18 2.92 9.14 9.14 0 01.85 1.57c.08.16.13.31.2.47a3.38 3.38 0 01.16.48 9.25 9.25 0 01.37 2.61 8.34 8.34 0 01-.77 3.49 3.88 3.88 0 01-.22.46 4.92 4.92 0 01-.24.45 11.06 11.06 0 01-1.54 2l-.37.35c-.11.11-.24.22-.38.34a10.49 10.49 0 01-2.17 1.44l-.48.2-.5.18a9 9 0 01-4.49.21 8 8 0 01-1.72-.56 9.44 9.44 0 01-2.91-2 9.35 9.35 0 01-1.21-1.38 10.31 10.31 0 01-.88-1.55 9.5 9.5 0 01-.51-1.7 10.11 10.11 0 01-.24-1.8 9.92 9.92 0 01.24-1.82 2.16 2.16 0 01.14-.57 11.33 11.33 0 01.4-1.16 10 10 0 01.87-1.61 9.28 9.28 0 011.14-1.38 4.12 4.12 0 01.37-.35 2.91 2.91 0 01.37-.33 10.2 10.2 0 012.23-1.37 9.71 9.71 0 011.83-.57 9.31 9.31 0 011.77-.2zm0 2a7.46 7.46 0 00-2.8.54 5.43 5.43 0 00-.84.41A7.22 7.22 0 0074 49.8a7.37 7.37 0 00-1.56 2.4 7.56 7.56 0 00-.53 2.86 6.76 6.76 0 00.09 1.41 6.52 6.52 0 00.45 1.33 7.17 7.17 0 00.69 1.2 6 6 0 001 1 6.43 6.43 0 001.08.87 7.56 7.56 0 001.26.66l.37.15.38.12a7 7 0 002 .29 6.59 6.59 0 001.4-.15l.24-.06a7.7 7.7 0 001.1-.41 10.2 10.2 0 001.23-.73 9.65 9.65 0 001-1c.09-.1.18-.19.26-.29l.27-.31a8.09 8.09 0 001-1.72c.06-.12.1-.25.15-.37a1.47 1.47 0 01.13-.37 6.44 6.44 0 00.29-2 7 7 0 00-2.08-5.06c-.2-.2-.4-.38-.6-.56s-.43-.31-.65-.45a6.74 6.74 0 00-3.87-1.06zm-52.75-2a9 9 0 011.87.19 8.86 8.86 0 011.75.54l.46.22.44.23a9.55 9.55 0 012 1.53 8.87 8.87 0 011.16 1.36 10.41 10.41 0 01.95 1.56l.18.47c.06.17.11.32.16.48a8.9 8.9 0 01.37 2.61 8 8 0 01-.19 1.76 7.81 7.81 0 01-.57 1.71l-.22.46-.25.46a10.69 10.69 0 01-1.61 2.06l-.37.35-.39.34a10.46 10.46 0 01-2.25 1.4l-.48.2-.51.18a9.57 9.57 0 01-2.66.4 9.19 9.19 0 01-1.84-.15 8.62 8.62 0 01-1.72-.55 10.08 10.08 0 01-2.92-2 9.59 9.59 0 01-1.12-1.34 10.36 10.36 0 01-.89-1.55 8.74 8.74 0 01-.55-1.71A8.5 8.5 0 0117 55a8.43 8.43 0 01.19-1.81 2.63 2.63 0 01.13-.57 8.84 8.84 0 01.41-1.16 9.71 9.71 0 012-3l.36-.35.39-.33a10.2 10.2 0 012.23-1.37 9.11 9.11 0 011.79-.57 9.73 9.73 0 011.87-.2zm0 2a7.46 7.46 0 00-2.8.54 4.93 4.93 0 00-.83.41 7.79 7.79 0 00-1.58 1.17 7 7 0 00-1.57 2.4 7.56 7.56 0 00-.53 2.86 6.76 6.76 0 00.15 1.41 7.15 7.15 0 00.44 1.33 7.33 7.33 0 00.67 1.24 7.26 7.26 0 001 1 8.41 8.41 0 001.1.87 7.37 7.37 0 001.24.66l.38.15.38.12a6.84 6.84 0 002 .29A6.59 6.59 0 0027.8 62l.23-.06a7.4 7.4 0 001.11-.41 10.09 10.09 0 001.22-.73 8.92 8.92 0 001.07-1l.27-.29.25-.31a8.38 8.38 0 001-1.72c0-.12.1-.25.14-.37a1.16 1.16 0 01.13-.37 6.77 6.77 0 00.29-2 7 7 0 00-2.06-5.08c-.2-.2-.4-.38-.6-.56a6.74 6.74 0 00-.64-.45 6.85 6.85 0 00-3.87-1.06zM3.87 63.88H2V37h5a6.4 6.4 0 013 .66 5.59 5.59 0 012.13 2 5 5 0 01.34.65 4 4 0 01.26.68c.06.23.11.47.15.71a4.45 4.45 0 010 .73 7.13 7.13 0 01-.07 1 1 1 0 01-.06.33 4.25 4.25 0 01-.54 1.41c-.06.1-.12.2-.19.3a3.25 3.25 0 01-.23.29 5.74 5.74 0 01-1.51 1.27 6.43 6.43 0 01-.79.39 5.13 5.13 0 01-.87.26H4.13v16.14zM7 39H4.11v6.8h3.06A3.74 3.74 0 009 45.4a3.38 3.38 0 001.27-1.19 3.25 3.25 0 00.35-.84 4 4 0 00.13-1 3.64 3.64 0 00-.26-1.35A3 3 0 009.64 40l-.31-.26-.33-.23A3.86 3.86 0 007.05 39zm11.27 6.72v1.87H18a7 7 0 00-3.53 1 4.29 4.29 0 00-.55.4 4.41 4.41 0 00-.52.45 5.56 5.56 0 00-1.18 1.76c-.06.13-.11.27-.16.4a8.69 8.69 0 00-.46 2.91v9.34H9.54v-9.38a10.32 10.32 0 01.61-3.73A8.1 8.1 0 0112 47.82a7.56 7.56 0 012.17-1.55l.49-.22a8.88 8.88 0 013.34-.59h.28v.26zm69.52-.83h2.92v-2.71h2.05v2.71h4.14v1.8h-4.19v10.82a4.24 4.24 0 001.15 3.23 3 3 0 00.33.29l.36.25a3.8 3.8 0 002 .55h.27v2h-.27a5.73 5.73 0 01-1.24-.12 7.81 7.81 0 01-1.17-.33l-.32-.15-.31-.15A6.16 6.16 0 0192.17 62l-.17-.27a1.39 1.39 0 01-.21-.27A4.8 4.8 0 0191 60a5.56 5.56 0 01-.27-1.14 9.67 9.67 0 01-.08-1.2V46.69h-3.1v-1.8z" transform="translate(-2.01 -1)"/><path class="cls-1" d="M99.49 62.87h-1.82V46.45h2.08v16.42h-.26z"/><path class="cls-1" d="M53.54 54.47v9.34h-2.06v-9.34a9 9 0 00-.48-2.91 5.71 5.71 0 00-1.31-2.16 4.41 4.41 0 00-.51-.46 5.3 5.3 0 00-.54-.39 6.27 6.27 0 00-3.39-1 6.85 6.85 0 00-2.45.45l-.36.15a5.56 5.56 0 00-1.62 1.15c-.16.17-.32.35-.46.53a4.49 4.49 0 00-.37.59 8 8 0 00-1 4v9.34H37v-9.29a11 11 0 01.59-3.73 8.62 8.62 0 011.79-2.92A7.47 7.47 0 0142 46.05a9.18 9.18 0 016.53 0 7.5 7.5 0 012.6 1.78 9.67 9.67 0 011 1.15c.16.25.31.52.45.79l.12-.24a8.77 8.77 0 011.26-1.71 7.31 7.31 0 012.53-1.76 8.78 8.78 0 013.28-.6 8.65 8.65 0 013.26.6 7.33 7.33 0 012.58 1.78 8 8 0 011.8 2.92 10.65 10.65 0 01.6 3.71v9.34h-2v-9.34a8.71 8.71 0 00-.44-2.91 1.28 1.28 0 00-.15-.4 5.94 5.94 0 00-1.11-1.77 3.64 3.64 0 00-.5-.46c-.18-.14-.36-.27-.55-.39a6.21 6.21 0 00-3.38-1 6.81 6.81 0 00-2.49.44l-.37.15a5.56 5.56 0 00-1.62 1.15 5.74 5.74 0 00-1.4 2.25 8.7 8.7 0 00-.46 2.94zm59.46-6.8a6.72 6.72 0 00-3.53 1 4.14 4.14 0 00-.55.38 5.59 5.59 0 00-.52.45 5.82 5.82 0 00-1.19 1.76 3.25 3.25 0 00-.15.4 8.54 8.54 0 00-.46 2.92v9.33h-2.06v-9.44a10.68 10.68 0 01.62-3.67 8.12 8.12 0 011.87-2.92 7.27 7.27 0 012.64-1.77 9.6 9.6 0 016.68 0 7.38 7.38 0 012.6 1.82 8.4 8.4 0 011.87 2.92 11 11 0 01.6 3.73V64h-2v-9.34a8.79 8.79 0 00-.46-2.92 5.66 5.66 0 00-3-3.32l-.43-.27a6.84 6.84 0 00-2.53-.43z" transform="translate(-2.01 -1)"/><path class="cls-2" d="M141.81 44.41c-3.74-24-29.36-14.73-41.81 0 15.41-10.88 34.35-14 41.81 0z" transform="translate(-2.01 -1)"/><path class="cls-1" d="M132.44 19.16a9.81 9.81 0 00.27-1.87 14.74 14.74 0 00-.34-2.18 4.9 4.9 0 01-.14-2.25 2.46 2.46 0 011.15-1.51 2.16 2.16 0 011.71-.34 2.2 2.2 0 011.39 1.1 2.55 2.55 0 01.2 2 5 5 0 01-1.22 1.86 9.67 9.67 0 00-1.34 1.65 10.58 10.58 0 00-.81 1.86 9.79 9.79 0 001.94-.38 13.25 13.25 0 001.87-1 3.81 3.81 0 012.92-.72 2.27 2.27 0 011.4 1 2 2 0 01.24 1.63 2.16 2.16 0 01-1.22 1.39 3 3 0 01-2.21.13c-.29-.07-.78-.22-1.5-.45l-1.09-.31c-.4-.1-1.32-.32-2.39-.55a10.94 10.94 0 001 1.79 12.25 12.25 0 001.48 1.49 5.1 5.1 0 011.44 1.81 2.28 2.28 0 01-1.33 2.94 2.23 2.23 0 01-1.35.09 2.41 2.41 0 01-1.45-1.19 5 5 0 01-.28-2.91 9.8 9.8 0 00.12-1.87 9.92 9.92 0 00-.42-1.87 11.52 11.52 0 00-1.4 1.48 9.41 9.41 0 00-.86 1.63 5.25 5.25 0 01-1.66 2.39 2.34 2.34 0 01-1.86.28 2.21 2.21 0 01-1.34-1 2 2 0 01-.25-1.57 2.65 2.65 0 011-1.37 5.53 5.53 0 012.12-1 18.8 18.8 0 002.07-.6 14.31 14.31 0 001.76-1l-2.25-.68-1.13-.28c-.84-.17-1.43-.29-1.73-.37a3 3 0 01-1.8-1.2 2.15 2.15 0 01.5-3l.19-.13a2.3 2.3 0 011.86-.28 3.77 3.77 0 012.23 1.95c.35.66.75 1.31 1.17 1.94a9.77 9.77 0 001.44 1.29z" transform="translate(-2.01 -1)"/><path class="cls-2" d="M127.18 26.46a8.31 8.31 0 01-11.66-1.11 8.15 8.15 0 011.07-11.47v-.05a3.31 3.31 0 014.66.45 3.25 3.25 0 01-.41 4.58 4.91 4.91 0 00-.71 6.87 5 5 0 007 .66zM123.65 1a5.6 5.6 0 11-5.6 5.6 5.6 5.6 0 015.6-5.6z" transform="translate(-2.01 -1)"/></svg>