<svg version="1.1" id="Layer_1" xmlns="http://www.w3.org/2000/svg" x="0" y="0" width="136" height="68" xml:space="preserve"><style>.st0{fill:#d13927}.st1,.st2{fill:#f58020}.st2,.st3{fill-rule:evenodd;clip-rule:evenodd}.st3{fill:#d13927}</style><path class="st0" d="M118.3 61h-3.1c-.5 0-.9-.4-.9-1v-7.2h-1.8c-.5 0-.9-.4-.9-1v-3.1c0-.5.4-1 .9-1h1.8v-1.6c0-1.5.5-2.8 1.4-3.8.9-.9 2.1-1.4 3.6-1.4h2.4c.5 0 .9.4.9 1v2.9c0 .5-.4 1-.9 1h-1.6c-.5 0-.6.1-.6.1 0 .1-.1.2-.1.6v1.2h2.2c.2 0 .3 0 .5.1.3.2.5.5.5.8v3.1c0 .5-.4 1-.9 1h-2.2V60c-.3.6-.7 1-1.2 1zm-2.9-1.2h2.7v-7.5c0-.4.3-.6.6-.6h2.5V49h-2.5c-.3 0-.6-.3-.6-.6v-1.7c0-.5 0-1 .4-1.4.4-.5 1-.5 1.5-.5h1.4v-2.5h-2.2c-2.3 0-3.8 1.6-3.8 4v2.1c0 .4-.3.6-.6.6h-2.1v2.7h2.1c.3 0 .6.3.6.6v7.5zm6.2-17.6z"/><path class="st1" d="M118.3 27h-3.1c-.5 0-.9-.4-.9-1v-7.2h-1.8c-.5 0-.9-.4-.9-1v-3.1c0-.5.4-1 .9-1h1.8v-1.6c0-1.5.5-2.8 1.4-3.8.9-.9 2.1-1.4 3.6-1.4h2.4c.5 0 .9.4.9 1v2.9c0 .5-.4 1-.9 1h-1.6c-.5 0-.6.1-.6.1 0 .1-.1.2-.1.6v1.2h2.2c.2 0 .3 0 .5.1.3.2.5.5.5.8v3.1c0 .5-.4 1-.9 1h-2.2V26c-.3.6-.7 1-1.2 1zm-2.9-1.2h2.7v-7.5c0-.4.3-.6.6-.6h2.5V15h-2.5c-.3 0-.6-.3-.6-.6v-1.7c0-.5 0-1 .4-1.4.4-.5 1-.5 1.5-.5h1.4V8.2h-2.2c-2.3 0-3.8 1.6-3.8 4v2.1c0 .4-.3.6-.6.6h-2.1v2.7h2.1c.3 0 .6.3.6.6v7.6zm6.2-17.6z"/><path class="st2" d="M59 27c-1.8-11-14-6.8-20 0 7.4-5 16.4-6.4 20 0z"/><path class="st1" d="M54.5 15.4c.1-.4.1-.7.1-.9 0-.2-.1-.5-.2-1s-.1-.8-.1-1c.1-.3.3-.5.6-.7.3-.2.6-.2.8-.2.3.1.5.2.7.5.2.3.2.6.1.9-.1.3-.3.6-.6.9-.3.3-.5.6-.6.8-.1.2-.2.5-.4.8.4-.1.7-.1.9-.2.2-.1.5-.2.9-.5.5-.3 1-.4 1.4-.3.3.1.5.2.7.5.2.2.2.5.1.7-.1.3-.3.5-.6.6-.3.1-.7.2-1.1.1-.1 0-.4-.1-.7-.2-.2 0-.3-.1-.5-.1-.2-.1-.6-.1-1.1-.3.2.4.4.7.5.8.1.2.4.4.7.7.3.3.6.6.7.8.1.2.1.4 0 .7-.1.3-.2.5-.5.6-.3.1-.5.2-.8.1-.3-.1-.5-.3-.7-.5-.2-.3-.2-.7-.1-1.3.1-.4.1-.7.1-.9 0-.2-.1-.5-.2-.9l-.7.7c-.1.2-.3.4-.4.8-.3.6-.5.9-.8 1.1-.3.2-.6.2-.9.1-.3-.1-.5-.2-.6-.5-.1-.2-.2-.5-.1-.7.1-.3.2-.5.4-.6.2-.2.5-.3 1-.4.5-.1.8-.2 1-.3.2-.1.5-.2.8-.4l-1.1-.3c-.2 0-.4-.1-.5-.1-.4-.1-.7-.1-.8-.2-.4-.1-.7-.3-.9-.5-.2-.3-.2-.5-.2-.8.1-.3.2-.5.5-.6.3-.1.5-.2.8-.1.4.1.8.4 1.1.9.3.5.5.8.6.9.2 0 .4.2.7.5z"/><path class="st2" d="M52 18.7c-1.7 1.3-4.2 1.1-5.6-.5-1.4-1.6-1.1-4 .5-5.3.7-.5 1.7-.4 2.2.2.6.6.5 1.6-.2 2.1-1 .8-1.2 2.2-.3 3.2.9 1 2.4 1.1 3.4.3zM50.3 7C51.8 7 53 8.2 53 9.6c0 1.4-1.2 2.6-2.7 2.6-1.5 0-2.7-1.2-2.7-2.6 0-1.4 1.2-2.6 2.7-2.6z"/><path class="st3" d="M59 61c-1.8-11-14-6.8-20 0 7.4-5 16.4-6.4 20 0z"/><path class="st0" d="M54.5 49.4c.1-.4.1-.7.1-.9 0-.2-.1-.5-.2-1s-.1-.8-.1-1c.1-.3.3-.5.6-.7.3-.2.6-.2.8-.2.3.1.5.2.7.5.2.3.2.6.1.9-.1.3-.3.6-.6.9-.3.3-.5.6-.6.8-.1.2-.2.5-.4.8.4-.1.7-.1.9-.2.2-.1.5-.2.9-.5.5-.3 1-.4 1.4-.3.3.1.5.2.7.5.2.2.2.5.1.7-.1.3-.3.5-.6.6-.3.1-.7.2-1.1.1-.1 0-.4-.1-.7-.2-.2 0-.3-.1-.5-.1-.2-.1-.6-.1-1.1-.3.2.4.4.7.5.8.1.2.4.4.7.7.3.3.6.6.7.8.1.2.1.4 0 .7-.1.3-.2.5-.5.6-.3.1-.5.2-.8.1-.3-.1-.5-.3-.7-.5-.2-.3-.2-.7-.1-1.3.1-.4.1-.7.1-.9 0-.2-.1-.5-.2-.9l-.7.7c-.1.2-.3.4-.4.8-.3.6-.5.9-.8 1.1-.3.2-.6.2-.9.1-.3-.1-.5-.2-.6-.5-.1-.2-.2-.5-.1-.7.1-.3.2-.5.4-.6.2-.2.5-.3 1-.4.5-.1.8-.2 1-.3.2-.1.5-.2.8-.4l-1.1-.3c-.2 0-.4-.1-.5-.1-.4-.1-.7-.1-.8-.2-.4-.1-.7-.3-.9-.5-.2-.3-.2-.5-.2-.8.1-.3.2-.5.5-.6.3-.1.5-.2.8-.1.4.1.8.4 1.1.9.3.5.5.8.6.9.2 0 .4.2.7.5z"/><path class="st3" d="M52 52.7c-1.7 1.3-4.2 1.1-5.6-.5-1.4-1.6-1.1-4 .5-5.3.7-.5 1.7-.4 2.2.2.6.6.5 1.6-.2 2.1-1 .8-1.2 2.2-.3 3.2.9 1 2.4 1.1 3.4.3zM50.3 41c1.5 0 2.7 1.2 2.7 2.6 0 1.4-1.2 2.6-2.7 2.6-1.5 0-2.7-1.2-2.7-2.6 0-1.4 1.2-2.6 2.7-2.6z"/><path class="st1" d="M89.6 7h-9.2c-3 0-5.4 2.4-5.4 5.4v9.2c0 3 2.4 5.4 5.4 5.4h9.2c3 0 5.4-2.4 5.4-5.4v-9.2c0-3-2.4-5.4-5.4-5.4zm4.2 14.6c0 2.3-1.9 4.2-4.2 4.2h-9.2c-2.3 0-4.2-1.9-4.2-4.2v-9.2c0-2.3 1.9-4.2 4.2-4.2h9.2c2.3 0 4.2 1.9 4.2 4.2v9.2z"/><path class="st1" d="M85 11.5c-3 0-5.5 2.5-5.5 5.5s2.5 5.5 5.5 5.5 5.5-2.5 5.5-5.5-2.5-5.5-5.5-5.5zm0 9.8c-2.4 0-4.3-1.9-4.3-4.3s1.9-4.3 4.3-4.3 4.3 1.9 4.3 4.3-1.9 4.3-4.3 4.3zm5.6-11.7c-.9 0-1.6.7-1.6 1.6 0 .9.7 1.6 1.6 1.6s1.6-.7 1.6-1.6-.7-1.6-1.6-1.6zm0 2c-.2 0-.4-.2-.4-.4s.2-.4.4-.4.4.2.4.4-.2.4-.4.4z"/><path class="st0" d="M89.6 41h-9.2c-3 0-5.4 2.4-5.4 5.4v9.2c0 3 2.4 5.4 5.4 5.4h9.2c3 0 5.4-2.4 5.4-5.4v-9.2c0-3-2.4-5.4-5.4-5.4zm4.2 14.6c0 2.3-1.9 4.2-4.2 4.2h-9.2c-2.3 0-4.2-1.9-4.2-4.2v-9.2c0-2.3 1.9-4.2 4.2-4.2h9.2c2.3 0 4.2 1.9 4.2 4.2v9.2z"/><path class="st0" d="M85 45.5c-3 0-5.5 2.5-5.5 5.5s2.5 5.5 5.5 5.5 5.5-2.5 5.5-5.5-2.5-5.5-5.5-5.5zm0 9.8c-2.4 0-4.3-1.9-4.3-4.3s1.9-4.3 4.3-4.3 4.3 1.9 4.3 4.3-1.9 4.3-4.3 4.3zm5.6-11.7c-.9 0-1.6.7-1.6 1.6 0 .9.7 1.6 1.6 1.6s1.6-.7 1.6-1.6-.7-1.6-1.6-1.6zm0 2c-.2 0-.4-.2-.4-.4s.2-.4.4-.4.4.2.4.4-.2.4-.4.4z"/><path class="st1" d="M21.7 27c-.4 0-.8 0-1.2-.1-1.5-.4-3.2-1.4-4.8-3.1l-5.4-5.4c-1.7-1.7-2.7-3.3-3.1-4.8-.5-1.9.1-3.6 1.6-5.1l.9-.9c.3-.4.8-.6 1.3-.6.3 0 .6.1.9.2 1.4.8 2.9 3.3 3 3.4.3.5.4 1 .2 1.4-.1.3-.3.6-.6.8-.5.4-1 .8-1 .9-.6.8-.5 1.5.2 2.2l4.2 4.2.2.2c.4.3.6.4.9.4.3 0 .6-.1 1-.4.1-.1.5-.5.9-1 .2-.3.4-.5.8-.6.1 0 .3-.1.4-.1.3 0 .7.1 1 .3.3.2 2.7 1.6 3.4 3 .4.7.3 1.6-.3 2.2l-.9.9c-1 1.4-2.3 2-3.6 2zM11 7.9c-.3 0-.5.1-.7.3l-.9 1c-1.3 1.3-1.7 2.6-1.4 4.2.3 1.4 1.3 2.8 2.8 4.4l5.4 5.4c1.6 1.6 3 2.5 4.4 2.8.3.1.7.1 1 .1 1.1 0 2.2-.5 3.2-1.5l.9-.9c.3-.3.4-.8.2-1.1-.6-1.2-3.1-2.6-3.1-2.6-.2-.1-.4-.2-.6-.2h-.1c-.1 0-.2.1-.2.2-.4.5-1 1.1-1.2 1.3l-.6.3c.5.2 1 .3 1.6.4.1 0 .2.1.3.2.1.1.1.2.1.3 0 .2-.2.4-.5.4-2.6-.3-4.3-1.9-4.4-2l-4-4c-.1-.1-2.1-1.8-2.4-4.4 0-.3.2-.5.4-.5.3 0 .5.2.5.4.1.6.2 1.2.5 1.7.1-.3.2-.6.4-.8.2-.2.8-.8 1.2-1.1.2-.1.2-.2.3-.3.1-.2 0-.5-.2-.7.2-.2-1.3-2.5-2.4-3.2-.1 0-.3-.1-.5-.1z"/><path class="st1" d="M26.8 22.2c-.7-1.4-3.3-2.9-3.4-3-.5-.3-1-.4-1.4-.2-.3.1-.6.3-.7.6-.4.5-.8 1-1 1.1-.8.5-1.4.5-2 0h-.1c-.1-.1-.2-.1-.3-.2l-4.3-4.3c-.8-.8-.8-1.5-.2-2.3.1-.1.6-.6 1.1-1 .3-.2.5-.4.6-.7.1-.4 0-.9-.2-1.4-.1-.1-1.6-2.7-3-3.4-.8-.6-1.6-.4-2.2.1l-1 1c-1.5 1.5-2 3.2-1.6 5 .4 1.5 1.4 3.2 3.1 4.8l5.5 5.5c1.7 1.7 3.3 2.7 4.8 3.1.4.1.8.1 1.2.1 1.4 0 2.7-.6 3.8-1.7l.9-.9c.6-.7.8-1.5.4-2.2zm-.9 1.6l-.9.9c-1.3 1.3-2.7 1.8-4.3 1.4-1.4-.3-2.9-1.3-4.5-2.9l-5.5-5.5c-1.6-1.6-2.6-3.1-2.9-4.5-.3-1.5.2-2.9 1.5-4.2l.9-.9c.2-.2.5-.3.8-.3.2 0 .3 0 .5.1 1.2.6 2.7 3.1 2.7 3.2.2.3.2.6.2.8 0 .1-.1.2-.3.3H14c-.3.3-1.1.9-1.2 1.1-.2.4-.4.7-.5 1.1-.3-.6-.6-1.2-.7-2 0-.2-.2-.3-.4-.3s-.4.2-.3.4c.3 2.6 2.3 4.3 2.4 4.3l4 4c.1.1 1.7 1.7 4.3 2 .2 0 .3-.1.4-.3 0-.2-.1-.4-.3-.4-.7-.1-1.3-.3-1.8-.5.3-.1.5-.2.8-.4.2-.2.9-.9 1.1-1.2v-.1l.3-.3c.2-.1.5 0 .8.2 0 0 2.5 1.5 3.2 2.7.3.4.2 1-.2 1.3z"/><path class="st1" d="M18.1 16.4h-.2c-.1 0-.2-.1-.3-.3v-4.6c0-.3.2-.5.5-.5s.5.2.5.5v3.3l5.5-5.5c.1-.1.2-.1.3-.1s.2 0 .3.1c.2.2.2.5 0 .7l-5.5 5.5h3.3c.3 0 .5.2.5.5s-.2.5-.5.5h-4.4z"/><path class="st1" d="M18 16.2h4.5c.2 0 .4-.2.4-.4s-.2-.4-.4-.4H19l5.7-5.7c.1-.1.1-.4 0-.5s-.4-.1-.5 0L18.5 15v-3.6c0-.2-.2-.4-.4-.4s-.4.2-.4.4v4.5c.1.2.2.3.3.3z"/><path class="st0" d="M21.7 61c-.4 0-.8 0-1.2-.1-1.5-.4-3.2-1.4-4.8-3.1l-5.4-5.4c-1.7-1.7-2.7-3.3-3.1-4.8-.4-1.9.1-3.6 1.6-5.1l.9-.9c.3-.4.8-.6 1.3-.6.3 0 .6.1.9.2 1.4.8 2.9 3.3 3 3.4.3.5.4 1 .2 1.4-.1.3-.3.6-.6.8-.5.4-1 .8-1 .9-.6.8-.5 1.5.2 2.2l4.2 4.2.2.2c.4.3.6.4.9.4.3 0 .6-.1 1-.4.1-.1.5-.5.9-1 .2-.3.4-.5.8-.6.1 0 .3-.1.4-.1.3 0 .7.1 1 .3.3.2 2.7 1.6 3.4 3 .4.7.3 1.6-.3 2.2l-.9.9c-1 1.4-2.3 2-3.6 2zM11 41.9c-.3 0-.5.1-.7.3l-.9.9c-1.3 1.3-1.7 2.6-1.4 4.2.3 1.4 1.3 2.8 2.8 4.4l5.4 5.4c1.6 1.6 3 2.5 4.4 2.8.3.1.7.1 1 .1 1.1 0 2.2-.5 3.2-1.5l.9-.9c.3-.3.4-.8.2-1.1-.6-1.2-3.1-2.6-3.1-2.6-.2-.1-.4-.2-.6-.2h-.1c-.1 0-.2.1-.2.2-.4.5-1 1.1-1.2 1.3l-.6.3c.5.2 1 .3 1.6.4.1 0 .2.1.3.2.1.1.1.2.1.3 0 .2-.2.4-.5.4-2.6-.3-4.3-1.9-4.4-2l-4-4c-.1-.1-2.1-1.8-2.4-4.4 0-.3.2-.5.4-.5.3 0 .5.2.5.4.1.6.2 1.2.5 1.7.1-.3.2-.6.4-.8.2-.2.8-.8 1.2-1.1.2-.1.2-.2.3-.3.1-.2 0-.5-.2-.7-.1-.1-1.5-2.5-2.6-3.1.1 0-.1-.1-.3-.1z"/><path class="st0" d="M26.8 56.2c-.7-1.4-3.3-2.9-3.4-3-.5-.3-1-.4-1.4-.2-.3.1-.6.3-.7.6-.4.5-.8 1-1 1.1-.8.5-1.4.5-2 0h-.1c-.1-.1-.2-.1-.3-.2l-4.3-4.3c-.8-.8-.8-1.5-.2-2.3.1-.1.6-.6 1.1-1 .3-.2.5-.4.6-.7.1-.4 0-.9-.2-1.4-.1-.1-1.6-2.7-3-3.4-.7-.4-1.6-.2-2.1.3l-.9.9c-1.5 1.5-2 3.2-1.6 5 .4 1.5 1.4 3.2 3.1 4.8l5.5 5.5c1.7 1.7 3.3 2.7 4.8 3.1.4.1.8.1 1.2.1 1.4 0 2.7-.6 3.8-1.7l.9-.9c.4-.8.6-1.6.2-2.3zm-.9 1.6l-.9.9c-1.3 1.3-2.7 1.8-4.3 1.4-1.4-.3-2.9-1.3-4.5-2.9l-5.5-5.5c-1.6-1.6-2.6-3.1-2.9-4.5-.4-1.6.1-3 1.4-4.3l.9-.9c.2-.2.5-.3.8-.3.2 0 .3 0 .5.1 1.2.6 2.7 3.1 2.7 3.2.2.3.2.6.2.8 0 .1-.1.2-.3.3h-.1c-.3.3-1.1.9-1.2 1.1-.2.4-.4.7-.5 1.1-.3-.6-.6-1.2-.7-2 0-.2-.2-.3-.4-.3s-.4.2-.3.4c.3 2.6 2.3 4.3 2.4 4.3l4 4c.1.1 1.7 1.7 4.3 2 .2 0 .3-.1.4-.3 0-.2-.1-.4-.3-.4-.7-.1-1.3-.3-1.8-.5.3-.1.5-.2.8-.4.2-.2.9-.9 1.1-1.2v-.1l.3-.3c.2-.1.5 0 .8.2 0 0 2.5 1.5 3.2 2.7.4.5.3 1.1-.1 1.4z"/><path class="st0" d="M18.1 50.4h-.2c-.1 0-.2-.1-.3-.3v-4.6c0-.3.2-.5.5-.5s.5.2.5.5v3.3l5.5-5.5c.1-.1.2-.1.3-.1s.2 0 .3.1c.2.2.2.5 0 .7l-5.5 5.5h3.3c.3 0 .5.2.5.5s-.2.5-.5.5h-4.4z"/><path class="st0" d="M18 50.2h4.5c.2 0 .4-.2.4-.4s-.2-.4-.4-.4H19l5.7-5.7c.1-.1.1-.4 0-.5s-.4-.1-.5 0L18.5 49v-3.6c0-.2-.2-.4-.4-.4s-.4.2-.4.4v4.5c.1.2.2.3.3.3z"/></svg>